<?xml version="1.0" encoding="UTF-8"?>
<!DOCTYPE svg PUBLIC "-//W3C//DTD SVG 1.1//EN" "http://www.w3.org/Graphics/SVG/1.1/DTD/svg11.dtd">
<svg version="1.1" xmlns="http://www.w3.org/2000/svg" xmlns:xlink="http://www.w3.org/1999/xlink" x="0" y="0" width="260" height="142" viewBox="0, 0, 260, 142">
  <g id="Layer_1" transform="translate(-96, -173.5)">
    <g>
      <path d="M122,315 C108.469,315 97.5,283.66 97.5,245 C97.5,206.34 108.469,175 122,175 C135.531,175 146.5,206.34 146.5,245 C146.5,283.66 135.531,315 122,315 z" fill="#000000" fill-opacity="0.17"/>
      <path d="M122,315 C108.469,315 97.5,283.66 97.5,245 C97.5,206.34 108.469,175 122,175 C135.531,175 146.5,206.34 146.5,245 C146.5,283.66 135.531,315 122,315 z" fill-opacity="0" stroke="#000000" stroke-width="1"/>
    </g>
    <g>
      <path d="M338.5,219.915 L355.5,237.085 L355.5,272.085 L338.5,254.915 L338.5,219.915 z" fill="#D4D4D4"/>
      <path d="M338.5,219.915 L355.5,237.085 L355.5,272.085 L338.5,254.915 L338.5,219.915 z" fill-opacity="0" stroke="#000000" stroke-width="1"/>
    </g>
    <g>
      <path d="M341.703,245.5 L341.703,239.219" fill-opacity="0" stroke="#000000" stroke-width="1"/>
      <path d="M341.703,239.219 L346.571,239.219" fill-opacity="0" stroke="#000000" stroke-width="1" stroke-linecap="square"/>
    </g>
    <g>
      <path d="M127.586,244.647 L127.586,236.795" fill-opacity="0" stroke="#000000" stroke-width="1" stroke-linecap="square"/>
      <path d="M127.586,236.795 L121.5,236.795" fill-opacity="0" stroke="#000000" stroke-width="1" stroke-linecap="square"/>
    </g>
    <path d="M121.5,245.5 L121.5,175" fill-opacity="0" stroke="#000000" stroke-width="1"/>
    <path d="M126.26,203.913 L126.26,204.569 L127.487,204.673 L127.676,204.915 L125.829,214.516 L125.553,214.759 L124.446,214.845 L124.446,215.501 L128.66,215.501 L128.66,214.845 L127.539,214.759 L127.331,214.516 L128.143,210.371 C128.506,210.354 128.817,210.337 129.093,210.337 C129.559,210.337 129.887,210.371 130.095,210.476 C130.975,210.873 131.079,211.563 131.303,212.565 C131.562,213.74 131.718,214.637 132.339,215.155 C132.667,215.432 133.203,215.587 133.928,215.587 C134.204,215.587 134.601,215.552 135.137,215.484 L135.137,214.845 C135.085,214.845 135.034,214.845 134.981,214.845 C133.651,214.845 133.323,214.413 132.96,213.101 C132.495,211.477 132.356,210.354 130.837,210.026 C133.048,209.543 134.273,208.196 134.273,206.434 C134.273,204.655 133.082,203.913 130.629,203.913 L126.26,203.913 z M128.298,209.543 L129.231,204.724 C129.49,204.707 129.732,204.69 129.956,204.69 C131.77,204.69 132.632,205.312 132.632,206.693 C132.632,208.473 131.337,209.56 128.937,209.56 C128.729,209.56 128.523,209.56 128.298,209.543" fill="#000000" id="Layer_1"/>
    <path d="M121.5,245.5 L346.571,245.5" fill-opacity="0" stroke="#000000" stroke-width="1" stroke-linecap="square"/>
    <path d="M236.351,255.701 L236.023,256.548 C235.832,256.634 235.659,256.685 235.504,256.685 C235.142,256.685 234.779,256.513 234.329,256.288 C233.863,256.046 233.432,255.823 232.913,255.823 C231.723,255.823 230.582,257.031 230.582,258.24 C230.582,258.879 230.91,259.259 231.395,259.259 C231.74,259.259 231.998,259.07 232.206,258.706 L231.29,257.601 C231.549,257.238 231.929,257.048 232.378,257.048 C232.742,257.048 233.259,257.221 233.898,257.549 L235.607,257.17 L229.667,263.835 L230.617,264.354 L231.031,263.61 C231.221,263.507 231.395,263.456 231.584,263.456 C232.413,263.456 233.293,264.198 234.277,264.198 C235.538,264.198 236.679,262.971 236.679,261.781 C236.679,261.159 236.315,260.745 235.832,260.745 C235.538,260.745 235.245,260.951 235.003,261.367 L235.952,262.42 C235.678,262.834 235.313,263.042 234.882,263.042 C234.554,263.042 233.967,262.851 233.121,262.471 L231.446,262.902 L237.404,256.254 L236.351,255.701" fill="#000000" id="Layer_1"/>
  </g>
</svg>
