<?xml version="1.0" encoding="UTF-8"?>
<!DOCTYPE svg PUBLIC "-//W3C//DTD SVG 1.1//EN" "http://www.w3.org/Graphics/SVG/1.1/DTD/svg11.dtd">
<svg version="1.1" xmlns="http://www.w3.org/2000/svg" xmlns:xlink="http://www.w3.org/1999/xlink" x="0" y="0" width="469.204" height="474.596" viewBox="0, 0, 469.204, 474.596">
  <g id="Layer_1" transform="translate(-66.56, -9.662)">
    <g>
      <path d="M356.059,438.413 C356.059,463.456 298.053,483.758 226.5,483.758 C154.947,483.758 96.941,463.456 96.941,438.413 C96.941,413.369 154.947,393.067 226.5,393.067 C298.053,393.067 356.059,413.369 356.059,438.413 z" fill="#000000" fill-opacity="0.17"/>
      <path d="M356.059,438.413 C356.059,463.456 298.053,483.758 226.5,483.758 C154.947,483.758 96.941,463.456 96.941,438.413 C96.941,413.369 154.947,393.067 226.5,393.067 C298.053,393.067 356.059,413.369 356.059,438.413 z" fill-opacity="0" stroke="#000000" stroke-width="1"/>
    </g>
    <path d="M320.628,438.413 C320.628,456.25 279.314,470.71 228.351,470.71 C177.388,470.71 136.074,456.25 136.074,438.413 C136.074,420.576 177.388,406.116 228.351,406.116 C279.314,406.116 320.628,420.576 320.628,438.413 z" fill-opacity="0" stroke="#000000" stroke-width="0.5"/>
    <path d="M331.067,438.413 C331.067,458.268 285.079,474.363 228.351,474.363 C171.622,474.363 125.635,458.268 125.635,438.413 C125.635,418.558 171.622,402.462 228.351,402.462 C285.079,402.462 331.067,418.558 331.067,438.413 z" fill-opacity="0" stroke="#000000" stroke-width="0.5"/>
    <g>
      <path d="M195.172,32.785 L217.011,11.162 L261.53,11.162 L239.69,32.785 L195.172,32.785 z" fill="#D4D4D4"/>
      <path d="M195.172,32.785 L217.011,11.162 L261.53,11.162 L239.69,32.785 L195.172,32.785 z" fill-opacity="0" stroke="#000000" stroke-width="1"/>
    </g>
    <g>
      <path d="M225.846,428.075 L211.313,428.075" fill-opacity="0" stroke="#000000" stroke-width="1" stroke-linecap="square"/>
      <path d="M211.313,428.075 L211.313,439.338" fill-opacity="0" stroke="#000000" stroke-width="1" stroke-linecap="square"/>
    </g>
    <path d="M227.425,439.338 L96.941,439.338" fill-opacity="0" stroke="#000000" stroke-width="1"/>
    <path d="M109.973,442.631 L109.973,443.288 L111.2,443.391 L111.389,443.633 L109.542,453.234 L109.265,453.477 L108.159,453.563 L108.159,454.219 L112.373,454.219 L112.373,453.563 L111.251,453.477 L111.044,453.234 L111.856,449.089 C112.219,449.072 112.529,449.055 112.806,449.055 C113.272,449.055 113.6,449.089 113.808,449.194 C114.687,449.591 114.792,450.281 115.015,451.283 C115.275,452.458 115.431,453.355 116.051,453.874 C116.379,454.15 116.915,454.305 117.64,454.305 C117.917,454.305 118.314,454.27 118.85,454.202 L118.85,453.563 C118.798,453.563 118.747,453.563 118.694,453.563 C117.364,453.563 117.036,453.131 116.673,451.819 C116.208,450.195 116.069,449.072 114.55,448.744 C116.761,448.261 117.986,446.914 117.986,445.152 C117.986,443.374 116.795,442.631 114.342,442.631 L109.973,442.631 z M112.011,448.261 L112.944,443.442 C113.203,443.425 113.445,443.408 113.669,443.408 C115.483,443.408 116.345,444.03 116.345,445.411 C116.345,447.191 115.05,448.278 112.65,448.278 C112.442,448.278 112.236,448.278 112.011,448.261" fill="#000000" id="Layer_1"/>
    <path d="M227.425,439.338 L227.425,22.769" fill-opacity="0" stroke="#000000" stroke-width="1" stroke-linecap="square"/>
    <path d="M227.425,22.769 L292.095,412.878" fill-opacity="0" stroke="#000000" stroke-width="1"/>
    <g>
      <path d="M292.095,412.878 L292.095,358.694" fill-opacity="0" stroke="#000000" stroke-width="1"/>
      <path d="M295.095,358.694 L292.095,350.694 L289.095,358.694 z" fill="#000000" fill-opacity="1" stroke="#000000" stroke-width="1" stroke-opacity="1"/>
    </g>
    <path d="M218.343,232.638 L218.015,233.485 C217.824,233.571 217.651,233.622 217.496,233.622 C217.134,233.622 216.771,233.451 216.321,233.226 C215.856,232.983 215.424,232.76 214.906,232.76 C213.715,232.76 212.574,233.968 212.574,235.177 C212.574,235.816 212.902,236.196 213.387,236.196 C213.732,236.196 213.99,236.007 214.198,235.643 L213.282,234.538 C213.542,234.176 213.921,233.985 214.37,233.985 C214.734,233.985 215.251,234.158 215.89,234.487 L217.599,234.107 L211.659,240.772 L212.609,241.291 L213.023,240.547 C213.213,240.444 213.387,240.393 213.576,240.393 C214.406,240.393 215.285,241.135 216.27,241.135 C217.531,241.135 218.671,239.908 218.671,238.718 C218.671,238.096 218.307,237.682 217.824,237.682 C217.531,237.682 217.237,237.888 216.995,238.304 L217.945,239.357 C217.67,239.771 217.306,239.979 216.874,239.979 C216.546,239.979 215.959,239.788 215.113,239.408 L213.438,239.84 L219.396,233.191 L218.343,232.638" fill="#000000" id="Layer_1"/>
    <path d="M227.425,439.338 L287.065,408.917" fill-opacity="0" stroke="#000000" stroke-width="0.5"/>
    <path d="M227.426,439.338 L303.422,413.858" fill-opacity="0" stroke="#000000" stroke-width="0.5"/>
    <path d="M286.565,408.417 L280.62,411.19 L295.57,415.978 L302.922,413.269 L286.565,408.417 z" fill="#000000" fill-opacity="0.378"/>
    <path d="M227.425,439.338 L320.401,439.338" fill-opacity="0" stroke="#000000" stroke-width="0.5"/>
    <path d="M270.165,446.551 C269.648,449.21 269.044,451.87 268.336,454.512 L270.408,454.512 L271.115,449.073 C271.34,450.177 272.256,450.902 273.429,450.902 C275.848,450.902 277.903,449.09 278.386,446.551 C278.456,446.24 278.49,445.929 278.49,445.635 C278.49,443.72 277.178,442.424 275.087,442.424 C272.67,442.424 270.633,444.134 270.165,446.551 z M274.759,443.098 C276.176,443.098 277.004,444.082 277.004,445.671 C277.004,446.016 276.97,446.379 276.884,446.759 C276.487,448.831 275.104,450.177 273.378,450.177 C272.222,450.177 271.565,449.227 271.565,447.691 C271.565,447.276 271.617,446.827 271.703,446.345 C272.083,444.376 273.292,443.098 274.759,443.098" fill="#000000" id="Layer_1"/>
    <path d="M290.382,439.338 C290.382,439.338 291.731,434.146 282.67,428.075 C275.293,423.132 274.188,423.543 274.188,423.543" fill-opacity="0" stroke="#000000" stroke-width="0.5"/>
    <path d="M297.697,432.604 L296.903,436.248 L298.387,436.248 L299.009,432.604 C301.686,432.363 303.811,430.688 304.242,428.392 C304.294,428.132 304.328,427.856 304.328,427.613 C304.328,425.679 302.826,424.332 300.459,424.177 L301.203,419.773 L300.476,419.773 L299.528,424.177 C296.764,424.349 294.555,426.06 294.087,428.392 C294.036,428.667 294.019,428.943 294.019,429.185 C294.019,431.068 295.434,432.398 297.697,432.604 z M299.147,431.828 L300.322,424.954 C301.911,425.127 302.844,426.163 302.844,427.718 C302.844,427.993 302.809,428.287 302.739,428.598 C302.411,430.378 301.012,431.585 299.147,431.828 z M299.355,424.954 L297.87,431.81 C296.367,431.603 295.503,430.584 295.503,429.082 C295.503,428.806 295.537,428.512 295.59,428.201 C295.953,426.37 297.403,425.127 299.355,424.954" fill="#000000" id="Layer_1"/>
    <g id="Layer_1">
      <path d="M363.399,265.314 L360.757,265.815 L360.757,266.298 L362.276,266.471 L361.673,269.924 C361.206,269.718 360.757,269.632 360.29,269.632 C358.857,269.632 357.337,270.495 356.406,271.964 C355.853,272.843 355.559,273.915 355.559,275.088 C355.559,277.057 356.44,278.179 357.821,278.179 C358.737,278.179 359.67,277.645 360.515,276.574 C360.498,276.695 360.498,276.815 360.498,276.92 C360.498,277.765 360.86,278.145 361.656,278.145 C362.104,278.145 362.829,277.99 363.779,277.645 L363.779,277.126 C363.26,277.248 362.881,277.317 362.657,277.317 C362.138,277.317 361.896,277.074 361.896,276.592 C361.896,276.367 361.931,276.038 362.001,275.659 L363.848,265.314 L363.399,265.314 z M360.601,270.357 L361.431,271.342 L360.654,275.728 C359.876,276.712 359.082,277.195 358.443,277.195 C357.545,277.195 356.957,276.435 356.957,275.071 C356.957,272.187 358.632,270.306 360.187,270.306 C360.309,270.306 360.446,270.34 360.601,270.357" fill="#000000"/>
      <path d="M371.454,266.334 L365.082,277.265 L364.132,277.368 L364.132,278.024 L367.551,278.024 L367.551,277.368 L366.498,277.282 L366.36,277.04 L368.207,273.742 L372.404,273.742 L372.94,277.04 L372.818,277.282 L371.799,277.368 L371.799,278.024 L375.582,278.024 L375.582,277.368 L374.735,277.282 L374.442,276.971 L372.595,266.334 L371.454,266.334 z M371.454,268.026 L372.248,272.999 L368.64,272.999 L371.454,268.026 z" fill="#000000"/>
      <path d="M379.107,277.47 C379.554,277.445 379.809,277.192 379.809,276.854 C379.809,276.431 379.373,276.106 378.685,276.106 C377.526,276.106 376.609,276.938 376.609,277.928 C376.609,278.604 377.068,278.931 377.756,279.449 C378.262,279.835 378.588,280.113 378.588,280.573 C378.588,281.212 378.178,281.598 377.49,281.598 C377.115,281.598 376.813,281.454 376.621,281.176 L376.838,280.573 C376.645,280.428 376.488,280.356 376.318,280.356 C375.945,280.356 375.692,280.596 375.692,280.971 C375.692,281.598 376.282,282.034 377.296,282.034 C378.613,282.034 379.506,281.224 379.506,280.174 C379.506,279.449 379.012,279.135 378.287,278.581 C377.72,278.145 377.381,277.892 377.381,277.457 C377.381,276.987 377.743,276.648 378.226,276.648 C378.359,276.648 378.481,276.685 378.601,276.77 L379.107,277.47" fill="#000000"/>
      <path d="M386.463,271.704 L398.068,271.704 L398.068,270.668 L386.463,270.668 L386.463,271.704 z M386.463,275.434 L398.068,275.434 L398.068,274.398 L386.463,274.398 L386.463,275.434" fill="#000000"/>
      <path d="M405.237,273.828 C404.72,276.487 404.115,279.146 403.407,281.788 L405.479,281.788 L406.187,276.349 C406.412,277.454 407.328,278.179 408.501,278.179 C410.92,278.179 412.974,276.367 413.457,273.828 C413.528,273.517 413.562,273.206 413.562,272.912 C413.562,270.996 412.249,269.701 410.159,269.701 C407.742,269.701 405.704,271.41 405.237,273.828 z M409.831,270.374 C411.248,270.374 412.076,271.359 412.076,272.948 C412.076,273.293 412.042,273.656 411.956,274.035 C411.559,276.107 410.176,277.454 408.449,277.454 C407.293,277.454 406.637,276.504 406.637,274.968 C406.637,274.553 406.688,274.104 406.774,273.621 C407.154,271.652 408.363,270.374 409.831,270.374" fill="#000000"/>
      <path d="M424.099,265.314 L421.457,265.815 L421.457,266.298 L422.976,266.471 L422.373,269.924 C421.906,269.718 421.457,269.632 420.99,269.632 C419.557,269.632 418.037,270.495 417.106,271.964 C416.553,272.843 416.259,273.915 416.259,275.088 C416.259,277.057 417.14,278.179 418.521,278.179 C419.437,278.179 420.37,277.645 421.215,276.574 C421.198,276.695 421.198,276.815 421.198,276.92 C421.198,277.765 421.56,278.145 422.356,278.145 C422.804,278.145 423.529,277.99 424.479,277.645 L424.479,277.126 C423.96,277.248 423.581,277.317 423.357,277.317 C422.838,277.317 422.596,277.074 422.596,276.592 C422.596,276.367 422.631,276.038 422.701,275.659 L424.548,265.314 L424.099,265.314 z M421.301,270.357 L422.131,271.342 L421.354,275.728 C420.576,276.712 419.782,277.195 419.143,277.195 C418.245,277.195 417.657,276.435 417.657,275.071 C417.657,272.187 419.332,270.306 420.887,270.306 C421.009,270.306 421.146,270.34 421.301,270.357" fill="#000000"/>
      <path d="M428.337,273.828 C427.82,276.487 427.215,279.146 426.507,281.788 L428.579,281.788 L429.287,276.349 C429.512,277.454 430.428,278.179 431.601,278.179 C434.02,278.179 436.074,276.367 436.557,273.828 C436.628,273.517 436.662,273.206 436.662,272.912 C436.662,270.996 435.349,269.701 433.259,269.701 C430.842,269.701 428.804,271.41 428.337,273.828 z M432.931,270.374 C434.348,270.374 435.176,271.359 435.176,272.948 C435.176,273.293 435.142,273.656 435.056,274.035 C434.659,276.107 433.276,277.454 431.549,277.454 C430.393,277.454 429.737,276.504 429.737,274.968 C429.737,274.553 429.788,274.104 429.874,273.621 C430.254,271.652 431.463,270.374 432.931,270.374" fill="#000000"/>
      <path d="M447.199,265.314 L444.557,265.815 L444.557,266.298 L446.076,266.471 L445.473,269.924 C445.006,269.718 444.557,269.632 444.09,269.632 C442.657,269.632 441.137,270.495 440.206,271.964 C439.653,272.843 439.359,273.915 439.359,275.088 C439.359,277.057 440.24,278.179 441.621,278.179 C442.537,278.179 443.47,277.645 444.315,276.574 C444.298,276.695 444.298,276.815 444.298,276.92 C444.298,277.765 444.66,278.145 445.456,278.145 C445.904,278.145 446.629,277.99 447.579,277.645 L447.579,277.126 C447.06,277.248 446.681,277.317 446.457,277.317 C445.938,277.317 445.696,277.074 445.696,276.592 C445.696,276.367 445.731,276.038 445.801,275.659 L447.648,265.314 L447.199,265.314 z M444.401,270.357 L445.231,271.342 L444.454,275.728 C443.676,276.712 442.882,277.195 442.243,277.195 C441.345,277.195 440.757,276.435 440.757,275.071 C440.757,272.187 442.432,270.306 443.987,270.306 C444.109,270.306 444.246,270.34 444.401,270.357" fill="#000000"/>
      <path d="M454.253,278.145 L453.459,281.788 L454.943,281.788 L455.565,278.145 C458.241,277.904 460.366,276.229 460.798,273.932 C460.849,273.673 460.884,273.396 460.884,273.154 C460.884,271.22 459.382,269.873 457.015,269.718 L457.759,265.314 L457.032,265.314 L456.084,269.718 C453.32,269.89 451.11,271.601 450.643,273.932 C450.592,274.207 450.574,274.484 450.574,274.726 C450.574,276.609 451.99,277.938 454.253,278.145 z M455.702,277.368 L456.877,270.495 C458.466,270.668 459.399,271.704 459.399,273.259 C459.399,273.534 459.365,273.828 459.294,274.138 C458.966,275.918 457.568,277.126 455.702,277.368 z M455.91,270.495 L454.426,277.351 C452.923,277.143 452.059,276.124 452.059,274.623 C452.059,274.346 452.093,274.053 452.146,273.742 C452.509,271.91 453.959,270.668 455.91,270.495" fill="#000000"/>
    </g>
    <g>
      <path d="M294.028,408.817 C316.351,364.173 367.363,332.374 367.363,292.184" fill-opacity="0" stroke="#000000" stroke-width="0.5" stroke-linecap="round" stroke-linejoin="round"/>
      <path d="M292.673,408.173 L292.309,412.429 L295.382,409.462 z" fill="#000000" fill-opacity="1" stroke="#000000" stroke-width="0.5" stroke-opacity="1"/>
    </g>
    <path d="M300.442,359.392 C298.18,359.392 296.039,362.103 295.312,365.903 C295.158,366.696 295.072,367.456 295.072,368.148 C295.072,370.72 296.125,372.412 297.903,372.412 C300.165,372.412 302.308,369.701 303.05,365.903 C303.205,365.107 303.275,364.348 303.275,363.657 C303.275,361.084 302.22,359.392 300.442,359.392 z M296.85,365.506 C297.489,362.207 298.853,360.065 300.305,360.065 C301.358,360.065 301.928,361.17 301.928,363.018 C301.928,363.743 301.84,364.573 301.669,365.506 L296.85,365.506 z M296.695,366.3 L301.512,366.3 C300.873,369.598 299.492,371.739 298.042,371.739 C296.989,371.739 296.419,370.634 296.419,368.786 C296.419,368.061 296.505,367.232 296.695,366.3" fill="#000000" id="Layer_1"/>
    <path d="M242.068,114.778 C237.225,115.549 232.329,115.936 227.425,115.936" fill-opacity="0" stroke="#000000" stroke-width="1"/>
    <path d="M236.659,122.744 C234.396,122.744 232.256,125.455 231.529,129.255 C231.375,130.049 231.289,130.808 231.289,131.5 C231.289,134.072 232.342,135.764 234.12,135.764 C236.382,135.764 238.525,133.054 239.267,129.255 C239.421,128.46 239.492,127.7 239.492,127.01 C239.492,124.436 238.437,122.744 236.659,122.744 z M233.067,128.858 C233.706,125.56 235.07,123.418 236.521,123.418 C237.575,123.418 238.145,124.522 238.145,126.371 C238.145,127.096 238.057,127.925 237.885,128.858 L233.067,128.858 z M232.912,129.652 L237.729,129.652 C237.09,132.95 235.709,135.091 234.259,135.091 C233.206,135.091 232.635,133.986 232.635,132.138 C232.635,131.413 232.721,130.585 232.912,129.652" fill="#000000" id="Layer_1"/>
    <path d="M284.314,366.728 C286.885,366.294 289.488,366.076 292.095,366.076" fill-opacity="0" stroke="#000000" stroke-width="1"/>
    <g id="Layer_1">
      <path d="M271.051,226.527 L268.496,227.096 L268.496,227.528 L269.912,227.788 L268.477,234.85 L269.929,234.85 L270.637,230.792 C270.913,229.203 271.466,228.271 273.158,227.614 L273.607,228.547 C273.641,228.547 273.676,228.547 273.727,228.547 C274.437,228.547 274.885,228.08 274.885,227.424 C274.885,226.906 274.505,226.527 273.918,226.527 C273.054,226.527 271.949,227.321 270.844,228.892 L271.396,226.527 L271.051,226.527" fill="#000000"/>
      <path d="M278.826,228.264 L277.499,230.558 L278.162,230.558 L279.213,228.856 L280.276,230.558 L280.927,230.558 L279.599,228.264 L278.826,228.264" fill="#000000"/>
      <path d="M277.862,239.45 L278.115,239.45 C278.115,237.555 276.715,235.936 276.715,234.053 C276.715,232.689 277.691,231.808 279.19,231.808 C280.687,231.808 281.665,232.689 281.665,234.053 C281.665,235.936 280.263,237.555 280.263,239.45 L283.04,239.45 L283.04,237.483 L282.413,237.483 L282.243,238.521 L282.183,238.581 L280.904,238.581 C281.362,237.011 282.907,235.757 282.907,234.053 C282.907,232.363 281.362,231.156 279.19,231.156 C277.016,231.156 275.471,232.363 275.471,234.053 C275.471,235.757 277.016,237.011 277.474,238.581 L276.194,238.581 L276.135,238.521 L275.966,237.483 L275.338,237.483 L275.338,239.45 L277.862,239.45" fill="#000000"/>
      <path d="M289.462,228.53 L301.066,228.53 L301.066,227.494 L289.462,227.494 L289.462,228.53 z M289.462,232.26 L301.066,232.26 L301.066,231.224 L289.462,231.224 L289.462,232.26" fill="#000000"/>
      <path d="M312.537,226.388 L312.208,227.235 C312.018,227.321 311.844,227.372 311.69,227.372 C311.327,227.372 310.965,227.2 310.515,226.975 C310.049,226.733 309.618,226.51 309.099,226.51 C307.908,226.51 306.768,227.717 306.768,228.927 C306.768,229.566 307.096,229.946 307.58,229.946 C307.926,229.946 308.183,229.757 308.391,229.392 L307.476,228.288 C307.735,227.925 308.115,227.735 308.563,227.735 C308.927,227.735 309.444,227.908 310.083,228.236 L311.793,227.856 L305.852,234.522 L306.802,235.041 L307.216,234.297 C307.407,234.194 307.58,234.142 307.769,234.142 C308.599,234.142 309.479,234.885 310.463,234.885 C311.724,234.885 312.865,233.658 312.865,232.467 C312.865,231.846 312.501,231.431 312.018,231.431 C311.724,231.431 311.43,231.638 311.188,232.053 L312.138,233.106 C311.863,233.521 311.499,233.728 311.068,233.728 C310.74,233.728 310.152,233.538 309.307,233.158 L307.632,233.589 L313.59,226.941 L312.537,226.388" fill="#000000"/>
      <path d="M322.23,221.656 L321.143,221.656 L315.462,238.097 L316.549,238.097 L322.23,221.656" fill="#000000"/>
      <path d="M332.933,234.125 L332.933,233.227 C332.208,233.711 331.501,233.952 330.741,233.952 C328.944,233.952 327.805,232.691 327.805,230.567 C327.805,228.391 328.858,227.061 330.343,227.061 C330.637,227.061 330.913,227.149 331.172,227.303 L331.172,228.719 C331.432,228.892 331.69,228.978 331.949,228.978 C332.537,228.978 332.916,228.616 332.916,228.063 C332.916,227.061 331.983,226.371 330.326,226.371 C327.908,226.371 326.233,228.116 326.233,230.688 C326.233,233.244 327.771,234.971 330.119,234.971 C331.052,234.971 331.983,234.677 332.933,234.125" fill="#000000"/>
      <path d="M337.94,226.371 C335.608,226.371 333.933,228.116 333.933,230.688 C333.933,233.244 335.626,235.005 337.94,235.005 C340.254,235.005 341.963,233.244 341.963,230.688 C341.963,228.133 340.271,226.371 337.94,226.371 z M337.94,227.114 C339.338,227.114 340.34,228.461 340.34,230.688 C340.34,232.933 339.338,234.263 337.94,234.263 C336.558,234.263 335.557,232.916 335.557,230.688 C335.557,228.444 336.541,227.114 337.94,227.114" fill="#000000"/>
      <path d="M348.535,226.75 C347.947,226.492 347.274,226.371 346.515,226.371 C344.546,226.371 343.458,227.269 343.458,228.789 C343.458,229.946 344.218,230.499 345.685,231.155 C346.826,231.672 347.447,231.983 347.447,232.882 C347.447,233.692 346.826,234.28 345.824,234.28 C345.322,234.28 344.84,234.142 344.355,233.866 L344.149,232.399 L343.319,232.399 L343.319,234.642 C343.924,234.867 344.683,235.005 345.565,235.005 C347.602,235.005 348.794,234.021 348.794,232.416 C348.794,231.777 348.552,231.258 348.138,230.93 C347.568,230.464 346.912,230.222 346.307,229.928 C345.34,229.463 344.84,229.1 344.84,228.356 C344.84,227.58 345.357,227.114 346.272,227.114 C346.687,227.114 347.102,227.235 347.551,227.477 L347.688,228.702 L348.535,228.702 L348.535,226.75" fill="#000000"/>
      <path d="M358.819,221.985 C356.557,221.985 354.416,224.696 353.69,228.496 C353.535,229.289 353.449,230.049 353.449,230.741 C353.449,233.313 354.502,235.005 356.28,235.005 C358.543,235.005 360.685,232.294 361.427,228.496 C361.582,227.7 361.652,226.941 361.652,226.25 C361.652,223.677 360.597,221.985 358.819,221.985 z M355.227,228.099 C355.866,224.8 357.23,222.658 358.682,222.658 C359.735,222.658 360.305,223.763 360.305,225.611 C360.305,226.336 360.218,227.166 360.046,228.099 L355.227,228.099 z M355.072,228.892 L359.89,228.892 C359.251,232.191 357.869,234.331 356.419,234.331 C355.366,234.331 354.796,233.227 354.796,231.378 C354.796,230.653 354.882,229.825 355.072,228.892" fill="#000000"/>
    </g>
    <g id="Layer_1">
      <path d="M276.318,15.565 L273.676,16.067 L273.676,16.549 L275.194,16.723 L274.591,20.176 C274.124,19.97 273.676,19.884 273.208,19.884 C271.776,19.884 270.255,20.746 269.324,22.215 C268.771,23.095 268.477,24.167 268.477,25.34 C268.477,27.309 269.358,28.431 270.74,28.431 C271.655,28.431 272.588,27.896 273.433,26.826 C273.416,26.946 273.416,27.067 273.416,27.171 C273.416,28.017 273.779,28.396 274.574,28.396 C275.022,28.396 275.747,28.242 276.697,27.896 L276.697,27.378 C276.179,27.499 275.799,27.568 275.576,27.568 C275.057,27.568 274.815,27.326 274.815,26.843 C274.815,26.618 274.849,26.29 274.919,25.91 L276.766,15.565 L276.318,15.565 z M273.519,20.609 L274.349,21.593 L273.572,25.979 C272.794,26.964 272.001,27.446 271.362,27.446 C270.463,27.446 269.876,26.687 269.876,25.323 C269.876,22.439 271.551,20.557 273.105,20.557 C273.227,20.557 273.365,20.592 273.519,20.609" fill="#000000"/>
      <path d="M284.372,16.585 L278.001,27.517 L277.051,27.62 L277.051,28.276 L280.469,28.276 L280.469,27.62 L279.416,27.534 L279.279,27.292 L281.126,23.993 L285.322,23.993 L285.858,27.292 L285.737,27.534 L284.718,27.62 L284.718,28.276 L288.501,28.276 L288.501,27.62 L287.654,27.534 L287.36,27.223 L285.513,16.585 L284.372,16.585 z M284.372,18.278 L285.166,23.251 L281.558,23.251 L284.372,18.278 z" fill="#000000"/>
      <path d="M294.849,23.29 L293.002,23.64 L293.002,23.978 L294.065,24.099 L293.643,26.514 C293.316,26.368 293.002,26.309 292.676,26.309 C291.674,26.309 290.612,26.912 289.96,27.939 C289.574,28.554 289.368,29.303 289.368,30.123 C289.368,31.499 289.983,32.285 290.949,32.285 C291.59,32.285 292.241,31.91 292.833,31.162 C292.821,31.246 292.821,31.331 292.821,31.403 C292.821,31.995 293.074,32.26 293.63,32.26 C293.944,32.26 294.451,32.153 295.115,31.91 L295.115,31.548 C294.752,31.632 294.487,31.681 294.33,31.681 C293.968,31.681 293.799,31.512 293.799,31.174 C293.799,31.017 293.822,30.787 293.871,30.521 L295.163,23.29 L294.849,23.29 z M292.894,26.815 L293.472,27.504 L292.93,30.57 C292.387,31.259 291.832,31.596 291.385,31.596 C290.757,31.596 290.346,31.065 290.346,30.112 C290.346,28.095 291.518,26.779 292.604,26.779 C292.688,26.779 292.785,26.804 292.894,26.815" fill="#000000"/>
    </g>
    <g>
      <path d="M292.095,412.878 L278.365,329.826" fill-opacity="0" stroke="#000000" stroke-width="1"/>
      <path d="M281.325,329.337 L277.06,321.933 L275.405,330.315 z" fill="#000000" fill-opacity="1" stroke="#000000" stroke-width="1" stroke-opacity="1"/>
    </g>
    <g id="Layer_1">
      <path d="M262.304,315.329 L260.406,318.611 L261.356,318.611 L262.858,316.176 L264.378,318.611 L265.311,318.611 L263.411,315.329 L262.304,315.329" fill="#000000"/>
      <path d="M260.926,331.34 L261.289,331.34 C261.289,328.629 259.286,326.315 259.286,323.622 C259.286,321.67 260.686,320.409 262.826,320.409 C264.969,320.409 266.367,321.67 266.367,323.622 C266.367,326.315 264.364,328.629 264.364,331.34 L268.336,331.34 L268.336,328.525 L267.437,328.525 L267.195,330.011 L267.109,330.097 L265.279,330.097 C265.936,327.851 268.145,326.056 268.145,323.622 C268.145,321.203 265.936,319.476 262.826,319.476 C259.719,319.476 257.508,321.203 257.508,323.622 C257.508,326.056 259.719,327.851 260.375,330.097 L258.544,330.097 L258.458,330.011 L258.215,328.525 L257.317,328.525 L257.317,331.34 L260.926,331.34" fill="#000000"/>
    </g>
    <path d="M227.425,22.769 L96.941,439.338" fill-opacity="0" stroke="#000000" stroke-width="1"/>
    <path d="M227.426,158.078 C213.457,158.078 199.573,155.915 186.266,151.666" fill-opacity="0" stroke="#000000" stroke-width="1"/>
    <g id="Layer_1">
      <path d="M67.649,166.11 L67.649,171.688 C67.649,172.915 68.011,173.432 69.444,173.432 C70.117,173.432 70.894,173.312 71.706,173.052 L71.706,172.413 C71.31,172.499 70.913,172.551 70.514,172.551 C69.306,172.551 69.081,171.982 69.081,170.67 L69.081,166.11 L71.706,166.11 L71.706,165.298 L69.081,165.298 L69.081,163.468 L68.442,163.468 L67.7,165.074 L66.56,165.574 L66.56,166.11 L67.649,166.11" fill="#000000"/>
      <path d="M77.697,172.379 L77.92,173.381 L80.356,173.381 L80.356,172.759 L79.441,172.673 L79.13,172.396 L79.13,167.388 C79.13,165.645 78.37,164.901 76.556,164.901 C74.38,164.901 73.067,165.799 73.067,166.852 C73.067,167.266 73.206,167.388 73.603,167.388 L74.795,167.388 L74.795,165.937 C75.261,165.748 75.675,165.662 76.108,165.662 C77.35,165.662 77.697,166.231 77.697,167.595 L77.697,168.148 C74.242,168.977 72.653,169.495 72.653,171.291 C72.653,172.587 73.5,173.501 74.864,173.501 C75.692,173.501 76.608,173.121 77.697,172.379 z M77.697,171.791 C76.833,172.293 76.125,172.57 75.555,172.57 C74.691,172.57 74.174,171.999 74.174,171.152 C74.174,169.891 75.261,169.426 77.697,168.752 L77.697,171.791" fill="#000000"/>
      <path d="M81.147,173.381 L84.928,173.381 L84.928,172.759 L84.1,172.673 L83.806,172.396 L83.806,166.61 C84.549,166.231 85.188,166.041 85.741,166.041 C87.017,166.041 87.485,166.559 87.485,167.82 L87.485,172.396 L87.191,172.673 L86.361,172.759 L86.361,173.381 L90.144,173.381 L90.144,172.759 L89.211,172.673 L88.917,172.396 L88.917,167.526 C88.917,165.799 88.089,164.901 86.586,164.901 C85.844,164.901 84.963,165.298 83.806,165.937 L83.806,164.988 L83.15,164.988 L81.147,165.609 L81.147,166.145 L82.372,166.145 L82.372,172.396 L82.078,172.673 L81.147,172.759 L81.147,173.381" fill="#000000"/>
      <path d="M100.772,167.266 C100.444,166.007 99.736,165.057 98.406,165.057 C96.317,165.057 94.503,166.749 94.038,169.149 C93.967,169.546 93.933,169.945 93.933,170.324 C93.933,172.259 94.988,173.535 96.714,173.535 C98.01,173.535 99.028,172.862 99.891,171.809 C99.995,172.793 100.289,173.535 101.049,173.535 C101.756,173.535 102.792,172.534 103.588,171.757 L103.172,171.257 C102.827,171.585 102.275,172.12 102.136,172.12 C101.203,172.12 100.98,171.204 100.963,170.185 C101.791,168.649 102.447,166.784 103.069,165.057 L101.567,165.057 C101.325,165.765 101.049,166.524 100.772,167.266 z M99.874,169.443 C99.011,171.36 98.027,172.862 96.938,172.862 C95.902,172.862 95.316,172.016 95.316,170.652 C95.316,170.29 95.367,169.874 95.453,169.443 C95.885,167.198 96.991,165.731 98.269,165.731 C99.65,165.731 99.891,167.181 99.891,168.701 C99.891,168.96 99.874,169.201 99.874,169.443" fill="#000000"/>
      <path d="M109.095,167.06 L120.7,167.06 L120.7,166.024 L109.095,166.024 L109.095,167.06 z M109.095,170.79 L120.7,170.79 L120.7,169.754 L109.095,169.754 L109.095,170.79" fill="#000000"/>
      <path d="M129.141,149.693 L129.141,150.349 L130.367,150.452 L130.556,150.695 L128.71,160.296 L128.433,160.538 L127.327,160.624 L127.327,161.281 L131.541,161.281 L131.541,160.624 L130.419,160.538 L130.211,160.296 L131.024,156.151 C131.386,156.134 131.697,156.116 131.974,156.116 C132.439,156.116 132.767,156.151 132.975,156.256 C133.855,156.652 133.96,157.343 134.183,158.345 C134.442,159.52 134.599,160.416 135.219,160.935 C135.547,161.212 136.083,161.366 136.808,161.366 C137.085,161.366 137.481,161.332 138.017,161.263 L138.017,160.624 C137.966,160.624 137.914,160.624 137.861,160.624 C136.531,160.624 136.203,160.193 135.841,158.881 C135.375,157.257 135.236,156.134 133.717,155.806 C135.928,155.323 137.153,153.976 137.153,152.213 C137.153,150.435 135.963,149.693 133.51,149.693 L129.141,149.693 z M131.178,155.323 L132.111,150.504 C132.37,150.487 132.613,150.47 132.836,150.47 C134.65,150.47 135.513,151.091 135.513,152.473 C135.513,154.252 134.217,155.34 131.817,155.34 C131.61,155.34 131.403,155.34 131.178,155.323" fill="#000000"/>
      <path d="M128.295,168.882 L138.659,168.882" fill-opacity="0" stroke="#000000" stroke-width="1.033"/>
      <path d="M135.17,177.618 L134.842,178.465 C134.652,178.551 134.478,178.602 134.324,178.602 C133.961,178.602 133.599,178.431 133.149,178.206 C132.683,177.963 132.252,177.74 131.733,177.74 C130.542,177.74 129.402,178.948 129.402,180.157 C129.402,180.796 129.73,181.176 130.214,181.176 C130.56,181.176 130.817,180.987 131.025,180.623 L130.11,179.518 C130.369,179.156 130.749,178.965 131.197,178.965 C131.561,178.965 132.078,179.138 132.717,179.466 L134.427,179.087 L128.486,185.752 L129.436,186.271 L129.85,185.527 C130.041,185.424 130.214,185.373 130.403,185.373 C131.233,185.373 132.113,186.115 133.097,186.115 C134.358,186.115 135.499,184.888 135.499,183.698 C135.499,183.076 135.135,182.662 134.652,182.662 C134.358,182.662 134.064,182.868 133.822,183.284 L134.772,184.337 C134.497,184.751 134.133,184.959 133.702,184.959 C133.374,184.959 132.786,184.768 131.941,184.388 L130.266,184.82 L136.224,178.171 L135.17,177.618" fill="#000000"/>
    </g>
    <path d="M204.859,165.952 C204.531,164.693 203.823,163.743 202.494,163.743 C200.405,163.743 198.591,165.435 198.125,167.835 C198.055,168.232 198.02,168.631 198.02,169.01 C198.02,170.945 199.075,172.221 200.802,172.221 C202.097,172.221 203.116,171.548 203.978,170.495 C204.083,171.479 204.377,172.221 205.136,172.221 C205.844,172.221 206.88,171.22 207.675,170.443 L207.259,169.943 C206.914,170.271 206.363,170.806 206.223,170.806 C205.291,170.806 205.067,169.89 205.05,168.871 C205.878,167.335 206.534,165.47 207.156,163.743 L205.655,163.743 C205.413,164.451 205.136,165.21 204.859,165.952 z M203.961,168.129 C203.098,170.046 202.114,171.548 201.025,171.548 C199.989,171.548 199.403,170.702 199.403,169.338 C199.403,168.976 199.455,168.56 199.541,168.129 C199.972,165.884 201.078,164.416 202.356,164.416 C203.738,164.416 203.978,165.866 203.978,167.387 C203.978,167.646 203.961,167.887 203.961,168.129" fill="#000000" id="Layer_1"/>
    <g id="Layer_1">
      <path d="M276.318,68.067 L273.676,68.569 L273.676,69.051 L275.194,69.225 L274.591,72.678 C274.124,72.472 273.676,72.386 273.208,72.386 C271.776,72.386 270.255,73.248 269.324,74.717 C268.771,75.597 268.477,76.669 268.477,77.842 C268.477,79.811 269.358,80.933 270.74,80.933 C271.655,80.933 272.588,80.398 273.433,79.328 C273.416,79.448 273.416,79.569 273.416,79.673 C273.416,80.519 273.779,80.898 274.574,80.898 C275.022,80.898 275.747,80.744 276.697,80.398 L276.697,79.88 C276.179,80.001 275.799,80.07 275.576,80.07 C275.057,80.07 274.815,79.828 274.815,79.345 C274.815,79.12 274.849,78.792 274.919,78.412 L276.766,68.067 L276.318,68.067 z M273.519,73.111 L274.349,74.095 L273.572,78.481 C272.794,79.466 272.001,79.948 271.362,79.948 C270.463,79.948 269.876,79.189 269.876,77.825 C269.876,74.941 271.551,73.059 273.105,73.059 C273.227,73.059 273.365,73.094 273.519,73.111" fill="#000000"/>
      <path d="M282.801,80.778 L283.163,80.778 C283.163,78.067 281.16,75.753 281.16,73.059 C281.16,71.108 282.56,69.847 284.701,69.847 C286.843,69.847 288.241,71.108 288.241,73.059 C288.241,75.753 286.238,78.067 286.238,80.778 L290.21,80.778 L290.21,77.962 L289.312,77.962 L289.069,79.448 L288.983,79.534 L287.154,79.534 C287.81,77.289 290.019,75.494 290.019,73.059 C290.019,70.641 287.81,68.914 284.701,68.914 C281.593,68.914 279.382,70.641 279.382,73.059 C279.382,75.494 281.593,77.289 282.249,79.534 L280.418,79.534 L280.332,79.448 L280.09,77.962 L279.191,77.962 L279.191,80.778 L282.801,80.778" fill="#000000"/>
      <path d="M296.01,72.753 L296.01,64.592 L295.285,64.592 L295.285,72.753 L291.591,72.753 L291.591,73.478 L299.704,73.478 L299.704,72.753 L296.01,72.753" fill="#000000"/>
      <path d="M296.949,77.892 L295.102,78.242 L295.102,78.58 L296.165,78.701 L295.743,81.116 C295.416,80.97 295.102,80.911 294.776,80.911 C293.774,80.911 292.712,81.514 292.06,82.541 C291.674,83.156 291.468,83.905 291.468,84.725 C291.468,86.101 292.083,86.887 293.049,86.887 C293.69,86.887 294.341,86.512 294.933,85.764 C294.921,85.848 294.921,85.933 294.921,86.005 C294.921,86.597 295.174,86.862 295.73,86.862 C296.044,86.862 296.551,86.755 297.215,86.512 L297.215,86.15 C296.852,86.234 296.587,86.283 296.43,86.283 C296.068,86.283 295.899,86.114 295.899,85.776 C295.899,85.619 295.922,85.389 295.971,85.123 L297.263,77.892 L296.949,77.892 z M294.994,81.417 L295.572,82.106 L295.03,85.172 C294.487,85.861 293.932,86.198 293.485,86.198 C292.857,86.198 292.446,85.667 292.446,84.714 C292.446,82.697 293.618,81.381 294.704,81.381 C294.788,81.381 294.885,81.406 294.994,81.417" fill="#000000"/>
      <path d="M306.282,74.458 L317.887,74.458 L317.887,73.422 L306.282,73.422 L306.282,74.458 z M306.282,78.187 L317.887,78.187 L317.887,77.151 L306.282,77.151 L306.282,78.187" fill="#000000"/>
      <path d="M333.718,55.467 L331.076,55.969 L331.076,56.451 L332.594,56.625 L331.991,60.078 C331.524,59.872 331.076,59.786 330.608,59.786 C329.176,59.786 327.655,60.648 326.724,62.117 C326.171,62.997 325.877,64.069 325.877,65.242 C325.877,67.211 326.758,68.333 328.14,68.333 C329.055,68.333 329.988,67.798 330.833,66.728 C330.816,66.848 330.816,66.969 330.816,67.073 C330.816,67.919 331.179,68.298 331.974,68.298 C332.422,68.298 333.147,68.144 334.097,67.798 L334.097,67.28 C333.579,67.401 333.199,67.47 332.976,67.47 C332.457,67.47 332.215,67.228 332.215,66.745 C332.215,66.52 332.249,66.192 332.319,65.812 L334.166,55.467 L333.718,55.467 z M330.919,60.511 L331.749,61.495 L330.972,65.881 C330.194,66.866 329.401,67.348 328.762,67.348 C327.863,67.348 327.276,66.589 327.276,65.225 C327.276,62.341 328.951,60.459 330.505,60.459 C330.627,60.459 330.765,60.494 330.919,60.511" fill="#000000"/>
      <path d="M341.672,56.487 L335.301,67.419 L334.351,67.522 L334.351,68.178 L337.769,68.178 L337.769,67.522 L336.716,67.436 L336.579,67.194 L338.426,63.895 L342.622,63.895 L343.158,67.194 L343.037,67.436 L342.018,67.522 L342.018,68.178 L345.801,68.178 L345.801,67.522 L344.954,67.436 L344.66,67.125 L342.813,56.487 L341.672,56.487 z M341.672,58.18 L342.466,63.153 L338.858,63.153 L341.672,58.18 z" fill="#000000"/>
      <path d="M352.249,63.192 L350.402,63.542 L350.402,63.88 L351.465,64.001 L351.043,66.416 C350.716,66.27 350.402,66.211 350.076,66.211 C349.074,66.211 348.012,66.814 347.36,67.841 C346.974,68.456 346.768,69.205 346.768,70.025 C346.768,71.401 347.383,72.187 348.349,72.187 C348.99,72.187 349.641,71.812 350.233,71.064 C350.221,71.148 350.221,71.233 350.221,71.305 C350.221,71.897 350.474,72.162 351.03,72.162 C351.344,72.162 351.851,72.055 352.515,71.812 L352.515,71.45 C352.152,71.534 351.887,71.583 351.73,71.583 C351.368,71.583 351.199,71.414 351.199,71.076 C351.199,70.919 351.222,70.689 351.271,70.423 L352.563,63.192 L352.249,63.192 z M350.294,66.717 L350.872,67.406 L350.33,70.472 C349.787,71.161 349.232,71.498 348.785,71.498 C348.157,71.498 347.746,70.967 347.746,70.014 C347.746,67.997 348.918,66.681 350.004,66.681 C350.088,66.681 350.185,66.706 350.294,66.717" fill="#000000"/>
      <path d="M364.354,67.453 L364.354,66.555 C363.629,67.039 362.921,67.28 362.162,67.28 C360.365,67.28 359.226,66.019 359.226,63.895 C359.226,61.719 360.279,60.389 361.763,60.389 C362.057,60.389 362.333,60.476 362.593,60.631 L362.593,62.047 C362.852,62.22 363.11,62.306 363.369,62.306 C363.957,62.306 364.337,61.944 364.337,61.391 C364.337,60.389 363.404,59.698 361.746,59.698 C359.329,59.698 357.654,61.444 357.654,64.016 C357.654,66.572 359.191,68.298 361.54,68.298 C362.472,68.298 363.404,68.005 364.354,67.453" fill="#000000"/>
      <path d="M369.36,59.698 C367.029,59.698 365.354,61.444 365.354,64.016 C365.354,66.572 367.046,68.333 369.36,68.333 C371.674,68.333 373.384,66.572 373.384,64.016 C373.384,61.461 371.692,59.698 369.36,59.698 z M369.36,60.442 C370.759,60.442 371.76,61.789 371.76,64.016 C371.76,66.261 370.759,67.591 369.36,67.591 C367.979,67.591 366.977,66.244 366.977,64.016 C366.977,61.772 367.962,60.442 369.36,60.442" fill="#000000"/>
      <path d="M379.856,60.078 C379.268,59.82 378.595,59.698 377.835,59.698 C375.867,59.698 374.779,60.597 374.779,62.117 C374.779,63.273 375.538,63.826 377.006,64.483 C378.146,65 378.768,65.311 378.768,66.209 C378.768,67.02 378.146,67.608 377.145,67.608 C376.643,67.608 376.16,67.47 375.676,67.194 L375.47,65.726 L374.64,65.726 L374.64,67.97 C375.245,68.195 376.004,68.333 376.885,68.333 C378.923,68.333 380.115,67.348 380.115,65.744 C380.115,65.105 379.873,64.586 379.459,64.258 C378.888,63.792 378.232,63.55 377.628,63.256 C376.66,62.791 376.16,62.428 376.16,61.684 C376.16,60.908 376.678,60.442 377.593,60.442 C378.007,60.442 378.423,60.562 378.871,60.805 L379.009,62.03 L379.856,62.03 L379.856,60.078" fill="#000000"/>
      <path d="M389.501,56.314 C386.117,56.314 383.698,58.853 383.698,62.428 C383.698,65.95 386.117,68.455 389.501,68.455 C392.885,68.455 395.304,65.95 395.304,62.428 C395.304,58.853 392.885,56.314 389.501,56.314 z M386.41,63.653 L387.378,63.653 L387.378,63.066 L391.626,63.066 L391.626,63.653 L392.592,63.653 L392.592,61.098 L391.626,61.098 L391.626,61.667 L387.378,61.667 L387.378,61.098 L386.41,61.098 L386.41,63.653 z M389.501,57.247 C391.954,57.247 393.559,59.301 393.559,62.428 C393.559,65.501 391.954,67.487 389.501,67.487 C387.049,67.487 385.443,65.501 385.443,62.428 C385.443,59.301 387.049,57.247 389.501,57.247" fill="#000000"/>
      <path d="M401.849,63.192 L400.003,63.542 L400.003,63.88 L401.065,64.001 L400.643,66.416 C400.317,66.27 400.003,66.211 399.676,66.211 C398.674,66.211 397.612,66.814 396.96,67.841 C396.574,68.456 396.368,69.205 396.368,70.025 C396.368,71.401 396.984,72.187 397.949,72.187 C398.59,72.187 399.242,71.812 399.834,71.064 C399.821,71.148 399.821,71.233 399.821,71.305 C399.821,71.897 400.074,72.162 400.631,72.162 C400.945,72.162 401.451,72.055 402.115,71.812 L402.115,71.45 C401.753,71.534 401.487,71.583 401.331,71.583 C400.968,71.583 400.799,71.414 400.799,71.076 C400.799,70.919 400.823,70.689 400.871,70.423 L402.163,63.192 L401.849,63.192 z M399.895,66.717 L400.473,67.406 L399.931,70.472 C399.387,71.161 398.832,71.498 398.385,71.498 C397.757,71.498 397.346,70.967 397.346,70.014 C397.346,67.997 398.518,66.681 399.604,66.681 C399.688,66.681 399.785,66.706 399.895,66.717" fill="#000000"/>
      <path d="M325.537,76.321 L404.735,76.321" fill-opacity="0" stroke="#000000" stroke-width="1.033"/>
      <path d="M359.871,85.255 L357.316,85.823 L357.316,86.256 L358.732,86.516 L357.297,93.578 L358.749,93.578 L359.457,89.52 C359.733,87.931 360.287,86.998 361.979,86.342 L362.427,87.275 C362.462,87.275 362.496,87.275 362.547,87.275 C363.257,87.275 363.705,86.808 363.705,86.151 C363.705,85.634 363.326,85.255 362.738,85.255 C361.874,85.255 360.769,86.048 359.665,87.62 L360.216,85.255 L359.871,85.255" fill="#000000"/>
      <path d="M367.646,86.892 L366.319,89.186 L366.982,89.186 L368.033,87.484 L369.096,89.186 L369.748,89.186 L368.42,86.892 L367.646,86.892" fill="#000000"/>
      <path d="M366.682,98.078 L366.935,98.078 C366.935,96.183 365.535,94.564 365.535,92.681 C365.535,91.317 366.512,90.436 368.01,90.436 C369.507,90.436 370.485,91.317 370.485,92.681 C370.485,94.564 369.084,96.183 369.084,98.078 L371.86,98.078 L371.86,96.111 L371.234,96.111 L371.063,97.148 L371.004,97.209 L369.724,97.209 C370.182,95.639 371.728,94.384 371.728,92.681 C371.728,90.991 370.182,89.784 368.01,89.784 C365.837,89.784 364.291,90.991 364.291,92.681 C364.291,94.384 365.837,95.639 366.294,97.209 L365.015,97.209 L364.955,97.148 L364.787,96.111 L364.158,96.111 L364.158,98.078 L366.682,98.078" fill="#000000"/>
      <path d="M411.382,74.458 L422.987,74.458 L422.987,73.422 L411.382,73.422 L411.382,74.458 z M411.382,78.187 L422.987,78.187 L422.987,77.151 L411.382,77.151 L411.382,78.187" fill="#000000"/>
      <path d="M443.118,55.467 L440.476,55.969 L440.476,56.451 L441.995,56.625 L441.392,60.078 C440.924,59.872 440.476,59.786 440.009,59.786 C438.576,59.786 437.056,60.648 436.124,62.117 C435.571,62.997 435.278,64.069 435.278,65.242 C435.278,67.211 436.159,68.333 437.54,68.333 C438.456,68.333 439.388,67.798 440.234,66.728 C440.217,66.848 440.217,66.969 440.217,67.073 C440.217,67.919 440.579,68.298 441.374,68.298 C441.823,68.298 442.548,68.144 443.498,67.798 L443.498,67.28 C442.979,67.401 442.599,67.47 442.376,67.47 C441.857,67.47 441.615,67.228 441.615,66.745 C441.615,66.52 441.649,66.192 441.72,65.812 L443.567,55.467 L443.118,55.467 z M440.32,60.511 L441.149,61.495 L440.373,65.881 C439.595,66.866 438.801,67.348 438.162,67.348 C437.263,67.348 436.676,66.589 436.676,65.225 C436.676,62.341 438.351,60.459 439.906,60.459 C440.028,60.459 440.165,60.494 440.32,60.511" fill="#000000"/>
      <path d="M451.173,56.487 L444.801,67.419 L443.851,67.522 L443.851,68.178 L447.27,68.178 L447.27,67.522 L446.217,67.436 L446.079,67.194 L447.926,63.895 L452.123,63.895 L452.659,67.194 L452.537,67.436 L451.518,67.522 L451.518,68.178 L455.301,68.178 L455.301,67.522 L454.454,67.436 L454.16,67.125 L452.313,56.487 L451.173,56.487 z M451.173,58.18 L451.967,63.153 L448.359,63.153 L451.173,58.18 z" fill="#000000"/>
      <path d="M461.649,63.192 L459.803,63.542 L459.803,63.88 L460.865,64.001 L460.443,66.416 C460.117,66.27 459.803,66.211 459.476,66.211 C458.474,66.211 457.412,66.814 456.76,67.841 C456.374,68.456 456.168,69.205 456.168,70.025 C456.168,71.401 456.784,72.187 457.749,72.187 C458.39,72.187 459.042,71.812 459.634,71.064 C459.621,71.148 459.621,71.233 459.621,71.305 C459.621,71.897 459.874,72.162 460.431,72.162 C460.745,72.162 461.251,72.055 461.915,71.812 L461.915,71.45 C461.553,71.534 461.287,71.583 461.131,71.583 C460.768,71.583 460.599,71.414 460.599,71.076 C460.599,70.919 460.623,70.689 460.671,70.423 L461.963,63.192 L461.649,63.192 z M459.695,66.717 L460.273,67.406 L459.731,70.472 C459.187,71.161 458.632,71.498 458.185,71.498 C457.557,71.498 457.146,70.967 457.146,70.014 C457.146,67.997 458.318,66.681 459.404,66.681 C459.488,66.681 459.585,66.706 459.695,66.717" fill="#000000"/>
      <path d="M473.754,67.453 L473.754,66.555 C473.029,67.039 472.321,67.28 471.562,67.28 C469.765,67.28 468.626,66.019 468.626,63.895 C468.626,61.719 469.679,60.389 471.163,60.389 C471.457,60.389 471.734,60.476 471.993,60.631 L471.993,62.047 C472.253,62.22 472.51,62.306 472.77,62.306 C473.357,62.306 473.737,61.944 473.737,61.391 C473.737,60.389 472.804,59.698 471.146,59.698 C468.729,59.698 467.054,61.444 467.054,64.016 C467.054,66.572 468.592,68.298 470.94,68.298 C471.873,68.298 472.804,68.005 473.754,67.453" fill="#000000"/>
      <path d="M478.76,59.698 C476.429,59.698 474.754,61.444 474.754,64.016 C474.754,66.572 476.446,68.333 478.76,68.333 C481.074,68.333 482.784,66.572 482.784,64.016 C482.784,61.461 481.092,59.698 478.76,59.698 z M478.76,60.442 C480.159,60.442 481.16,61.789 481.16,64.016 C481.16,66.261 480.159,67.591 478.76,67.591 C477.379,67.591 476.378,66.244 476.378,64.016 C476.378,61.772 477.362,60.442 478.76,60.442" fill="#000000"/>
      <path d="M489.356,60.078 C488.768,59.82 488.095,59.698 487.335,59.698 C485.367,59.698 484.279,60.597 484.279,62.117 C484.279,63.273 485.038,63.826 486.506,64.483 C487.646,65 488.268,65.311 488.268,66.209 C488.268,67.02 487.646,67.608 486.645,67.608 C486.143,67.608 485.66,67.47 485.176,67.194 L484.97,65.726 L484.14,65.726 L484.14,67.97 C484.745,68.195 485.504,68.333 486.385,68.333 C488.423,68.333 489.615,67.348 489.615,65.744 C489.615,65.105 489.373,64.586 488.959,64.258 C488.388,63.792 487.732,63.55 487.128,63.256 C486.16,62.791 485.66,62.428 485.66,61.684 C485.66,60.908 486.178,60.442 487.093,60.442 C487.507,60.442 487.923,60.562 488.371,60.805 L488.509,62.03 L489.356,62.03 L489.356,60.078" fill="#000000"/>
      <path d="M499.54,55.312 C497.278,55.312 495.137,58.023 494.41,61.823 C494.256,62.617 494.17,63.376 494.17,64.069 C494.17,66.641 495.223,68.333 497.001,68.333 C499.263,68.333 501.406,65.622 502.148,61.823 C502.303,61.028 502.373,60.269 502.373,59.578 C502.373,57.005 501.318,55.312 499.54,55.312 z M495.948,61.426 C496.587,58.128 497.951,55.986 499.403,55.986 C500.456,55.986 501.026,57.091 501.026,58.939 C501.026,59.664 500.938,60.494 500.767,61.426 L495.948,61.426 z M495.793,62.22 L500.61,62.22 C499.971,65.519 498.59,67.659 497.14,67.659 C496.087,67.659 495.517,66.555 495.517,64.706 C495.517,63.981 495.603,63.153 495.793,62.22" fill="#000000"/>
      <path d="M430.592,76.321 L509.238,76.321" fill-opacity="0" stroke="#000000" stroke-width="1.033"/>
      <path d="M432.549,88.605 C432.549,83.873 433.932,81.523 435.918,81.178 L435.918,80.384 C433.051,80.73 431.082,83.389 431.082,88.605 C431.082,93.82 433.051,96.48 435.918,96.825 L435.918,96.03 C433.932,95.684 432.549,93.336 432.549,88.605" fill="#000000"/>
      <path d="M443.257,85.116 L442.929,85.962 C442.738,86.048 442.565,86.1 442.41,86.1 C442.048,86.1 441.685,85.928 441.235,85.703 C440.77,85.461 440.338,85.237 439.82,85.237 C438.629,85.237 437.488,86.445 437.488,87.655 C437.488,88.294 437.817,88.673 438.301,88.673 C438.646,88.673 438.904,88.484 439.112,88.12 L438.196,87.016 C438.456,86.653 438.835,86.462 439.284,86.462 C439.648,86.462 440.165,86.636 440.804,86.964 L442.513,86.584 L436.573,93.25 L437.523,93.769 L437.937,93.025 C438.128,92.922 438.301,92.87 438.49,92.87 C439.32,92.87 440.199,93.612 441.184,93.612 C442.445,93.612 443.585,92.386 443.585,91.195 C443.585,90.573 443.221,90.159 442.738,90.159 C442.445,90.159 442.151,90.366 441.909,90.781 L442.859,91.834 C442.584,92.248 442.22,92.456 441.788,92.456 C441.46,92.456 440.873,92.266 440.028,91.886 L438.353,92.317 L444.31,85.669 L443.257,85.116" fill="#000000"/>
      <path d="M453.051,80.384 L451.963,80.384 L446.282,96.825 L447.37,96.825 L453.051,80.384" fill="#000000"/>
      <path d="M463.754,92.853 L463.754,91.955 C463.029,92.439 462.321,92.68 461.562,92.68 C459.765,92.68 458.626,91.419 458.626,89.295 C458.626,87.119 459.679,85.789 461.163,85.789 C461.457,85.789 461.734,85.876 461.993,86.031 L461.993,87.447 C462.253,87.62 462.51,87.706 462.77,87.706 C463.357,87.706 463.737,87.344 463.737,86.791 C463.737,85.789 462.804,85.098 461.146,85.098 C458.729,85.098 457.054,86.844 457.054,89.416 C457.054,91.972 458.592,93.698 460.94,93.698 C461.873,93.698 462.804,93.405 463.754,92.853" fill="#000000"/>
      <path d="M468.76,85.098 C466.429,85.098 464.754,86.844 464.754,89.416 C464.754,91.972 466.446,93.733 468.76,93.733 C471.074,93.733 472.784,91.972 472.784,89.416 C472.784,86.861 471.092,85.098 468.76,85.098 z M468.76,85.842 C470.159,85.842 471.16,87.189 471.16,89.416 C471.16,91.661 470.159,92.991 468.76,92.991 C467.379,92.991 466.378,91.644 466.378,89.416 C466.378,87.172 467.362,85.842 468.76,85.842" fill="#000000"/>
      <path d="M479.256,85.478 C478.668,85.22 477.995,85.098 477.235,85.098 C475.267,85.098 474.179,85.997 474.179,87.517 C474.179,88.673 474.938,89.227 476.406,89.883 C477.546,90.4 478.168,90.711 478.168,91.609 C478.168,92.42 477.546,93.008 476.545,93.008 C476.043,93.008 475.56,92.87 475.076,92.594 L474.87,91.127 L474.04,91.127 L474.04,93.37 C474.645,93.595 475.404,93.733 476.285,93.733 C478.323,93.733 479.515,92.748 479.515,91.144 C479.515,90.505 479.273,89.986 478.859,89.658 C478.288,89.192 477.632,88.95 477.028,88.656 C476.06,88.191 475.56,87.828 475.56,87.084 C475.56,86.308 476.078,85.842 476.993,85.842 C477.407,85.842 477.823,85.962 478.271,86.205 L478.409,87.43 L479.256,87.43 L479.256,85.478" fill="#000000"/>
      <path d="M489.54,80.712 C487.278,80.712 485.137,83.423 484.41,87.223 C484.256,88.017 484.17,88.776 484.17,89.469 C484.17,92.041 485.223,93.733 487.001,93.733 C489.263,93.733 491.406,91.022 492.148,87.223 C492.303,86.428 492.373,85.669 492.373,84.978 C492.373,82.405 491.318,80.712 489.54,80.712 z M485.948,86.826 C486.587,83.528 487.951,81.386 489.403,81.386 C490.456,81.386 491.026,82.491 491.026,84.339 C491.026,85.064 490.938,85.894 490.767,86.826 L485.948,86.826 z M485.793,87.62 L490.61,87.62 C489.971,90.919 488.59,93.059 487.14,93.059 C486.087,93.059 485.517,91.955 485.517,90.106 C485.517,89.381 485.603,88.553 485.793,87.62" fill="#000000"/>
      <path d="M498.749,88.605 C498.749,93.336 497.368,95.684 495.382,96.03 L495.382,96.825 C498.249,96.48 500.218,93.82 500.218,88.605 C500.218,83.389 498.249,80.73 495.382,80.384 L495.382,81.178 C497.368,81.523 498.749,83.873 498.749,88.605" fill="#000000"/>
      <path d="M502.817,87.925 C505.485,85.8 506.946,84.436 506.946,82.914 C506.946,81.55 505.993,80.633 504.435,80.633 C502.938,80.633 501.876,81.489 501.876,82.334 C501.876,82.745 502.129,83.011 502.553,83.011 C502.745,83.011 502.926,82.95 503.095,82.83 L503.095,81.537 C503.457,81.333 503.807,81.248 504.17,81.248 C505.171,81.248 505.776,81.923 505.776,83.07 C505.776,84.653 504.267,85.969 501.623,88.117 L501.623,88.878 L507.212,88.878 L507.212,86.898 L506.668,86.898 L506.451,87.925 L502.817,87.925" fill="#000000"/>
    </g>
    <g id="Layer_1">
      <path d="M380.579,361.454 L377.937,361.956 L377.937,362.439 L379.455,362.612 L378.852,366.065 C378.385,365.859 377.937,365.773 377.469,365.773 C376.037,365.773 374.516,366.635 373.585,368.104 C373.032,368.984 372.738,370.056 372.738,371.229 C372.738,373.198 373.619,374.32 375.001,374.32 C375.916,374.32 376.849,373.785 377.694,372.715 C377.677,372.835 377.677,372.956 377.677,373.06 C377.677,373.906 378.04,374.285 378.835,374.285 C379.283,374.285 380.008,374.131 380.958,373.785 L380.958,373.267 C380.44,373.389 380.06,373.457 379.837,373.457 C379.318,373.457 379.076,373.215 379.076,372.732 C379.076,372.507 379.11,372.179 379.18,371.8 L381.027,361.454 L380.579,361.454 z M377.78,366.498 L378.61,367.482 L377.833,371.868 C377.055,372.853 376.262,373.335 375.623,373.335 C374.724,373.335 374.137,372.576 374.137,371.212 C374.137,368.328 375.812,366.446 377.366,366.446 C377.488,366.446 377.626,366.481 377.78,366.498" fill="#000000"/>
      <path d="M384.816,369.968 C384.299,372.628 383.694,375.287 382.987,377.929 L385.058,377.929 L385.766,372.49 C385.991,373.595 386.907,374.32 388.08,374.32 C390.499,374.32 392.554,372.507 393.037,369.968 C393.107,369.657 393.141,369.346 393.141,369.053 C393.141,367.137 391.829,365.842 389.738,365.842 C387.321,365.842 385.283,367.551 384.816,369.968 z M389.41,366.515 C390.827,366.515 391.655,367.5 391.655,369.089 C391.655,369.434 391.621,369.796 391.535,370.176 C391.138,372.248 389.755,373.595 388.029,373.595 C386.873,373.595 386.216,372.645 386.216,371.109 C386.216,370.693 386.268,370.245 386.354,369.762 C386.733,367.793 387.943,366.515 389.41,366.515" fill="#000000"/>
      <path d="M400.043,367.845 L411.648,367.845 L411.648,366.809 L400.043,366.809 L400.043,367.845 z M400.043,371.575 L411.648,371.575 L411.648,370.539 L400.043,370.539 L400.043,371.575" fill="#000000"/>
      <path d="M443.718,353.603 L443.39,354.45 C443.199,354.535 443.026,354.587 442.871,354.587 C442.508,354.587 442.146,354.415 441.696,354.19 C441.23,353.948 440.799,353.725 440.28,353.725 C439.09,353.725 437.949,354.932 437.949,356.142 C437.949,356.781 438.277,357.16 438.762,357.16 C439.107,357.16 439.365,356.971 439.573,356.607 L438.657,355.503 C438.916,355.14 439.296,354.95 439.744,354.95 C440.108,354.95 440.626,355.123 441.265,355.451 L442.974,355.071 L437.033,361.737 L437.983,362.256 L438.398,361.512 C438.588,361.409 438.762,361.357 438.951,361.357 C439.78,361.357 440.66,362.1 441.644,362.1 C442.905,362.1 444.046,360.873 444.046,359.682 C444.046,359.06 443.682,358.646 443.199,358.646 C442.905,358.646 442.612,358.853 442.369,359.268 L443.319,360.321 C443.044,360.735 442.68,360.943 442.249,360.943 C441.921,360.943 441.333,360.753 440.488,360.373 L438.813,360.804 L444.771,354.156 L443.718,353.603" fill="#000000"/>
      <path d="M419.228,369.699 L464.794,369.699" fill-opacity="0" stroke="#000000" stroke-width="1.033"/>
      <path d="M426.115,386.14 L426.115,385.242 C425.39,385.726 424.682,385.967 423.923,385.967 C422.126,385.967 420.987,384.706 420.987,382.582 C420.987,380.406 422.04,379.076 423.524,379.076 C423.818,379.076 424.094,379.164 424.354,379.318 L424.354,380.734 C424.613,380.907 424.871,380.993 425.13,380.993 C425.718,380.993 426.098,380.631 426.098,380.078 C426.098,379.076 425.165,378.385 423.507,378.385 C421.09,378.385 419.415,380.131 419.415,382.703 C419.415,385.259 420.952,386.986 423.301,386.986 C424.233,386.986 425.165,386.692 426.115,386.14" fill="#000000"/>
      <path d="M431.021,378.385 C428.69,378.385 427.015,380.131 427.015,382.703 C427.015,385.259 428.707,387.02 431.021,387.02 C433.335,387.02 435.044,385.259 435.044,382.703 C435.044,380.148 433.352,378.385 431.021,378.385 z M431.021,379.129 C432.419,379.129 433.421,380.476 433.421,382.703 C433.421,384.948 432.419,386.278 431.021,386.278 C429.64,386.278 428.638,384.931 428.638,382.703 C428.638,380.459 429.623,379.129 431.021,379.129" fill="#000000"/>
      <path d="M441.616,378.765 C441.029,378.507 440.355,378.385 439.596,378.385 C437.627,378.385 436.54,379.284 436.54,380.804 C436.54,381.96 437.299,382.514 438.766,383.17 C439.907,383.687 440.529,383.998 440.529,384.896 C440.529,385.707 439.907,386.295 438.905,386.295 C438.404,386.295 437.921,386.157 437.437,385.881 L437.23,384.414 L436.401,384.414 L436.401,386.657 C437.005,386.882 437.765,387.02 438.646,387.02 C440.683,387.02 441.876,386.035 441.876,384.431 C441.876,383.792 441.633,383.273 441.219,382.945 C440.649,382.479 439.993,382.237 439.388,381.943 C438.421,381.478 437.921,381.115 437.921,380.371 C437.921,379.595 438.438,379.129 439.354,379.129 C439.768,379.129 440.183,379.25 440.632,379.492 L440.769,380.717 L441.616,380.717 L441.616,378.765" fill="#000000"/>
      <path d="M444.277,381.312 C446.946,379.187 448.407,377.823 448.407,376.301 C448.407,374.937 447.454,374.02 445.896,374.02 C444.399,374.02 443.337,374.876 443.337,375.721 C443.337,376.132 443.59,376.398 444.013,376.398 C444.205,376.398 444.387,376.337 444.555,376.217 L444.555,374.925 C444.918,374.72 445.268,374.635 445.63,374.635 C446.632,374.635 447.237,375.31 447.237,376.457 C447.237,378.04 445.727,379.356 443.083,381.504 L443.083,382.265 L448.673,382.265 L448.673,380.285 L448.129,380.285 L447.912,381.312 L444.277,381.312" fill="#000000"/>
      <path d="M459.501,374 C457.238,374 455.098,376.71 454.371,380.51 C454.216,381.304 454.13,382.064 454.13,382.756 C454.13,385.328 455.183,387.02 456.962,387.02 C459.224,387.02 461.366,384.309 462.108,380.51 C462.263,379.715 462.333,378.956 462.333,378.265 C462.333,375.692 461.279,374 459.501,374 z M455.908,380.114 C456.548,376.815 457.912,374.673 459.363,374.673 C460.416,374.673 460.987,375.778 460.987,377.626 C460.987,378.351 460.899,379.181 460.727,380.114 L455.908,380.114 z M455.754,380.907 L460.571,380.907 C459.932,384.206 458.551,386.346 457.101,386.346 C456.048,386.346 455.477,385.242 455.477,383.393 C455.477,382.668 455.563,381.84 455.754,380.907" fill="#000000"/>
    </g>
    <g id="Layer_1">
      <path d="M374.568,325.143 C374.051,327.803 373.446,330.462 372.738,333.104 L374.81,333.104 L375.518,327.665 C375.743,328.77 376.659,329.495 377.832,329.495 C380.251,329.495 382.305,327.683 382.788,325.143 C382.859,324.833 382.893,324.522 382.893,324.228 C382.893,322.312 381.58,321.017 379.49,321.017 C377.073,321.017 375.035,322.726 374.568,325.143 z M379.162,321.69 C380.579,321.69 381.407,322.675 381.407,324.264 C381.407,324.609 381.373,324.972 381.287,325.351 C380.89,327.423 379.507,328.77 377.78,328.77 C376.624,328.77 375.968,327.82 375.968,326.284 C375.968,325.868 376.019,325.42 376.105,324.937 C376.485,322.968 377.694,321.69 379.162,321.69" fill="#000000"/>
      <path d="M389.794,323.02 L401.399,323.02 L401.399,321.984 L389.794,321.984 L389.794,323.02 z M389.794,326.75 L401.399,326.75 L401.399,325.714 L389.794,325.714 L389.794,326.75" fill="#000000"/>
      <path d="M412.869,320.878 L412.541,321.725 C412.351,321.811 412.177,321.862 412.023,321.862 C411.66,321.862 411.298,321.69 410.848,321.465 C410.382,321.223 409.951,321 409.432,321 C408.241,321 407.101,322.208 407.101,323.417 C407.101,324.056 407.429,324.436 407.913,324.436 C408.259,324.436 408.516,324.247 408.724,323.883 L407.809,322.778 C408.068,322.415 408.448,322.225 408.896,322.225 C409.26,322.225 409.777,322.398 410.416,322.726 L412.126,322.347 L406.185,329.012 L407.135,329.531 L407.549,328.787 C407.74,328.684 407.913,328.633 408.102,328.633 C408.932,328.633 409.812,329.375 410.796,329.375 C412.057,329.375 413.198,328.148 413.198,326.958 C413.198,326.336 412.834,325.922 412.351,325.922 C412.057,325.922 411.763,326.128 411.521,326.543 L412.471,327.597 C412.196,328.011 411.832,328.218 411.401,328.218 C411.073,328.218 410.485,328.028 409.64,327.648 L407.965,328.079 L413.923,321.431 L412.869,320.878" fill="#000000"/>
      <path d="M418.748,322.07 L418.748,327.648 C418.748,328.875 419.11,329.392 420.543,329.392 C421.216,329.392 421.993,329.272 422.805,329.012 L422.805,328.373 C422.409,328.459 422.012,328.511 421.613,328.511 C420.405,328.511 420.18,327.942 420.18,326.629 L420.18,322.07 L422.805,322.07 L422.805,321.258 L420.18,321.258 L420.18,319.428 L419.541,319.428 L418.799,321.034 L417.659,321.534 L417.659,322.07 L418.748,322.07" fill="#000000"/>
      <path d="M428.796,328.339 L429.019,329.34 L431.455,329.34 L431.455,328.718 L430.54,328.633 L430.229,328.356 L430.229,323.348 C430.229,321.604 429.469,320.861 427.655,320.861 C425.479,320.861 424.166,321.759 424.166,322.812 C424.166,323.226 424.305,323.348 424.702,323.348 L425.894,323.348 L425.894,321.897 C426.36,321.708 426.774,321.622 427.207,321.622 C428.449,321.622 428.796,322.19 428.796,323.554 L428.796,324.108 C425.341,324.937 423.752,325.454 423.752,327.251 C423.752,328.547 424.599,329.461 425.963,329.461 C426.791,329.461 427.707,329.081 428.796,328.339 z M428.796,327.751 C427.932,328.253 427.224,328.529 426.654,328.529 C425.79,328.529 425.273,327.959 425.273,327.112 C425.273,325.851 426.36,325.386 428.796,324.712 L428.796,327.751" fill="#000000"/>
      <path d="M432.246,329.34 L436.027,329.34 L436.027,328.718 L435.199,328.633 L434.905,328.356 L434.905,322.57 C435.648,322.19 436.287,322.001 436.84,322.001 C438.116,322.001 438.584,322.518 438.584,323.779 L438.584,328.356 L438.29,328.633 L437.46,328.718 L437.46,329.34 L441.243,329.34 L441.243,328.718 L440.31,328.633 L440.016,328.356 L440.016,323.486 C440.016,321.759 439.188,320.861 437.685,320.861 C436.943,320.861 436.062,321.258 434.905,321.897 L434.905,320.948 L434.249,320.948 L432.246,321.568 L432.246,322.104 L433.471,322.104 L433.471,328.356 L433.177,328.633 L432.246,328.718 L432.246,329.34" fill="#000000"/>
      <path d="M450.852,316.475 C448.59,316.475 446.449,319.186 445.723,322.986 C445.568,323.779 445.482,324.539 445.482,325.231 C445.482,327.803 446.535,329.495 448.313,329.495 C450.576,329.495 452.718,326.784 453.46,322.986 C453.615,322.19 453.685,321.431 453.685,320.74 C453.685,318.167 452.63,316.475 450.852,316.475 z M447.26,322.589 C447.899,319.29 449.263,317.148 450.715,317.148 C451.768,317.148 452.338,318.253 452.338,320.101 C452.338,320.826 452.251,321.656 452.079,322.589 L447.26,322.589 z M447.105,323.383 L451.923,323.383 C451.284,326.681 449.902,328.822 448.452,328.822 C447.399,328.822 446.829,327.717 446.829,325.868 C446.829,325.143 446.915,324.315 447.105,323.383" fill="#000000"/>
      <path d="M460.594,323.02 L472.199,323.02 L472.199,321.984 L460.594,321.984 L460.594,323.02 z M460.594,326.75 L472.199,326.75 L472.199,325.714 L460.594,325.714 L460.594,326.75" fill="#000000"/>
      <path d="M483.569,320.878 L483.241,321.725 C483.05,321.811 482.877,321.862 482.722,321.862 C482.36,321.862 481.997,321.69 481.547,321.465 C481.082,321.223 480.65,321 480.132,321 C478.941,321 477.8,322.208 477.8,323.417 C477.8,324.056 478.129,324.436 478.613,324.436 C478.958,324.436 479.216,324.247 479.424,323.883 L478.508,322.778 C478.768,322.415 479.147,322.225 479.596,322.225 C479.96,322.225 480.477,322.398 481.116,322.726 L482.825,322.347 L476.885,329.012 L477.835,329.531 L478.249,328.787 C478.44,328.684 478.613,328.633 478.802,328.633 C479.632,328.633 480.511,329.375 481.496,329.375 C482.757,329.375 483.897,328.148 483.897,326.958 C483.897,326.336 483.533,325.922 483.05,325.922 C482.757,325.922 482.463,326.128 482.221,326.543 L483.171,327.597 C482.896,328.011 482.532,328.218 482.1,328.218 C481.772,328.218 481.185,328.028 480.34,327.648 L478.665,328.079 L484.622,321.431 L483.569,320.878" fill="#000000"/>
      <path d="M494.868,309.14 C494.28,308.883 493.607,308.761 492.847,308.761 C490.879,308.761 489.791,309.659 489.791,311.179 C489.791,312.336 490.55,312.889 492.018,313.545 C493.158,314.062 493.78,314.373 493.78,315.272 C493.78,316.083 493.158,316.67 492.157,316.67 C491.655,316.67 491.172,316.533 490.688,316.256 L490.482,314.789 L489.652,314.789 L489.652,317.033 C490.257,317.258 491.016,317.395 491.897,317.395 C493.935,317.395 495.127,316.411 495.127,314.806 C495.127,314.167 494.885,313.648 494.471,313.32 C493.9,312.854 493.244,312.612 492.64,312.318 C491.672,311.853 491.172,311.49 491.172,310.747 C491.172,309.97 491.69,309.504 492.605,309.504 C493.019,309.504 493.435,309.625 493.883,309.867 L494.021,311.092 L494.868,311.092 L494.868,309.14" fill="#000000"/>
      <path d="M498.486,305.014 C497.933,305.014 497.485,305.445 497.485,306.015 C497.485,306.568 497.933,307 498.486,307 C499.04,307 499.488,306.568 499.488,306.015 C499.488,305.462 499.04,305.014 498.486,305.014 z M498.418,308.848 L496.432,309.468 L496.432,310.004 L497.641,310.004 L497.641,316.256 L497.347,316.533 L496.432,316.618 L496.432,317.24 L500.318,317.24 L500.318,316.618 L499.385,316.533 L499.074,316.256 L499.074,308.848 L498.418,308.848" fill="#000000"/>
      <path d="M501.146,317.24 L504.927,317.24 L504.927,316.618 L504.099,316.533 L503.805,316.256 L503.805,310.47 C504.547,310.09 505.186,309.901 505.74,309.901 C507.016,309.901 507.483,310.418 507.483,311.679 L507.483,316.256 L507.19,316.533 L506.36,316.618 L506.36,317.24 L510.143,317.24 L510.143,316.618 L509.21,316.533 L508.916,316.256 L508.916,311.386 C508.916,309.659 508.088,308.761 506.585,308.761 C505.843,308.761 504.961,309.158 503.805,309.797 L503.805,308.848 L503.149,308.848 L501.146,309.468 L501.146,310.004 L502.371,310.004 L502.371,316.256 L502.077,316.533 L501.146,316.618 L501.146,317.24" fill="#000000"/>
      <path d="M519.752,304.375 C517.49,304.375 515.349,307.086 514.622,310.886 C514.468,311.679 514.382,312.439 514.382,313.131 C514.382,315.703 515.435,317.395 517.213,317.395 C519.475,317.395 521.618,314.684 522.36,310.886 C522.515,310.09 522.585,309.331 522.585,308.64 C522.585,306.067 521.53,304.375 519.752,304.375 z M516.16,310.489 C516.799,307.19 518.163,305.048 519.615,305.048 C520.668,305.048 521.238,306.153 521.238,308.001 C521.238,308.726 521.15,309.556 520.979,310.489 L516.16,310.489 z M516.005,311.283 L520.822,311.283 C520.183,314.581 518.802,316.722 517.352,316.722 C516.299,316.722 515.729,315.617 515.729,313.768 C515.729,313.043 515.815,312.215 516.005,311.283" fill="#000000"/>
      <path d="M488.263,324.892 L526.232,324.892" fill-opacity="0" stroke="#000000" stroke-width="1.033"/>
      <path d="M495.066,341.415 L495.066,340.517 C494.341,341.001 493.633,341.242 492.874,341.242 C491.077,341.242 489.938,339.981 489.938,337.858 C489.938,335.681 490.991,334.351 492.475,334.351 C492.769,334.351 493.046,334.439 493.305,334.593 L493.305,336.009 C493.565,336.183 493.822,336.268 494.082,336.268 C494.669,336.268 495.049,335.906 495.049,335.353 C495.049,334.351 494.116,333.661 492.458,333.661 C490.041,333.661 488.366,335.406 488.366,337.978 C488.366,340.534 489.904,342.261 492.252,342.261 C493.185,342.261 494.116,341.967 495.066,341.415" fill="#000000"/>
      <path d="M500.072,333.661 C497.741,333.661 496.066,335.406 496.066,337.978 C496.066,340.534 497.758,342.295 500.072,342.295 C502.386,342.295 504.096,340.534 504.096,337.978 C504.096,335.423 502.404,333.661 500.072,333.661 z M500.072,334.404 C501.471,334.404 502.472,335.751 502.472,337.978 C502.472,340.223 501.471,341.553 500.072,341.553 C498.691,341.553 497.69,340.206 497.69,337.978 C497.69,335.734 498.674,334.404 500.072,334.404" fill="#000000"/>
      <path d="M510.668,334.04 C510.08,333.783 509.407,333.661 508.647,333.661 C506.679,333.661 505.591,334.559 505.591,336.079 C505.591,337.236 506.35,337.789 507.818,338.445 C508.958,338.962 509.58,339.273 509.58,340.172 C509.58,340.983 508.958,341.57 507.957,341.57 C507.455,341.57 506.972,341.433 506.488,341.156 L506.282,339.689 L505.452,339.689 L505.452,341.933 C506.057,342.158 506.816,342.295 507.697,342.295 C509.735,342.295 510.927,341.311 510.927,339.706 C510.927,339.067 510.685,338.548 510.271,338.22 C509.7,337.754 509.044,337.512 508.44,337.218 C507.472,336.753 506.972,336.39 506.972,335.647 C506.972,334.87 507.49,334.404 508.405,334.404 C508.819,334.404 509.235,334.525 509.683,334.767 L509.821,335.992 L510.668,335.992 L510.668,334.04" fill="#000000"/>
      <path d="M520.952,329.275 C518.69,329.275 516.549,331.986 515.822,335.786 C515.668,336.579 515.582,337.339 515.582,338.031 C515.582,340.603 516.635,342.295 518.413,342.295 C520.675,342.295 522.818,339.584 523.56,335.786 C523.715,334.99 523.785,334.231 523.785,333.54 C523.785,330.967 522.73,329.275 520.952,329.275 z M517.36,335.389 C517.999,332.09 519.363,329.948 520.815,329.948 C521.868,329.948 522.438,331.053 522.438,332.901 C522.438,333.626 522.35,334.456 522.179,335.389 L517.36,335.389 z M517.205,336.183 L522.022,336.183 C521.383,339.481 520.002,341.622 518.552,341.622 C517.499,341.622 516.929,340.517 516.929,338.668 C516.929,337.943 517.015,337.115 517.205,336.183" fill="#000000"/>
    </g>
    <g id="Layer_1">
      <path d="M380.579,410.582 L377.937,411.084 L377.937,411.567 L379.455,411.74 L378.852,415.193 C378.385,414.987 377.937,414.901 377.469,414.901 C376.037,414.901 374.516,415.763 373.585,417.232 C373.032,418.112 372.738,419.184 372.738,420.357 C372.738,422.326 373.619,423.448 375.001,423.448 C375.916,423.448 376.849,422.913 377.694,421.843 C377.677,421.963 377.677,422.084 377.677,422.188 C377.677,423.034 378.04,423.413 378.835,423.413 C379.284,423.413 380.009,423.259 380.958,422.913 L380.958,422.395 C380.44,422.517 380.06,422.585 379.837,422.585 C379.318,422.585 379.076,422.343 379.076,421.86 C379.076,421.635 379.11,421.307 379.18,420.928 L381.027,410.582 L380.579,410.582 z M377.78,415.626 L378.61,416.61 L377.833,420.996 C377.055,421.981 376.262,422.463 375.623,422.463 C374.724,422.463 374.137,421.704 374.137,420.34 C374.137,417.456 375.812,415.574 377.366,415.574 C377.488,415.574 377.626,415.609 377.78,415.626" fill="#000000"/>
      <path d="M388.633,411.603 L382.262,422.534 L381.312,422.637 L381.312,423.293 L384.73,423.293 L384.73,422.637 L383.677,422.551 L383.54,422.309 L385.387,419.01 L389.583,419.01 L390.12,422.309 L389.998,422.551 L388.979,422.637 L388.979,423.293 L392.762,423.293 L392.762,422.637 L391.915,422.551 L391.621,422.24 L389.774,411.603 L388.633,411.603 z M388.633,413.295 L389.427,418.268 L385.819,418.268 L388.633,413.295 z" fill="#000000"/>
      <path d="M396.287,422.738 C396.733,422.713 396.988,422.46 396.988,422.123 C396.988,421.699 396.552,421.374 395.865,421.374 C394.705,421.374 393.788,422.207 393.788,423.196 C393.788,423.873 394.248,424.199 394.935,424.718 C395.441,425.104 395.768,425.382 395.768,425.842 C395.768,426.481 395.357,426.867 394.669,426.867 C394.294,426.867 393.993,426.723 393.801,426.445 L394.018,425.842 C393.824,425.696 393.668,425.624 393.498,425.624 C393.124,425.624 392.871,425.865 392.871,426.24 C392.871,426.867 393.462,427.303 394.476,427.303 C395.793,427.303 396.685,426.493 396.685,425.443 C396.685,424.718 396.191,424.404 395.466,423.849 C394.899,423.413 394.56,423.16 394.56,422.726 C394.56,422.256 394.923,421.917 395.405,421.917 C395.538,421.917 395.66,421.954 395.78,422.038 L396.287,422.738" fill="#000000"/>
      <path d="M403.643,416.973 L415.248,416.973 L415.248,415.937 L403.643,415.937 L403.643,416.973 z M403.643,420.703 L415.248,420.703 L415.248,419.667 L403.643,419.667 L403.643,420.703" fill="#000000"/>
      <path d="M426.718,414.831 L426.39,415.678 C426.199,415.763 426.026,415.815 425.871,415.815 C425.508,415.815 425.146,415.643 424.696,415.418 C424.23,415.176 423.799,414.953 423.28,414.953 C422.09,414.953 420.949,416.16 420.949,417.37 C420.949,418.009 421.277,418.388 421.762,418.388 C422.107,418.388 422.365,418.199 422.573,417.835 L421.657,416.731 C421.916,416.368 422.296,416.178 422.745,416.178 C423.108,416.178 423.626,416.351 424.265,416.679 L425.974,416.299 L420.034,422.965 L420.983,423.484 L421.398,422.74 C421.588,422.637 421.762,422.585 421.951,422.585 C422.78,422.585 423.66,423.328 424.645,423.328 C425.905,423.328 427.046,422.101 427.046,420.91 C427.046,420.288 426.682,419.874 426.199,419.874 C425.905,419.874 425.612,420.081 425.37,420.496 L426.319,421.549 C426.044,421.963 425.68,422.171 425.249,422.171 C424.921,422.171 424.333,421.981 423.488,421.601 L421.813,422.032 L427.771,415.384 L426.718,414.831" fill="#000000"/>
      <path d="M430.377,415.04 C433.046,412.915 434.507,411.551 434.507,410.029 C434.507,408.665 433.554,407.748 431.996,407.748 C430.499,407.748 429.437,408.604 429.437,409.449 C429.437,409.86 429.69,410.126 430.113,410.126 C430.305,410.126 430.487,410.065 430.655,409.945 L430.655,408.653 C431.018,408.448 431.368,408.363 431.73,408.363 C432.732,408.363 433.337,409.038 433.337,410.185 C433.337,411.768 431.827,413.084 429.184,415.232 L429.184,415.993 L434.773,415.993 L434.773,414.013 L434.229,414.013 L434.012,415.04 L430.377,415.04" fill="#000000"/>
      <path d="M449.416,403.093 C448.829,402.835 448.155,402.713 447.396,402.713 C445.427,402.713 444.34,403.612 444.34,405.132 C444.34,406.288 445.099,406.842 446.566,407.498 C447.707,408.015 448.329,408.326 448.329,409.224 C448.329,410.035 447.707,410.623 446.705,410.623 C446.204,410.623 445.721,410.485 445.237,410.209 L445.03,408.742 L444.201,408.742 L444.201,410.985 C444.805,411.21 445.565,411.348 446.446,411.348 C448.483,411.348 449.676,410.363 449.676,408.759 C449.676,408.12 449.434,407.601 449.02,407.273 C448.449,406.807 447.793,406.565 447.188,406.271 C446.221,405.806 445.721,405.443 445.721,404.699 C445.721,403.923 446.238,403.457 447.154,403.457 C447.568,403.457 447.983,403.578 448.432,403.82 L448.569,405.045 L449.416,405.045 L449.416,403.093" fill="#000000"/>
      <path d="M452.935,398.967 C452.382,398.967 451.934,399.398 451.934,399.968 C451.934,400.521 452.382,400.953 452.935,400.953 C453.488,400.953 453.937,400.521 453.937,399.968 C453.937,399.415 453.488,398.967 452.935,398.967 z M452.866,402.801 L450.88,403.421 L450.88,403.957 L452.09,403.957 L452.09,410.209 L451.796,410.485 L450.88,410.571 L450.88,411.193 L454.766,411.193 L454.766,410.571 L453.833,410.485 L453.523,410.209 L453.523,402.801 L452.866,402.801" fill="#000000"/>
      <path d="M455.694,411.193 L459.476,411.193 L459.476,410.571 L458.648,410.485 L458.354,410.209 L458.354,404.423 C459.096,404.043 459.735,403.854 460.288,403.854 C461.565,403.854 462.032,404.371 462.032,405.632 L462.032,410.209 L461.738,410.485 L460.909,410.571 L460.909,411.193 L464.691,411.193 L464.691,410.571 L463.758,410.485 L463.465,410.209 L463.465,405.338 C463.465,403.612 462.637,402.713 461.133,402.713 C460.391,402.713 459.51,403.11 458.354,403.749 L458.354,402.801 L457.698,402.801 L455.694,403.421 L455.694,403.957 L456.919,403.957 L456.919,410.209 L456.626,410.485 L455.694,410.571 L455.694,411.193" fill="#000000"/>
      <path d="M474.201,398.328 C471.938,398.328 469.798,401.038 469.071,404.838 C468.916,405.632 468.83,406.392 468.83,407.084 C468.83,409.656 469.883,411.348 471.662,411.348 C473.924,411.348 476.067,408.637 476.809,404.838 C476.964,404.043 477.034,403.284 477.034,402.593 C477.034,400.02 475.979,398.328 474.201,398.328 z M470.608,404.442 C471.248,401.143 472.612,399.001 474.064,399.001 C475.117,399.001 475.687,400.106 475.687,401.954 C475.687,402.679 475.599,403.509 475.428,404.442 L470.608,404.442 z M470.454,405.235 L475.271,405.235 C474.632,408.534 473.251,410.674 471.801,410.674 C470.748,410.674 470.177,409.57 470.177,407.721 C470.177,406.996 470.263,406.168 470.454,405.235" fill="#000000"/>
      <path d="M438.955,418.845 L484.52,418.845" fill-opacity="0" stroke="#000000" stroke-width="1.033"/>
      <path d="M445.815,435.368 L445.815,434.47 C445.09,434.954 444.382,435.195 443.623,435.195 C441.826,435.195 440.687,433.934 440.687,431.81 C440.687,429.634 441.74,428.304 443.224,428.304 C443.518,428.304 443.794,428.392 444.054,428.546 L444.054,429.962 C444.313,430.135 444.571,430.221 444.83,430.221 C445.418,430.221 445.798,429.859 445.798,429.306 C445.798,428.304 444.865,427.613 443.207,427.613 C440.79,427.613 439.115,429.359 439.115,431.931 C439.115,434.487 440.652,436.213 443.001,436.213 C443.934,436.213 444.865,435.92 445.815,435.368" fill="#000000"/>
      <path d="M450.821,427.613 C448.49,427.613 446.815,429.359 446.815,431.931 C446.815,434.487 448.507,436.248 450.821,436.248 C453.135,436.248 454.845,434.487 454.845,431.931 C454.845,429.376 453.152,427.613 450.821,427.613 z M450.821,428.357 C452.22,428.357 453.221,429.704 453.221,431.931 C453.221,434.176 452.22,435.506 450.821,435.506 C449.44,435.506 448.438,434.159 448.438,431.931 C448.438,429.687 449.423,428.357 450.821,428.357" fill="#000000"/>
      <path d="M461.316,427.993 C460.729,427.735 460.055,427.613 459.296,427.613 C457.327,427.613 456.24,428.512 456.24,430.032 C456.24,431.188 456.999,431.742 458.466,432.398 C459.607,432.915 460.229,433.226 460.229,434.124 C460.229,434.935 459.607,435.523 458.605,435.523 C458.104,435.523 457.621,435.385 457.137,435.109 L456.93,433.642 L456.101,433.642 L456.101,435.885 C456.705,436.11 457.465,436.248 458.346,436.248 C460.383,436.248 461.576,435.263 461.576,433.659 C461.576,433.02 461.333,432.501 460.919,432.173 C460.349,431.707 459.693,431.465 459.088,431.171 C458.121,430.706 457.621,430.343 457.621,429.599 C457.621,428.823 458.138,428.357 459.054,428.357 C459.468,428.357 459.883,428.478 460.332,428.72 L460.469,429.945 L461.316,429.945 L461.316,427.993" fill="#000000"/>
      <path d="M466.102,427.131 C467.287,426.793 467.902,426.106 467.902,425.176 C467.902,423.956 466.973,423.148 465.524,423.148 C464.015,423.148 462.976,423.956 462.976,424.753 C462.976,425.138 463.241,425.404 463.627,425.404 C463.821,425.404 463.977,425.357 464.123,425.248 L464.123,424.113 C464.473,423.871 464.848,423.763 465.27,423.763 C466.199,423.763 466.804,424.379 466.804,425.332 C466.804,426.31 466.151,426.89 464.932,426.89 C464.848,426.89 464.763,426.878 464.679,426.878 L464.679,427.59 C464.907,427.554 465.126,427.542 465.318,427.542 C466.477,427.542 467.105,428.098 467.105,429.051 C467.105,430.126 466.309,430.959 465.21,430.959 C464.848,430.959 464.508,430.862 464.184,430.668 L463.809,429.643 C463.676,429.595 463.555,429.582 463.448,429.582 C463.06,429.582 462.771,429.848 462.771,430.198 C462.771,430.813 463.724,431.526 465.162,431.526 C467.021,431.526 468.216,430.428 468.216,429.074 C468.216,427.976 467.443,427.228 466.102,427.131" fill="#000000"/>
      <path d="M479.201,423.228 C476.939,423.228 474.798,425.938 474.071,429.738 C473.917,430.532 473.831,431.292 473.831,431.984 C473.831,434.556 474.884,436.248 476.662,436.248 C478.924,436.248 481.067,433.537 481.809,429.738 C481.964,428.943 482.034,428.184 482.034,427.493 C482.034,424.92 480.979,423.228 479.201,423.228 z M475.609,429.342 C476.248,426.043 477.612,423.901 479.064,423.901 C480.117,423.901 480.687,425.006 480.687,426.854 C480.687,427.579 480.599,428.409 480.428,429.342 L475.609,429.342 z M475.454,430.135 L480.271,430.135 C479.632,433.434 478.251,435.574 476.801,435.574 C475.748,435.574 475.178,434.47 475.178,432.621 C475.178,431.896 475.264,431.068 475.454,430.135" fill="#000000"/>
      <path d="M497.179,410.582 L494.537,411.084 L494.537,411.567 L496.056,411.74 L495.453,415.193 C494.985,414.987 494.537,414.901 494.07,414.901 C492.637,414.901 491.117,415.763 490.185,417.232 C489.632,418.112 489.339,419.184 489.339,420.357 C489.339,422.326 490.22,423.448 491.601,423.448 C492.517,423.448 493.449,422.913 494.295,421.843 C494.278,421.963 494.278,422.084 494.278,422.188 C494.278,423.034 494.64,423.413 495.435,423.413 C495.884,423.413 496.609,423.259 497.559,422.913 L497.559,422.395 C497.04,422.517 496.66,422.585 496.437,422.585 C495.918,422.585 495.676,422.343 495.676,421.86 C495.676,421.635 495.71,421.307 495.781,420.928 L497.628,410.582 L497.179,410.582 z M494.381,415.626 L495.21,416.61 L494.434,420.996 C493.656,421.981 492.862,422.463 492.223,422.463 C491.324,422.463 490.737,421.704 490.737,420.34 C490.737,417.456 492.412,415.574 493.967,415.574 C494.089,415.574 494.226,415.609 494.381,415.626" fill="#000000"/>
      <path d="M506.201,410.428 C503.939,410.428 501.798,413.138 501.071,416.938 C500.917,417.732 500.831,418.492 500.831,419.184 C500.831,421.756 501.884,423.448 503.662,423.448 C505.924,423.448 508.067,420.737 508.809,416.938 C508.964,416.143 509.034,415.384 509.034,414.693 C509.034,412.12 507.979,410.428 506.201,410.428 z M502.609,416.542 C503.248,413.243 504.612,411.101 506.064,411.101 C507.117,411.101 507.687,412.206 507.687,414.054 C507.687,414.779 507.599,415.609 507.428,416.542 L502.609,416.542 z M502.454,417.335 L507.271,417.335 C506.632,420.634 505.251,422.774 503.801,422.774 C502.748,422.774 502.178,421.67 502.178,419.821 C502.178,419.096 502.264,418.268 502.454,417.335" fill="#000000"/>
      <path d="M522.079,410.582 L519.437,411.084 L519.437,411.567 L520.956,411.74 L520.353,415.193 C519.885,414.987 519.437,414.901 518.97,414.901 C517.537,414.901 516.017,415.763 515.085,417.232 C514.532,418.112 514.239,419.184 514.239,420.357 C514.239,422.326 515.12,423.448 516.501,423.448 C517.417,423.448 518.349,422.913 519.195,421.843 C519.178,421.963 519.178,422.084 519.178,422.188 C519.178,423.034 519.54,423.413 520.335,423.413 C520.784,423.413 521.509,423.259 522.459,422.913 L522.459,422.395 C521.94,422.517 521.56,422.585 521.337,422.585 C520.818,422.585 520.576,422.343 520.576,421.86 C520.576,421.635 520.61,421.307 520.681,420.928 L522.528,410.582 L522.079,410.582 z M519.281,415.626 L520.11,416.61 L519.334,420.996 C518.556,421.981 517.762,422.463 517.123,422.463 C516.224,422.463 515.637,421.704 515.637,420.34 C515.637,417.456 517.312,415.574 518.867,415.574 C518.989,415.574 519.126,415.609 519.281,415.626" fill="#000000"/>
      <path d="M529.132,423.413 L528.339,427.057 L529.823,427.057 L530.445,423.413 C533.121,423.173 535.246,421.498 535.678,419.201 C535.729,418.942 535.764,418.665 535.764,418.423 C535.764,416.488 534.262,415.142 531.895,414.987 L532.639,410.582 L531.912,410.582 L530.964,414.987 C528.199,415.159 525.99,416.87 525.523,419.201 C525.471,419.476 525.454,419.753 525.454,419.995 C525.454,421.878 526.87,423.207 529.132,423.413 z M530.582,422.637 L531.757,415.763 C533.346,415.937 534.279,416.973 534.279,418.528 C534.279,418.803 534.245,419.096 534.174,419.407 C533.846,421.187 532.448,422.395 530.582,422.637 z M530.79,415.763 L529.306,422.62 C527.803,422.412 526.939,421.393 526.939,419.892 C526.939,419.615 526.973,419.321 527.026,419.01 C527.389,417.179 528.839,415.937 530.79,415.763" fill="#000000"/>
    </g>
  </g>
</svg>
