<?xml version="1.0" encoding="UTF-8"?>
<!DOCTYPE svg PUBLIC "-//W3C//DTD SVG 1.1//EN" "http://www.w3.org/Graphics/SVG/1.1/DTD/svg11.dtd">
<svg version="1.1" xmlns="http://www.w3.org/2000/svg" xmlns:xlink="http://www.w3.org/1999/xlink" x="0" y="0" width="1135.244" height="271.255" viewBox="0, 0, 1135.244, 271.255">
  <g id="Layer_1" transform="translate(-14.09, 2.001)">
    <g>
      <g id="Layer_1">
        <path d="M686.258,55.387 L673.514,77.249 L671.614,77.455 L671.614,78.767 L678.452,78.767 L678.452,77.455 L676.346,77.283 L676.07,76.799 L679.764,70.201 L688.158,70.201 L689.23,76.799 L688.986,77.283 L686.948,77.455 L686.948,78.767 L694.514,78.767 L694.514,77.455 L692.82,77.283 L692.232,76.661 L688.538,55.387 L686.258,55.387 z M686.258,58.771 L687.846,68.717 L680.63,68.717 L686.258,58.771 z" fill="#000000"/>
        <path d="M703.276,66.127 L726.486,66.127 L726.486,64.055 L703.276,64.055 L703.276,66.127 z M703.276,73.585 L726.486,73.585 L726.486,71.513 L703.276,71.513 L703.276,73.585" fill="#000000"/>
        <path d="M762.204,22.183 C750.702,22.183 750.702,48.605 750.702,69.467 C750.702,88.429 750.702,114.333 744.382,114.333 L742.346,111.295 C741.93,111.017 741.48,110.879 741.032,110.879 C739.72,110.879 738.476,111.985 738.476,113.539 C738.476,115.507 740.514,116.751 742.654,116.751 C754.158,116.751 754.158,90.329 754.158,69.467 C754.158,50.505 754.158,24.601 760.476,24.601 L762.514,27.643 C762.93,27.917 763.38,28.055 763.826,28.055 C765.138,28.055 766.382,26.951 766.382,25.395 C766.382,23.427 764.346,22.183 762.204,22.183" fill="#000000"/>
        <path d="M775.546,30.661 C780.882,26.411 783.804,23.683 783.804,20.639 C783.804,17.911 781.898,16.077 778.782,16.077 C775.788,16.077 773.664,17.789 773.664,19.479 C773.664,20.301 774.17,20.833 775.018,20.833 C775.402,20.833 775.764,20.711 776.102,20.471 L776.102,17.887 C776.826,17.477 777.526,17.307 778.252,17.307 C780.254,17.307 781.464,18.657 781.464,20.951 C781.464,24.117 778.446,26.749 773.158,31.045 L773.158,32.567 L784.336,32.567 L784.336,28.607 L783.248,28.607 L782.814,30.661 L775.546,30.661" fill="#000000"/>
        <path d="M790.88,22.667 L791.698,22.667 C791.53,24.021 791.314,25.349 791.07,26.699 C790.758,28.221 790.032,29.717 788.946,30.999 C788.704,31.263 788.608,31.551 788.608,31.843 C788.608,32.349 788.97,32.787 789.574,32.787 C790.154,32.787 790.636,32.255 790.804,31.649 C791.218,30.007 791.626,28.343 792.014,26.699 L792.93,22.667 L796.868,22.667 L796.238,26.699 C796.046,27.787 795.902,28.945 795.902,29.935 C795.902,31.551 796.31,32.787 797.858,32.787 C799.16,32.787 800.32,31.551 800.586,30.151 L799.646,29.911 C799.524,30.513 798.87,30.949 798.22,30.949 C797.18,30.949 796.868,30.151 796.868,29.089 C796.868,28.367 797.01,27.495 797.18,26.699 L798.098,22.667 L801.02,22.667 L801.382,20.833 L791.242,20.833 C789.72,20.833 788.438,23.173 787.402,25.057 C787.354,25.155 787.33,25.227 787.33,25.299 C787.33,25.517 787.498,25.661 787.714,25.661 C787.86,25.661 788.03,25.565 788.152,25.371 C788.898,24.139 789.598,22.667 790.88,22.667" fill="#000000"/>
        <path d="M765.854,100.077 C762.402,100.077 760.132,103.117 760.132,108.455 C760.132,113.789 762.402,116.857 765.854,116.857 C769.308,116.857 771.576,113.789 771.576,108.455 C771.576,103.117 769.308,100.077 765.854,100.077 z M765.854,101.211 C768.076,101.211 769.282,103.673 769.282,108.455 C769.282,113.235 768.076,115.699 765.854,115.699 C763.632,115.699 762.402,113.257 762.402,108.477 C762.402,103.673 763.632,101.211 765.854,101.211" fill="#000000"/>
        <path d="M834.804,22.183 C823.302,22.183 823.302,48.605 823.302,69.467 C823.302,88.429 823.302,114.333 816.982,114.333 L814.946,111.295 C814.53,111.017 814.08,110.879 813.632,110.879 C812.32,110.879 811.076,111.985 811.076,113.539 C811.076,115.507 813.114,116.751 815.254,116.751 C826.758,116.751 826.758,90.329 826.758,69.467 C826.758,50.505 826.758,24.601 833.076,24.601 L835.114,27.643 C835.53,27.917 835.98,28.055 836.426,28.055 C837.738,28.055 838.982,26.951 838.982,25.395 C838.982,23.427 836.946,22.183 834.804,22.183" fill="#000000"/>
        <path d="M856.048,24.021 C855.592,22.257 854.602,20.929 852.742,20.929 C849.82,20.929 847.286,23.295 846.632,26.651 C846.536,27.207 846.488,27.761 846.488,28.293 C846.488,30.999 847.96,32.787 850.376,32.787 C852.186,32.787 853.61,31.843 854.818,30.371 C854.964,31.745 855.374,32.787 856.436,32.787 C857.426,32.787 858.874,31.383 859.986,30.299 L859.404,29.599 C858.924,30.055 858.152,30.805 857.958,30.805 C856.654,30.805 856.338,29.523 856.314,28.101 C857.474,25.951 858.392,23.343 859.26,20.929 L857.16,20.929 C856.824,21.917 856.436,22.979 856.048,24.021 z M854.796,27.061 C853.586,29.743 852.21,31.843 850.688,31.843 C849.238,31.843 848.42,30.661 848.42,28.751 C848.42,28.245 848.492,27.663 848.61,27.061 C849.218,23.923 850.76,21.871 852.548,21.871 C854.48,21.871 854.818,23.899 854.818,26.023 C854.818,26.387 854.796,26.723 854.796,27.061" fill="#000000"/>
        <path d="M838.654,100.077 C835.202,100.077 832.932,103.117 832.932,108.455 C832.932,113.789 835.202,116.857 838.654,116.857 C842.108,116.857 844.376,113.789 844.376,108.455 C844.376,103.117 842.108,100.077 838.654,100.077 z M838.654,101.211 C840.876,101.211 842.082,103.673 842.082,108.455 C842.082,113.235 840.876,115.699 838.654,115.699 C836.432,115.699 835.202,113.257 835.202,108.477 C835.202,103.673 836.432,101.211 838.654,101.211" fill="#000000"/>
        <path d="M869.768,55.593 L869.768,56.905 L872.22,57.111 L872.598,57.595 L868.904,76.799 L868.352,77.283 L866.138,77.455 L866.138,78.767 L874.568,78.767 L874.568,77.455 L872.324,77.283 L871.908,76.799 L873.532,68.507 C874.258,68.473 874.88,68.439 875.432,68.439 C876.364,68.439 877.02,68.507 877.436,68.717 C879.196,69.511 879.404,70.893 879.852,72.895 C880.37,75.245 880.682,77.039 881.924,78.077 C882.58,78.629 883.652,78.939 885.102,78.939 C885.654,78.939 886.448,78.871 887.52,78.733 L887.52,77.455 C887.418,77.455 887.314,77.455 887.208,77.455 C884.548,77.455 883.892,76.593 883.168,73.967 C882.236,70.721 881.958,68.473 878.92,67.817 C883.342,66.851 885.792,64.157 885.792,60.633 C885.792,57.077 883.41,55.593 878.504,55.593 L869.768,55.593 z M873.842,66.851 L875.708,57.215 C876.226,57.179 876.71,57.145 877.158,57.145 C880.786,57.145 882.51,58.389 882.51,61.151 C882.51,64.711 879.92,66.887 875.12,66.887 C874.704,66.887 874.292,66.887 873.842,66.851" fill="#000000"/>
        <path d="M891.346,62.261 C896.682,58.011 899.604,55.283 899.604,52.239 C899.604,49.511 897.698,47.677 894.582,47.677 C891.588,47.677 889.464,49.389 889.464,51.079 C889.464,51.901 889.97,52.433 890.818,52.433 C891.202,52.433 891.564,52.311 891.902,52.071 L891.902,49.487 C892.626,49.077 893.326,48.907 894.052,48.907 C896.054,48.907 897.264,50.257 897.264,52.551 C897.264,55.717 894.246,58.349 888.958,62.645 L888.958,64.167 L900.136,64.167 L900.136,60.207 L899.048,60.207 L898.614,62.261 L891.346,62.261" fill="#000000"/>
        <path d="M919.824,62.567 C918.648,62.051 917.302,61.807 915.782,61.807 C911.846,61.807 909.67,63.605 909.67,66.645 C909.67,68.957 911.188,70.065 914.124,71.377 C916.404,72.411 917.648,73.033 917.648,74.829 C917.648,76.451 916.404,77.627 914.402,77.627 C913.398,77.627 912.432,77.351 911.464,76.799 L911.052,73.863 L909.392,73.863 L909.392,78.351 C910.602,78.801 912.12,79.077 913.882,79.077 C917.958,79.077 920.342,77.107 920.342,73.899 C920.342,72.621 919.858,71.583 919.03,70.927 C917.888,69.995 916.576,69.511 915.368,68.923 C913.432,67.993 912.432,67.267 912.432,65.779 C912.432,64.227 913.468,63.295 915.298,63.295 C916.126,63.295 916.958,63.537 917.854,64.021 L918.13,66.471 L919.824,66.471 L919.824,62.567" fill="#000000"/>
        <path d="M927.06,54.315 C925.954,54.315 925.058,55.177 925.058,56.317 C925.058,57.423 925.954,58.287 927.06,58.287 C928.168,58.287 929.064,57.423 929.064,56.317 C929.064,55.211 928.168,54.315 927.06,54.315 z M926.924,61.983 L922.952,63.223 L922.952,64.295 L925.37,64.295 L925.37,76.799 L924.782,77.351 L922.952,77.523 L922.952,78.767 L930.724,78.767 L930.724,77.523 L928.858,77.351 L928.236,76.799 L928.236,61.983 L926.924,61.983" fill="#000000"/>
        <path d="M932.38,78.767 L939.942,78.767 L939.942,77.523 L938.286,77.351 L937.698,76.799 L937.698,65.227 C939.182,64.467 940.46,64.089 941.568,64.089 C944.12,64.089 945.054,65.123 945.054,67.645 L945.054,76.799 L944.468,77.351 L942.808,77.523 L942.808,78.767 L950.374,78.767 L950.374,77.523 L948.508,77.351 L947.92,76.799 L947.92,67.057 C947.92,63.605 946.264,61.807 943.258,61.807 C941.774,61.807 940.01,62.601 937.698,63.879 L937.698,61.983 L936.386,61.983 L932.38,63.223 L932.38,64.295 L934.83,64.295 L934.83,76.799 L934.242,77.351 L932.38,77.523 L932.38,78.767" fill="#000000"/>
        <path d="M969.592,53.037 C965.068,53.037 960.786,58.457 959.332,66.057 C959.024,67.645 958.852,69.163 958.852,70.549 C958.852,75.693 960.958,79.077 964.514,79.077 C969.038,79.077 973.324,73.655 974.808,66.057 C975.118,64.467 975.258,62.949 975.258,61.567 C975.258,56.421 973.148,53.037 969.592,53.037 z M962.408,65.263 C963.686,58.667 966.414,54.383 969.318,54.383 C971.424,54.383 972.564,56.593 972.564,60.289 C972.564,61.739 972.388,63.399 972.046,65.263 L962.408,65.263 z M962.098,66.851 L971.732,66.851 C970.454,73.449 967.692,77.729 964.792,77.729 C962.686,77.729 961.546,75.521 961.546,71.823 C961.546,70.373 961.718,68.717 962.098,66.851" fill="#000000"/>
        <path d="M996.548,53.345 L991.264,54.349 L991.264,55.315 L994.302,55.661 L993.096,62.567 C992.16,62.155 991.264,61.983 990.33,61.983 C987.464,61.983 984.424,63.707 982.56,66.645 C981.454,68.405 980.868,70.549 980.868,72.895 C980.868,76.833 982.63,79.077 985.392,79.077 C987.224,79.077 989.088,78.007 990.78,75.867 C990.746,76.107 990.746,76.349 990.746,76.557 C990.746,78.249 991.47,79.007 993.06,79.007 C993.958,79.007 995.408,78.699 997.308,78.007 L997.308,76.971 C996.27,77.215 995.51,77.351 995.064,77.351 C994.026,77.351 993.542,76.867 993.542,75.901 C993.542,75.451 993.61,74.795 993.752,74.037 L997.446,53.345 L996.548,53.345 z M990.952,63.433 L992.61,65.401 L991.058,74.173 C989.502,76.143 987.914,77.107 986.636,77.107 C984.838,77.107 983.664,75.589 983.664,72.861 C983.664,67.093 987.014,63.329 990.124,63.329 C990.368,63.329 990.642,63.399 990.952,63.433" fill="#000000"/>
        <path d="M1014.392,53.037 C1009.868,53.037 1005.586,58.457 1004.132,66.057 C1003.824,67.645 1003.652,69.163 1003.652,70.549 C1003.652,75.693 1005.758,79.077 1009.314,79.077 C1013.838,79.077 1018.124,73.655 1019.608,66.057 C1019.918,64.467 1020.058,62.949 1020.058,61.567 C1020.058,56.421 1017.948,53.037 1014.392,53.037 z M1007.208,65.263 C1008.486,58.667 1011.214,54.383 1014.118,54.383 C1016.224,54.383 1017.364,56.593 1017.364,60.289 C1017.364,61.739 1017.188,63.399 1016.846,65.263 L1007.208,65.263 z M1006.898,66.851 L1016.532,66.851 C1015.254,73.449 1012.492,77.729 1009.592,77.729 C1007.486,77.729 1006.346,75.521 1006.346,71.823 C1006.346,70.373 1006.518,68.717 1006.898,66.851" fill="#000000"/>
        <path d="M1041.348,53.345 L1036.064,54.349 L1036.064,55.315 L1039.102,55.661 L1037.896,62.567 C1036.96,62.155 1036.064,61.983 1035.13,61.983 C1032.264,61.983 1029.224,63.707 1027.36,66.645 C1026.254,68.405 1025.668,70.549 1025.668,72.895 C1025.668,76.833 1027.43,79.077 1030.192,79.077 C1032.024,79.077 1033.888,78.007 1035.58,75.867 C1035.546,76.107 1035.546,76.349 1035.546,76.557 C1035.546,78.249 1036.27,79.007 1037.86,79.007 C1038.758,79.007 1040.208,78.699 1042.108,78.007 L1042.108,76.971 C1041.07,77.215 1040.31,77.351 1039.864,77.351 C1038.826,77.351 1038.342,76.867 1038.342,75.901 C1038.342,75.451 1038.41,74.795 1038.552,74.037 L1042.246,53.345 L1041.348,53.345 z M1035.752,63.433 L1037.41,65.401 L1035.858,74.173 C1034.302,76.143 1032.714,77.107 1031.436,77.107 C1029.638,77.107 1028.464,75.589 1028.464,72.861 C1028.464,67.093 1031.814,63.329 1034.924,63.329 C1035.168,63.329 1035.442,63.399 1035.752,63.433" fill="#000000"/>
        <path d="M1055.454,79.007 L1053.868,86.295 L1056.836,86.295 L1058.08,79.007 C1063.432,78.527 1067.682,75.177 1068.546,70.583 C1068.648,70.065 1068.718,69.511 1068.718,69.027 C1068.718,65.157 1065.714,62.465 1060.98,62.155 L1062.468,53.345 L1061.014,53.345 L1059.118,62.155 C1053.588,62.499 1049.17,65.921 1048.236,70.583 C1048.132,71.133 1048.098,71.685 1048.098,72.171 C1048.098,75.935 1050.93,78.595 1055.454,79.007 z M1058.354,77.455 L1060.704,63.707 C1063.882,64.055 1065.748,66.127 1065.748,69.237 C1065.748,69.787 1065.68,70.373 1065.538,70.995 C1064.882,74.555 1062.086,76.971 1058.354,77.455 z M1058.77,63.707 L1055.802,77.421 C1052.796,77.005 1051.068,74.967 1051.068,71.965 C1051.068,71.411 1051.136,70.823 1051.242,70.201 C1051.968,66.539 1054.868,64.055 1058.77,63.707" fill="#000000"/>
      </g>
      <g id="Layer_1">
        <path d="M605.642,154.843 L592.898,176.707 L591,176.913 L591,178.225 L597.836,178.225 L597.836,176.913 L595.73,176.741 L595.456,176.257 L599.148,169.659 L607.542,169.659 L608.614,176.257 L608.37,176.741 L606.334,176.913 L606.334,178.225 L613.898,178.225 L613.898,176.913 L612.206,176.741 L611.618,176.119 L607.924,154.843 L605.642,154.843 z M605.642,158.229 L607.23,168.175 L600.014,168.175 L605.642,158.229 z" fill="#000000"/>
        <path d="M622.862,165.585 L646.07,165.585 L646.07,163.513 L622.862,163.513 L622.862,165.585 z M622.862,173.043 L646.07,173.043 L646.07,170.971 L622.862,170.971 L622.862,173.043" fill="#000000"/>
        <path d="M660.796,175.497 C668.43,169.419 672.608,165.515 672.608,161.163 C672.608,157.259 669.88,154.635 665.424,154.635 C661.142,154.635 658.102,157.087 658.102,159.507 C658.102,160.679 658.828,161.441 660.036,161.441 C660.59,161.441 661.108,161.265 661.592,160.921 L661.592,157.225 C662.628,156.637 663.63,156.397 664.664,156.397 C667.534,156.397 669.258,158.331 669.258,161.613 C669.258,166.137 664.942,169.899 657.378,176.049 L657.378,178.225 L673.368,178.225 L673.368,172.559 L671.814,172.559 L671.192,175.497 L660.796,175.497" fill="#000000"/>
        <path d="M682.762,164.065 L683.934,164.065 C683.692,165.997 683.384,167.897 683.036,169.831 C682.586,172.009 681.552,174.149 679.996,175.981 C679.652,176.359 679.514,176.775 679.514,177.187 C679.514,177.915 680.03,178.535 680.896,178.535 C681.724,178.535 682.414,177.775 682.656,176.913 C683.242,174.563 683.83,172.181 684.384,169.831 L685.696,164.065 L691.328,164.065 L690.428,169.831 C690.152,171.387 689.942,173.043 689.942,174.459 C689.942,176.775 690.53,178.535 692.742,178.535 C694.608,178.535 696.264,176.775 696.646,174.771 L695.298,174.425 C695.124,175.291 694.192,175.909 693.262,175.909 C691.774,175.909 691.328,174.771 691.328,173.249 C691.328,172.215 691.534,170.971 691.774,169.831 L693.086,164.065 L697.268,164.065 L697.784,161.441 L683.278,161.441 C681.102,161.441 679.27,164.791 677.786,167.485 C677.718,167.621 677.684,167.725 677.684,167.827 C677.684,168.141 677.924,168.347 678.236,168.347 C678.442,168.347 678.684,168.209 678.858,167.931 C679.928,166.171 680.93,164.065 682.762,164.065" fill="#000000"/>
        <path d="M702.152,155.049 L702.152,156.363 L704.606,156.569 L704.984,157.053 L701.29,176.257 L700.736,176.741 L698.524,176.913 L698.524,178.225 L706.952,178.225 L706.952,176.913 L704.708,176.741 L704.292,176.257 L705.918,167.965 C706.642,167.931 707.264,167.897 707.818,167.897 C708.748,167.897 709.406,167.965 709.82,168.175 C711.58,168.969 711.79,170.349 712.236,172.353 C712.756,174.703 713.068,176.497 714.308,177.535 C714.964,178.087 716.036,178.397 717.486,178.397 C718.04,178.397 718.834,178.327 719.906,178.191 L719.906,176.913 C719.802,176.913 719.698,176.913 719.592,176.913 C716.934,176.913 716.278,176.049 715.552,173.425 C714.62,170.179 714.342,167.931 711.306,167.275 C715.728,166.309 718.178,163.615 718.178,160.091 C718.178,156.535 715.796,155.049 710.89,155.049 L702.152,155.049 z M706.228,166.309 L708.092,156.671 C708.612,156.637 709.096,156.603 709.542,156.603 C713.17,156.603 714.896,157.847 714.896,160.609 C714.896,164.169 712.306,166.343 707.506,166.343 C707.09,166.343 706.678,166.343 706.228,166.309" fill="#000000"/>
        <path d="M723.73,161.719 C729.068,157.469 731.99,154.741 731.99,151.697 C731.99,148.969 730.084,147.135 726.968,147.135 C723.974,147.135 721.848,148.847 721.848,150.537 C721.848,151.359 722.356,151.891 723.202,151.891 C723.586,151.891 723.948,151.769 724.286,151.529 L724.286,148.943 C725.012,148.535 725.712,148.365 726.436,148.365 C728.44,148.365 729.648,149.715 729.648,152.009 C729.648,155.175 726.63,157.807 721.342,162.103 L721.342,163.625 L732.52,163.625 L732.52,159.665 L731.434,159.665 L730.998,161.719 L723.73,161.719" fill="#000000"/>
        <path d="M740.396,168.279 C740.396,158.815 743.162,154.115 747.134,153.425 L747.134,151.837 C741.398,152.529 737.462,157.847 737.462,168.279 C737.462,178.709 741.398,184.029 747.134,184.719 L747.134,183.127 C743.162,182.437 740.396,177.741 740.396,168.279" fill="#000000"/>
        <path d="M759.668,154.635 L752.174,156.881 L752.174,158.331 L757.596,157.363 L757.596,175.947 L757.184,176.531 L753.208,176.741 L753.208,178.225 L764.78,178.225 L764.78,176.775 L761.048,176.603 L760.636,176.085 L760.636,154.635 L759.668,154.635" fill="#000000"/>
        <path d="M775.356,169.313 L798.842,169.313 L798.842,167.241 L775.356,167.241 z" fill="#000000"/>
        <path d="M820.806,176.775 L820.806,174.977 C819.356,175.947 817.94,176.429 816.422,176.429 C812.828,176.429 810.55,173.907 810.55,169.659 C810.55,165.307 812.656,162.647 815.624,162.647 C816.212,162.647 816.766,162.821 817.284,163.131 L817.284,165.963 C817.804,166.309 818.318,166.481 818.838,166.481 C820.012,166.481 820.772,165.757 820.772,164.649 C820.772,162.647 818.906,161.265 815.59,161.265 C810.756,161.265 807.406,164.757 807.406,169.899 C807.406,175.013 810.482,178.465 815.178,178.465 C817.044,178.465 818.906,177.877 820.806,176.775" fill="#000000"/>
        <path d="M830.818,161.265 C826.156,161.265 822.806,164.757 822.806,169.899 C822.806,175.013 826.19,178.535 830.818,178.535 C835.446,178.535 838.866,175.013 838.866,169.899 C838.866,164.791 835.482,161.265 830.818,161.265 z M830.818,162.753 C833.616,162.753 835.618,165.447 835.618,169.899 C835.618,174.391 833.616,177.049 830.818,177.049 C828.056,177.049 826.054,174.357 826.054,169.899 C826.054,165.413 828.022,162.753 830.818,162.753" fill="#000000"/>
        <path d="M851.81,162.025 C850.634,161.509 849.288,161.265 847.768,161.265 C843.832,161.265 841.656,163.063 841.656,166.103 C841.656,168.415 843.174,169.521 846.11,170.835 C848.39,171.869 849.634,172.491 849.634,174.287 C849.634,175.909 848.39,177.085 846.388,177.085 C845.384,177.085 844.418,176.809 843.45,176.257 L843.038,173.321 L841.378,173.321 L841.378,177.809 C842.588,178.259 844.106,178.535 845.868,178.535 C849.944,178.535 852.328,176.565 852.328,173.357 C852.328,172.077 851.844,171.041 851.016,170.385 C849.874,169.453 848.562,168.969 847.354,168.381 C845.418,167.449 844.418,166.725 844.418,165.237 C844.418,163.685 845.454,162.753 847.284,162.753 C848.112,162.753 848.944,162.993 849.84,163.479 L850.116,165.929 L851.81,165.929 L851.81,162.025" fill="#000000"/>
        <path d="M874.416,165.997 C873.76,163.479 872.344,161.579 869.684,161.579 C865.506,161.579 861.878,164.963 860.946,169.763 C860.806,170.557 860.738,171.353 860.738,172.113 C860.738,175.981 862.846,178.535 866.3,178.535 C868.89,178.535 870.928,177.187 872.654,175.081 C872.862,177.049 873.45,178.535 874.968,178.535 C876.384,178.535 878.456,176.531 880.046,174.977 L879.216,173.977 C878.524,174.635 877.422,175.703 877.144,175.703 C875.278,175.703 874.832,173.871 874.796,171.835 C876.454,168.763 877.766,165.031 879.01,161.579 L876.006,161.579 C875.522,162.993 874.968,164.513 874.416,165.997 z M872.618,170.349 C870.894,174.185 868.924,177.187 866.746,177.187 C864.674,177.187 863.504,175.497 863.504,172.769 C863.504,172.043 863.606,171.213 863.778,170.349 C864.64,165.859 866.854,162.925 869.41,162.925 C872.172,162.925 872.654,165.825 872.654,168.865 C872.654,169.385 872.618,169.865 872.618,170.349" fill="#000000"/>
        <path d="M889.796,168.279 C889.796,177.741 887.034,182.437 883.062,183.127 L883.062,184.719 C888.796,184.029 892.734,178.709 892.734,168.279 C892.734,157.847 888.796,152.529 883.062,151.837 L883.062,153.425 C887.034,154.115 889.796,158.815 889.796,168.279" fill="#000000"/>
        <path d="M904.662,165.585 L927.872,165.585 L927.872,163.513 L904.662,163.513 L904.662,165.585 z M904.662,173.043 L927.872,173.043 L927.872,170.971 L904.662,170.971 L904.662,173.043" fill="#000000"/>
        <path d="M950.438,154.843 L938.66,169.279 L938.66,171.525 L949.782,171.525 L949.782,179.503 L952.44,179.503 L952.44,171.525 L956.344,171.525 L956.344,169.279 L952.44,169.279 L952.44,154.843 L950.438,154.843 z M949.782,158.607 L949.782,169.279 L941.25,169.279 L949.782,158.607 z" fill="#000000"/>
        <path d="M964.562,164.065 L965.734,164.065 C965.494,165.997 965.184,167.897 964.838,169.831 C964.388,172.009 963.354,174.149 961.796,175.981 C961.454,176.359 961.316,176.775 961.316,177.187 C961.316,177.915 961.832,178.535 962.696,178.535 C963.524,178.535 964.216,177.775 964.456,176.913 C965.044,174.563 965.632,172.181 966.184,169.831 L967.496,164.065 L973.128,164.065 L972.228,169.831 C971.954,171.387 971.744,173.043 971.744,174.459 C971.744,176.775 972.332,178.535 974.544,178.535 C976.41,178.535 978.066,176.775 978.446,174.771 L977.1,174.425 C976.924,175.291 975.994,175.909 975.062,175.909 C973.574,175.909 973.128,174.771 973.128,173.249 C973.128,172.215 973.334,170.971 973.574,169.831 L974.888,164.065 L979.068,164.065 L979.584,161.441 L965.078,161.441 C962.904,161.441 961.072,164.791 959.588,167.485 C959.518,167.621 959.484,167.725 959.484,167.827 C959.484,168.141 959.724,168.347 960.038,168.347 C960.244,168.347 960.484,168.209 960.66,167.931 C961.728,166.171 962.732,164.065 964.562,164.065" fill="#000000"/>
        <path d="M983.954,155.049 L983.954,156.363 L986.406,156.569 L986.784,157.053 L983.09,176.257 L982.538,176.741 L980.324,176.913 L980.324,178.225 L988.754,178.225 L988.754,176.913 L986.51,176.741 L986.094,176.257 L987.718,167.965 C988.444,167.931 989.066,167.897 989.618,167.897 C990.55,167.897 991.206,167.965 991.622,168.175 C993.382,168.969 993.59,170.349 994.038,172.353 C994.556,174.703 994.868,176.497 996.11,177.535 C996.766,178.087 997.838,178.397 999.288,178.397 C999.84,178.397 1000.634,178.327 1001.706,178.191 L1001.706,176.913 C1001.604,176.913 1001.5,176.913 1001.394,176.913 C998.734,176.913 998.078,176.049 997.354,173.425 C996.422,170.179 996.144,167.931 993.106,167.275 C997.528,166.309 999.978,163.615 999.978,160.091 C999.978,156.535 997.596,155.049 992.69,155.049 L983.954,155.049 z M988.028,166.309 L989.894,156.671 C990.412,156.637 990.896,156.603 991.344,156.603 C994.972,156.603 996.696,157.847 996.696,160.609 C996.696,164.169 994.106,166.343 989.306,166.343 C988.89,166.343 988.478,166.343 988.028,166.309" fill="#000000"/>
        <path d="M1005.532,161.719 C1010.868,157.469 1013.79,154.741 1013.79,151.697 C1013.79,148.969 1011.884,147.135 1008.768,147.135 C1005.774,147.135 1003.65,148.847 1003.65,150.537 C1003.65,151.359 1004.156,151.891 1005.004,151.891 C1005.388,151.891 1005.75,151.769 1006.088,151.529 L1006.088,148.943 C1006.812,148.535 1007.512,148.365 1008.238,148.365 C1010.24,148.365 1011.45,149.715 1011.45,152.009 C1011.45,155.175 1008.432,157.807 1003.144,162.103 L1003.144,163.625 L1014.322,163.625 L1014.322,159.665 L1013.234,159.665 L1012.8,161.719 L1005.532,161.719" fill="#000000"/>
        <path d="M1034.01,162.025 C1032.834,161.509 1031.488,161.265 1029.968,161.265 C1026.032,161.265 1023.856,163.063 1023.856,166.103 C1023.856,168.415 1025.374,169.521 1028.31,170.835 C1030.59,171.869 1031.834,172.491 1031.834,174.287 C1031.834,175.909 1030.59,177.085 1028.588,177.085 C1027.584,177.085 1026.618,176.809 1025.65,176.257 L1025.238,173.321 L1023.578,173.321 L1023.578,177.809 C1024.788,178.259 1026.306,178.535 1028.068,178.535 C1032.144,178.535 1034.528,176.565 1034.528,173.357 C1034.528,172.077 1034.044,171.041 1033.216,170.385 C1032.074,169.453 1030.762,168.969 1029.554,168.381 C1027.618,167.449 1026.618,166.725 1026.618,165.237 C1026.618,163.685 1027.654,162.753 1029.484,162.753 C1030.312,162.753 1031.144,162.993 1032.04,163.479 L1032.316,165.929 L1034.01,165.929 L1034.01,162.025" fill="#000000"/>
        <path d="M1041.246,153.771 C1040.14,153.771 1039.244,154.635 1039.244,155.775 C1039.244,156.881 1040.14,157.743 1041.246,157.743 C1042.354,157.743 1043.25,156.881 1043.25,155.775 C1043.25,154.669 1042.354,153.771 1041.246,153.771 z M1041.11,161.441 L1037.138,162.681 L1037.138,163.753 L1039.556,163.753 L1039.556,176.257 L1038.968,176.809 L1037.138,176.981 L1037.138,178.225 L1044.91,178.225 L1044.91,176.981 L1043.044,176.809 L1042.422,176.257 L1042.422,161.441 L1041.11,161.441" fill="#000000"/>
        <path d="M1046.566,178.225 L1054.128,178.225 L1054.128,176.981 L1052.472,176.809 L1051.884,176.257 L1051.884,164.685 C1053.368,163.925 1054.646,163.547 1055.754,163.547 C1058.306,163.547 1059.24,164.581 1059.24,167.103 L1059.24,176.257 L1058.654,176.809 L1056.994,176.981 L1056.994,178.225 L1064.56,178.225 L1064.56,176.981 L1062.694,176.809 L1062.106,176.257 L1062.106,166.515 C1062.106,163.063 1060.45,161.265 1057.444,161.265 C1055.96,161.265 1054.196,162.059 1051.884,163.337 L1051.884,161.441 L1050.572,161.441 L1046.566,162.681 L1046.566,163.753 L1049.016,163.753 L1049.016,176.257 L1048.428,176.809 L1046.566,176.981 L1046.566,178.225" fill="#000000"/>
        <path d="M1069.996,168.279 C1069.996,158.815 1072.762,154.115 1076.734,153.425 L1076.734,151.837 C1071,152.529 1067.062,157.847 1067.062,168.279 C1067.062,178.709 1071,184.029 1076.734,184.719 L1076.734,183.127 C1072.762,182.437 1069.996,177.741 1069.996,168.279" fill="#000000"/>
        <path d="M1094.416,165.997 C1093.76,163.479 1092.344,161.579 1089.684,161.579 C1085.506,161.579 1081.878,164.963 1080.946,169.763 C1080.806,170.557 1080.738,171.353 1080.738,172.113 C1080.738,175.981 1082.846,178.535 1086.3,178.535 C1088.89,178.535 1090.928,177.187 1092.654,175.081 C1092.862,177.049 1093.45,178.535 1094.968,178.535 C1096.384,178.535 1098.456,176.531 1100.046,174.977 L1099.216,173.977 C1098.524,174.635 1097.422,175.703 1097.144,175.703 C1095.278,175.703 1094.832,173.871 1094.796,171.835 C1096.454,168.763 1097.766,165.031 1099.01,161.579 L1096.006,161.579 C1095.522,162.993 1094.968,164.513 1094.416,165.997 z M1092.618,170.349 C1090.894,174.185 1088.924,177.187 1086.746,177.187 C1084.674,177.187 1083.504,175.497 1083.504,172.769 C1083.504,172.043 1083.606,171.213 1083.778,170.349 C1084.64,165.859 1086.854,162.925 1089.41,162.925 C1092.172,162.925 1092.654,165.825 1092.654,168.865 C1092.654,169.385 1092.618,169.865 1092.618,170.349" fill="#000000"/>
        <path d="M1116.6,151.837 L1114.424,151.837 L1103.062,184.719 L1105.238,184.719 L1116.6,151.837" fill="#000000"/>
        <path d="M1123.396,175.497 C1131.032,169.419 1135.21,165.515 1135.21,161.163 C1135.21,157.259 1132.482,154.635 1128.024,154.635 C1123.744,154.635 1120.704,157.087 1120.704,159.507 C1120.704,160.679 1121.428,161.441 1122.638,161.441 C1123.19,161.441 1123.71,161.265 1124.194,160.921 L1124.194,157.225 C1125.228,156.637 1126.232,156.397 1127.266,156.397 C1130.134,156.397 1131.86,158.331 1131.86,161.613 C1131.86,166.137 1127.544,169.899 1119.978,176.049 L1119.978,178.225 L1135.968,178.225 L1135.968,172.559 L1134.416,172.559 L1133.794,175.497 L1123.396,175.497" fill="#000000"/>
        <path d="M1146.396,168.279 C1146.396,177.741 1143.634,182.437 1139.662,183.127 L1139.662,184.719 C1145.396,184.029 1149.334,178.709 1149.334,168.279 C1149.334,157.847 1145.396,152.529 1139.662,151.837 L1139.662,153.425 C1143.634,154.115 1146.396,158.815 1146.396,168.279" fill="#000000"/>
      </g>
      <g id="Layer_1">
        <path d="M743.558,244.682 L744.284,244.682 C744.284,239.26 740.278,234.633 740.278,229.245 C740.278,225.342 743.078,222.82 747.358,222.82 C751.642,222.82 754.44,225.342 754.44,229.245 C754.44,234.633 750.434,239.26 750.434,244.682 L758.378,244.682 L758.378,239.051 L756.58,239.051 L756.096,242.023 L755.924,242.195 L752.264,242.195 C753.578,237.704 757.996,234.115 757.996,229.245 C757.996,224.408 753.578,220.954 747.358,220.954 C741.142,220.954 736.72,224.408 736.72,229.245 C736.72,234.115 741.142,237.704 742.456,242.195 L738.792,242.195 L738.62,242.023 L738.136,239.051 L736.34,239.051 L736.34,244.682 L743.558,244.682" fill="#000000"/>
        <path d="M769.92,232.043 L793.13,232.043 L793.13,229.971 L769.92,229.971 L769.92,232.043 z M769.92,239.501 L793.13,239.501 L793.13,237.429 L769.92,237.429 L769.92,239.501" fill="#000000"/>
        <path d="M807.856,241.955 C815.49,235.877 819.668,231.973 819.668,227.621 C819.668,223.717 816.94,221.093 812.484,221.093 C808.202,221.093 805.162,223.545 805.162,225.965 C805.162,227.137 805.886,227.899 807.096,227.899 C807.65,227.899 808.168,227.723 808.652,227.379 L808.652,223.683 C809.686,223.095 810.69,222.855 811.724,222.855 C814.592,222.855 816.318,224.789 816.318,228.071 C816.318,232.595 812.002,236.359 804.436,242.509 L804.436,244.683 L820.428,244.683 L820.428,239.017 L818.874,239.017 L818.252,241.955 L807.856,241.955" fill="#000000"/>
        <path d="M829.82,230.523 L830.992,230.523 C830.752,232.455 830.442,234.355 830.096,236.289 C829.646,238.467 828.612,240.609 827.056,242.439 C826.712,242.817 826.574,243.233 826.574,243.645 C826.574,244.373 827.09,244.993 827.956,244.993 C828.784,244.993 829.474,244.233 829.714,243.371 C830.302,241.021 830.89,238.639 831.442,236.289 L832.756,230.523 L838.386,230.523 L837.486,236.289 C837.212,237.845 837.002,239.501 837.002,240.917 C837.002,243.233 837.59,244.993 839.802,244.993 C841.668,244.993 843.324,243.233 843.706,241.229 L842.358,240.883 C842.184,241.749 841.252,242.367 840.32,242.367 C838.834,242.367 838.386,241.229 838.386,239.709 C838.386,238.673 838.592,237.429 838.834,236.289 L840.146,230.523 L844.328,230.523 L844.842,227.899 L830.336,227.899 C828.162,227.899 826.33,231.249 824.846,233.943 C824.778,234.079 824.742,234.183 824.742,234.287 C824.742,234.599 824.984,234.805 825.296,234.805 C825.502,234.805 825.742,234.667 825.918,234.389 C826.986,232.629 827.99,230.523 829.82,230.523" fill="#000000"/>
        <path d="M851.456,234.737 C851.456,225.273 854.22,220.573 858.192,219.883 L858.192,218.295 C852.458,218.987 848.52,224.305 848.52,234.737 C848.52,245.167 852.458,250.487 858.192,251.177 L858.192,249.587 C854.22,248.895 851.456,244.199 851.456,234.737" fill="#000000"/>
        <path d="M870.928,221.093 L863.434,223.339 L863.434,224.789 L868.856,223.821 L868.856,242.405 L868.442,242.989 L864.468,243.199 L864.468,244.683 L876.04,244.683 L876.04,243.233 L872.308,243.061 L871.896,242.543 L871.896,221.093 L870.928,221.093" fill="#000000"/>
        <path d="M886.614,235.771 L910.102,235.771 L910.102,233.699 L886.614,233.699 z" fill="#000000"/>
        <path d="M931.864,243.233 L931.864,241.437 C930.414,242.405 929,242.887 927.48,242.887 C923.886,242.887 921.608,240.365 921.608,236.117 C921.608,231.765 923.714,229.105 926.684,229.105 C927.27,229.105 927.824,229.279 928.342,229.589 L928.342,232.421 C928.862,232.767 929.378,232.939 929.896,232.939 C931.07,232.939 931.83,232.215 931.83,231.109 C931.83,229.105 929.964,227.723 926.65,227.723 C921.814,227.723 918.464,231.215 918.464,236.359 C918.464,241.471 921.54,244.923 926.236,244.923 C928.102,244.923 929.964,244.337 931.864,243.233" fill="#000000"/>
        <path d="M941.876,227.723 C937.214,227.723 933.864,231.214 933.864,236.359 C933.864,241.471 937.248,244.992 941.876,244.992 C946.504,244.992 949.924,241.471 949.924,236.359 C949.924,231.249 946.54,227.723 941.876,227.723 z M941.876,229.21 C944.674,229.21 946.676,231.904 946.676,236.359 C946.676,240.848 944.674,243.508 941.876,243.508 C939.114,243.508 937.112,240.814 937.112,236.359 C937.112,231.87 939.08,229.21 941.876,229.21" fill="#000000"/>
        <path d="M963.068,228.482 C961.892,227.966 960.546,227.723 959.026,227.723 C955.09,227.723 952.914,229.52 952.914,232.561 C952.914,234.872 954.432,235.979 957.368,237.292 C959.648,238.326 960.892,238.949 960.892,240.744 C960.892,242.367 959.648,243.542 957.646,243.542 C956.642,243.542 955.676,243.266 954.708,242.714 L954.296,239.779 L952.636,239.779 L952.636,244.266 C953.846,244.716 955.364,244.992 957.126,244.992 C961.202,244.992 963.586,243.022 963.586,239.814 C963.586,238.536 963.102,237.499 962.274,236.842 C961.132,235.91 959.82,235.426 958.612,234.839 C956.676,233.908 955.676,233.182 955.676,231.695 C955.676,230.143 956.712,229.21 958.542,229.21 C959.37,229.21 960.202,229.451 961.098,229.936 L961.374,232.387 L963.068,232.387 L963.068,228.482" fill="#000000"/>
        <path d="M985.674,232.455 C985.018,229.937 983.602,228.037 980.942,228.037 C976.764,228.037 973.136,231.421 972.204,236.221 C972.064,237.015 971.996,237.811 971.996,238.571 C971.996,242.439 974.104,244.993 977.558,244.993 C980.148,244.993 982.186,243.645 983.912,241.539 C984.12,243.509 984.708,244.993 986.226,244.993 C987.642,244.993 989.714,242.989 991.304,241.437 L990.474,240.437 C989.782,241.093 988.68,242.161 988.402,242.161 C986.536,242.161 986.09,240.329 986.054,238.293 C987.712,235.221 989.024,231.489 990.268,228.037 L987.264,228.037 C986.78,229.451 986.226,230.971 985.674,232.455 z M983.876,236.809 C982.152,240.643 980.182,243.645 978.004,243.645 C975.932,243.645 974.762,241.955 974.762,239.227 C974.762,238.501 974.864,237.671 975.036,236.809 C975.898,232.317 978.112,229.383 980.668,229.383 C983.43,229.383 983.912,232.283 983.912,235.323 C983.912,235.843 983.876,236.323 983.876,236.809" fill="#000000"/>
        <path d="M1001.054,234.736 C1001.054,244.199 998.292,248.895 994.32,249.587 L994.32,251.176 C1000.054,250.486 1003.992,245.167 1003.992,234.736 C1003.992,224.305 1000.054,218.986 994.32,218.294 L994.32,219.882 C998.292,220.572 1001.054,225.273 1001.054,234.736" fill="#000000"/>
      </g>
    </g>
    <g>
      <path d="M280.162,157.13 C297.47,157.13 314.502,161.472 329.696,169.758" fill-opacity="0" stroke="#000000" stroke-width="2"/>
      <path d="M280.162,33.246 L280.162,264.254" fill-opacity="0" stroke="#000000" stroke-width="2"/>
      <path d="M280.162,264.254 L401.942,33.246" fill-opacity="0" stroke="#000000" stroke-width="2"/>
      <path d="M280.162,264.254 L164.15,33.246" fill-opacity="0" stroke="#000000" stroke-width="2"/>
      <path d="M317.24,133.944 C316.582,131.426 315.168,129.526 312.508,129.526 C308.33,129.526 304.702,132.91 303.77,137.71 C303.63,138.504 303.562,139.302 303.562,140.06 C303.562,143.93 305.67,146.482 309.124,146.482 C311.714,146.482 313.752,145.136 315.476,143.03 C315.686,144.998 316.274,146.482 317.792,146.482 C319.208,146.482 321.28,144.48 322.87,142.926 L322.04,141.926 C321.348,142.582 320.246,143.652 319.968,143.652 C318.102,143.652 317.654,141.82 317.62,139.782 C319.276,136.71 320.59,132.98 321.832,129.526 L318.83,129.526 C318.346,130.942 317.792,132.46 317.24,133.944 z M315.442,138.298 C313.718,142.132 311.748,145.136 309.57,145.136 C307.498,145.136 306.326,143.444 306.326,140.716 C306.326,139.992 306.43,139.16 306.602,138.298 C307.464,133.808 309.676,130.872 312.232,130.872 C314.996,130.872 315.476,133.774 315.476,136.814 C315.476,137.332 315.442,137.814 315.442,138.298" fill="#000000" id="Layer_1"/>
      <path d="M250.728,97.436 L250.728,98.748 L253.182,98.956 L253.56,99.44 L249.866,118.642 L249.314,119.128 L247.1,119.298 L247.1,120.612 L255.528,120.612 L255.528,119.298 L253.286,119.128 L252.87,118.642 L254.494,110.352 C255.22,110.318 255.842,110.284 256.394,110.284 C257.326,110.284 257.982,110.352 258.398,110.562 C260.156,111.356 260.366,112.736 260.814,114.74 C261.332,117.09 261.644,118.884 262.886,119.92 C263.542,120.474 264.614,120.784 266.064,120.784 C266.616,120.784 267.41,120.714 268.482,120.576 L268.482,119.298 C268.378,119.298 268.276,119.298 268.17,119.298 C265.51,119.298 264.854,118.436 264.128,115.812 C263.198,112.564 262.92,110.318 259.882,109.662 C264.304,108.696 266.754,106.002 266.754,102.476 C266.754,98.92 264.372,97.436 259.466,97.436 L250.728,97.436 z M254.804,108.696 L256.67,99.058 C257.188,99.024 257.672,98.99 258.12,98.99 C261.748,98.99 263.472,100.234 263.472,102.996 C263.472,106.556 260.882,108.73 256.082,108.73 C255.666,108.73 255.254,108.73 254.804,108.696" fill="#000000" id="Layer_1"/>
      <g>
        <path d="M282.372,50.292 C217.08,50.292 164.15,42.66 164.15,33.246 C164.15,23.834 217.08,16.202 282.372,16.202 C347.666,16.202 400.596,23.834 400.596,33.246 C400.596,42.66 347.666,50.292 282.372,50.292 z" fill="#FFFFFF" fill-opacity="0.866"/>
        <path d="M282.372,50.292 C217.08,50.292 164.15,42.66 164.15,33.246 C164.15,23.834 217.08,16.202 282.372,16.202 C347.666,16.202 400.596,23.834 400.596,33.246 C400.596,42.66 347.666,50.292 282.372,50.292 z" fill-opacity="0" stroke="#000000" stroke-width="2"/>
      </g>
      <path d="M280.162,33.246 L280.162,3.062" fill-opacity="0" stroke="#000000" stroke-width="2"/>
      <path d="M19.09,254.486 C24.376,113.27 140.99,1.852 282.3,3.008 C423.61,4.164 538.386,117.476 541.36,258.758" fill-opacity="0" stroke="#000000" stroke-width="2"/>
    </g>
  </g>
</svg>
