<?xml version="1.0" encoding="utf-8" standalone="no"?>
<!DOCTYPE svg PUBLIC "-//W3C//DTD SVG 1.1//EN"
  "http://www.w3.org/Graphics/SVG/1.1/DTD/svg11.dtd">
<!-- Created with matplotlib (https://matplotlib.org/) -->
<svg height="211.506765pt" version="1.1" viewBox="0 0 274.394204 211.506765" width="274.394204pt" xmlns="http://www.w3.org/2000/svg" xmlns:xlink="http://www.w3.org/1999/xlink">
 <defs>
  <style type="text/css">
*{stroke-linecap:butt;stroke-linejoin:round;}
  </style>
 </defs>
 <g id="figure_1">
  <g id="patch_1">
   <path d="M 0 211.506765 
L 274.394204 211.506765 
L 274.394204 0 
L 0 0 
z
" style="fill:none;"/>
  </g>
  <g id="axes_1">
   <g id="patch_2">
    <path d="M 40.494204 173.78 
L 263.694204 173.78 
L 263.694204 10.7 
L 40.494204 10.7 
z
" style="fill:none;"/>
   </g>
   <g id="matplotlib.axis_1">
    <g id="xtick_1">
     <g id="line2d_1">
      <defs>
       <path d="M 0 0 
L 0 3.5 
" id="m2135836610" style="stroke:#000000;stroke-width:0.8;"/>
      </defs>
      <g>
       <use style="stroke:#000000;stroke-width:0.8;" x="50.635601" xlink:href="#m2135836610" y="173.78"/>
      </g>
     </g>
     <g id="text_1">
      <!-- $0$ -->
      <defs>
       <path d="M 42 31.640625 
C 42 37.75 41.90625 48.125 37.703125 56.109375 
C 34 63.109375 28.09375 65.59375 22.90625 65.59375 
C 18.09375 65.59375 12 63.40625 8.203125 56.203125 
C 4.203125 48.71875 3.796875 39.4375 3.796875 31.640625 
C 3.796875 25.953125 3.90625 17.28125 7 9.671875 
C 11.296875 -0.609375 19 -2 22.90625 -2 
C 27.5 -2 34.5 -0.109375 38.59375 9.375 
C 41.59375 16.28125 42 24.359375 42 31.640625 
z
M 22.90625 -0.40625 
C 16.5 -0.40625 12.703125 5.078125 11.296875 12.6875 
C 10.203125 18.5625 10.203125 27.15625 10.203125 32.75 
C 10.203125 40.4375 10.203125 46.828125 11.5 52.921875 
C 13.40625 61.390625 19 64 22.90625 64 
C 27 64 32.296875 61.296875 34.203125 53.125 
C 35.5 47.4375 35.59375 40.734375 35.59375 32.75 
C 35.59375 26.25 35.59375 18.265625 34.40625 12.375 
C 32.296875 1.484375 26.40625 -0.40625 22.90625 -0.40625 
z
" id="CMR17-48"/>
      </defs>
      <g transform="translate(48.144933 188.182234)scale(0.1 -0.1)">
       <use transform="scale(0.996264)" xlink:href="#CMR17-48"/>
      </g>
     </g>
    </g>
    <g id="xtick_2">
     <g id="line2d_2">
      <g>
       <use style="stroke:#000000;stroke-width:0.8;" x="91.21823" xlink:href="#m2135836610" y="173.78"/>
      </g>
     </g>
     <g id="text_2">
      <!-- $1$ -->
      <defs>
       <path d="M 26.59375 63.40625 
C 26.59375 65.5 26.5 65.5 25.09375 65.5 
C 21.203125 61.1875 15.296875 59.796875 9.703125 59.796875 
C 9.40625 59.796875 8.90625 59.796875 8.796875 59.5 
C 8.703125 59.296875 8.703125 59.09375 8.703125 57 
C 11.796875 57 17 57.59375 21 59.984375 
L 21 7.203125 
C 21 3.6875 20.796875 2.5 12.203125 2.5 
L 9.203125 2.5 
L 9.203125 0 
C 14 0 19 0 23.796875 0 
C 28.59375 0 33.59375 0 38.40625 0 
L 38.40625 2.5 
L 35.40625 2.5 
C 26.796875 2.5 26.59375 3.59375 26.59375 7.15625 
z
" id="CMR17-49"/>
      </defs>
      <g transform="translate(88.727563 188.182234)scale(0.1 -0.1)">
       <use transform="scale(0.996264)" xlink:href="#CMR17-49"/>
      </g>
     </g>
    </g>
    <g id="xtick_3">
     <g id="line2d_3">
      <g>
       <use style="stroke:#000000;stroke-width:0.8;" x="131.80086" xlink:href="#m2135836610" y="173.78"/>
      </g>
     </g>
     <g id="text_3">
      <!-- $2$ -->
      <defs>
       <path d="M 41.703125 15.453125 
L 39.90625 15.453125 
C 38.90625 8.375 38.09375 7.171875 37.703125 6.5625 
C 37.203125 5.765625 30 5.765625 28.59375 5.765625 
L 9.40625 5.765625 
C 13 9.671875 20 16.75 28.5 24.953125 
C 34.59375 30.734375 41.703125 37.53125 41.703125 47.421875 
C 41.703125 59.21875 32.296875 66 21.796875 66 
C 10.796875 66 4.09375 56.3125 4.09375 47.34375 
C 4.09375 43.4375 7 42.9375 8.203125 42.9375 
C 9.203125 42.9375 12.203125 43.546875 12.203125 47.03125 
C 12.203125 50.109375 9.59375 51 8.203125 51 
C 7.59375 51 7 50.90625 6.59375 50.703125 
C 8.5 59.21875 14.296875 63.40625 20.40625 63.40625 
C 29.09375 63.40625 34.796875 56.515625 34.796875 47.421875 
C 34.796875 38.734375 29.703125 31.25 24 24.75 
L 4.09375 2.28125 
L 4.09375 0 
L 39.296875 0 
z
" id="CMR17-50"/>
      </defs>
      <g transform="translate(129.310193 188.182234)scale(0.1 -0.1)">
       <use transform="scale(0.996264)" xlink:href="#CMR17-50"/>
      </g>
     </g>
    </g>
    <g id="xtick_4">
     <g id="line2d_4">
      <g>
       <use style="stroke:#000000;stroke-width:0.8;" x="172.38349" xlink:href="#m2135836610" y="173.78"/>
      </g>
     </g>
     <g id="text_4">
      <!-- $3$ -->
      <defs>
       <path d="M 22.09375 33.703125 
C 31 33.703125 34.90625 25.96875 34.90625 17.03125 
C 34.90625 5 28.5 0.390625 22.703125 0.390625 
C 17.40625 0.390625 8.796875 3.03125 6.09375 10.828125 
C 6.59375 10.625 7.09375 10.625 7.59375 10.625 
C 10 10.625 11.796875 12.21875 11.796875 14.8125 
C 11.796875 17.703125 9.59375 19 7.59375 19 
C 5.90625 19 3.296875 18.203125 3.296875 14.46875 
C 3.296875 5.234375 12.296875 -2 22.90625 -2 
C 34 -2 42.5 6.71875 42.5 16.953125 
C 42.5 26.671875 34.5 33.703125 25 34.796875 
C 32.59375 36.375 39.90625 43.0625 39.90625 52.015625 
C 39.90625 59.6875 32 65.296875 23 65.296875 
C 13.90625 65.296875 5.90625 59.828125 5.90625 52.015625 
C 5.90625 48.59375 8.5 48 9.796875 48 
C 11.90625 48 13.703125 49.296875 13.703125 51.890625 
C 13.703125 54.46875 11.90625 55.765625 9.796875 55.765625 
C 9.40625 55.765625 8.90625 55.765625 8.5 55.578125 
C 11.40625 61.859375 19.296875 63 22.796875 63 
C 26.296875 63 32.90625 61.328125 32.90625 51.875 
C 32.90625 49.109375 32.5 44.1875 29.09375 39.84375 
C 26.09375 36 22.703125 36 19.40625 35.6875 
C 18.90625 35.6875 16.59375 35.453125 16.203125 35.453125 
C 15.5 35.359375 15.09375 35.265625 15.09375 34.5 
C 15.09375 33.796875 15.203125 33.703125 17.203125 33.703125 
z
" id="CMR17-51"/>
      </defs>
      <g transform="translate(169.892823 188.182234)scale(0.1 -0.1)">
       <use transform="scale(0.996264)" xlink:href="#CMR17-51"/>
      </g>
     </g>
    </g>
    <g id="xtick_5">
     <g id="line2d_5">
      <g>
       <use style="stroke:#000000;stroke-width:0.8;" x="212.96612" xlink:href="#m2135836610" y="173.78"/>
      </g>
     </g>
     <g id="text_5">
      <!-- $4$ -->
      <defs>
       <path d="M 33.59375 64.40625 
C 33.59375 66.5 33.5 66.5 31.703125 66.5 
L 2 19.59375 
L 2 17 
L 27.796875 17 
L 27.796875 7.140625 
C 27.796875 3.5 27.59375 2.5 20.59375 2.5 
L 18.703125 2.5 
L 18.703125 0 
C 21.90625 0 27.296875 0 30.703125 0 
C 34.09375 0 39.5 0 42.703125 0 
L 42.703125 2.5 
L 40.796875 2.5 
C 33.796875 2.5 33.59375 3.5 33.59375 7.140625 
L 33.59375 17 
L 43.796875 17 
L 43.796875 19.59375 
L 33.59375 19.59375 
z
M 28.09375 57.859375 
L 28.09375 19.59375 
L 4 19.59375 
z
" id="CMR17-52"/>
      </defs>
      <g transform="translate(210.475452 188.182234)scale(0.1 -0.1)">
       <use transform="scale(0.996264)" xlink:href="#CMR17-52"/>
      </g>
     </g>
    </g>
    <g id="xtick_6">
     <g id="line2d_6">
      <g>
       <use style="stroke:#000000;stroke-width:0.8;" x="253.54875" xlink:href="#m2135836610" y="173.78"/>
      </g>
     </g>
     <g id="text_6">
      <!-- $5$ -->
      <defs>
       <path d="M 11.40625 57.6875 
C 12.40625 57.28125 16.5 56 20.703125 56 
C 30 56 35.09375 61.109375 38 64.0625 
C 38 64.953125 38 65.5 37.40625 65.5 
C 37.296875 65.5 37.09375 65.5 36.296875 65.046875 
C 32.796875 63.40625 28.703125 62.078125 23.703125 62.078125 
C 20.703125 62.078125 16.203125 62.484375 11.296875 64.671875 
C 10.203125 65.171875 10 65.171875 9.90625 65.171875 
C 9.40625 65.171875 9.296875 65.0625 9.296875 63.078125 
L 9.296875 34.421875 
C 9.296875 32.640625 9.296875 32.140625 10.296875 32.140625 
C 10.796875 32.140625 11 32.34375 11.5 33.03125 
C 14.703125 37.515625 19.09375 39.40625 24.09375 39.40625 
C 27.59375 39.40625 35.09375 37.21875 35.09375 20.140625 
C 35.09375 16.953125 35.09375 11.171875 32.09375 6.578125 
C 29.59375 2.484375 25.703125 0.390625 21.40625 0.390625 
C 14.796875 0.390625 8.09375 5 6.296875 12.71875 
C 6.703125 12.609375 7.5 12.421875 7.90625 12.421875 
C 9.203125 12.421875 11.703125 13.125 11.703125 16.21875 
C 11.703125 18.90625 9.796875 20 7.90625 20 
C 5.59375 20 4.09375 18.59375 4.09375 15.796875 
C 4.09375 7.09375 11 -2 21.59375 -2 
C 31.90625 -2 41.703125 6.875 41.703125 19.75 
C 41.703125 31.71875 33.90625 41 24.203125 41 
C 19.09375 41 14.796875 39.109375 11.40625 35.53125 
z
" id="CMR17-53"/>
      </defs>
      <g transform="translate(251.058082 188.182234)scale(0.1 -0.1)">
       <use transform="scale(0.996264)" xlink:href="#CMR17-53"/>
      </g>
     </g>
    </g>
    <g id="text_7">
     <!-- Relative Distance, $z/R$ [a.u.] -->
     <defs>
      <path d="M 3.296875 66.59375 
L 3.296875 62.59375 
L 9 61.984375 
L 10.703125 60.59375 
L 10.703125 5.765625 
L 9 4.390625 
L 3.296875 3.890625 
L 3.296875 -0.203125 
L 27.09375 -0.203125 
L 27.09375 3.890625 
L 21.40625 4.390625 
L 19.703125 5.765625 
L 19.703125 29.40625 
C 21.5 29.40625 23.203125 29.40625 24.703125 29.40625 
C 33.796875 29.40625 37.703125 26.84375 40.40625 18.734375 
C 42.5 12.4375 42.90625 6 47.703125 1.859375 
C 50 -0.125 53.296875 -1 57.796875 -1 
C 60.09375 -1 62.59375 -0.703125 65.59375 -0.109375 
L 65.59375 3.6875 
L 64.703125 3.6875 
C 57.09375 3.6875 53.90625 4.875 51.703125 10.71875 
C 49.90625 15.375 49.796875 20.8125 47 25.375 
C 45 28.640625 41.59375 30.71875 36.703125 32 
C 47.5 34.390625 52.90625 40 52.90625 48.59375 
C 52.90625 60.890625 45 66.59375 28.796875 66.59375 
z
M 19.703125 62 
L 24.5 62 
C 36.90625 62 42.90625 58.203125 42.90625 47.796875 
C 42.90625 37.90625 37.203125 34 25.203125 34 
C 24.59375 34 22.796875 34 19.703125 34 
z
" id="XCharter_Roman-82"/>
      <path d="M 44.796875 10.4375 
C 39.09375 6.65625 34.09375 4.6875 29.09375 4.6875 
C 19 4.6875 12.296875 12.21875 12.296875 24.90625 
L 12.296875 26 
L 44.703125 26 
C 44.796875 27.109375 44.796875 28.109375 44.796875 29.125 
C 44.796875 41.546875 37.703125 49 26.796875 49 
C 13.40625 49 3.703125 38.703125 3.703125 23.59375 
C 3.703125 8.890625 12.796875 -1 26 -1 
C 32.296875 -1 38.796875 0.984375 44.796875 4.984375 
z
M 35.90625 30.1875 
L 12.796875 30.1875 
C 13.40625 38.828125 19.09375 44.515625 25.5 44.515625 
C 32.203125 44.515625 35.90625 40.046875 35.90625 31.8125 
z
" id="XCharter_Roman-101"/>
      <path d="M 2.796875 0 
L 26.203125 0 
L 26.203125 3.609375 
L 20.5 4.109375 
L 18.703125 5.703125 
L 18.703125 73.5 
L 14.90625 73.5 
L 2.703125 70 
L 2.703125 67 
L 10.40625 67 
L 10.40625 5.703125 
L 8.703125 4.109375 
L 2.796875 3.609375 
z
" id="XCharter_Roman-108"/>
      <path d="M 33.40625 5.484375 
L 34.703125 -0.296875 
L 48.796875 -0.296875 
L 48.796875 3.296875 
L 43.5 3.796875 
L 41.703125 5.390625 
L 41.703125 34.546875 
C 41.703125 44.6875 37.296875 49 26.796875 49 
C 14.203125 49 6.59375 43.78125 6.59375 37.671875 
C 6.59375 35.25 7.40625 34.5625 9.703125 34.5625 
L 16.59375 34.5625 
L 16.59375 43 
C 19.296875 44.109375 21.703125 44.609375 24.203125 44.609375 
C 31.40625 44.609375 33.40625 41.3125 33.40625 33.359375 
L 33.40625 30.140625 
C 13.40625 25.328125 4.203125 22.3125 4.203125 11.859375 
C 4.203125 4.328125 9.09375 -1 17 -1 
C 21.796875 -1 27.09375 1.203125 33.40625 5.484375 
z
M 33.40625 8.921875 
C 28.40625 6 24.296875 4.390625 21 4.390625 
C 16 4.390625 13 7.71875 13 12.640625 
C 13 19.984375 19.296875 22.703125 33.40625 26.625 
z
" id="XCharter_Roman-97"/>
      <path d="M 8.796875 42.3125 
L 8.796875 10.078125 
C 8.796875 2.984375 10.90625 0 19.203125 0 
C 23.09375 0 27.59375 0.703125 32.296875 2.203125 
L 32.296875 5.890625 
C 30 5.390625 27.703125 5.09375 25.40625 5.09375 
C 18.40625 5.09375 17.09375 8.375 17.09375 15.96875 
L 17.09375 42.3125 
L 32.296875 42.3125 
L 32.296875 47 
L 17.09375 47 
L 17.09375 57.5 
L 13.40625 57.5 
L 9.09375 48.296875 
L 2.5 45.40625 
L 2.5 42.3125 
z
" id="XCharter_Roman-116"/>
      <path d="M 15.40625 70.484375 
C 12.203125 70.484375 9.59375 67.984375 9.59375 64.6875 
C 9.59375 61.5 12.203125 59 15.40625 59 
C 18.59375 59 21.203125 61.5 21.203125 64.6875 
C 21.203125 67.875 18.59375 70.484375 15.40625 70.484375 
z
M 15 48.34375 
L 3.5 44.765625 
L 3.5 41.6875 
L 10.5 41.6875 
L 10.5 5.671875 
L 8.796875 4.078125 
L 3.5 3.578125 
L 3.5 0 
L 26 0 
L 26 3.578125 
L 20.59375 4.078125 
L 18.796875 5.671875 
L 18.796875 48.34375 
z
" id="XCharter_Roman-105"/>
      <path d="M -0.5 48 
L -0.5 44.3125 
L 5.59375 43.71875 
L 21.703125 0 
L 27.296875 0 
L 44.796875 43.515625 
L 50.703125 44.3125 
L 50.703125 48 
L 33 48 
L 33 44.3125 
L 38.40625 43.921875 
L 39.203125 42.3125 
L 26.40625 9.6875 
L 14.703125 42.3125 
L 15.90625 43.921875 
L 21.203125 44.3125 
L 21.203125 48 
z
" id="XCharter_Roman-118"/>
      <path d="M 28 67 
L 3.296875 67 
L 3.296875 63 
L 9 62.390625 
L 10.703125 61.015625 
L 10.703125 5.984375 
L 9 4.59375 
L 3.296875 4.09375 
L 3.296875 0 
L 28 0 
C 38 0 45.59375 1.09375 52.40625 6.1875 
C 60.59375 12.375 64.90625 21.671875 64.90625 33.546875 
C 64.90625 54.53125 51.703125 67 28 67 
z
M 19.703125 62.40625 
L 27.59375 62.40625 
C 45.90625 62.40625 54.796875 53.03125 54.796875 33.546875 
C 54.796875 14.171875 45.90625 4.59375 27.59375 4.59375 
L 19.703125 4.59375 
z
" id="XCharter_Roman-68"/>
      <path d="M 34.40625 46.8125 
C 31 48.3125 27.09375 49 22.703125 49 
C 11.296875 49 5 43.796875 5 35 
C 5 28.296875 9.40625 25.09375 17.90625 21.296875 
C 24.5 18.28125 28.09375 16.484375 28.09375 11.28125 
C 28.09375 6.59375 24.5 3.1875 18.703125 3.1875 
C 15.796875 3.1875 13 3.984375 10.203125 5.578125 
L 9 14.09375 
L 4.203125 14.09375 
L 4.203125 1.09375 
C 7.703125 -0.203125 12.09375 -1 17.203125 -1 
C 29 -1 35.90625 4.703125 35.90625 14 
C 35.90625 17.703125 34.5 20.703125 32.09375 22.609375 
C 28.796875 25.296875 25 26.703125 21.5 28.40625 
C 15.90625 31.109375 13 33.203125 13 37.515625 
C 13 42.015625 16 44.71875 21.296875 44.71875 
C 23.703125 44.71875 26.09375 44.015625 28.703125 42.625 
L 29.5 35.5 
L 34.40625 35.5 
z
" id="XCharter_Roman-115"/>
      <path d="M 3 -0.5 
L 24.90625 -0.5 
L 24.90625 3.09375 
L 20.09375 3.59375 
L 18.40625 5.203125 
L 18.40625 38.6875 
C 22.703125 40.90625 26.40625 42 29.59375 42 
C 37 42 39.703125 39 39.703125 31.703125 
L 39.703125 5.203125 
L 38 3.59375 
L 33.203125 3.09375 
L 33.203125 -0.5 
L 55.09375 -0.5 
L 55.09375 3.09375 
L 49.703125 3.59375 
L 48 5.203125 
L 48 33.390625 
C 48 43.390625 43.203125 48.578125 34.5 48.578125 
C 30.203125 48.578125 25.09375 46.28125 18.40625 42.59375 
L 18.40625 48.078125 
L 14.59375 48.078125 
L 3 44.484375 
L 3 41.390625 
L 10.09375 41.390625 
L 10.09375 5.203125 
L 8.40625 3.59375 
L 3 3.09375 
z
" id="XCharter_Roman-110"/>
      <path d="M 42.5 3.890625 
L 42.5 9.109375 
C 38.296875 6.3125 34.203125 4.890625 29.796875 4.890625 
C 19.40625 4.890625 12.796875 12.21875 12.796875 24.59375 
C 12.796875 37.265625 18.90625 45 27.5 45 
C 29.203125 45 30.796875 44.5 32.296875 43.59375 
L 32.296875 35.34375 
C 33.796875 34.34375 35.296875 33.84375 36.796875 33.84375 
C 40.203125 33.84375 42.40625 35.953125 42.40625 39.15625 
C 42.40625 44.984375 37 48.984375 27.40625 48.984375 
C 13.40625 48.984375 3.703125 38.84375 3.703125 23.890625 
C 3.703125 9.046875 12.59375 -1 26.203125 -1 
C 31.59375 -1 37 0.703125 42.5 3.890625 
z
" id="XCharter_Roman-99"/>
      <path d="M 3.90625 -16.578125 
C 14 -15.46875 20.796875 -7.6875 20.796875 0.890625 
C 20.796875 7.28125 17.796875 10.875 12.796875 10.875 
C 9.40625 10.875 6.90625 8.6875 6.90625 5.390625 
C 6.90625 3.59375 7.40625 2.1875 8.5 1 
L 14.90625 1 
L 14.90625 -0.109375 
C 14.90625 -7.390625 11.203125 -11.875 3.90625 -13.28125 
z
" id="XCharter_Roman-44"/>
      <path d="M 12.703125 7.59375 
C 17 12.546875 20.5 15.6875 25.5 20.25 
C 31.5 25.5 34.09375 28.015625 35.5 29.546875 
C 42.5 36.53125 46 42.390625 46 43.1875 
C 46 44 45.203125 44 45 44 
C 44.296875 44 44.09375 43.640625 43.59375 42.96875 
C 41.09375 38.96875 38.703125 36.984375 36.09375 36.984375 
C 34 36.984375 32.90625 37.828125 31 40.078125 
C 28.90625 42.421875 27.203125 44 24.296875 44 
C 17 44 12.59375 35.265625 12.59375 33.25 
C 12.59375 32.9375 12.703125 32.3125 13.59375 32.3125 
C 14.40625 32.3125 14.5 32.671875 14.796875 33.328125 
C 16.5 37.0625 21.296875 37.71875 23.203125 37.71875 
C 25.296875 37.71875 27.296875 37.125 29.40625 36.359375 
C 33.203125 35 34.796875 35 35.796875 35 
C 36.5 35 36.90625 35 37.40625 35.09375 
C 34.09375 31.15625 28.703125 26.296875 24.203125 22.15625 
L 14.09375 12.75 
C 8 6.484375 4.296875 0.515625 4.296875 -0.1875 
C 4.296875 -0.796875 4.796875 -1 5.40625 -1 
C 6 -1 6.09375 -0.890625 6.796875 0.21875 
C 8.40625 2.546875 11.59375 6 15.296875 6 
C 17.40625 6 18.40625 5.34375 20.40625 3.015625 
C 22.296875 0.953125 24 -1 27.203125 -1 
C 37 -1 42.59375 11.4375 42.59375 13.6875 
C 42.59375 14.109375 42.5 14.71875 41.5 14.71875 
C 40.703125 14.71875 40.59375 14.328125 40.296875 13.359375 
C 38.09375 7.625 32.203125 5.28125 28.296875 5.28125 
C 26.203125 5.28125 24.203125 5.875 22.09375 6.640625 
C 18.09375 8 17 8 15.703125 8 
C 14.703125 8 13.59375 8 12.703125 7.59375 
z
" id="CMMI12-122"/>
      <path d="M 42.90625 71.28125 
C 42.90625 71.390625 43.5 72.90625 43.5 73.09375 
C 43.5 74.296875 42.5 75 41.703125 75 
C 41.203125 75 40.296875 75 39.5 72.796875 
L 6 -21.296875 
C 6 -21.40625 5.40625 -22.890625 5.40625 -23.09375 
C 5.40625 -24.296875 6.40625 -25 7.203125 -25 
C 7.796875 -25 8.703125 -24.890625 9.40625 -22.796875 
z
" id="CMMI12-61"/>
      <path d="M 36.796875 61.3125 
C 37.703125 65 38.09375 65 42 65 
L 49.203125 65 
C 57.796875 65 64.203125 62.421875 64.203125 54.671875 
C 64.203125 49.609375 61.59375 35 41.5 35 
L 30.203125 35 
z
M 50.703125 33.890625 
C 63.09375 36.578125 72.796875 44.546875 72.796875 53.09375 
C 72.796875 60.84375 64.90625 68 51 68 
L 23.90625 68 
C 21.90625 68 21 68 21 66.03125 
C 21 65 21.703125 65 23.59375 65 
C 29.59375 65 29.59375 64.25 29.59375 63.203125 
C 29.59375 63.015625 29.59375 62.40625 29.203125 60.921875 
L 15.703125 7.484375 
C 14.796875 4 14.59375 3 7.703125 3 
C 5.40625 3 4.703125 3 4.703125 1.109375 
C 4.703125 0.109375 5.796875 0.109375 6.09375 0.109375 
C 7.90625 0.109375 10 0.109375 11.90625 0.109375 
L 23.703125 0.109375 
C 25.5 0.109375 27.59375 0.109375 29.40625 0.109375 
C 30.203125 0.109375 31.296875 0.109375 31.296875 2 
C 31.296875 3 30.40625 3 28.90625 3 
C 22.796875 3 22.796875 3.796875 22.796875 4.78125 
C 22.796875 4.890625 22.796875 5.578125 23 6.359375 
L 29.703125 33 
L 41.703125 33 
C 51.203125 33 53 27.046875 53 23.78125 
C 53 22.296875 52 18.421875 51.296875 15.84375 
C 50.203125 11.296875 49.90625 10.1875 49.90625 8.3125 
C 49.90625 1.28125 55.703125 -2 62.40625 -2 
C 70.5 -2 74 7.828125 74 9.234375 
C 74 9.921875 73.5 10.21875 72.90625 10.21875 
C 72.09375 10.21875 71.90625 9.625 71.703125 8.828125 
C 69.296875 1.78125 65.203125 0 62.703125 0 
C 60.203125 0 58.59375 1.09375 58.59375 5.5625 
C 58.59375 7.953125 59.796875 17 59.90625 17.5 
C 60.40625 21.171875 60.40625 21.5625 60.40625 22.375 
C 60.40625 29.625 54.5 32.703125 50.703125 33.890625 
z
" id="CMMI12-82"/>
      <path d="M 13.90625 71 
L 13.90625 -13 
L 37.59375 -13 
L 37.59375 -8.8125 
L 21.796875 -8.8125 
L 21.796875 66.703125 
L 37.59375 66.703125 
L 37.59375 71 
z
" id="XCharter_Roman-91"/>
      <path d="M 13.90625 11.671875 
C 10.40625 11.671875 7.5 8.875 7.5 5.28125 
C 7.5 1.6875 10.40625 -1 13.90625 -1 
C 17.40625 -1 20.203125 1.78125 20.203125 5.28125 
C 20.203125 8.875 17.40625 11.671875 13.90625 11.671875 
z
" id="XCharter_Roman-46"/>
      <path d="M 14.203125 49 
L 2.59375 45.1875 
L 2.59375 42 
L 9.703125 42 
L 9.703125 14.1875 
C 9.703125 4.265625 14.5 -1 23.09375 -1 
C 28 -1 33.296875 1.296875 39.296875 5.59375 
L 39.296875 0 
L 54.09375 0 
L 54.09375 3.59375 
L 49.40625 4.09375 
L 47.59375 5.6875 
L 47.59375 49 
L 43.796875 49 
L 32.203125 45.1875 
L 32.203125 42 
L 39.296875 42 
L 39.296875 8.359375 
C 35.203125 6.375 31.40625 5.390625 27.703125 5.390625 
C 21 5.390625 18 8.78125 18 15.96875 
L 18 49 
z
" id="XCharter_Roman-117"/>
      <path d="M 4.59375 71 
L 4.59375 66.703125 
L 20.40625 66.703125 
L 20.40625 -8.703125 
L 4.59375 -8.703125 
L 4.59375 -13 
L 28.203125 -13 
L 28.203125 71 
z
" id="XCharter_Roman-93"/>
     </defs>
     <g transform="translate(89.553593 201.816105)scale(0.1 -0.1)">
      <use transform="scale(0.996264)" xlink:href="#XCharter_Roman-82"/>
      <use transform="translate(60.37359 0)scale(0.996264)" xlink:href="#XCharter_Roman-101"/>
      <use transform="translate(109.290159 0)scale(0.996264)" xlink:href="#XCharter_Roman-108"/>
      <use transform="translate(138.779519 0)scale(0.996264)" xlink:href="#XCharter_Roman-97"/>
      <use transform="translate(189.290101 0)scale(0.996264)" xlink:href="#XCharter_Roman-116"/>
      <use transform="translate(222.565283 0)scale(0.996264)" xlink:href="#XCharter_Roman-105"/>
      <use transform="translate(249.862926 0)scale(0.996264)" xlink:href="#XCharter_Roman-118"/>
      <use transform="translate(296.488115 0)scale(0.996264)" xlink:href="#XCharter_Roman-101"/>
      <use transform="translate(373.100811 0)scale(0.996264)" xlink:href="#XCharter_Roman-68"/>
      <use transform="translate(442.141879 0)scale(0.996264)" xlink:href="#XCharter_Roman-105"/>
      <use transform="translate(470.037241 0)scale(0.996264)" xlink:href="#XCharter_Roman-115"/>
      <use transform="translate(509.887756 0)scale(0.996264)" xlink:href="#XCharter_Roman-116"/>
      <use transform="translate(545.155511 0)scale(0.996264)" xlink:href="#XCharter_Roman-97"/>
      <use transform="translate(595.666093 0)scale(0.996264)" xlink:href="#XCharter_Roman-110"/>
      <use transform="translate(650.958761 0)scale(0.996264)" xlink:href="#XCharter_Roman-99"/>
      <use transform="translate(695.392142 0)scale(0.996264)" xlink:href="#XCharter_Roman-101"/>
      <use transform="translate(744.308711 0)scale(0.996264)" xlink:href="#XCharter_Roman-44"/>
      <use transform="translate(799.700966 0)scale(0.996264)" xlink:href="#CMMI12-122"/>
      <use transform="translate(849.456111 0)scale(0.996264)" xlink:href="#CMMI12-61"/>
      <use transform="translate(898.231029 0)scale(0.996264)" xlink:href="#CMMI12-82"/>
      <use transform="translate(1000.998119 0)scale(0.996264)" xlink:href="#XCharter_Roman-91"/>
      <use transform="translate(1042.940779 0)scale(0.996264)" xlink:href="#XCharter_Roman-97"/>
      <use transform="translate(1093.451361 0)scale(0.996264)" xlink:href="#XCharter_Roman-46"/>
      <use transform="translate(1121.147488 0)scale(0.996264)" xlink:href="#XCharter_Roman-117"/>
      <use transform="translate(1177.834935 0)scale(0.996264)" xlink:href="#XCharter_Roman-46"/>
      <use transform="translate(1205.531062 0)scale(0.996264)" xlink:href="#XCharter_Roman-93"/>
     </g>
    </g>
   </g>
   <g id="matplotlib.axis_2">
    <g id="ytick_1">
     <g id="line2d_7">
      <defs>
       <path d="M 0 0 
L -3.5 0 
" id="m8f36a6033b" style="stroke:#000000;stroke-width:0.8;"/>
      </defs>
      <g>
       <use style="stroke:#000000;stroke-width:0.8;" x="40.494204" xlink:href="#m8f36a6033b" y="172.23779"/>
      </g>
     </g>
     <g id="text_8">
      <!-- $0.0$ -->
      <defs>
       <path d="M 18.40625 4.796875 
C 18.40625 7.6875 16 9.671875 13.59375 9.671875 
C 10.703125 9.671875 8.703125 7.28125 8.703125 4.890625 
C 8.703125 2 11.09375 0 13.5 0 
C 16.40625 0 18.40625 2.390625 18.40625 4.796875 
z
" id="CMMI12-58"/>
      </defs>
      <g transform="translate(20.764125 175.938907)scale(0.1 -0.1)">
       <use transform="scale(0.996264)" xlink:href="#CMR17-48"/>
       <use transform="translate(45.690477 0)scale(0.996264)" xlink:href="#CMMI12-58"/>
       <use transform="translate(72.787654 0)scale(0.996264)" xlink:href="#CMR17-48"/>
      </g>
     </g>
    </g>
    <g id="ytick_2">
     <g id="line2d_8">
      <g>
       <use style="stroke:#000000;stroke-width:0.8;" x="40.494204" xlink:href="#m8f36a6033b" y="141.412777"/>
      </g>
     </g>
     <g id="text_9">
      <!-- $0.2$ -->
      <g transform="translate(20.764125 145.113894)scale(0.1 -0.1)">
       <use transform="scale(0.996264)" xlink:href="#CMR17-48"/>
       <use transform="translate(45.690477 0)scale(0.996264)" xlink:href="#CMMI12-58"/>
       <use transform="translate(72.787654 0)scale(0.996264)" xlink:href="#CMR17-50"/>
      </g>
     </g>
    </g>
    <g id="ytick_3">
     <g id="line2d_9">
      <g>
       <use style="stroke:#000000;stroke-width:0.8;" x="40.494204" xlink:href="#m8f36a6033b" y="110.587764"/>
      </g>
     </g>
     <g id="text_10">
      <!-- $0.4$ -->
      <g transform="translate(20.764125 114.288882)scale(0.1 -0.1)">
       <use transform="scale(0.996264)" xlink:href="#CMR17-48"/>
       <use transform="translate(45.690477 0)scale(0.996264)" xlink:href="#CMMI12-58"/>
       <use transform="translate(72.787654 0)scale(0.996264)" xlink:href="#CMR17-52"/>
      </g>
     </g>
    </g>
    <g id="ytick_4">
     <g id="line2d_10">
      <g>
       <use style="stroke:#000000;stroke-width:0.8;" x="40.494204" xlink:href="#m8f36a6033b" y="79.762752"/>
      </g>
     </g>
     <g id="text_11">
      <!-- $0.6$ -->
      <defs>
       <path d="M 10.59375 34 
C 10.59375 57.65625 21.796875 63 28.296875 63 
C 30.40625 63 35.5 62.640625 37.5 59 
C 35.90625 59 32.90625 59 32.90625 55.515625 
C 32.90625 52.828125 35.09375 51.921875 36.5 51.921875 
C 37.40625 51.921875 40.09375 52.3125 40.09375 55.625 
C 40.09375 61.78125 35.09375 65.296875 28.203125 65.296875 
C 16.296875 65.296875 3.796875 52.96875 3.796875 31 
C 3.796875 3.953125 15.09375 -2 23.09375 -2 
C 32.796875 -2 42 6.671875 42 20.046875 
C 42 32.515625 33.90625 41.59375 23.703125 41.59375 
C 17.59375 41.59375 13.09375 37.609375 10.59375 30.625 
z
M 23.09375 0.390625 
C 10.796875 0.390625 10.796875 18.75 10.796875 22.4375 
C 10.796875 29.625 14.203125 40 23.5 40 
C 25.203125 40 30.09375 40 33.40625 33.125 
C 35.203125 29.21875 35.203125 25.140625 35.203125 20.140625 
C 35.203125 14.75 35.203125 10.78125 33.09375 6.78125 
C 30.90625 2.671875 27.703125 0.390625 23.09375 0.390625 
z
" id="CMR17-54"/>
      </defs>
      <g transform="translate(20.764125 83.463869)scale(0.1 -0.1)">
       <use transform="scale(0.996264)" xlink:href="#CMR17-48"/>
       <use transform="translate(45.690477 0)scale(0.996264)" xlink:href="#CMMI12-58"/>
       <use transform="translate(72.787654 0)scale(0.996264)" xlink:href="#CMR17-54"/>
      </g>
     </g>
    </g>
    <g id="ytick_5">
     <g id="line2d_11">
      <g>
       <use style="stroke:#000000;stroke-width:0.8;" x="40.494204" xlink:href="#m8f36a6033b" y="48.937739"/>
      </g>
     </g>
     <g id="text_12">
      <!-- $0.8$ -->
      <defs>
       <path d="M 27.203125 35.375 
C 33.5 38.546875 39.90625 43.328125 39.90625 50.984375 
C 39.90625 60.015625 31.09375 65.296875 23 65.296875 
C 13.90625 65.296875 5.90625 58.734375 5.90625 49.6875 
C 5.90625 47.203125 6.5 42.921875 10.40625 39.140625 
C 11.40625 38.15625 15.59375 35.171875 18.296875 33.28125 
C 13.796875 30.984375 3.296875 25.53125 3.296875 14.59375 
C 3.296875 4.359375 13.09375 -2 22.796875 -2 
C 33.5 -2 42.5 5.65625 42.5 15.78125 
C 42.5 24.84375 36.40625 29.015625 32.40625 31.703125 
z
M 14.09375 44.09375 
C 13.296875 44.59375 9.296875 47.671875 9.296875 52.359375 
C 9.296875 58.421875 15.59375 63 22.796875 63 
C 30.703125 63 36.5 57.4375 36.5 50.96875 
C 36.5 41.703125 26.09375 36.421875 25.59375 36.421875 
C 25.5 36.421875 25.40625 36.421875 24.59375 37.03125 
z
M 32.5 23.734375 
C 34 22.640625 38.796875 19.375 38.796875 13.296875 
C 38.796875 5.953125 31.40625 0.390625 23 0.390625 
C 13.90625 0.390625 7 6.84375 7 14.6875 
C 7 22.546875 13.09375 29.09375 20 32.1875 
z
" id="CMR17-56"/>
      </defs>
      <g transform="translate(20.764125 52.638856)scale(0.1 -0.1)">
       <use transform="scale(0.996264)" xlink:href="#CMR17-48"/>
       <use transform="translate(45.690477 0)scale(0.996264)" xlink:href="#CMMI12-58"/>
       <use transform="translate(72.787654 0)scale(0.996264)" xlink:href="#CMR17-56"/>
      </g>
     </g>
    </g>
    <g id="ytick_6">
     <g id="line2d_12">
      <g>
       <use style="stroke:#000000;stroke-width:0.8;" x="40.494204" xlink:href="#m8f36a6033b" y="18.112726"/>
      </g>
     </g>
     <g id="text_13">
      <!-- $1.0$ -->
      <g transform="translate(20.764125 21.813843)scale(0.1 -0.1)">
       <use transform="scale(0.996264)" xlink:href="#CMR17-49"/>
       <use transform="translate(45.690477 0)scale(0.996264)" xlink:href="#CMMI12-58"/>
       <use transform="translate(72.787654 0)scale(0.996264)" xlink:href="#CMR17-48"/>
      </g>
     </g>
    </g>
    <g id="text_14">
     <!-- Irradiance, E [a.u.] -->
     <defs>
      <path d="M 3.5 0 
L 28.796875 0 
L 28.796875 4.09375 
L 22.40625 4.59375 
L 20.703125 5.984375 
L 20.703125 61.015625 
L 22.40625 62.390625 
L 28.796875 63 
L 28.796875 67 
L 3.5 67 
L 3.5 63 
L 9.90625 62.390625 
L 11.59375 61.015625 
L 11.59375 5.984375 
L 9.90625 4.59375 
L 3.5 4.09375 
z
" id="XCharter_Roman-73"/>
      <path d="M 3 0.5 
L 27.09375 0.5 
L 27.09375 4.09375 
L 20.09375 4.59375 
L 18.40625 6.1875 
L 18.40625 34.71875 
C 22.5 39.515625 26 42 29.296875 42 
C 31.40625 42 33.09375 41.203125 34.40625 39.609375 
L 37.59375 39.609375 
L 37.59375 48.1875 
C 35.5 49.09375 33.59375 49.484375 31.59375 49.484375 
C 30.796875 49.484375 29.90625 49.484375 29.09375 49.296875 
C 25.5 46.390625 21.90625 43.203125 18.40625 39.609375 
L 18.40625 48.984375 
L 14.59375 48.984375 
L 3 45.390625 
L 3 42.296875 
L 10.09375 42.296875 
L 10.09375 6.1875 
L 8.296875 4.59375 
L 3 4.09375 
z
" id="XCharter_Roman-114"/>
      <path d="M 38.296875 66.5 
L 38.296875 47.90625 
C 35.203125 48.59375 32.203125 49 29.40625 49 
C 14.203125 49 3.59375 38.3125 3.59375 22.34375 
C 3.59375 8.375 12 -1 22.90625 -1 
C 28.40625 -1 33.203125 0.984375 38.296875 5.078125 
L 38.296875 -0.109375 
L 53.09375 -0.109375 
L 53.09375 3.484375 
L 48.296875 3.984375 
L 46.59375 5.578125 
L 46.59375 73.5 
L 42.796875 73.5 
L 30.59375 69.734375 
L 30.59375 66.5 
z
M 38.296875 8.78125 
C 34.59375 6.484375 31 5.28125 27.40625 5.28125 
C 18.40625 5.28125 12.40625 12.359375 12.40625 24.046875 
C 12.40625 36.515625 19.40625 44.609375 29.5 44.609375 
C 31.90625 44.609375 34.90625 44 38.296875 43.015625 
z
" id="XCharter_Roman-100"/>
      <path d="M 3.296875 0 
L 54.796875 0 
L 54.796875 16.34375 
L 49.59375 16.34375 
L 47.90625 6.203125 
L 46.5 4.59375 
L 19.703125 4.59375 
L 19.703125 32.40625 
L 36.09375 32.40625 
L 37.5 30.96875 
L 38.5 24 
L 43.203125 24 
L 43.203125 45.953125 
L 38.5 45.953125 
L 37.5 38.453125 
L 36.09375 37 
L 19.703125 37 
L 19.703125 62.40625 
L 42.796875 62.40625 
L 44.203125 60.9375 
L 45.59375 52.5 
L 51.203125 52.5 
L 51.203125 67 
L 3.296875 67 
L 3.296875 63 
L 9 62.390625 
L 10.703125 61.015625 
L 10.703125 6 
L 9 4.59375 
L 3.296875 4.09375 
z
" id="XCharter_Roman-69"/>
     </defs>
     <g transform="translate(14.602234 133.838933)rotate(-90)scale(0.1 -0.1)">
      <use transform="scale(0.996264)" xlink:href="#XCharter_Roman-73"/>
      <use transform="translate(34.470786 0)scale(0.996264)" xlink:href="#XCharter_Roman-114"/>
      <use transform="translate(72.528069 0)scale(0.996264)" xlink:href="#XCharter_Roman-114"/>
      <use transform="translate(110.585351 0)scale(0.996264)" xlink:href="#XCharter_Roman-97"/>
      <use transform="translate(161.095933 0)scale(0.996264)" xlink:href="#XCharter_Roman-100"/>
      <use transform="translate(217.384804 0)scale(0.996264)" xlink:href="#XCharter_Roman-105"/>
      <use transform="translate(245.877869 0)scale(0.996264)" xlink:href="#XCharter_Roman-97"/>
      <use transform="translate(296.388452 0)scale(0.996264)" xlink:href="#XCharter_Roman-110"/>
      <use transform="translate(351.68112 0)scale(0.996264)" xlink:href="#XCharter_Roman-99"/>
      <use transform="translate(396.1145 0)scale(0.996264)" xlink:href="#XCharter_Roman-101"/>
      <use transform="translate(445.031069 0)scale(0.996264)" xlink:href="#XCharter_Roman-44"/>
      <use transform="translate(500.423324 0)scale(0.996264)" xlink:href="#XCharter_Roman-69"/>
      <use transform="translate(585.50428 0)scale(0.996264)" xlink:href="#XCharter_Roman-91"/>
      <use transform="translate(627.44694 0)scale(0.996264)" xlink:href="#XCharter_Roman-97"/>
      <use transform="translate(677.957522 0)scale(0.996264)" xlink:href="#XCharter_Roman-46"/>
      <use transform="translate(705.653649 0)scale(0.996264)" xlink:href="#XCharter_Roman-117"/>
      <use transform="translate(762.341096 0)scale(0.996264)" xlink:href="#XCharter_Roman-46"/>
      <use transform="translate(790.037223 0)scale(0.996264)" xlink:href="#XCharter_Roman-93"/>
     </g>
    </g>
   </g>
   <g id="line2d_13">
    <path clip-path="url(#p113945f851)" d="M 50.639659 69.487747 
L 52.689246 69.501011 
L 54.738832 69.592343 
L 56.788419 69.833829 
L 58.838006 70.286665 
L 60.887593 70.997431 
L 62.93718 71.996045 
L 64.986766 73.295454 
L 67.036353 74.89283 
L 69.08594 76.771894 
L 71.135527 78.905909 
L 73.185113 81.260893 
L 75.2347 83.798685 
L 77.284287 86.479641 
L 79.333874 89.264787 
L 81.383461 92.117433 
L 83.433047 95.004242 
L 85.482634 97.895847 
L 87.532221 100.767103 
L 89.581808 103.597051 
L 91.631394 106.368712 
L 93.680981 109.068738 
L 95.730568 111.687019 
L 97.780155 114.216257 
L 99.829742 116.651544 
L 101.879328 118.989972 
L 103.928915 121.230274 
L 105.978502 123.372506 
L 108.028089 125.417769 
L 110.077675 127.367978 
L 112.127262 129.225657 
L 114.176849 130.993778 
L 116.226436 132.675625 
L 118.276023 134.274684 
L 120.325609 135.794554 
L 122.375196 137.238879 
L 124.424783 138.611292 
L 126.47437 139.915377 
L 128.523956 141.154632 
L 130.573543 142.332449 
L 132.62313 143.452101 
L 134.672717 144.516725 
L 136.722304 145.52932 
L 138.77189 146.492743 
L 140.821477 147.409707 
L 142.871064 148.282785 
L 144.920651 149.11441 
L 146.970237 149.90688 
L 149.019824 150.662365 
L 151.069411 151.38291 
L 153.118998 152.070441 
L 155.168585 152.72677 
L 157.218171 153.353603 
L 159.267758 153.952544 
L 161.317345 154.525101 
L 163.366932 155.072693 
L 165.416518 155.596652 
L 167.466105 156.098232 
L 169.515692 156.578612 
L 171.565279 157.038899 
L 173.614866 157.480134 
L 175.664452 157.9033 
L 177.714039 158.309316 
L 179.763626 158.699053 
L 181.813213 159.073325 
L 183.862799 159.432904 
L 185.912386 159.778514 
L 187.961973 160.110838 
L 190.01156 160.43052 
L 192.061146 160.738168 
L 194.110733 161.034355 
L 196.16032 161.319621 
L 198.209907 161.594478 
L 200.259494 161.859408 
L 202.30908 162.114867 
L 204.358667 162.361287 
L 206.408254 162.599075 
L 208.457841 162.828617 
L 210.507427 163.050278 
L 212.557014 163.264405 
L 214.606601 163.471326 
L 216.656188 163.671351 
L 218.705775 163.864775 
L 220.755361 164.051878 
L 222.804948 164.232925 
L 224.854535 164.408168 
L 226.904122 164.577847 
L 228.953708 164.742189 
L 231.003295 164.901411 
L 233.052882 165.055718 
L 235.102469 165.205306 
L 237.152056 165.350361 
L 239.201642 165.491062 
L 241.251229 165.627576 
L 243.300816 165.760065 
L 245.350403 165.888683 
L 247.399989 166.013576 
L 249.449576 166.134884 
L 251.499163 166.252741 
L 253.54875 166.367273 
" style="fill:none;stroke:#1f77b4;stroke-linecap:square;"/>
   </g>
   <g id="line2d_14">
    <path clip-path="url(#p113945f851)" d="M 50.639659 18.112727 
L 52.689246 18.506396 
L 54.738832 19.672378 
L 56.788419 21.575876 
L 58.838006 24.161771 
L 60.887593 27.358484 
L 62.93718 31.082666 
L 64.986766 35.244182 
L 67.036353 39.750877 
L 69.08594 44.512753 
L 71.135527 49.445297 
L 73.185113 54.471865 
L 75.2347 59.525151 
L 77.284287 64.547832 
L 79.333874 69.49257 
L 81.383461 74.321521 
L 83.433047 79.005524 
L 85.482634 83.523114 
L 87.532221 87.859447 
L 89.581808 92.00525 
L 91.631394 95.955823 
L 93.680981 99.710135 
L 95.730568 103.27003 
L 97.780155 106.63955 
L 99.829742 109.824361 
L 101.879328 112.831283 
L 103.928915 115.667909 
L 105.978502 118.342301 
L 108.028089 120.862748 
L 110.077675 123.237586 
L 112.127262 125.47506 
L 114.176849 127.583216 
L 116.226436 129.569835 
L 118.276023 131.442379 
L 120.325609 133.207959 
L 122.375196 134.87332 
L 124.424783 136.444833 
L 126.47437 137.928495 
L 128.523956 139.329935 
L 130.573543 140.654429 
L 132.62313 141.90691 
L 134.672717 143.091986 
L 136.722304 144.213956 
L 138.77189 145.276829 
L 140.821477 146.284337 
L 142.871064 147.239958 
L 144.920651 148.14693 
L 146.970237 149.008267 
L 149.019824 149.826774 
L 151.069411 150.605064 
L 153.118998 151.345568 
L 155.168585 152.050551 
L 157.218171 152.722124 
L 159.267758 153.362253 
L 161.317345 153.972771 
L 163.366932 154.555387 
L 165.416518 155.111697 
L 167.466105 155.64319 
L 169.515692 156.151258 
L 171.565279 156.637198 
L 173.614866 157.102227 
L 175.664452 157.547481 
L 177.714039 157.974025 
L 179.763626 158.382853 
L 181.813213 158.774901 
L 183.862799 159.151043 
L 185.912386 159.512101 
L 187.961973 159.858845 
L 190.01156 160.191998 
L 192.061146 160.512242 
L 194.110733 160.820215 
L 196.16032 161.11652 
L 198.209907 161.401722 
L 200.259494 161.676356 
L 202.30908 161.940923 
L 204.358667 162.195898 
L 206.408254 162.441728 
L 208.457841 162.678834 
L 210.507427 162.907616 
L 212.557014 163.12845 
L 214.606601 163.341693 
L 216.656188 163.54768 
L 218.705775 163.746731 
L 220.755361 163.939147 
L 222.804948 164.125215 
L 224.854535 164.305206 
L 226.904122 164.479376 
L 228.953708 164.647969 
L 231.003295 164.811216 
L 233.052882 164.969338 
L 235.102469 165.122543 
L 237.152056 165.27103 
L 239.201642 165.414987 
L 241.251229 165.554594 
L 243.300816 165.690022 
L 245.350403 165.821433 
L 247.399989 165.948982 
L 249.449576 166.072818 
L 251.499163 166.19308 
L 253.54875 166.309903 
" style="fill:none;stroke:#ff7f0e;stroke-linecap:square;"/>
   </g>
   <g id="line2d_15">
    <path clip-path="url(#p113945f851)" d="M 88.950187 -1 
L 89.581808 4.888718 
L 91.631394 21.203679 
L 93.680981 35.244107 
L 95.730568 47.413964 
L 97.780155 58.031354 
L 99.829742 67.34953 
L 101.879328 75.572131 
L 103.928915 82.86441 
L 105.978502 89.361596 
L 108.028089 95.175211 
L 110.077675 100.397889 
L 112.127262 105.107088 
L 114.176849 109.367979 
L 116.226436 113.23571 
L 118.276023 116.757205 
L 120.325609 119.972591 
L 122.375196 122.916344 
L 124.424783 125.618222 
L 126.47437 128.104013 
L 128.523956 130.396162 
L 130.573543 132.514271 
L 132.62313 134.475524 
L 134.672717 136.295035 
L 136.722304 137.98614 
L 138.77189 139.560644 
L 140.821477 141.029025 
L 142.871064 142.40061 
L 144.920651 143.683723 
L 146.970237 144.885814 
L 149.019824 146.013562 
L 151.069411 147.072974 
L 153.118998 148.069461 
L 155.168585 149.007911 
L 157.218171 149.892744 
L 159.267758 150.727967 
L 161.317345 151.517222 
L 163.366932 152.263821 
L 165.416518 152.970783 
L 167.466105 153.640865 
L 169.515692 154.276589 
L 171.565279 154.880263 
L 173.614866 155.454007 
L 175.664452 155.999767 
L 177.714039 156.519333 
L 179.763626 157.014356 
L 181.813213 157.486357 
L 183.862799 157.936743 
L 185.912386 158.366812 
L 187.961973 158.777769 
L 190.01156 159.17073 
L 192.061146 159.54673 
L 194.110733 159.906731 
L 196.16032 160.251629 
L 198.209907 160.582257 
L 200.259494 160.899391 
L 202.30908 161.203756 
L 204.358667 161.496027 
L 206.408254 161.776838 
L 208.457841 162.04678 
L 210.507427 162.306406 
L 212.557014 162.556236 
L 214.606601 162.796756 
L 216.656188 163.028424 
L 218.705775 163.251667 
L 220.755361 163.466891 
L 222.804948 163.674474 
L 224.854535 163.874774 
L 226.904122 164.068128 
L 228.953708 164.254852 
L 231.003295 164.435248 
L 233.052882 164.609597 
L 235.102469 164.778167 
L 237.152056 164.94121 
L 239.201642 165.098966 
L 241.251229 165.251661 
L 243.300816 165.399508 
L 245.350403 165.542711 
L 247.399989 165.681463 
L 249.449576 165.815945 
L 251.499163 165.946332 
L 253.54875 166.072788 
" style="fill:none;stroke:#2ca02c;stroke-dasharray:3.7,1.6;stroke-dashoffset:0;"/>
   </g>
   <g id="patch_3">
    <path d="M 40.494204 173.78 
L 40.494204 10.7 
" style="fill:none;stroke:#000000;stroke-linecap:square;stroke-linejoin:miter;stroke-width:0.8;"/>
   </g>
   <g id="patch_4">
    <path d="M 263.694204 173.78 
L 263.694204 10.7 
" style="fill:none;stroke:#000000;stroke-linecap:square;stroke-linejoin:miter;stroke-width:0.8;"/>
   </g>
   <g id="patch_5">
    <path d="M 40.494204 173.78 
L 263.694204 173.78 
" style="fill:none;stroke:#000000;stroke-linecap:square;stroke-linejoin:miter;stroke-width:0.8;"/>
   </g>
   <g id="patch_6">
    <path d="M 40.494204 10.7 
L 263.694204 10.7 
" style="fill:none;stroke:#000000;stroke-linecap:square;stroke-linejoin:miter;stroke-width:0.8;"/>
   </g>
   <g id="legend_1">
    <g id="patch_7">
     <path d="M 132.430376 62.392376 
L 256.694204 62.392376 
Q 258.694204 62.392376 258.694204 60.392376 
L 258.694204 17.7 
Q 258.694204 15.7 256.694204 15.7 
L 132.430376 15.7 
Q 130.430376 15.7 130.430376 17.7 
L 130.430376 60.392376 
Q 130.430376 62.392376 132.430376 62.392376 
z
" style="fill:#ffffff;opacity:0.25;stroke:#cccccc;stroke-linejoin:miter;"/>
    </g>
    <g id="line2d_16">
     <path d="M 134.430376 23.602234 
L 154.430376 23.602234 
" style="fill:none;stroke:#1f77b4;stroke-linecap:square;"/>
    </g>
    <g id="line2d_17"/>
    <g id="text_15">
     <!-- Non-Lambertian Disk -->
     <defs>
      <path d="M 2.90625 0 
L 24 0 
L 24 4.09375 
L 18 4.890625 
L 16.203125 6.796875 
L 16.203125 56.71875 
L 54.296875 0 
L 60.90625 0 
L 60.90625 60.3125 
L 62.703125 62.09375 
L 68.703125 63 
L 68.703125 67 
L 47.703125 67 
L 47.703125 63 
L 53.703125 62.09375 
L 55.5 60.3125 
L 55.5 13.375 
L 21.40625 64.5 
L 21.40625 67 
L 2.59375 67 
L 2.59375 63 
L 9 62.390625 
L 10.796875 61.015625 
L 10.796875 6.796875 
L 9 4.890625 
L 2.90625 4.09375 
z
" id="XCharter_Roman-78"/>
      <path d="M 26.90625 49 
C 13.40625 49 3.703125 38.90625 3.703125 24 
C 3.703125 9.1875 13.5 -1 26.90625 -1 
C 40.296875 -1 50.203125 9.1875 50.203125 24 
C 50.203125 38.8125 40.40625 49 26.90625 49 
z
M 26.90625 44.71875 
C 35 44.71875 40.796875 36.90625 40.796875 23.984375 
C 40.796875 10.984375 35 3.28125 26.90625 3.28125 
C 18.90625 3.28125 13.09375 11.078125 13.09375 23.984375 
C 13.09375 37.015625 18.796875 44.71875 26.90625 44.71875 
z
" id="XCharter_Roman-111"/>
      <path d="M 4.703125 27.6875 
L 4.703125 21 
L 27.203125 21 
L 27.203125 27.6875 
z
" id="XCharter_Roman-45"/>
      <path d="M 2.703125 0 
L 50.59375 0 
L 50.59375 18 
L 45.40625 18 
L 43.703125 6.171875 
L 42.296875 4.59375 
L 19.703125 4.59375 
L 19.703125 60.984375 
L 21.40625 62.375 
L 27.09375 62.984375 
L 27.09375 67 
L 2.703125 67 
L 2.703125 62.984375 
L 9 62.375 
L 10.703125 60.984375 
L 10.703125 5.96875 
L 9 4.59375 
L 2.703125 4.09375 
z
" id="XCharter_Roman-76"/>
      <path d="M 45.40625 41.890625 
C 43.09375 46.28125 39.296875 48.578125 34.40625 48.578125 
C 30.203125 48.578125 25 46.484375 18.40625 42.59375 
L 18.40625 48.078125 
L 14.59375 48.078125 
L 3 44.484375 
L 3 41.390625 
L 10.09375 41.390625 
L 10.09375 5.203125 
L 8.40625 3.59375 
L 3 3.09375 
L 3 -0.5 
L 24.90625 -0.5 
L 24.90625 3.09375 
L 20.09375 3.59375 
L 18.40625 5.203125 
L 18.40625 38.6875 
C 22.796875 40.90625 26.5 42 29.796875 42 
C 35.796875 42 38.59375 38.703125 38.59375 31.703125 
L 38.59375 5.203125 
L 36.90625 3.59375 
L 32.09375 3.09375 
L 32.09375 -0.5 
L 53.40625 -0.5 
L 53.40625 3.09375 
L 48.703125 3.59375 
L 46.90625 5.203125 
L 46.90625 38.6875 
C 51.203125 40.796875 55 42 58.203125 42 
C 64.40625 42 67.203125 38.703125 67.203125 31.703125 
L 67.203125 5.203125 
L 65.40625 3.59375 
L 60.703125 3.09375 
L 60.703125 -0.5 
L 82.5 -0.5 
L 82.5 3.09375 
L 77.203125 3.59375 
L 75.5 5.203125 
L 75.5 33.390625 
C 75.5 43.296875 70.5 48.578125 62.59375 48.578125 
C 58.59375 48.578125 52.90625 46.28125 45.40625 41.890625 
z
" id="XCharter_Roman-109"/>
      <path d="M 13.09375 73.5 
L 0.796875 70 
L 0.796875 67 
L 8.59375 67 
L 8.59375 0 
L 21.40625 0 
C 40.5 0 50.40625 9.078125 50.40625 26.25 
C 50.40625 39.828125 42.40625 49 30.59375 49 
C 26.203125 49 21.703125 47.8125 16.90625 45.515625 
L 16.90625 73.5 
z
M 16.90625 4.484375 
L 16.90625 42.125 
C 20.203125 43.125 23.203125 43.71875 25.703125 43.71875 
C 35.703125 43.71875 41.40625 36.828125 41.40625 24.359375 
C 41.40625 10.578125 35.40625 4.484375 22.40625 4.484375 
C 21.90625 4.484375 20 4.484375 16.90625 4.484375 
z
" id="XCharter_Roman-98"/>
      <path d="M 2.5 0.5 
L 24.40625 0.5 
L 24.40625 4.0625 
L 19.703125 4.5625 
L 17.90625 6.15625 
L 17.90625 23 
L 23.703125 23 
L 37.203125 3.765625 
L 37.203125 0.5 
L 52.796875 0.5 
L 52.796875 4.265625 
L 46.40625 4.765625 
L 28.796875 29.40625 
L 42.5 43.984375 
L 48.90625 44.78125 
L 48.90625 48.5 
L 29.90625 48.5 
L 29.90625 44.78125 
L 34.40625 44.390625 
L 35.09375 42.96875 
L 19.796875 25.796875 
L 17.90625 25.796875 
L 17.90625 74 
L 14.09375 74 
L 1.90625 70.234375 
L 1.90625 67 
L 9.59375 67 
L 9.59375 6.15625 
L 7.90625 4.5625 
L 2.5 4.0625 
z
" id="XCharter_Roman-107"/>
     </defs>
     <g transform="translate(162.430376 27.102234)scale(0.1 -0.1)">
      <use transform="scale(0.996264)" xlink:href="#XCharter_Roman-78"/>
      <use transform="translate(69.638879 0)scale(0.996264)" xlink:href="#XCharter_Roman-111"/>
      <use transform="translate(122.042356 0)scale(0.996264)" xlink:href="#XCharter_Roman-110"/>
      <use transform="translate(178.630125 0)scale(0.996264)" xlink:href="#XCharter_Roman-45"/>
      <use transform="translate(210.410971 0)scale(0.996264)" xlink:href="#XCharter_Roman-76"/>
      <use transform="translate(263.611509 0)scale(0.996264)" xlink:href="#XCharter_Roman-97"/>
      <use transform="translate(314.122091 0)scale(0.996264)" xlink:href="#XCharter_Roman-109"/>
      <use transform="translate(398.10718 0)scale(0.996264)" xlink:href="#XCharter_Roman-98"/>
      <use transform="translate(451.805759 0)scale(0.996264)" xlink:href="#XCharter_Roman-101"/>
      <use transform="translate(500.722328 0)scale(0.996264)" xlink:href="#XCharter_Roman-114"/>
      <use transform="translate(538.77961 0)scale(0.996264)" xlink:href="#XCharter_Roman-116"/>
      <use transform="translate(572.054791 0)scale(0.996264)" xlink:href="#XCharter_Roman-105"/>
      <use transform="translate(600.547857 0)scale(0.996264)" xlink:href="#XCharter_Roman-97"/>
      <use transform="translate(651.058439 0)scale(0.996264)" xlink:href="#XCharter_Roman-110"/>
      <use transform="translate(735.342335 0)scale(0.996264)" xlink:href="#XCharter_Roman-68"/>
      <use transform="translate(804.383404 0)scale(0.996264)" xlink:href="#XCharter_Roman-105"/>
      <use transform="translate(832.278765 0)scale(0.996264)" xlink:href="#XCharter_Roman-115"/>
      <use transform="translate(871.132986 0)scale(0.996264)" xlink:href="#XCharter_Roman-107"/>
     </g>
    </g>
    <g id="line2d_18">
     <path d="M 134.430376 38.16636 
L 154.430376 38.16636 
" style="fill:none;stroke:#ff7f0e;stroke-linecap:square;"/>
    </g>
    <g id="line2d_19"/>
    <g id="text_16">
     <!-- Lambertian Disk -->
     <g transform="translate(162.430376 41.66636)scale(0.1 -0.1)">
      <use transform="scale(0.996264)" xlink:href="#XCharter_Roman-76"/>
      <use transform="translate(53.200538 0)scale(0.996264)" xlink:href="#XCharter_Roman-97"/>
      <use transform="translate(103.71112 0)scale(0.996264)" xlink:href="#XCharter_Roman-109"/>
      <use transform="translate(187.696209 0)scale(0.996264)" xlink:href="#XCharter_Roman-98"/>
      <use transform="translate(241.394788 0)scale(0.996264)" xlink:href="#XCharter_Roman-101"/>
      <use transform="translate(290.311357 0)scale(0.996264)" xlink:href="#XCharter_Roman-114"/>
      <use transform="translate(328.368639 0)scale(0.996264)" xlink:href="#XCharter_Roman-116"/>
      <use transform="translate(361.64382 0)scale(0.996264)" xlink:href="#XCharter_Roman-105"/>
      <use transform="translate(390.136886 0)scale(0.996264)" xlink:href="#XCharter_Roman-97"/>
      <use transform="translate(440.647468 0)scale(0.996264)" xlink:href="#XCharter_Roman-110"/>
      <use transform="translate(524.931364 0)scale(0.996264)" xlink:href="#XCharter_Roman-68"/>
      <use transform="translate(593.972432 0)scale(0.996264)" xlink:href="#XCharter_Roman-105"/>
      <use transform="translate(621.867794 0)scale(0.996264)" xlink:href="#XCharter_Roman-115"/>
      <use transform="translate(660.722015 0)scale(0.996264)" xlink:href="#XCharter_Roman-107"/>
     </g>
    </g>
    <g id="line2d_20">
     <path d="M 134.430376 52.730485 
L 154.430376 52.730485 
" style="fill:none;stroke:#2ca02c;stroke-dasharray:3.7,1.6;stroke-dashoffset:0;"/>
    </g>
    <g id="line2d_21"/>
    <g id="text_17">
     <!-- Point Source -->
     <defs>
      <path d="M 3.296875 0 
L 28.5 0 
L 28.5 4.296875 
L 21.40625 4.296875 
L 19.703125 6 
L 19.703125 25.71875 
C 22.796875 25.40625 25.296875 25.21875 27.203125 25.21875 
C 43.296875 25.21875 53.09375 33.890625 53.09375 46.65625 
C 53.09375 61.8125 44.5 67 25.296875 67 
L 2.5 67 
L 2.5 63 
L 9 62.390625 
L 10.703125 61.015625 
L 10.703125 6 
L 9 4.59375 
L 3.296875 4.09375 
z
M 19.703125 30.5 
L 19.703125 62.203125 
C 21.5 62.40625 23.296875 62.40625 24.90625 62.40625 
C 37.703125 62.40625 43.796875 57.515625 43.796875 46.859375 
C 43.796875 35.890625 37.703125 30 26.296875 30 
C 24.796875 30 22.59375 30.203125 19.703125 30.5 
z
" id="XCharter_Roman-80"/>
      <path d="M 6 2.203125 
C 10.59375 0.203125 16.796875 -1 24 -1 
C 40 -1 49.90625 7.25 49.90625 18.953125 
C 49.90625 23.3125 48.40625 26.984375 45.5 29.859375 
C 40.90625 34.328125 35.5 35.921875 30.40625 38 
C 21.203125 41.875 16.40625 44.359375 16.40625 51 
C 16.40625 58.25 21.5 63 30 63 
C 33.5 63 36.5 62.3125 39 60.921875 
L 40.5 59.234375 
L 42 49.8125 
L 47.203125 49.8125 
L 47.203125 65.203125 
C 41.296875 67.09375 35.703125 68 30.203125 68 
C 16 68 7.09375 60.15625 7.09375 48.9375 
C 7.09375 39.328125 12.90625 35.640625 24 30.890625 
C 34.90625 26.234375 40.703125 24.4375 40.703125 16.203125 
C 40.703125 9.25 35.296875 4.296875 25.59375 4.296875 
C 21.09375 4.296875 17.296875 5.09375 14.40625 6.578125 
L 13.09375 8.25 
L 11.90625 19.671875 
L 6 19.671875 
z
" id="XCharter_Roman-83"/>
     </defs>
     <g transform="translate(162.430376 56.230485)scale(0.1 -0.1)">
      <use transform="scale(0.996264)" xlink:href="#XCharter_Roman-80"/>
      <use transform="translate(50.610139 0)scale(0.996264)" xlink:href="#XCharter_Roman-111"/>
      <use transform="translate(102.913954 0)scale(0.996264)" xlink:href="#XCharter_Roman-105"/>
      <use transform="translate(130.809316 0)scale(0.996264)" xlink:href="#XCharter_Roman-110"/>
      <use transform="translate(187.397084 0)scale(0.996264)" xlink:href="#XCharter_Roman-116"/>
      <use transform="translate(248.368393 0)scale(0.996264)" xlink:href="#XCharter_Roman-83"/>
      <use transform="translate(304.458029 0)scale(0.996264)" xlink:href="#XCharter_Roman-111"/>
      <use transform="translate(357.160313 0)scale(0.996264)" xlink:href="#XCharter_Roman-117"/>
      <use transform="translate(413.84776 0)scale(0.996264)" xlink:href="#XCharter_Roman-114"/>
      <use transform="translate(451.905042 0)scale(0.996264)" xlink:href="#XCharter_Roman-99"/>
      <use transform="translate(496.338423 0)scale(0.996264)" xlink:href="#XCharter_Roman-101"/>
     </g>
    </g>
   </g>
  </g>
 </g>
 <defs>
  <clipPath id="p113945f851">
   <rect height="163.08" width="223.2" x="40.494204" y="10.7"/>
  </clipPath>
 </defs>
</svg>
