<?xml version="1.0" encoding="UTF-8"?>
<!DOCTYPE svg PUBLIC "-//W3C//DTD SVG 1.1//EN" "http://www.w3.org/Graphics/SVG/1.1/DTD/svg11.dtd">
<svg version="1.1" xmlns="http://www.w3.org/2000/svg" xmlns:xlink="http://www.w3.org/1999/xlink" x="0" y="0" width="733.609" height="294.056" viewBox="0, 0, 733.609, 294.056">
  <g id="Layer_1" transform="translate(-0.001, -1.25)">
    <g>
      <g>
        <path d="M45.174,22.951 C51.576,34.788 57.543,46.667 65.464,57.273 C83.703,81.696 122.281,85.804 140.221,109.828 C162.355,139.467 208.767,280.314 153.037,294.306" fill-opacity="0" stroke="#000000" stroke-width="1.5" stroke-linecap="round" stroke-linejoin="round"/>
        <g>
          <path d="M568.2,2.25 L640.671,133.486" fill-opacity="0" stroke="#000000" stroke-width="1.5"/>
          <g>
            <path d="M600.564,60.516 L609.312,76.308" fill-opacity="0" stroke="#000000" stroke-width="3"/>
            <path d="M600.564,60.516 L595.33,51.069 M603.204,46.708 L587.458,55.431" fill-opacity="0" stroke="#000000" stroke-width="3"/>
            <path d="M609.312,76.308 L614.545,85.755 M606.673,90.117 L622.419,81.395" fill-opacity="0" stroke="#000000" stroke-width="3"/>
          </g>
          <g>
            <path d="M604.483,67.971 L545.418,98.3" fill-opacity="0" stroke="#000000" stroke-width="1.5"/>
            <g>
              <path d="M543.363,94.296 L534.742,103.78 L547.473,102.301 z" fill="#000000"/>
              <path d="M543.363,94.296 L534.742,103.78 L547.473,102.301 z" fill-opacity="0" stroke="#000000" stroke-width="1.5"/>
            </g>
          </g>
        </g>
        <g id="Layer_1">
          <path d="M525.999,103.749 L524.122,101.607 C523.951,101.407 523.752,101.208 523.552,101.208 C523.354,101.208 523.183,101.379 522.984,101.607 L521.107,103.749 L521.421,104.092 L523.069,102.835 C523.24,102.721 523.44,102.607 523.552,102.607 C523.695,102.607 523.866,102.721 524.065,102.835 L525.685,104.092 L525.999,103.749" fill="#000000"/>
          <path d="M520.027,113.003 C520.482,111.347 520.767,110.49 521.164,109.49 C521.761,108.118 523.297,105.749 524.605,105.749 C525.145,105.749 525.288,106.263 525.117,106.892 L523.752,111.603 C523.495,112.518 523.695,113.174 524.577,113.174 C525.771,113.174 526.653,112.089 527.193,110.861 L526.824,110.632 C526.539,111.204 525.828,112.346 525.373,112.346 C525.06,112.346 525.088,111.975 525.231,111.461 L526.482,107.262 C526.824,105.977 526.653,104.921 525.345,104.921 C523.809,104.921 522.132,106.633 521.164,108.519 L521.136,108.519 L522.159,105.006 L522.075,104.921 L519.145,105.378 L519.06,105.749 L520.056,105.834 C520.425,105.863 520.425,106.092 520.282,106.605 L518.605,113.174 L520.027,113.003" fill="#000000"/>
          <path d="M529.212,114.945 C529.212,113.716 530.208,110.917 531.999,110.917 C532.368,110.917 532.653,111.031 532.795,111.147 C532.624,112.032 532.255,113.088 531.657,114.031 C531.117,114.916 530.377,115.744 529.78,115.744 C529.44,115.744 529.212,115.459 529.212,114.945 z M532.51,108.09 L532.453,108.348 L533.136,108.405 C533.392,108.433 533.421,108.519 533.335,108.891 L532.909,110.689 L532.881,110.718 C532.681,110.604 532.311,110.518 531.942,110.518 C529.326,110.518 528.103,113.488 528.103,114.859 C528.103,115.573 528.33,116.344 529.24,116.344 C530.52,116.344 531.544,114.945 532.198,113.745 L532.227,113.745 L531.856,115.087 C531.628,115.887 531.799,116.344 532.368,116.344 C533.193,116.344 533.818,115.573 534.217,114.717 L533.932,114.544 C533.733,114.945 533.221,115.744 532.909,115.744 C532.681,115.744 532.71,115.488 532.795,115.145 L534.586,107.862 L534.529,107.805 L532.51,108.09" fill="#000000"/>
        </g>
        <g>
          <path d="M137.895,107.748 L176.026,69.408" fill-opacity="0" stroke="#000000" stroke-width="1.5"/>
          <g>
            <path d="M179.217,72.582 L184.488,60.9 L172.836,66.234 z" fill="#000000"/>
            <path d="M179.217,72.582 L184.488,60.9 L172.836,66.234 z" fill-opacity="0" stroke="#000000" stroke-width="1.5"/>
          </g>
        </g>
        <g>
          <path d="M138.838,108.343 L136.177,105.672" fill-opacity="0" stroke="#000000" stroke-width="3"/>
          <path d="M138.838,108.344 L131.218,100.691 M137.596,94.341 L124.84,107.042" fill-opacity="0" stroke="#000000" stroke-width="3"/>
          <path d="M136.177,105.672 L143.797,113.325 M137.421,119.674 L150.175,106.974" fill-opacity="0" stroke="#000000" stroke-width="3"/>
        </g>
        <g id="Layer_1">
          <path d="M195.333,48.375 L193.456,46.233 C193.285,46.034 193.086,45.834 192.888,45.834 C192.688,45.834 192.517,46.005 192.319,46.233 L190.441,48.375 L190.755,48.719 L192.403,47.462 C192.574,47.347 192.774,47.234 192.888,47.234 C193.029,47.234 193.2,47.347 193.399,47.462 L195.021,48.719 L195.333,48.375" fill="#000000"/>
          <path d="M189.361,57.628 C189.816,55.972 190.101,55.116 190.498,54.116 C191.095,52.744 192.631,50.375 193.939,50.375 C194.479,50.375 194.622,50.889 194.451,51.517 L193.086,56.229 C192.831,57.142 193.029,57.799 193.911,57.799 C195.105,57.799 195.987,56.715 196.527,55.486 L196.158,55.258 C195.873,55.83 195.162,56.972 194.707,56.972 C194.394,56.972 194.422,56.601 194.565,56.086 L195.816,51.888 C196.158,50.603 195.987,49.547 194.679,49.547 C193.143,49.547 191.466,51.259 190.498,53.145 L190.47,53.145 L191.494,49.632 L191.409,49.547 L188.479,50.004 L188.394,50.375 L189.39,50.46 C189.759,50.488 189.759,50.718 189.618,51.231 L187.939,57.799 L189.361,57.628" fill="#000000"/>
          <path d="M200.395,55.145 C199.228,55.145 198.574,55.916 198.574,56.829 C198.574,57.401 198.973,57.914 199.542,58.4 C200.053,58.771 200.338,59.285 200.338,59.714 C200.338,60.257 199.996,60.57 199.513,60.57 C199.114,60.57 198.688,60.228 198.517,59.628 C198.432,59.4 198.348,59.285 198.148,59.285 C197.806,59.285 197.551,59.6 197.551,59.885 C197.551,60.371 198.177,60.971 199.257,60.971 C200.479,60.971 201.19,60.2 201.19,59.256 C201.19,58.628 200.907,58.143 200.167,57.543 C199.485,56.972 199.371,56.601 199.371,56.286 C199.371,55.916 199.656,55.544 200.053,55.544 C200.424,55.544 200.736,55.802 200.964,56.343 C201.021,56.457 201.106,56.573 201.276,56.573 C201.504,56.573 201.816,56.4 201.816,56.03 C201.816,55.686 201.39,55.145 200.395,55.145" fill="#000000"/>
        </g>
        <path d="M173.068,104.465 C173.068,104.465 176.79,87.316 163.656,81.82" fill-opacity="0" stroke="#000000" stroke-width="1.5"/>
        <g id="Layer_1">
          <path d="M112.923,123.585 L112.923,123.128 C111.786,123.042 111.729,123.014 111.729,122.186 L111.729,111.762 L111.615,111.676 L109.113,112.076 L109.113,112.476 L109.71,112.533 C110.137,112.59 110.221,112.675 110.221,113.275 L110.221,115.902 C109.767,115.674 109.198,115.532 108.459,115.532 C107.151,115.532 106.156,115.931 105.501,116.645 C104.791,117.358 104.392,118.416 104.392,119.815 C104.392,122.186 105.615,123.785 107.719,123.785 C108.601,123.785 109.341,123.385 110.221,122.7 L110.221,123.471 L110.335,123.585 L112.923,123.585 z M110.221,120.843 C110.221,121.215 110.221,121.472 110.109,121.757 C109.795,122.586 109.084,122.899 108.259,122.899 C106.782,122.899 106.042,121.472 106.042,119.616 C106.042,117.531 106.81,116.075 108.43,116.075 C109.198,116.075 109.795,116.445 110.08,117.102 C110.221,117.358 110.221,117.588 110.221,118.016 L110.221,120.843" fill="#000000"/>
          <path d="M123.957,123.585 L124.071,123.127 L123.445,123.07 C122.962,123.013 122.905,122.785 122.82,122.128 L121.626,112.476 L120.487,112.476 L117.814,117.216 C116.989,118.644 115.653,121.044 115.056,121.986 C114.544,122.842 114.288,123.013 113.776,123.07 L113.265,123.127 L113.179,123.585 L116.763,123.585 L116.848,123.127 L115.995,123.042 C115.653,123.013 115.624,122.785 115.767,122.442 C116.307,121.414 116.82,120.387 117.417,119.301 L121,119.301 L121.369,122.413 C121.426,122.871 121.284,123.013 120.972,123.042 L120.118,123.127 L120.033,123.585 L123.957,123.585 z M120.915,118.673 L117.729,118.673 C118.582,117.102 119.464,115.531 120.345,113.961 L120.373,113.961 L120.915,118.673" fill="#000000"/>
          <path d="M128.08,121.13 C126.915,121.13 126.261,121.872 126.261,122.785 C126.261,123.385 126.658,123.898 127.255,124.384 C127.74,124.757 128.023,125.241 128.023,125.699 C128.023,126.242 127.683,126.555 127.198,126.555 C126.801,126.555 126.375,126.185 126.204,125.584 C126.118,125.385 126.033,125.241 125.833,125.241 C125.493,125.241 125.236,125.556 125.236,125.869 C125.236,126.355 125.862,126.927 126.943,126.927 C128.166,126.927 128.877,126.156 128.877,125.241 C128.877,124.612 128.592,124.128 127.852,123.499 C127.17,122.956 127.057,122.586 127.057,122.271 C127.057,121.9 127.341,121.528 127.74,121.528 C128.109,121.528 128.422,121.786 128.649,122.299 C128.706,122.442 128.791,122.529 128.962,122.529 C129.189,122.529 129.502,122.356 129.502,122.014 C129.502,121.671 129.076,121.13 128.08,121.13" fill="#000000"/>
        </g>
        <g id="Layer_1">
          <path d="M618.969,66.198 L618.969,65.741 C617.83,65.655 617.775,65.627 617.775,64.799 L617.775,54.375 L617.661,54.29 L615.157,54.689 L615.157,55.089 L615.756,55.146 C616.182,55.203 616.267,55.289 616.267,55.889 L616.267,58.515 C615.811,58.287 615.243,58.145 614.503,58.145 C613.195,58.145 612.201,58.545 611.547,59.258 C610.836,59.972 610.437,61.029 610.437,62.429 C610.437,64.799 611.661,66.397 613.764,66.397 C614.646,66.397 615.385,65.999 616.267,65.313 L616.267,66.084 L616.381,66.198 L618.969,66.198 z M616.267,63.456 C616.267,63.828 616.267,64.085 616.153,64.371 C615.84,65.199 615.129,65.513 614.305,65.513 C612.826,65.513 612.087,64.085 612.087,62.229 C612.087,60.144 612.855,58.688 614.475,58.688 C615.243,58.688 615.84,59.058 616.125,59.715 C616.267,59.972 616.267,60.201 616.267,60.629 L616.267,63.456" fill="#000000"/>
          <path d="M630.001,66.198 L630.115,65.742 L629.49,65.684 C629.007,65.626 628.95,65.398 628.864,64.742 L627.67,55.089 L626.533,55.089 L623.859,59.829 C623.035,61.257 621.699,63.657 621.102,64.599 C620.589,65.455 620.334,65.626 619.821,65.684 L619.309,65.742 L619.224,66.198 L622.807,66.198 L622.893,65.742 L622.039,65.655 C621.699,65.626 621.67,65.398 621.813,65.056 C622.353,64.027 622.864,63 623.461,61.914 L627.045,61.914 L627.414,65.026 C627.471,65.484 627.328,65.626 627.016,65.655 L626.163,65.742 L626.077,66.198 L630.001,66.198 z M626.959,61.285 L623.775,61.285 C624.627,59.715 625.509,58.144 626.391,56.574 L626.419,56.574 L626.959,61.285" fill="#000000"/>
          <path d="M632.305,68.14 C632.305,66.94 633.273,64.141 635.064,64.141 C635.433,64.141 635.718,64.227 635.86,64.371 C635.689,65.228 635.32,66.284 634.722,67.227 C634.182,68.112 633.442,68.968 632.845,68.968 C632.505,68.968 632.305,68.655 632.305,68.14 z M635.604,61.285 L635.518,61.572 L636.201,61.629 C636.457,61.657 636.486,61.714 636.4,62.085 L635.974,63.913 L635.946,63.942 C635.746,63.828 635.376,63.742 635.007,63.742 C632.391,63.742 631.168,66.684 631.168,68.055 C631.168,68.798 631.395,69.54 632.305,69.54 C633.585,69.54 634.609,68.169 635.263,66.94 L635.292,66.94 L634.921,68.312 C634.693,69.111 634.864,69.568 635.433,69.54 C636.258,69.54 636.883,68.798 637.282,67.911 L636.997,67.769 C636.798,68.169 636.315,68.968 635.974,68.968 C635.775,68.968 635.775,68.712 635.86,68.34 L637.651,61.086 L637.594,61.029 L635.604,61.285" fill="#000000"/>
        </g>
        <path d="M137.895,107.746 L603.688,67.572" fill-opacity="0" stroke="#000000" stroke-width="1.5"/>
        <g id="Layer_1">
          <path d="M365.626,108.277 C365.883,107.22 366.195,105.936 366.451,104.993 C367.02,102.908 367.816,101.508 368.442,101.508 C368.925,101.508 369.039,101.909 369.55,101.909 C369.949,101.909 370.29,101.394 370.29,100.91 C370.318,100.48 370.09,100.224 369.579,100.224 C368.697,100.224 367.588,101.223 366.706,102.965 L366.678,102.965 L367.417,100.281 L367.332,100.224 L364.573,100.651 L364.489,101.052 L365.455,101.137 C365.854,101.166 365.826,101.394 365.712,101.909 L364.233,108.477 L365.626,108.277" fill="#000000"/>
          <path d="M371.172,104.708 C371.172,104.079 371.229,104.079 372.28,103.993 L372.28,103.679 L369.067,103.679 L369.067,103.993 C370.033,104.079 370.062,104.079 370.062,104.708 L370.062,110.448 C370.062,111.076 370.033,111.105 369.067,111.162 L369.067,111.504 L374.896,111.504 L375.039,109.476 L374.697,109.476 C374.47,110.963 373.845,111.105 372.678,111.105 C372.109,111.105 371.712,111.076 371.455,110.991 C371.229,110.876 371.172,110.705 371.172,110.133 L371.172,104.708" fill="#000000"/>
          <path d="M378.394,103.908 C380.413,103.908 380.868,105.907 380.896,107.592 C380.868,109.248 380.413,111.276 378.394,111.276 C376.404,111.276 375.921,109.248 375.921,107.592 C375.921,105.907 376.404,103.908 378.394,103.908 z M378.394,103.507 C377.172,103.507 376.233,103.879 375.607,104.593 C375.01,105.279 374.641,106.306 374.641,107.592 C374.641,108.849 375.01,109.876 375.607,110.562 C376.233,111.276 377.172,111.676 378.394,111.676 C379.645,111.676 380.556,111.276 381.181,110.562 C381.807,109.876 382.147,108.849 382.147,107.592 C382.147,106.306 381.807,105.279 381.181,104.593 C380.556,103.879 379.645,103.507 378.394,103.507" fill="#000000"/>
          <path d="M383.541,110.991 C384.025,111.447 384.963,111.676 385.759,111.676 C387.75,111.676 388.546,110.534 388.546,109.362 C388.546,108.049 387.636,107.392 386.328,106.906 L385.959,106.792 C385.219,106.506 384.565,106.021 384.565,105.336 C384.565,104.508 385.077,103.908 386.016,103.908 C386.982,103.908 387.522,104.451 387.721,105.592 L388.063,105.592 L388.063,103.993 C387.664,103.678 386.896,103.507 386.13,103.507 C384.765,103.507 383.541,104.193 383.541,105.678 C383.541,106.878 384.508,107.507 385.674,107.905 L385.873,107.991 C386.385,108.192 387.438,108.705 387.438,109.705 C387.438,110.676 386.839,111.276 385.816,111.276 C384.765,111.276 384.082,110.448 383.797,109.162 L383.428,109.162 L383.541,110.991" fill="#000000"/>
        </g>
        <g id="Layer_1">
          <path d="M182.05,81.071 C178.552,81.071 176.676,83.099 176.676,86.925 C176.676,90.668 178.552,92.666 182.05,92.666 C185.548,92.666 187.425,90.668 187.425,86.925 C187.425,83.099 185.548,81.071 182.05,81.071 z M179.775,88.097 L180.259,88.097 L180.259,87.525 L183.841,87.525 L183.841,88.097 L184.324,88.097 L184.324,85.641 L183.841,85.641 L183.841,86.183 L180.259,86.183 L180.259,85.641 L179.775,85.641 L179.775,88.097 z M182.05,81.642 C184.381,81.642 185.634,83.471 185.634,86.925 C185.634,90.296 184.381,92.066 182.05,92.066 C179.718,92.066 178.467,90.296 178.467,86.925 C178.467,83.471 179.718,81.642 182.05,81.642" fill="#000000"/>
          <path d="M191.32,89.953 C190.183,89.953 189.501,90.725 189.501,91.638 C189.501,92.209 189.898,92.722 190.495,93.208 C190.98,93.58 191.263,94.093 191.263,94.522 C191.263,95.065 190.951,95.379 190.467,95.379 C190.041,95.379 189.643,95.037 189.444,94.437 C189.387,94.207 189.273,94.093 189.102,94.093 C188.761,94.093 188.505,94.409 188.505,94.693 C188.505,95.179 189.13,95.78 190.183,95.78 C191.406,95.78 192.145,95.008 192.145,94.065 C192.145,93.437 191.86,92.952 191.092,92.352 C190.438,91.781 190.297,91.41 190.297,91.095 C190.297,90.725 190.581,90.353 191.008,90.353 C191.377,90.353 191.662,90.609 191.917,91.152 C191.974,91.266 192.06,91.382 192.231,91.382 C192.457,91.382 192.771,91.209 192.771,90.839 C192.771,90.495 192.345,89.953 191.32,89.953" fill="#000000"/>
        </g>
        <g id="Layer_1">
          <path d="M527.178,78.807 C523.68,78.807 521.803,80.835 521.803,84.661 C521.803,88.403 523.68,90.402 527.178,90.402 C530.676,90.402 532.552,88.403 532.552,84.661 C532.552,80.835 530.676,78.807 527.178,78.807 z M524.904,85.833 L525.387,85.833 L525.387,85.261 L528.97,85.261 L528.97,85.833 L529.453,85.833 L529.453,83.378 L528.97,83.378 L528.97,83.919 L525.387,83.919 L525.387,83.378 L524.904,83.378 L524.904,85.833 z M527.178,79.379 C529.51,79.379 530.761,81.205 530.761,84.661 C530.761,88.032 529.51,89.802 527.178,89.802 C524.847,89.802 523.596,88.032 523.596,84.661 C523.596,81.205 524.847,79.379 527.178,79.379" fill="#000000"/>
          <path d="M534.742,92.117 C534.742,90.888 535.71,88.089 537.529,88.089 C537.87,88.089 538.155,88.203 538.297,88.317 C538.126,89.203 537.757,90.259 537.187,91.201 C536.647,92.088 535.908,92.916 535.311,92.916 C534.942,92.916 534.742,92.63 534.742,92.117 z M538.041,85.262 L537.955,85.518 L538.638,85.576 C538.923,85.605 538.923,85.69 538.837,86.061 L538.411,87.861 L538.383,87.89 C538.183,87.776 537.841,87.688 537.444,87.688 C534.828,87.688 533.634,90.66 533.634,92.03 C533.634,92.743 533.832,93.515 534.742,93.515 C536.05,93.515 537.046,92.117 537.7,90.917 L537.729,90.917 L537.358,92.259 C537.132,93.059 537.301,93.515 537.87,93.515 C538.695,93.515 539.32,92.743 539.719,91.887 L539.434,91.716 C539.235,92.117 538.752,92.916 538.44,92.916 C538.212,92.916 538.24,92.658 538.326,92.316 L540.088,85.034 L540.031,84.977 L538.041,85.262" fill="#000000"/>
        </g>
        <path d="M557.757,92.823 C557.757,92.823 538.248,90.679 544.954,72.492" fill-opacity="0" stroke="#000000" stroke-width="1.5"/>
      </g>
      <g id="Layer_1">
        <path d="M157.437,258.901 L157.522,258.418 L156.925,258.39 C156.414,258.333 156.357,258.105 156.271,257.451 L155.077,247.811 L153.94,247.811 L151.267,252.531 C150.442,253.953 149.134,256.342 148.537,257.309 C148.024,258.133 147.741,258.305 147.258,258.362 L146.716,258.418 L146.632,258.901 L150.214,258.901 L150.328,258.418 L149.446,258.333 C149.134,258.305 149.077,258.077 149.248,257.764 C149.76,256.74 150.3,255.688 150.868,254.607 L154.452,254.607 L154.821,257.707 C154.878,258.19 154.764,258.305 154.423,258.333 L153.598,258.418 L153.484,258.901 L157.437,258.901 z M154.395,254.01 L151.21,254.01 C152.062,252.417 152.916,250.854 153.798,249.318 L153.826,249.318 L154.395,254.01" fill="#000000"/>
        <path d="M161.419,256.428 C160.281,256.428 159.598,257.194 159.598,258.105 C159.598,258.673 159.997,259.186 160.594,259.669 C161.077,260.039 161.362,260.55 161.362,260.978 C161.362,261.518 161.049,261.831 160.566,261.831 C160.14,261.831 159.741,261.489 159.541,260.892 C159.484,260.664 159.372,260.55 159.201,260.55 C158.859,260.55 158.604,260.863 158.604,261.148 C158.604,261.632 159.229,262.229 160.281,262.229 C161.505,262.229 162.243,261.461 162.243,260.523 C162.243,259.896 161.959,259.413 161.191,258.816 C160.537,258.247 160.395,257.877 160.395,257.565 C160.395,257.194 160.68,256.826 161.106,256.826 C161.476,256.826 161.76,257.082 162.016,257.622 C162.073,257.736 162.159,257.849 162.328,257.849 C162.556,257.849 162.868,257.679 162.868,257.309 C162.868,256.968 162.442,256.428 161.419,256.428" fill="#000000"/>
      </g>
      <g id="Layer_1">
        <path d="M661.377,126.921 L661.462,126.436 L660.865,126.408 C660.354,126.351 660.297,126.124 660.211,125.47 L659.017,115.83 L657.88,115.83 L655.206,120.55 C654.382,121.972 653.074,124.36 652.477,125.328 C651.964,126.153 651.681,126.322 651.196,126.379 L650.656,126.436 L650.571,126.921 L654.154,126.921 L654.268,126.436 L653.386,126.351 C653.074,126.322 653.017,126.096 653.187,125.782 C653.7,124.759 654.24,123.706 654.808,122.626 L658.392,122.626 L658.761,125.725 C658.818,126.21 658.704,126.322 658.363,126.351 L657.538,126.436 L657.424,126.921 L661.377,126.921 z M658.335,122.029 L655.15,122.029 C656.002,120.436 656.856,118.872 657.738,117.337 L657.766,117.337 L658.335,122.029" fill="#000000"/>
        <path d="M663.652,128.855 C663.652,127.632 664.62,124.845 666.439,124.845 C666.78,124.845 667.065,124.958 667.207,125.072 C667.036,125.954 666.667,127.005 666.097,127.944 C665.557,128.826 664.818,129.651 664.221,129.651 C663.852,129.651 663.652,129.366 663.652,128.855 z M666.951,122.03 L666.865,122.285 L667.548,122.342 C667.833,122.37 667.833,122.456 667.747,122.826 L667.321,124.617 L667.293,124.646 C667.093,124.532 666.751,124.446 666.354,124.446 C663.738,124.446 662.544,127.404 662.544,128.769 C662.544,129.48 662.742,130.248 663.652,130.248 C664.96,130.248 665.956,128.855 666.61,127.659 L666.639,127.659 L666.268,128.995 C666.04,129.792 666.211,130.248 666.78,130.248 C667.605,130.248 668.23,129.48 668.629,128.627 L668.344,128.456 C668.145,128.855 667.662,129.651 667.35,129.651 C667.122,129.651 667.15,129.395 667.236,129.053 L668.998,121.802 L668.941,121.745 L666.951,122.03" fill="#000000"/>
      </g>
      <text transform="matrix(1.5, 0, 0, 1.5, 77.263, 203.496)">
        <tspan x="-51.508" y="5.5" font-family="Charter-Roman" font-size="16" fill="#000000">Source surface</tspan>
      </text>
      <text transform="matrix(1.5, 0, 0, 1.5, 642.485, 153.384)">
        <tspan x="-57.324" y="5.5" font-family="Charter-Roman" font-size="16" fill="#000000">Detector surface</tspan>
      </text>
      <g>
        <path d="M156.801,87.632 C167.454,97.791 167.851,114.663 157.69,125.316" fill-opacity="0" stroke="#000000" stroke-width="1.5" stroke-dasharray="3,3"/>
        <path d="M156.801,87.632 C146.149,77.47 129.277,77.869 119.116,88.521" fill-opacity="0" stroke="#000000" stroke-width="1.5" stroke-dasharray="3,3"/>
      </g>
      <g>
        <path d="M580.663,80.152 C573.555,67.261 578.242,51.048 591.133,43.939" fill-opacity="0" stroke="#000000" stroke-width="1.5" stroke-dasharray="3,3"/>
        <path d="M580.663,80.153 C587.772,93.044 603.985,97.731 616.876,90.622" fill-opacity="0" stroke="#000000" stroke-width="1.5" stroke-dasharray="3,3"/>
      </g>
    </g>
    <g id="Layer_1">
      <path d="M240.616,236.577 C236.781,236.889 234.163,238.859 234.163,241.526 C234.163,244.221 236.781,246.189 240.616,246.5 L240.616,248.6 L240.226,248.985 L238.206,249.168 L238.206,250.23 L245.304,250.23 L245.304,249.168 L243.309,248.985 L242.92,248.6 L242.92,246.5 C246.754,246.189 249.37,244.221 249.37,241.526 C249.37,238.859 246.754,236.889 242.92,236.577 L242.92,234.48 L243.309,234.092 L245.304,233.91 L245.304,232.85 L238.206,232.85 L238.206,233.91 L240.226,234.092 L240.616,234.48 L240.616,236.577 z M240.616,245.385 C238.284,245.051 236.808,243.6 236.808,241.526 C236.808,239.48 238.284,238.029 240.616,237.693 L240.616,245.385 z M242.92,237.693 C245.251,238.029 246.729,239.48 246.729,241.526 C246.729,243.6 245.251,245.051 242.92,245.385 L242.92,237.693" fill="#000000"/>
      <path d="M258.291,240.75 L275.697,240.75 L275.697,239.196 L258.291,239.196 L258.291,240.75 z M258.291,246.344 L275.697,246.344 L275.697,244.79 L258.291,244.79 L258.291,246.344" fill="#000000"/>
      <path d="M302.487,207.642 C293.859,207.642 293.859,227.459 293.859,243.105 C293.859,257.327 293.859,276.755 289.12,276.755 L287.592,274.476 C287.28,274.268 286.942,274.164 286.608,274.164 C285.622,274.164 284.691,274.994 284.691,276.159 C284.691,277.635 286.218,278.568 287.824,278.568 C296.451,278.568 296.451,258.752 296.451,243.105 C296.451,228.884 296.451,209.456 301.191,209.456 L302.718,211.737 C303.03,211.943 303.367,212.046 303.703,212.046 C304.687,212.046 305.62,211.218 305.62,210.051 C305.62,208.575 304.092,207.642 302.487,207.642" fill="#000000"/>
      <path d="M306.438,266.171 L299.755,277.634 L298.759,277.742 L298.759,278.43 L302.346,278.43 L302.346,277.742 L301.239,277.652 L301.093,277.4 L303.033,273.939 L307.434,273.939 L307.993,277.4 L307.867,277.652 L306.799,277.742 L306.799,278.43 L310.767,278.43 L310.767,277.742 L309.879,277.652 L309.571,277.326 L307.633,266.171 L306.438,266.171 z M306.438,267.944 L307.27,273.159 L303.484,273.159 L306.438,267.944 z" fill="#000000"/>
      <path d="M314.554,277.743 C315.03,277.718 315.299,277.448 315.299,277.089 C315.299,276.639 314.835,276.293 314.104,276.293 C312.871,276.293 311.896,277.179 311.896,278.231 C311.896,278.951 312.384,279.297 313.117,279.848 C313.656,280.259 314.001,280.554 314.001,281.043 C314.001,281.723 313.566,282.134 312.834,282.134 C312.435,282.134 312.114,281.979 311.91,281.684 L312.141,281.043 C311.937,280.889 311.767,280.812 311.589,280.812 C311.191,280.812 310.921,281.067 310.921,281.465 C310.921,282.134 311.549,282.596 312.628,282.596 C314.026,282.596 314.979,281.735 314.979,280.619 C314.979,279.848 314.451,279.515 313.683,278.925 C313.078,278.463 312.718,278.193 312.718,277.73 C312.718,277.23 313.104,276.869 313.617,276.869 C313.758,276.869 313.887,276.909 314.016,276.998 L314.554,277.743" fill="#000000"/>
      <path d="M341.787,207.642 C333.159,207.642 333.159,227.459 333.159,243.105 C333.159,257.327 333.159,276.755 328.42,276.755 L326.892,274.476 C326.58,274.268 326.242,274.164 325.908,274.164 C324.922,274.164 323.991,274.994 323.991,276.159 C323.991,277.635 325.518,278.568 327.124,278.568 C335.751,278.568 335.751,258.752 335.751,243.105 C335.751,228.884 335.751,209.456 340.491,209.456 L342.018,211.737 C342.33,211.943 342.667,212.046 343.003,212.046 C343.987,212.046 344.92,211.218 344.92,210.051 C344.92,208.575 343.392,207.642 341.787,207.642" fill="#000000"/>
      <path d="M345.738,266.171 L339.055,277.634 L338.059,277.742 L338.059,278.43 L341.646,278.43 L341.646,277.742 L340.539,277.652 L340.393,277.4 L342.333,273.939 L346.734,273.939 L347.293,277.4 L347.167,277.652 L346.099,277.742 L346.099,278.43 L350.067,278.43 L350.067,277.742 L349.179,277.652 L348.871,277.326 L346.933,266.171 L345.738,266.171 z M345.738,267.944 L346.57,273.159 L342.784,273.159 L345.738,267.944 z" fill="#000000"/>
      <path d="M356.988,273.033 L355.024,273.405 L355.024,273.764 L356.154,273.893 L355.704,276.459 C355.356,276.305 355.024,276.242 354.676,276.242 C353.61,276.242 352.48,276.884 351.787,277.973 C351.376,278.63 351.159,279.425 351.159,280.298 C351.159,281.76 351.813,282.596 352.842,282.596 C353.521,282.596 354.216,282.197 354.843,281.402 C354.831,281.492 354.831,281.583 354.831,281.658 C354.831,282.288 355.101,282.569 355.692,282.569 C356.025,282.569 356.563,282.455 357.268,282.197 L357.268,281.813 C356.884,281.904 356.601,281.952 356.434,281.952 C356.05,281.952 355.87,281.775 355.87,281.414 C355.87,281.247 355.896,281.004 355.947,280.722 L357.321,273.033 L356.988,273.033 z M354.906,276.78 L355.522,277.512 L354.946,280.775 C354.367,281.505 353.776,281.864 353.304,281.864 C352.635,281.864 352.2,281.3 352.2,280.284 C352.2,278.142 353.443,276.743 354.6,276.743 C354.688,276.743 354.792,276.768 354.906,276.78" fill="#000000"/>
      <path d="M368.964,232.85 L368.964,233.834 L370.65,233.963 L370.908,234.351 L368.137,248.727 L367.722,249.117 L366.066,249.246 L366.066,250.23 L377.617,250.23 L378.525,245.514 L377.28,245.514 L376.27,248.625 L375.804,249.039 L370.312,249.039 L373.162,234.351 L373.576,233.963 L375.259,233.834 L375.259,232.85 L368.964,232.85" fill="#000000"/>
      <path d="M384.54,242.771 C384.54,235.673 386.614,232.148 389.593,231.63 L389.593,230.439 C385.293,230.958 382.341,234.947 382.341,242.771 C382.341,250.593 385.293,254.583 389.593,255.101 L389.593,253.908 C386.614,253.389 384.54,249.867 384.54,242.771" fill="#000000"/>
      <path d="M400.025,232.694 L390.467,249.092 L389.043,249.246 L389.043,250.23 L394.171,250.23 L394.171,249.246 L392.591,249.117 L392.384,248.754 L395.155,243.806 L401.451,243.806 L402.254,248.754 L402.072,249.117 L400.543,249.246 L400.543,250.23 L406.217,250.23 L406.217,249.246 L404.947,249.117 L404.506,248.651 L401.736,232.694 L400.025,232.694 z M400.025,235.233 L401.216,242.693 L395.805,242.693 L400.025,235.233 z" fill="#000000"/>
      <path d="M411.505,249.398 C412.176,249.36 412.558,248.981 412.558,248.475 C412.558,247.839 411.904,247.352 410.872,247.352 C409.134,247.352 407.758,248.601 407.758,250.085 C407.758,251.1 408.447,251.589 409.477,252.368 C410.238,252.947 410.727,253.364 410.727,254.052 C410.727,255.012 410.11,255.59 409.079,255.59 C408.517,255.59 408.064,255.375 407.776,254.958 L408.102,254.052 C407.811,253.835 407.577,253.727 407.322,253.727 C406.76,253.727 406.381,254.088 406.381,254.651 C406.381,255.59 407.268,256.244 408.789,256.244 C410.764,256.244 412.102,255.03 412.102,253.455 C412.102,252.368 411.363,251.897 410.275,251.064 C409.423,250.41 408.915,250.031 408.915,249.38 C408.915,248.675 409.459,248.165 410.184,248.165 C410.383,248.165 410.565,248.222 410.746,248.348 L411.505,249.398" fill="#000000"/>
      <path d="M416.248,254.609 C418.864,254.322 420.626,252.302 420.626,250.076 C420.626,248.417 419.848,247.484 418.555,247.484 C417.673,247.484 417.026,248.055 417.026,248.909 C417.026,249.375 417.155,249.738 417.439,250.05 L419.098,250.05 C419.098,250.152 419.098,250.256 419.098,250.334 C419.098,252.225 418.139,253.389 416.248,253.752 L416.248,254.609" fill="#000000"/>
      <path d="M434.684,226.214 L431.837,231.135 L433.262,231.135 L435.514,227.484 L437.795,231.135 L439.193,231.135 L436.343,226.214 L434.684,226.214" fill="#000000"/>
      <path d="M432.618,250.23 L433.161,250.23 C433.161,246.164 430.156,242.693 430.156,238.652 C430.156,235.725 432.256,233.834 435.467,233.834 C438.681,233.834 440.779,235.725 440.779,238.652 C440.779,242.693 437.773,246.164 437.773,250.23 L443.731,250.23 L443.731,246.006 L442.384,246.006 L442.021,248.235 L441.892,248.364 L439.147,248.364 C440.131,244.997 443.446,242.304 443.446,238.652 C443.446,235.025 440.131,232.434 435.467,232.434 C430.806,232.434 427.489,235.025 427.489,238.652 C427.489,242.304 430.806,244.997 431.79,248.364 L429.043,248.364 L428.914,248.235 L428.551,246.006 L427.204,246.006 L427.204,250.23 L432.618,250.23" fill="#000000"/>
      <path d="M451.439,242.771 C451.439,249.867 449.368,253.389 446.389,253.908 L446.389,255.101 C450.689,254.583 453.643,250.593 453.643,242.771 C453.643,234.947 450.689,230.958 446.389,230.439 L446.389,231.63 C449.368,232.148 451.439,235.673 451.439,242.771" fill="#000000"/>
      <path d="M469.597,249.143 L469.597,247.796 C468.509,248.522 467.448,248.883 466.309,248.883 C463.613,248.883 461.905,246.992 461.905,243.806 C461.905,240.542 463.484,238.547 465.711,238.547 C466.151,238.547 466.567,238.677 466.956,238.91 L466.956,241.034 C467.345,241.293 467.731,241.422 468.121,241.422 C469.001,241.422 469.572,240.879 469.572,240.05 C469.572,238.547 468.172,237.51 465.685,237.51 C462.06,237.51 459.547,240.129 459.547,243.987 C459.547,247.821 461.854,250.41 465.376,250.41 C466.775,250.41 468.172,249.971 469.597,249.143" fill="#000000"/>
      <path d="M477.106,237.51 C473.609,237.51 471.097,240.129 471.097,243.987 C471.097,247.821 473.635,250.463 477.106,250.463 C480.577,250.463 483.142,247.821 483.142,243.987 C483.142,240.155 480.604,237.51 477.106,237.51 z M477.106,238.626 C479.204,238.626 480.706,240.647 480.706,243.987 C480.706,247.355 479.204,249.35 477.106,249.35 C475.035,249.35 473.533,247.329 473.533,243.987 C473.533,240.621 475.009,238.626 477.106,238.626" fill="#000000"/>
      <path d="M493,238.08 C492.118,237.693 491.108,237.51 489.968,237.51 C487.016,237.51 485.384,238.859 485.384,241.139 C485.384,242.873 486.523,243.702 488.725,244.688 C490.435,245.463 491.368,245.93 491.368,247.277 C491.368,248.493 490.435,249.375 488.933,249.375 C488.18,249.375 487.456,249.168 486.73,248.754 L486.421,246.552 L485.176,246.552 L485.176,249.918 C486.083,250.256 487.222,250.463 488.543,250.463 C491.6,250.463 493.388,248.985 493.388,246.579 C493.388,245.621 493.025,244.842 492.404,244.35 C491.548,243.651 490.564,243.288 489.658,242.847 C488.206,242.15 487.456,241.605 487.456,240.489 C487.456,239.325 488.233,238.626 489.605,238.626 C490.226,238.626 490.85,238.806 491.522,239.171 L491.729,241.008 L493,241.008 L493,238.08" fill="#000000"/>
      <path d="M507.468,232.434 C502.392,232.434 498.763,236.243 498.763,241.605 C498.763,246.888 502.392,250.646 507.468,250.646 C512.544,250.646 516.172,246.888 516.172,241.605 C516.172,236.243 512.544,232.434 507.468,232.434 z M502.831,243.443 L504.283,243.443 L504.283,242.562 L510.655,242.562 L510.655,243.443 L512.104,243.443 L512.104,239.61 L510.655,239.61 L510.655,240.464 L504.283,240.464 L504.283,239.61 L502.831,239.61 L502.831,243.443 z M507.468,233.834 C511.147,233.834 513.555,236.915 513.555,241.605 C513.555,246.215 511.147,249.194 507.468,249.194 C503.79,249.194 501.381,246.215 501.381,241.605 C501.381,236.915 503.79,233.834 507.468,233.834" fill="#000000"/>
      <path d="M521.755,249.398 C522.425,249.36 522.808,248.981 522.808,248.475 C522.808,247.839 522.154,247.352 521.122,247.352 C519.383,247.352 518.008,248.601 518.008,250.085 C518.008,251.1 518.696,251.589 519.727,252.368 C520.487,252.947 520.976,253.364 520.976,254.052 C520.976,255.012 520.36,255.59 519.329,255.59 C518.767,255.59 518.314,255.375 518.026,254.958 L518.351,254.052 C518.06,253.835 517.826,253.727 517.571,253.727 C517.01,253.727 516.631,254.088 516.631,254.651 C516.631,255.59 517.517,256.244 519.038,256.244 C521.014,256.244 522.352,255.03 522.352,253.455 C522.352,252.368 521.612,251.897 520.525,251.064 C519.673,250.41 519.164,250.031 519.164,249.38 C519.164,248.675 519.709,248.165 520.433,248.165 C520.633,248.165 520.814,248.222 520.996,248.348 L521.755,249.398" fill="#000000"/>
      <path d="M539.947,249.143 L539.947,247.796 C538.859,248.522 537.797,248.883 536.659,248.883 C533.963,248.883 532.255,246.992 532.255,243.806 C532.255,240.542 533.834,238.547 536.06,238.547 C536.501,238.547 536.917,238.677 537.305,238.91 L537.305,241.034 C537.695,241.293 538.081,241.422 538.471,241.422 C539.351,241.422 539.921,240.879 539.921,240.05 C539.921,238.547 538.522,237.51 536.035,237.51 C532.409,237.51 529.897,240.129 529.897,243.987 C529.897,247.821 532.204,250.41 535.726,250.41 C537.125,250.41 538.522,249.971 539.947,249.143" fill="#000000"/>
      <path d="M547.456,237.51 C543.959,237.51 541.447,240.129 541.447,243.987 C541.447,247.821 543.985,250.463 547.456,250.463 C550.927,250.463 553.492,247.821 553.492,243.987 C553.492,240.155 550.954,237.51 547.456,237.51 z M547.456,238.626 C549.554,238.626 551.056,240.647 551.056,243.987 C551.056,247.355 549.554,249.35 547.456,249.35 C545.384,249.35 543.883,247.329 543.883,243.987 C543.883,240.621 545.359,238.626 547.456,238.626" fill="#000000"/>
      <path d="M563.35,238.08 C562.468,237.693 561.458,237.51 560.318,237.51 C557.366,237.51 555.734,238.859 555.734,241.139 C555.734,242.873 556.873,243.702 559.075,244.688 C560.785,245.463 561.718,245.93 561.718,247.277 C561.718,248.493 560.785,249.375 559.283,249.375 C558.53,249.375 557.806,249.168 557.08,248.754 L556.771,246.552 L555.526,246.552 L555.526,249.918 C556.433,250.256 557.572,250.463 558.893,250.463 C561.95,250.463 563.738,248.985 563.738,246.579 C563.738,245.621 563.375,244.842 562.754,244.35 C561.898,243.651 560.914,243.288 560.008,242.847 C558.556,242.15 557.806,241.605 557.806,240.489 C557.806,239.325 558.583,238.626 559.955,238.626 C560.576,238.626 561.2,238.806 561.872,239.171 L562.079,241.008 L563.35,241.008 L563.35,238.08" fill="#000000"/>
      <path d="M577.818,232.434 C572.742,232.434 569.113,236.243 569.113,241.605 C569.113,246.888 572.742,250.646 577.818,250.646 C582.893,250.646 586.522,246.888 586.522,241.605 C586.522,236.243 582.893,232.434 577.818,232.434 z M573.181,243.443 L574.633,243.443 L574.633,242.562 L581.005,242.562 L581.005,243.443 L582.454,243.443 L582.454,239.61 L581.005,239.61 L581.005,240.464 L574.633,240.464 L574.633,239.61 L573.181,239.61 L573.181,243.443 z M577.818,233.834 C581.497,233.834 583.904,236.915 583.904,241.605 C583.904,246.215 581.497,249.194 577.818,249.194 C574.14,249.194 571.731,246.215 571.731,241.605 C571.731,236.915 574.14,233.834 577.818,233.834" fill="#000000"/>
      <path d="M596.189,242.751 L593.42,243.276 L593.42,243.783 L595.013,243.965 L594.38,247.587 C593.891,247.368 593.42,247.28 592.93,247.28 C591.427,247.28 589.834,248.184 588.856,249.725 C588.277,250.647 587.968,251.771 587.968,253.001 C587.968,255.065 588.892,256.244 590.339,256.244 C591.301,256.244 592.279,255.681 593.167,254.559 C593.147,254.685 593.147,254.813 593.147,254.921 C593.147,255.809 593.527,256.206 594.362,256.206 C594.833,256.206 595.592,256.046 596.588,255.681 L596.588,255.138 C596.045,255.264 595.646,255.338 595.412,255.338 C594.868,255.338 594.614,255.084 594.614,254.577 C594.614,254.342 594.65,253.997 594.722,253.598 L596.66,242.751 L596.189,242.751 z M593.258,248.039 L594.125,249.072 L593.312,253.671 C592.496,254.705 591.664,255.21 590.993,255.21 C590.051,255.21 589.435,254.414 589.435,252.984 C589.435,249.959 591.193,247.985 592.822,247.985 C592.948,247.985 593.093,248.022 593.258,248.039" fill="#000000"/>
      <path d="M605.672,237.746 L601.841,238.598 L601.841,239.247 L603.964,239.637 L601.813,250.23 L603.989,250.23 L605.051,244.143 C605.467,241.76 606.296,240.36 608.834,239.376 L609.508,240.776 C609.559,240.776 609.61,240.776 609.688,240.776 C610.751,240.776 611.425,240.075 611.425,239.09 C611.425,238.314 610.855,237.746 609.973,237.746 C608.677,237.746 607.021,238.935 605.363,241.293 L606.191,237.746 L605.672,237.746" fill="#000000"/>
      <path d="M613.822,234.606 L626.138,234.606 L626.138,233.522 L613.822,233.522 z" fill="#000000"/>
      <path d="M629.141,237.851 C633.143,234.663 635.335,232.617 635.335,230.334 C635.335,228.288 633.905,226.913 631.568,226.913 C629.323,226.913 627.73,228.197 627.73,229.464 C627.73,230.081 628.109,230.48 628.745,230.48 C629.034,230.48 629.305,230.388 629.558,230.208 L629.558,228.269 C630.102,227.963 630.626,227.835 631.171,227.835 C632.672,227.835 633.58,228.848 633.58,230.568 C633.58,232.943 631.316,234.917 627.35,238.139 L627.35,239.28 L635.734,239.28 L635.734,236.31 L634.918,236.31 L634.592,237.851 L629.141,237.851" fill="#000000"/>
      <path d="M611.929,259.23 L620.602,259.23 L620.602,255.935 L619.66,255.935 L619.354,258.108 L619.097,258.398 L615.005,258.398 L615.005,248.165 L615.314,247.913 L616.346,247.802 L616.346,247.077 L611.929,247.077 L611.929,247.802 L613.068,247.913 L613.376,248.165 L613.376,258.143 L613.068,258.398 L611.929,258.488 L611.929,259.23" fill="#000000"/>
      <path d="M627.367,246.771 C625.81,246.771 624.451,247.314 623.363,248.364 C622.151,249.542 621.517,251.172 621.517,253.146 C621.517,255.119 622.151,256.767 623.383,257.963 C624.433,258.977 625.826,259.521 627.367,259.521 C629.467,259.521 631.279,258.468 632.293,256.731 C632.908,255.681 633.217,254.487 633.217,253.146 C633.217,251.172 632.564,249.542 631.351,248.364 C630.263,247.314 628.925,246.771 627.367,246.771 z M627.367,247.748 C629.704,247.748 631.316,249.777 631.316,253.146 C631.316,256.514 629.704,258.56 627.367,258.56 C625.013,258.56 623.401,256.514 623.401,253.146 C623.401,249.74 625.013,247.748 627.367,247.748" fill="#000000"/>
      <path d="M635.026,258.867 C635.858,259.23 636.98,259.448 638.284,259.448 C641.183,259.448 642.976,257.943 642.976,255.809 C642.976,255.012 642.704,254.342 642.179,253.817 C641.345,253.001 640.367,252.71 639.443,252.33 C637.777,251.625 636.908,251.172 636.908,249.959 C636.908,248.637 637.831,247.767 639.371,247.767 C640.006,247.767 640.547,247.893 641,248.147 L641.272,248.454 L641.543,250.176 L642.485,250.176 L642.485,247.368 C641.417,247.025 640.405,246.863 639.409,246.863 C636.835,246.863 635.225,248.292 635.225,250.338 C635.225,252.096 636.275,252.764 638.284,253.634 C640.259,254.487 641.309,254.813 641.309,256.314 C641.309,257.583 640.333,258.488 638.575,258.488 C637.759,258.488 637.072,258.342 636.547,258.071 L636.31,257.763 L636.095,255.681 L635.026,255.681 L635.026,258.867" fill="#000000"/>
      <path d="M661.543,231.164 L657.58,231.917 L657.58,232.64 L659.858,232.901 L658.954,238.08 C658.252,237.771 657.58,237.642 656.879,237.642 C654.73,237.642 652.45,238.935 651.052,241.139 C650.222,242.459 649.783,244.067 649.783,245.826 C649.783,248.78 651.104,250.463 653.176,250.463 C654.55,250.463 655.948,249.66 657.217,248.055 C657.191,248.235 657.191,248.417 657.191,248.573 C657.191,249.842 657.734,250.41 658.927,250.41 C659.6,250.41 660.688,250.179 662.113,249.66 L662.113,248.883 C661.334,249.065 660.764,249.168 660.43,249.168 C659.651,249.168 659.288,248.805 659.288,248.081 C659.288,247.743 659.339,247.251 659.446,246.681 L662.216,231.164 L661.543,231.164 z M657.346,238.73 L658.589,240.206 L657.425,246.785 C656.258,248.262 655.067,248.985 654.109,248.985 C652.76,248.985 651.88,247.847 651.88,245.801 C651.88,241.475 654.392,238.652 656.725,238.652 C656.908,238.652 657.113,238.704 657.346,238.73" fill="#000000"/>
      <path d="M673.625,232.694 L664.067,249.092 L662.642,249.246 L662.642,250.23 L667.771,250.23 L667.771,249.246 L666.191,249.117 L665.984,248.754 L668.755,243.806 L675.05,243.806 L675.854,248.754 L675.671,249.117 L674.143,249.246 L674.143,250.23 L679.817,250.23 L679.817,249.246 L678.547,249.117 L678.106,248.651 L675.335,232.694 L673.625,232.694 z M673.625,235.233 L674.816,242.693 L669.404,242.693 L673.625,235.233 z" fill="#000000"/>
      <path d="M685.105,249.398 C685.775,249.36 686.158,248.981 686.158,248.475 C686.158,247.839 685.504,247.352 684.472,247.352 C682.733,247.352 681.358,248.601 681.358,250.085 C681.358,251.1 682.046,251.589 683.077,252.368 C683.837,252.947 684.326,253.364 684.326,254.052 C684.326,255.012 683.71,255.59 682.679,255.59 C682.117,255.59 681.664,255.375 681.376,254.958 L681.701,254.052 C681.41,253.835 681.176,253.727 680.921,253.727 C680.36,253.727 679.981,254.088 679.981,254.651 C679.981,255.59 680.867,256.244 682.388,256.244 C684.364,256.244 685.702,255.03 685.702,253.455 C685.702,252.368 684.962,251.897 683.875,251.064 C683.023,250.41 682.514,250.031 682.514,249.38 C682.514,248.675 683.059,248.165 683.783,248.165 C683.983,248.165 684.164,248.222 684.346,248.348 L685.105,249.398" fill="#000000"/>
      <path d="M705.343,231.164 L701.38,231.917 L701.38,232.64 L703.658,232.901 L702.754,238.08 C702.052,237.771 701.38,237.642 700.679,237.642 C698.53,237.642 696.25,238.935 694.852,241.139 C694.022,242.459 693.583,244.067 693.583,245.826 C693.583,248.78 694.904,250.463 696.976,250.463 C698.35,250.463 699.748,249.66 701.017,248.055 C700.991,248.235 700.991,248.417 700.991,248.573 C700.991,249.842 701.534,250.41 702.727,250.41 C703.4,250.41 704.488,250.179 705.913,249.66 L705.913,248.883 C705.134,249.065 704.564,249.168 704.23,249.168 C703.451,249.168 703.088,248.805 703.088,248.081 C703.088,247.743 703.139,247.251 703.246,246.681 L706.016,231.164 L705.343,231.164 z M701.146,238.73 L702.389,240.206 L701.225,246.785 C700.058,248.262 698.867,248.985 697.909,248.985 C696.56,248.985 695.68,247.847 695.68,245.801 C695.68,241.475 698.192,238.652 700.525,238.652 C700.708,238.652 700.913,238.704 701.146,238.73" fill="#000000"/>
      <path d="M717.425,232.694 L707.867,249.092 L706.442,249.246 L706.442,250.23 L711.571,250.23 L711.571,249.246 L709.991,249.117 L709.784,248.754 L712.555,243.806 L718.85,243.806 L719.654,248.754 L719.471,249.117 L717.943,249.246 L717.943,250.23 L723.617,250.23 L723.617,249.246 L722.347,249.117 L721.906,248.651 L719.135,232.694 L717.425,232.694 z M717.425,235.233 L718.616,242.693 L713.204,242.693 L717.425,235.233 z" fill="#000000"/>
      <path d="M733.139,242.751 L730.37,243.276 L730.37,243.783 L731.963,243.965 L731.33,247.587 C730.841,247.368 730.37,247.28 729.88,247.28 C728.377,247.28 726.784,248.184 725.806,249.725 C725.227,250.647 724.918,251.771 724.918,253.001 C724.918,255.065 725.842,256.244 727.289,256.244 C728.251,256.244 729.229,255.681 730.117,254.559 C730.097,254.685 730.097,254.813 730.097,254.921 C730.097,255.809 730.477,256.206 731.312,256.206 C731.783,256.206 732.542,256.046 733.538,255.681 L733.538,255.138 C732.995,255.264 732.596,255.338 732.362,255.338 C731.818,255.338 731.564,255.084 731.564,254.577 C731.564,254.342 731.6,253.997 731.672,253.598 L733.61,242.751 L733.139,242.751 z M730.208,248.039 L731.075,249.072 L730.262,253.671 C729.446,254.705 728.614,255.21 727.943,255.21 C727.001,255.21 726.385,254.414 726.385,252.984 C726.385,249.959 728.143,247.985 729.772,247.985 C729.898,247.985 730.043,248.022 730.208,248.039" fill="#000000"/>
    </g>
  </g>
</svg>
