<?xml version="1.0" encoding="UTF-8"?>
<!DOCTYPE svg PUBLIC "-//W3C//DTD SVG 1.1//EN" "http://www.w3.org/Graphics/SVG/1.1/DTD/svg11.dtd">
<svg version="1.1" xmlns="http://www.w3.org/2000/svg" xmlns:xlink="http://www.w3.org/1999/xlink" x="0" y="0" width="1132.774" height="411.71" viewBox="0, 0, 943.978, 343.092">
  <defs>
    <clipPath id="Clip_1">
      <path d="M610.516,165.149 L621.352,165.149 L621.352,154.312 L610.516,154.312 z"/>
    </clipPath>
  </defs>
  <g id="Layer_1" transform="translate(-0, -0)">
    <g>
      <path d="M115.817,297.962 C52.405,297.962 1,246.556 1,183.144 C1,119.732 52.405,68.327 115.817,68.327 C179.229,68.327 230.635,119.732 230.635,183.144 C230.635,246.556 179.229,297.962 115.817,297.962 z" fill="#FFFFFF"/>
      <path d="M115.817,297.962 C52.405,297.962 1,246.556 1,183.144 C1,119.732 52.405,68.327 115.817,68.327 C179.229,68.327 230.635,119.732 230.635,183.144 C230.635,246.556 179.229,297.962 115.817,297.962 z" fill-opacity="0" stroke="#000000" stroke-width="1"/>
    </g>
    <g>
      <path d="M161.111,167.735 C162.097,170.632 162.805,173.624 163.22,176.673" fill-opacity="0" stroke="#000000" stroke-width="1"/>
      <g>
        <path d="M164.792,165.928 L156.292,157.92 L157.43,169.542 z" fill="#000000"/>
        <path d="M164.792,165.928 L156.292,157.92 L157.43,169.542 z" fill-opacity="0" stroke="#000000" stroke-width="1"/>
      </g>
    </g>
    <g>
      <path d="M106.918,135.731 C111.103,134.947 115.355,134.721 119.564,135.049" fill-opacity="0" stroke="#000000" stroke-width="1"/>
      <g>
        <path d="M118.729,139.064 L130.269,137.28 L120.401,131.035 z" fill="#000000"/>
        <path d="M118.729,139.064 L130.269,137.28 L120.401,131.035 z" fill-opacity="0" stroke="#000000" stroke-width="1"/>
      </g>
    </g>
    <g>
      <path d="M595.818,300.493 C532.406,300.493 481,249.087 481,185.675 C481,122.263 532.406,70.858 595.818,70.858 C659.23,70.858 710.635,122.263 710.635,185.675 C710.635,249.087 659.23,300.493 595.818,300.493 z" fill="#FFFFFF"/>
      <path d="M595.818,300.493 C532.406,300.493 481,249.087 481,185.675 C481,122.263 532.406,70.858 595.818,70.858 C659.23,70.858 710.635,122.263 710.635,185.675 C710.635,249.087 659.23,300.493 595.818,300.493 z" fill-opacity="0" stroke="#000000" stroke-width="1"/>
    </g>
    <g>
      <path d="M591.336,149.961 C596.117,149.453 600.93,149.912 605.495,151.287" fill-opacity="0" stroke="#000000" stroke-width="0.5"/>
      <g>
        <path d="M604.738,153.193 L610.576,153.306 L606.251,149.382 z" fill="#000000"/>
        <path d="M604.738,153.193 L610.576,153.306 L606.251,149.382 z" fill-opacity="0" stroke="#000000" stroke-width="0.5"/>
      </g>
    </g>
    <g>
      <path d="M627.174,171.188 C628.645,174.439 629.616,177.907 630.046,181.475" fill-opacity="0" stroke="#000000" stroke-width="0.5"/>
      <g>
        <path d="M628.962,170.183 L624.495,166.421 L625.387,172.192 z" fill="#000000"/>
        <path d="M628.962,170.183 L624.495,166.421 L625.387,172.192 z" fill-opacity="0" stroke="#000000" stroke-width="0.5"/>
      </g>
    </g>
    <path d="M481.001,185.675 C481.001,167.934 532.406,153.554 595.818,153.554 C659.23,153.554 710.635,167.934 710.635,185.675 C710.635,203.416 659.23,217.797 595.818,217.797 C532.406,217.797 481.001,203.416 481.001,185.675 z" fill-opacity="0" stroke="#000000" stroke-width="0.5"/>
    <path d="M595.818,70.858 C613.557,70.858 627.939,122.263 627.939,185.675 C627.939,249.087 613.557,300.493 595.818,300.493 C578.077,300.493 563.696,249.087 563.696,185.675 C563.696,122.263 578.077,70.858 595.818,70.858 z" fill-opacity="0" stroke="#000000" stroke-width="0.5"/>
    <g>
      <path d="M174.841,11.451 C181.09,11.468 185.823,6.791 191.63,4.958 C259.34,-16.414 220.232,55.075 244.111,69.232 C263.632,80.804 275.504,59.75 287.265,69.203" fill-opacity="0" stroke="#000000" stroke-width="1" stroke-linecap="round" stroke-linejoin="round"/>
      <path d="M115.817,183.144 L174.841,11.451" fill-opacity="0" stroke="#000000" stroke-width="1"/>
      <path d="M115.817,183.144 L287.265,69.203" fill-opacity="0" stroke="#000000" stroke-width="1"/>
    </g>
    <path d="M115.817,183.144 L230.635,183.144" fill-opacity="0" stroke="#000000" stroke-width="1"/>
    <path d="M198.666,81.497 C199.54,81.45 200.036,80.953 200.036,80.292 C200.036,79.465 199.186,78.828 197.841,78.828 C195.574,78.828 193.78,80.456 193.78,82.393 C193.78,83.715 194.678,84.352 196.023,85.366 C197.014,86.122 197.652,86.665 197.652,87.563 C197.652,88.813 196.85,89.569 195.503,89.569 C194.771,89.569 194.182,89.285 193.804,88.744 L194.229,87.563 C193.851,87.28 193.546,87.138 193.214,87.138 C192.481,87.138 191.986,87.609 191.986,88.342 C191.986,89.569 193.144,90.418 195.126,90.418 C197.7,90.418 199.447,88.837 199.447,86.782 C199.447,85.366 198.479,84.754 197.06,83.667 C195.952,82.818 195.29,82.321 195.29,81.473 C195.29,80.552 195.999,79.89 196.943,79.89 C197.204,79.89 197.439,79.962 197.675,80.127 L198.666,81.497" fill="#000000" id="Layer_1"/>
    <path d="M171.681,190.665 L168.189,191.441 L168.189,192.033 L170.123,192.388 L168.163,202.041 L170.148,202.041 L171.114,196.494 C171.493,194.322 172.249,193.047 174.561,192.15 L175.175,193.426 C175.222,193.426 175.269,193.426 175.339,193.426 C176.308,193.426 176.922,192.787 176.922,191.889 C176.922,191.183 176.403,190.665 175.6,190.665 C174.419,190.665 172.909,191.749 171.398,193.897 L172.153,190.665 L171.681,190.665" fill="#000000" id="Layer_1"/>
    <g>
      <path d="M733.189,10.918 C724.002,10.142 715.88,11.176 707.218,13.651 C703.104,14.827 679.188,15.711 677.147,17.752 C675.016,19.883 685.665,31.533 686.715,34.154 C690.213,42.901 684.662,51.916 686.715,60.125 C687.933,65.001 719.27,91.275 724.987,87.462 C730.92,83.507 732.289,70.591 737.289,65.592 C747.753,55.129 754.582,75.398 763.26,71.06 C767.195,69.092 769.364,61.041 770.094,57.391 C776.014,27.79 765.299,18.262 735.922,10.918 z" fill="#B4B3B3"/>
      <path d="M733.189,10.918 C724.002,10.142 715.88,11.176 707.218,13.651 C703.104,14.827 679.188,15.711 677.147,17.752 C675.016,19.883 685.665,31.533 686.715,34.154 C690.213,42.901 684.662,51.916 686.715,60.125 C687.933,65.001 719.27,91.275 724.987,87.462 C730.92,83.507 732.289,70.591 737.289,65.592 C747.753,55.129 754.582,75.398 763.26,71.06 C767.195,69.092 769.364,61.041 770.094,57.391 C776.014,27.79 765.299,18.262 735.922,10.918 z" fill-opacity="0" stroke="#000000" stroke-width="1" stroke-linecap="round" stroke-linejoin="round"/>
    </g>
    <g>
      <path d="M653.565,112.264 C649.658,111.942 646.203,112.372 642.518,113.4 C640.767,113.888 630.594,114.256 629.726,115.105 C628.82,115.989 633.349,120.831 633.796,121.92 C635.284,125.555 632.923,129.3 633.796,132.711 C634.314,134.737 647.644,145.654 650.077,144.07 C652.6,142.427 653.184,137.061 655.31,134.983 C659.762,130.635 662.666,139.058 666.358,137.255 C668.032,136.438 668.955,133.091 669.265,131.576 C671.783,119.275 667.226,115.317 654.729,112.264 z" fill="#B4B3B3"/>
      <path d="M653.565,112.264 C649.658,111.942 646.203,112.372 642.518,113.4 C640.767,113.888 630.594,114.256 629.726,115.105 C628.82,115.989 633.349,120.831 633.796,121.92 C635.284,125.555 632.923,129.3 633.796,132.711 C634.314,134.737 647.644,145.654 650.077,144.07 C652.6,142.427 653.184,137.061 655.31,134.983 C659.762,130.635 662.666,139.058 666.358,137.255 C668.032,136.438 668.955,133.091 669.265,131.576 C671.783,119.275 667.226,115.317 654.729,112.264 z" fill-opacity="0" stroke="#000000" stroke-width="1" stroke-linecap="round" stroke-linejoin="round"/>
    </g>
    <path d="M595.134,185.675 L677.147,17.752" fill-opacity="0" stroke="#000000" stroke-width="1"/>
    <path d="M595.134,185.675 L763.26,71.06" fill-opacity="0" stroke="#000000" stroke-width="1"/>
    <path d="M595.134,185.675 L710.635,185.675" fill-opacity="0" stroke="#000000" stroke-width="1"/>
    <path d="M647.374,188.617 L647.374,189.513 L649.051,189.654 L649.309,189.985 L646.784,203.11 L646.407,203.44 L644.894,203.558 L644.894,204.455 L650.654,204.455 L650.654,203.558 L649.12,203.44 L648.837,203.11 L649.947,197.443 C650.444,197.419 650.869,197.396 651.246,197.396 C651.883,197.396 652.331,197.443 652.616,197.586 C653.817,198.129 653.961,199.073 654.267,200.441 C654.621,202.048 654.834,203.274 655.681,203.983 C656.131,204.36 656.864,204.572 657.855,204.572 C658.232,204.572 658.775,204.526 659.507,204.431 L659.507,203.558 C659.436,203.558 659.367,203.558 659.294,203.558 C657.476,203.558 657.028,202.969 656.532,201.174 C655.896,198.956 655.706,197.419 653.63,196.971 C656.652,196.311 658.326,194.47 658.326,192.061 C658.326,189.631 656.698,188.617 653.345,188.617 L647.374,188.617 z M650.159,196.311 L651.435,189.724 C651.789,189.701 652.119,189.677 652.426,189.677 C654.905,189.677 656.083,190.528 656.083,192.415 C656.083,194.848 654.313,196.334 651.033,196.334 C650.748,196.334 650.467,196.334 650.159,196.311" fill="#000000" id="Layer_1"/>
    <path d="M648.102,114.628 L639.392,129.569 L638.094,129.71 L638.094,130.608 L642.767,130.608 L642.767,129.71 L641.328,129.592 L641.139,129.261 L643.664,124.754 L649.401,124.754 L650.133,129.261 L649.967,129.592 L648.575,129.71 L648.575,130.608 L653.745,130.608 L653.745,129.71 L652.588,129.592 L652.186,129.167 L649.662,114.628 L648.102,114.628 z M648.102,116.94 L649.187,123.739 L644.256,123.739 L648.102,116.94 z" fill="#000000" id="Layer_1"/>
    <path d="M729.506,41.063 C728.231,40.59 726.909,40.376 725.564,40.376 C722.046,40.376 719.733,42.548 719.733,45.381 C719.733,47.294 721.243,48.215 723.723,49.488 C725.257,50.267 726.32,50.669 726.32,52.179 C726.32,54.257 724.737,55.627 722.284,55.627 C721.41,55.627 720.56,55.392 719.662,54.943 L719.426,54.636 L719.662,51.921 L718.435,51.921 L717.655,55.673 C718.977,56.406 720.442,56.76 721.999,56.76 C725.775,56.76 728.395,54.588 728.395,51.706 C728.395,49.701 727.17,48.781 724.855,47.696 C722.873,46.773 721.741,46.325 721.741,44.603 C721.741,42.856 723.275,41.44 725.47,41.44 C726.153,41.44 726.838,41.581 727.522,41.888 L727.806,42.313 L727.712,44.651 L728.75,44.651 L729.506,41.063" fill="#000000" id="Layer_1"/>
    <path d="M146.233,135.276 C143.141,135.276 140.215,138.982 139.222,144.176 C139.01,145.26 138.893,146.299 138.893,147.245 C138.893,150.76 140.332,153.073 142.763,153.073 C145.856,153.073 148.784,149.367 149.798,144.176 C150.01,143.088 150.105,142.05 150.105,141.106 C150.105,137.589 148.663,135.276 146.233,135.276 z M141.323,143.633 C142.197,139.124 144.061,136.196 146.046,136.196 C147.485,136.196 148.264,137.706 148.264,140.232 C148.264,141.223 148.145,142.358 147.91,143.633 L141.323,143.633 z M141.111,144.719 L147.697,144.719 C146.823,149.226 144.934,152.153 142.953,152.153 C141.513,152.153 140.734,150.643 140.734,148.115 C140.734,147.124 140.852,145.992 141.111,144.719" fill="#000000" id="Layer_1"/>
    <g clip-path="url(#Clip_1)" id="Layer_1">
      <path d="M614.657,164.968 L614.984,164.968 C614.984,162.52 613.176,160.43 613.176,157.997 C613.176,156.235 614.44,155.097 616.373,155.097 C618.307,155.097 619.57,156.235 619.57,157.997 C619.57,160.43 617.762,162.52 617.762,164.968 L621.348,164.968 L621.348,162.425 L620.536,162.425 L620.318,163.767 L620.24,163.845 L618.589,163.845 C619.18,161.818 621.176,160.195 621.176,157.997 C621.176,155.813 619.18,154.255 616.373,154.255 C613.567,154.255 611.57,155.813 611.57,157.997 C611.57,160.195 613.567,161.818 614.158,163.845 L612.505,163.845 L612.428,163.767 L612.209,162.425 L611.397,162.425 L611.397,164.968 L614.657,164.968" fill="#000000"/>
    </g>
    <g>
      <g id="Layer_1">
        <path d="M285.936,151.412 C282.843,151.412 279.918,155.117 278.924,160.312 C278.714,161.397 278.596,162.434 278.596,163.382 C278.596,166.896 280.036,169.21 282.466,169.21 C285.558,169.21 288.487,165.504 289.501,160.312 C289.712,159.225 289.809,158.187 289.809,157.243 C289.809,153.726 288.367,151.412 285.936,151.412 z M281.027,159.769 C281.9,155.261 283.764,152.333 285.748,152.333 C287.188,152.333 287.968,153.842 287.968,156.37 C287.968,157.36 287.847,158.495 287.612,159.769 L281.027,159.769 z M280.815,160.854 L287.399,160.854 C286.525,165.364 284.638,168.289 282.656,168.289 C281.217,168.289 280.436,166.78 280.436,164.252 C280.436,163.261 280.554,162.13 280.815,160.854" fill="#000000"/>
        <path d="M299.252,160.359 L315.115,160.359 L315.115,158.943 L299.252,158.943 L299.252,160.359 z M299.252,165.456 L315.115,165.456 L315.115,164.04 L299.252,164.04 L299.252,165.456" fill="#000000"/>
        <path d="M332.641,143.749 C333.514,143.703 334.009,143.205 334.009,142.545 C334.009,141.718 333.159,141.082 331.814,141.082 C329.548,141.082 327.754,142.709 327.754,144.646 C327.754,145.969 328.651,146.605 329.996,147.619 C330.987,148.375 331.627,148.917 331.627,149.815 C331.627,151.066 330.823,151.822 329.478,151.822 C328.745,151.822 328.155,151.539 327.778,150.996 L328.203,149.815 C327.824,149.532 327.519,149.39 327.189,149.39 C326.456,149.39 325.96,149.862 325.96,150.594 C325.96,151.822 327.117,152.671 329.099,152.671 C331.673,152.671 333.42,151.089 333.42,149.035 C333.42,147.619 332.452,147.006 331.035,145.92 C329.926,145.071 329.263,144.573 329.263,143.726 C329.263,142.805 329.973,142.143 330.917,142.143 C331.177,142.143 331.412,142.214 331.65,142.381 L332.641,143.749" fill="#000000"/>
        <path d="M325.537,162.914 L337.869,162.914" fill-opacity="0" stroke="#000000" stroke-width="1.033"/>
        <path d="M330.265,175.118 L326.774,175.894 L326.774,176.486 L328.709,176.84 L326.748,186.494 L328.732,186.494 L329.7,180.947 C330.078,178.775 330.834,177.5 333.147,176.603 L333.759,177.879 C333.807,177.879 333.853,177.879 333.925,177.879 C334.894,177.879 335.507,177.24 335.507,176.342 C335.507,175.636 334.988,175.118 334.184,175.118 C333.003,175.118 331.494,176.201 329.984,178.35 L330.738,175.118 L330.265,175.118" fill="#000000"/>
      </g>
      <g id="Layer_1">
        <path d="M294.064,199.627 L290.452,200.312 L290.452,200.972 L292.529,201.21 L291.704,205.93 C291.065,205.647 290.452,205.529 289.814,205.529 C287.855,205.529 285.778,206.709 284.504,208.717 C283.748,209.918 283.347,211.383 283.347,212.988 C283.347,215.678 284.552,217.212 286.439,217.212 C287.691,217.212 288.967,216.482 290.122,215.019 C290.098,215.183 290.098,215.347 290.098,215.491 C290.098,216.646 290.593,217.165 291.68,217.165 C292.293,217.165 293.284,216.953 294.583,216.482 L294.583,215.773 C293.874,215.939 293.354,216.034 293.049,216.034 C292.34,216.034 292.009,215.703 292.009,215.043 C292.009,214.735 292.056,214.287 292.153,213.767 L294.677,199.627 L294.064,199.627 z M290.239,206.52 L291.372,207.867 L290.312,213.862 C289.248,215.207 288.163,215.867 287.289,215.867 C286.062,215.867 285.258,214.829 285.258,212.964 C285.258,209.022 287.548,206.45 289.673,206.45 C289.84,206.45 290.027,206.497 290.239,206.52" fill="#000000"/>
        <path d="M303.209,208.292 C304.083,208.244 304.578,207.746 304.578,207.086 C304.578,206.26 303.729,205.623 302.382,205.623 C300.116,205.623 298.323,207.251 298.323,209.188 C298.323,210.51 299.219,211.147 300.566,212.161 C301.557,212.917 302.195,213.46 302.195,214.356 C302.195,215.608 301.391,216.364 300.046,216.364 C299.314,216.364 298.725,216.08 298.346,215.537 L298.771,214.356 C298.393,214.075 298.088,213.931 297.757,213.931 C297.024,213.931 296.528,214.404 296.528,215.137 C296.528,216.364 297.686,217.212 299.668,217.212 C302.242,217.212 303.988,215.632 303.988,213.577 C303.988,212.161 303.021,211.549 301.603,210.461 C300.495,209.613 299.833,209.116 299.833,208.268 C299.833,207.347 300.541,206.686 301.486,206.686 C301.747,206.686 301.981,206.755 302.218,206.922 L303.209,208.292" fill="#000000"/>
        <path d="M313.014,208.361 L328.877,208.361 L328.877,206.945 L313.014,206.945 L313.014,208.361 z M313.014,213.46 L328.877,213.46 L328.877,212.044 L313.014,212.044 L313.014,213.46" fill="#000000"/>
        <path d="M341.02,205.623 L337.529,206.401 L337.529,206.993 L339.463,207.347 L337.503,217.001 L339.488,217.001 L340.454,211.455 C340.833,209.283 341.588,208.007 343.901,207.111 L344.515,208.386 C344.561,208.386 344.608,208.386 344.679,208.386 C345.648,208.386 346.262,207.746 346.262,206.85 C346.262,206.143 345.742,205.623 344.94,205.623 C343.759,205.623 342.249,206.709 340.738,208.857 L341.493,205.623 L341.02,205.623" fill="#000000"/>
        <path d="M359.81,199.627 L356.199,200.312 L356.199,200.972 L358.275,201.21 L357.451,205.93 C356.813,205.647 356.199,205.529 355.561,205.529 C353.602,205.529 351.524,206.709 350.252,208.717 C349.494,209.918 349.094,211.383 349.094,212.988 C349.094,215.678 350.298,217.212 352.186,217.212 C353.438,217.212 354.713,216.482 355.868,215.019 C355.845,215.183 355.845,215.347 355.845,215.491 C355.845,216.646 356.34,217.165 357.426,217.165 C358.04,217.165 359.031,216.953 360.33,216.482 L360.33,215.773 C359.62,215.939 359.102,216.034 358.796,216.034 C358.087,216.034 357.756,215.703 357.756,215.043 C357.756,214.735 357.804,214.287 357.899,213.767 L360.424,199.627 L359.81,199.627 z M355.986,206.52 L357.12,207.867 L356.058,213.862 C354.995,215.207 353.909,215.867 353.036,215.867 C351.808,215.867 351.005,214.829 351.005,212.964 C351.005,209.022 353.294,206.45 355.42,206.45 C355.587,206.45 355.774,206.497 355.986,206.52" fill="#000000"/>
        <path d="M372.142,199.415 C369.05,199.415 366.124,203.121 365.13,208.315 C364.92,209.4 364.802,210.438 364.802,211.383 C364.802,214.899 366.241,217.212 368.672,217.212 C371.765,217.212 374.693,213.506 375.707,208.315 C375.919,207.228 376.014,206.189 376.014,205.246 C376.014,201.728 374.572,199.415 372.142,199.415 z M367.232,207.772 C368.106,203.264 369.97,200.335 371.955,200.335 C373.394,200.335 374.173,201.845 374.173,204.373 C374.173,205.364 374.053,206.497 373.819,207.772 L367.232,207.772 z M367.02,208.857 L373.605,208.857 C372.731,213.365 370.844,216.292 368.862,216.292 C367.422,216.292 366.643,214.782 366.643,212.256 C366.643,211.265 366.761,210.133 367.02,208.857" fill="#000000"/>
      </g>
      <g id="Layer_1">
        <path d="M361.779,152.552 L367.444,152.552 L367.444,153.968 L363.338,153.968 L363.338,173.609 L367.444,173.609 L367.444,175.025 L361.779,175.025 L361.779,152.552" fill="#000000"/>
        <path d="M378.901,153 C375.808,153 372.883,156.706 371.889,161.9 C371.677,162.985 371.56,164.023 371.56,164.969 C371.56,168.484 372.999,170.797 375.431,170.797 C378.523,170.797 381.451,167.091 382.465,161.9 C382.677,160.813 382.772,159.774 382.772,158.831 C382.772,155.313 381.332,153 378.901,153 z M373.99,161.357 C374.865,156.849 376.729,153.921 378.713,153.921 C380.152,153.921 380.933,155.43 380.933,157.958 C380.933,158.949 380.812,160.082 380.577,161.357 L373.99,161.357 z M373.78,162.443 L380.364,162.443 C379.491,166.951 377.603,169.877 375.621,169.877 C374.182,169.877 373.401,168.367 373.401,165.841 C373.401,164.85 373.519,163.718 373.78,162.443" fill="#000000"/>
        <path d="M393.076,152.552 L393.076,175.025 L387.41,175.025 L387.41,173.609 L391.519,173.609 L391.519,153.968 L387.41,153.968 L387.41,152.552 L393.076,152.552" fill="#000000"/>
        <path d="M401.786,161.946 L417.648,161.946 L417.648,160.53 L401.786,160.53 L401.786,161.946 z M401.786,167.045 L417.648,167.045 L417.648,165.629 L401.786,165.629 L401.786,167.045" fill="#000000"/>
        <path d="M425.229,170.586 L430.916,170.586 L430.916,169.736 L429.267,169.619 L428.865,169.24 L428.865,162.489 C429.832,161.357 430.658,160.765 431.436,160.765 C431.932,160.765 432.332,160.955 432.64,161.331 L433.396,161.331 L433.396,159.303 C432.901,159.09 432.453,158.995 431.98,158.995 C431.79,158.995 431.579,158.995 431.389,159.042 C430.539,159.728 429.689,160.484 428.865,161.331 L428.865,159.116 L427.968,159.116 L425.229,159.963 L425.229,160.696 L426.903,160.696 L426.903,169.24 L426.478,169.619 L425.229,169.736 L425.229,170.586" fill="#000000"/>
        <path d="M441.426,169.217 L441.732,170.586 L445.062,170.586 L445.062,169.736 L443.81,169.619 L443.385,169.24 L443.385,162.396 C443.385,160.012 442.348,158.995 439.868,158.995 C436.892,158.995 435.099,160.223 435.099,161.663 C435.099,162.229 435.289,162.396 435.832,162.396 L437.461,162.396 L437.461,160.411 C438.097,160.153 438.664,160.035 439.254,160.035 C440.953,160.035 441.426,160.813 441.426,162.678 L441.426,163.434 C436.705,164.568 434.533,165.275 434.533,167.731 C434.533,169.501 435.691,170.75 437.555,170.75 C438.687,170.75 439.938,170.231 441.426,169.217 z M441.426,168.414 C440.245,169.099 439.279,169.478 438.498,169.478 C437.317,169.478 436.611,168.697 436.611,167.541 C436.611,165.817 438.097,165.18 441.426,164.26 L441.426,168.414" fill="#000000"/>
        <path d="M454.474,154.795 L454.474,159.232 C453.742,159.066 453.035,158.972 452.372,158.972 C448.784,158.972 446.284,161.498 446.284,165.275 C446.284,168.581 448.266,170.797 450.839,170.797 C452.137,170.797 453.269,170.325 454.474,169.358 L454.474,170.586 L457.968,170.586 L457.968,169.736 L456.834,169.619 L456.433,169.24 L456.433,153.212 L455.535,153.212 L452.657,154.062 L452.657,154.795 L454.474,154.795 z M454.474,168.484 C453.601,169.03 452.751,169.311 451.901,169.311 C449.778,169.311 448.359,167.634 448.359,164.873 C448.359,161.923 450.013,160.012 452.395,160.012 C452.964,160.012 453.671,160.153 454.474,160.388 L454.474,168.484" fill="#000000"/>
      </g>
    </g>
    <g>
      <g id="Layer_1">
        <path d="M769.313,152.584 L765.701,153.269 L765.701,153.929 L767.778,154.165 L766.954,158.885 C766.314,158.604 765.701,158.486 765.063,158.486 C763.104,158.486 761.027,159.666 759.753,161.672 C758.997,162.875 758.597,164.34 758.597,165.944 C758.597,168.635 759.801,170.169 761.688,170.169 C762.94,170.169 764.216,169.439 765.371,167.975 C765.347,168.14 765.347,168.304 765.347,168.448 C765.347,169.603 765.842,170.122 766.929,170.122 C767.543,170.122 768.534,169.91 769.832,169.439 L769.832,168.729 C769.123,168.896 768.603,168.99 768.299,168.99 C767.589,168.99 767.258,168.658 767.258,167.999 C767.258,167.692 767.305,167.242 767.402,166.724 L769.926,152.584 L769.313,152.584 z M765.488,159.477 L766.621,160.823 L765.561,166.818 C764.497,168.163 763.412,168.824 762.539,168.824 C761.311,168.824 760.507,167.785 760.507,165.92 C760.507,161.978 762.797,159.407 764.922,159.407 C765.089,159.407 765.276,159.454 765.488,159.477" fill="#000000"/>
        <path d="M780.323,153.978 L771.613,168.919 L770.315,169.06 L770.315,169.957 L774.988,169.957 L774.988,169.06 L773.549,168.943 L773.36,168.612 L775.885,164.104 L781.621,164.104 L782.354,168.612 L782.187,168.943 L780.795,169.06 L780.795,169.957 L785.965,169.957 L785.965,169.06 L784.808,168.943 L784.406,168.517 L781.881,153.978 L780.323,153.978 z M780.323,156.291 L781.408,163.088 L776.477,163.088 L780.323,156.291 z" fill="#000000"/>
        <path d="M792.09,161.318 L807.953,161.318 L807.953,159.902 L792.09,159.902 L792.09,161.318 z M792.09,166.417 L807.953,166.417 L807.953,165.001 L792.09,165.001 L792.09,166.417" fill="#000000"/>
        <path d="M816.62,154.119 L816.62,155.016 L818.296,155.156 L818.554,155.488 L816.03,168.612 L815.652,168.943 L814.139,169.06 L814.139,169.957 L819.901,169.957 L819.901,169.06 L818.367,168.943 L818.083,168.612 L819.193,162.946 C819.689,162.923 820.114,162.898 820.491,162.898 C821.128,162.898 821.577,162.946 821.861,163.088 C823.064,163.631 823.206,164.575 823.512,165.944 C823.866,167.55 824.079,168.776 824.928,169.485 C825.376,169.864 826.109,170.074 827.1,170.074 C827.477,170.074 828.02,170.028 828.753,169.934 L828.753,169.06 C828.683,169.06 828.612,169.06 828.539,169.06 C826.721,169.06 826.273,168.471 825.778,166.676 C825.141,164.458 824.951,162.923 822.875,162.473 C825.897,161.814 827.572,159.973 827.572,157.563 C827.572,155.133 825.944,154.119 822.591,154.119 L816.62,154.119 z M819.405,161.814 L820.68,155.227 C821.034,155.204 821.366,155.18 821.671,155.18 C824.15,155.18 825.329,156.03 825.329,157.919 C825.329,160.35 823.558,161.838 820.278,161.838 C819.994,161.838 819.712,161.838 819.405,161.814" fill="#000000"/>
        <path d="M831.231,158.676 C834.878,155.771 836.875,153.907 836.875,151.827 C836.875,149.962 835.572,148.709 833.442,148.709 C831.396,148.709 829.944,149.879 829.944,151.035 C829.944,151.597 830.29,151.959 830.87,151.959 C831.132,151.959 831.38,151.876 831.611,151.712 L831.611,149.946 C832.105,149.666 832.584,149.551 833.08,149.551 C834.448,149.551 835.275,150.473 835.275,152.041 C835.275,154.204 833.213,156.002 829.599,158.938 L829.599,159.979 L837.238,159.979 L837.238,157.274 L836.495,157.274 L836.198,158.676 L831.231,158.676" fill="#000000"/>
        <path d="M851.052,152.584 L847.44,153.269 L847.44,153.929 L849.517,154.165 L848.692,158.885 C848.053,158.604 847.44,158.486 846.802,158.486 C844.843,158.486 842.766,159.666 841.492,161.672 C840.736,162.875 840.335,164.34 840.335,165.944 C840.335,168.635 841.54,170.169 843.427,170.169 C844.679,170.169 845.953,169.439 847.11,167.975 C847.086,168.14 847.086,168.304 847.086,168.448 C847.086,169.603 847.581,170.122 848.668,170.122 C849.282,170.122 850.273,169.91 851.571,169.439 L851.571,168.729 C850.862,168.896 850.342,168.99 850.037,168.99 C849.328,168.99 848.997,168.658 848.997,167.999 C848.997,167.692 849.045,167.242 849.141,166.724 L851.665,152.584 L851.052,152.584 z M847.227,159.477 L848.362,160.823 L847.3,166.818 C846.236,168.163 845.151,168.824 844.277,168.824 C843.049,168.824 842.246,167.785 842.246,165.92 C842.246,161.978 844.536,159.407 846.661,159.407 C846.828,159.407 847.015,159.454 847.227,159.477" fill="#000000"/>
        <path d="M859.913,169.957 L860.408,169.957 C860.408,166.251 857.67,163.088 857.67,159.407 C857.67,156.739 859.584,155.016 862.51,155.016 C865.438,155.016 867.35,156.739 867.35,159.407 C867.35,163.088 864.611,166.251 864.611,169.957 L870.04,169.957 L870.04,166.109 L868.813,166.109 L868.482,168.14 L868.364,168.258 L865.863,168.258 C866.76,165.188 869.781,162.734 869.781,159.407 C869.781,156.101 866.76,153.74 862.51,153.74 C858.262,153.74 855.24,156.101 855.24,159.407 C855.24,162.734 858.262,165.188 859.159,168.258 L856.656,168.258 L856.538,168.14 L856.208,166.109 L854.98,166.109 L854.98,169.957 L859.913,169.957" fill="#000000"/>
      </g>
      <g id="Layer_1">
        <path d="M763.53,116.437 L764.024,116.437 C764.024,112.731 761.287,109.568 761.287,105.886 C761.287,103.219 763.2,101.494 766.127,101.494 C769.055,101.494 770.967,103.219 770.967,105.886 C770.967,109.568 768.228,112.731 768.228,116.437 L773.657,116.437 L773.657,112.588 L772.429,112.588 L772.099,114.619 L771.981,114.736 L769.48,114.736 C770.376,111.668 773.397,109.213 773.397,105.886 C773.397,102.58 770.376,100.22 766.127,100.22 C761.878,100.22 758.856,102.58 758.856,105.886 C758.856,109.213 761.878,111.668 762.775,114.736 L760.272,114.736 L760.155,114.619 L759.824,112.588 L758.597,112.588 L758.597,116.437 L763.53,116.437" fill="#000000"/>
        <path d="M781.546,107.797 L797.409,107.797 L797.409,106.382 L781.546,106.382 L781.546,107.797 z M781.546,112.895 L797.409,112.895 L797.409,111.479 L781.546,111.479 L781.546,112.895" fill="#000000"/>
        <path d="M821.037,83.918 L812.327,98.859 L811.028,99.001 L811.028,99.898 L815.702,99.898 L815.702,99.001 L814.262,98.883 L814.074,98.551 L816.598,94.043 L822.335,94.043 L823.068,98.551 L822.901,98.883 L821.508,99.001 L821.508,99.898 L826.679,99.898 L826.679,99.001 L825.521,98.883 L825.119,98.458 L822.595,83.918 L821.037,83.918 z M821.037,86.23 L822.122,93.029 L817.19,93.029 L821.037,86.23 z" fill="#000000"/>
        <path d="M807.778,110.349 L832.328,110.349" fill-opacity="0" stroke="#000000" stroke-width="1.033"/>
        <path d="M808.947,118.094 L808.947,118.992 L810.622,119.132 L810.881,119.463 L808.356,132.586 L807.979,132.919 L806.466,133.036 L806.466,133.933 L812.227,133.933 L812.227,133.036 L810.693,132.919 L810.409,132.586 L811.519,126.921 C812.015,126.898 812.44,126.874 812.818,126.874 C813.455,126.874 813.903,126.921 814.187,127.064 C815.39,127.607 815.532,128.55 815.838,129.92 C816.192,131.526 816.406,132.752 817.254,133.46 C817.703,133.839 818.435,134.05 819.426,134.05 C819.804,134.05 820.346,134.003 821.079,133.91 L821.079,133.036 C821.009,133.036 820.938,133.036 820.866,133.036 C819.048,133.036 818.599,132.446 818.105,130.652 C817.468,128.433 817.278,126.898 815.201,126.449 C818.224,125.789 819.898,123.948 819.898,121.539 C819.898,119.109 818.27,118.094 814.917,118.094 L808.947,118.094 z M811.731,125.789 L813.006,119.202 C813.36,119.179 813.691,119.156 813.997,119.156 C816.477,119.156 817.655,120.006 817.655,121.893 C817.655,124.326 815.885,125.812 812.604,125.812 C812.32,125.812 812.038,125.812 811.731,125.789" fill="#000000"/>
        <path d="M823.557,126.206 C827.204,123.301 829.201,121.437 829.201,119.357 C829.201,117.492 827.898,116.239 825.769,116.239 C823.723,116.239 822.271,117.409 822.271,118.564 C822.271,119.126 822.617,119.489 823.195,119.489 C823.459,119.489 823.706,119.406 823.937,119.24 L823.937,117.474 C824.432,117.194 824.91,117.079 825.407,117.079 C826.775,117.079 827.602,118.002 827.602,119.57 C827.602,121.734 825.539,123.531 821.925,126.468 L821.925,127.509 L829.565,127.509 L829.565,124.802 L828.821,124.802 L828.524,126.206 L823.557,126.206" fill="#000000"/>
      </g>
      <g id="Layer_1">
        <path d="M769.313,206.752 L765.701,207.437 L765.701,208.097 L767.778,208.333 L766.953,213.053 C766.314,212.771 765.701,212.654 765.063,212.654 C763.104,212.654 761.027,213.834 759.753,215.841 C758.997,217.043 758.596,218.508 758.596,220.113 C758.596,222.803 759.801,224.337 761.688,224.337 C762.94,224.337 764.214,223.607 765.371,222.143 C765.347,222.308 765.347,222.472 765.347,222.616 C765.347,223.771 765.842,224.29 766.929,224.29 C767.543,224.29 768.534,224.078 769.832,223.607 L769.832,222.897 C769.123,223.064 768.603,223.158 768.298,223.158 C767.589,223.158 767.258,222.826 767.258,222.167 C767.258,221.86 767.305,221.411 767.402,220.892 L769.926,206.752 L769.313,206.752 z M765.488,213.645 L766.621,214.991 L765.561,220.986 C764.497,222.331 763.412,222.992 762.538,222.992 C761.31,222.992 760.507,221.953 760.507,220.088 C760.507,216.146 762.797,213.575 764.922,213.575 C765.089,213.575 765.276,213.622 765.488,213.645" fill="#000000"/>
        <path d="M778.174,224.125 L778.669,224.125 C778.669,220.42 775.931,217.256 775.931,213.575 C775.931,210.907 777.845,209.183 780.771,209.183 C783.699,209.183 785.611,210.907 785.611,213.575 C785.611,217.256 782.872,220.42 782.872,224.125 L788.301,224.125 L788.301,220.277 L787.074,220.277 L786.743,222.308 L786.625,222.426 L784.124,222.426 C785.021,219.356 788.042,216.902 788.042,213.575 C788.042,210.269 785.021,207.908 780.771,207.908 C776.523,207.908 773.501,210.269 773.501,213.575 C773.501,216.902 776.523,219.356 777.42,222.426 L774.917,222.426 L774.799,222.308 L774.468,220.277 L773.241,220.277 L773.241,224.125 L778.174,224.125" fill="#000000"/>
        <path d="M796.191,215.486 L812.053,215.486 L812.053,214.07 L796.191,214.07 L796.191,215.486 z M796.191,220.584 L812.053,220.584 L812.053,219.168 L796.191,219.168 L796.191,220.584" fill="#000000"/>
        <path d="M824.394,211.887 L825.81,211.887 L825.81,189.416 L824.394,189.416 z" fill="#000000"/>
        <path d="M840.253,190.076 L836.642,190.761 L836.642,191.421 L838.718,191.657 L837.894,196.377 C837.254,196.096 836.642,195.978 836.004,195.978 C834.045,195.978 831.967,197.158 830.693,199.166 C829.938,200.367 829.537,201.832 829.537,203.437 C829.537,206.127 830.741,207.661 832.629,207.661 C833.881,207.661 835.155,206.931 836.311,205.467 C836.288,205.632 836.288,205.796 836.288,205.94 C836.288,207.095 836.783,207.614 837.87,207.614 C838.483,207.614 839.474,207.402 840.773,206.931 L840.773,206.221 C840.063,206.388 839.544,206.482 839.239,206.482 C838.53,206.482 838.199,206.15 838.199,205.491 C838.199,205.184 838.245,204.736 838.342,204.216 L840.867,190.076 L840.253,190.076 z M836.429,196.969 L837.562,198.315 L836.501,204.31 C835.438,205.655 834.353,206.316 833.479,206.316 C832.25,206.316 831.448,205.277 831.448,203.412 C831.448,199.47 833.737,196.899 835.863,196.899 C836.03,196.899 836.217,196.946 836.429,196.969" fill="#000000"/>
        <path d="M846.65,188.181 L854.677,188.181 L853.166,189.101 L853.922,190.115 L857.226,187.662 L857.226,187.308 L853.922,184.827 L853.166,185.844 L854.677,186.765 L846.65,186.765 L846.65,188.181" fill="#000000"/>
        <path d="M851.263,191.47 L842.554,206.411 L841.255,206.552 L841.255,207.449 L845.929,207.449 L845.929,206.552 L844.489,206.435 L844.301,206.104 L846.825,201.596 L852.562,201.596 L853.295,206.104 L853.128,206.435 L851.735,206.552 L851.735,207.449 L856.906,207.449 L856.906,206.552 L855.748,206.435 L855.346,206.009 L852.822,191.47 L851.263,191.47 z M851.263,193.783 L852.349,200.58 L847.417,200.58 L851.263,193.783 z" fill="#000000"/>
        <path d="M865.271,200.651 C865.271,199.824 864.61,199.141 863.783,199.141 C862.959,199.141 862.274,199.824 862.274,200.651 C862.274,201.478 862.959,202.139 863.783,202.139 C864.61,202.139 865.271,201.478 865.271,200.651" fill="#000000"/>
        <path d="M879.429,185.565 L876.835,190.05 L878.133,190.05 L880.185,186.722 L882.264,190.05 L883.538,190.05 L880.941,185.565 L879.429,185.565" fill="#000000"/>
        <path d="M877.546,207.449 L878.041,207.449 C878.041,203.745 875.303,200.58 875.303,196.899 C875.303,194.231 877.216,192.508 880.143,192.508 C883.071,192.508 884.983,194.231 884.983,196.899 C884.983,200.58 882.244,203.745 882.244,207.449 L887.673,207.449 L887.673,203.601 L886.445,203.601 L886.115,205.632 L885.997,205.75 L883.496,205.75 C884.392,202.68 887.413,200.226 887.413,196.899 C887.413,193.593 884.392,191.232 880.143,191.232 C875.895,191.232 872.872,193.593 872.872,196.899 C872.872,200.226 875.895,202.68 876.791,205.75 L874.288,205.75 L874.171,205.632 L873.84,203.601 L872.613,203.601 L872.613,207.449 L877.546,207.449" fill="#000000"/>
        <path d="M891.37,211.887 L892.786,211.887 L892.786,189.416 L891.37,189.416 z" fill="#000000"/>
        <path d="M822.483,217.948 L896.018,217.948" fill-opacity="0" stroke="#000000" stroke-width="1.033"/>
        <path d="M848.058,225.646 L848.058,226.543 L849.734,226.683 L849.992,227.016 L847.468,240.139 L847.09,240.47 L845.577,240.587 L845.577,241.484 L851.339,241.484 L851.339,240.587 L849.805,240.47 L849.521,240.139 L850.631,234.473 C851.127,234.45 851.552,234.425 851.929,234.425 C852.566,234.425 853.015,234.473 853.299,234.615 C854.502,235.158 854.644,236.103 854.95,237.472 C855.304,239.077 855.517,240.303 856.366,241.012 C856.814,241.391 857.547,241.602 858.538,241.602 C858.915,241.602 859.458,241.555 860.191,241.461 L860.191,240.587 C860.121,240.587 860.05,240.587 859.977,240.587 C858.159,240.587 857.711,239.998 857.216,238.203 C856.579,235.985 856.389,234.45 854.313,234 C857.335,233.342 859.01,231.5 859.01,229.091 C859.01,226.66 857.382,225.646 854.029,225.646 L848.058,225.646 z M850.843,233.342 L852.118,226.755 C852.472,226.731 852.803,226.708 853.109,226.708 C855.588,226.708 856.767,227.557 856.767,229.446 C856.767,231.878 854.996,233.365 851.716,233.365 C851.432,233.365 851.15,233.365 850.843,233.342" fill="#000000"/>
        <path d="M862.805,233.757 C866.452,230.852 868.449,228.988 868.449,226.908 C868.449,225.043 867.147,223.79 865.017,223.79 C862.971,223.79 861.519,224.96 861.519,226.116 C861.519,226.678 861.865,227.04 862.445,227.04 C862.707,227.04 862.954,226.957 863.185,226.793 L863.185,225.027 C863.68,224.747 864.159,224.632 864.655,224.632 C866.023,224.632 866.85,225.554 866.85,227.122 C866.85,229.285 864.787,231.083 861.173,234.021 L861.173,235.06 L868.813,235.06 L868.813,232.355 L868.069,232.355 L867.773,233.757 L862.805,233.757" fill="#000000"/>
      </g>
      <g id="Layer_1">
        <path d="M769.313,256.921 L765.701,257.606 L765.701,258.266 L767.778,258.503 L766.953,263.224 C766.314,262.941 765.701,262.824 765.063,262.824 C763.104,262.824 761.027,264.003 759.753,266.011 C758.997,267.213 758.596,268.678 758.596,270.283 C758.596,272.973 759.801,274.506 761.688,274.506 C762.94,274.506 764.216,273.776 765.371,272.314 C765.347,272.478 765.347,272.642 765.347,272.785 C765.347,273.94 765.842,274.46 766.929,274.46 C767.542,274.46 768.534,274.248 769.832,273.776 L769.832,273.067 C769.123,273.234 768.603,273.328 768.298,273.328 C767.589,273.328 767.258,272.997 767.258,272.337 C767.258,272.029 767.305,271.581 767.402,271.062 L769.926,256.921 L769.313,256.921 z M765.488,263.815 L766.621,265.161 L765.561,271.156 C764.497,272.501 763.412,273.161 762.538,273.161 C761.311,273.161 760.507,272.124 760.507,270.258 C760.507,266.316 762.797,263.745 764.922,263.745 C765.089,263.745 765.276,263.791 765.488,263.815" fill="#000000"/>
        <path d="M778.174,274.296 L778.669,274.296 C778.669,270.59 775.931,267.427 775.931,263.745 C775.931,261.077 777.845,259.353 780.771,259.353 C783.699,259.353 785.611,261.077 785.611,263.745 C785.611,267.427 782.872,270.59 782.872,274.296 L788.301,274.296 L788.301,270.447 L787.074,270.447 L786.743,272.478 L786.625,272.595 L784.124,272.595 C785.021,269.527 788.041,267.072 788.041,263.745 C788.041,260.438 785.021,258.078 780.771,258.078 C776.523,258.078 773.501,260.438 773.501,263.745 C773.501,267.072 776.523,269.527 777.419,272.595 L774.917,272.595 L774.799,272.478 L774.468,270.447 L773.241,270.447 L773.241,274.296 L778.174,274.296" fill="#000000"/>
        <path d="M796.191,265.656 L812.053,265.656 L812.053,264.24 L796.191,264.24 L796.191,265.656 z M796.191,270.754 L812.053,270.754 L812.053,269.338 L796.191,269.338 L796.191,270.754" fill="#000000"/>
        <path d="M826.91,263.224 C826.106,262.871 825.186,262.705 824.147,262.705 C821.457,262.705 819.97,263.932 819.97,266.011 C819.97,267.591 821.008,268.347 823.014,269.244 C824.572,269.95 825.423,270.376 825.423,271.604 C825.423,272.713 824.572,273.515 823.204,273.515 C822.518,273.515 821.858,273.328 821.196,272.949 L820.915,270.944 L819.78,270.944 L819.78,274.011 C820.607,274.319 821.645,274.506 822.849,274.506 C825.635,274.506 827.264,273.161 827.264,270.967 C827.264,270.094 826.933,269.385 826.367,268.936 C825.587,268.301 824.69,267.968 823.864,267.568 C822.541,266.931 821.858,266.436 821.858,265.419 C821.858,264.357 822.566,263.722 823.817,263.722 C824.382,263.722 824.951,263.886 825.563,264.216 L825.752,265.891 L826.91,265.891 L826.91,263.224" fill="#000000"/>
        <path d="M831.855,257.583 C831.099,257.583 830.487,258.172 830.487,258.953 C830.487,259.708 831.099,260.298 831.855,260.298 C832.612,260.298 833.225,259.708 833.225,258.953 C833.225,258.195 832.612,257.583 831.855,257.583 z M831.762,262.824 L829.048,263.672 L829.048,264.405 L830.7,264.405 L830.7,272.949 L830.298,273.328 L829.048,273.446 L829.048,274.296 L834.359,274.296 L834.359,273.446 L833.084,273.328 L832.659,272.949 L832.659,262.824 L831.762,262.824" fill="#000000"/>
        <path d="M835.628,274.296 L840.796,274.296 L840.796,273.446 L839.664,273.328 L839.262,272.949 L839.262,265.041 C840.276,264.523 841.15,264.263 841.907,264.263 C843.651,264.263 844.29,264.971 844.29,266.695 L844.29,272.949 L843.889,273.328 L842.755,273.446 L842.755,274.296 L847.925,274.296 L847.925,273.446 L846.65,273.328 L846.248,272.949 L846.248,266.293 C846.248,263.932 845.117,262.705 843.062,262.705 C842.048,262.705 840.842,263.247 839.262,264.121 L839.262,262.824 L838.366,262.824 L835.628,263.672 L835.628,264.405 L837.302,264.405 L837.302,272.949 L836.9,273.328 L835.628,273.446 L835.628,274.296" fill="#000000"/>
        <path d="M851.504,267.497 C851.504,261.03 853.394,257.818 856.109,257.347 L856.109,256.261 C852.19,256.733 849.499,260.367 849.499,267.497 C849.499,274.627 852.19,278.261 856.109,278.733 L856.109,277.646 C853.394,277.174 851.504,273.964 851.504,267.497" fill="#000000"/>
        <path d="M866.937,256.71 C863.846,256.71 860.919,260.415 859.925,265.609 C859.715,266.695 859.597,267.732 859.597,268.678 C859.597,272.193 861.037,274.506 863.467,274.506 C866.559,274.506 869.488,270.801 870.502,265.609 C870.714,264.523 870.81,263.484 870.81,262.541 C870.81,259.022 869.368,256.71 866.937,256.71 z M862.028,265.067 C862.901,260.559 864.765,257.629 866.75,257.629 C868.189,257.629 868.969,259.14 868.969,261.666 C868.969,262.657 868.848,263.791 868.615,265.067 L862.028,265.067 z M861.816,266.152 L868.4,266.152 C867.526,270.66 865.639,273.586 863.657,273.586 C862.218,273.586 861.438,272.076 861.438,269.55 C861.438,268.559 861.556,267.427 861.816,266.152" fill="#000000"/>
        <path d="M879.388,267.497 C879.388,273.964 877.501,277.174 874.786,277.646 L874.786,278.733 C878.705,278.261 881.396,274.627 881.396,267.497 C881.396,260.367 878.705,256.733 874.786,256.261 L874.786,257.347 C877.501,257.818 879.388,261.03 879.388,267.497" fill="#000000"/>
        <path d="M894.518,256.921 L890.907,257.606 L890.907,258.266 L892.983,258.503 L892.159,263.224 C891.519,262.941 890.907,262.824 890.268,262.824 C888.31,262.824 886.232,264.003 884.958,266.011 C884.202,267.213 883.802,268.678 883.802,270.283 C883.802,272.973 885.006,274.506 886.894,274.506 C888.146,274.506 889.42,273.776 890.576,272.314 C890.553,272.478 890.553,272.642 890.553,272.785 C890.553,273.94 891.048,274.46 892.134,274.46 C892.748,274.46 893.739,274.248 895.037,273.776 L895.037,273.067 C894.328,273.234 893.809,273.328 893.504,273.328 C892.794,273.328 892.464,272.997 892.464,272.337 C892.464,272.029 892.51,271.581 892.607,271.062 L895.132,256.921 L894.518,256.921 z M890.694,263.815 L891.827,265.161 L890.766,271.156 C889.703,272.501 888.617,273.161 887.744,273.161 C886.515,273.161 885.713,272.124 885.713,270.258 C885.713,266.316 888.002,263.745 890.128,263.745 C890.294,263.745 890.482,263.791 890.694,263.815" fill="#000000"/>
        <path d="M906.85,256.71 C903.758,256.71 900.832,260.415 899.838,265.609 C899.628,266.695 899.51,267.732 899.51,268.678 C899.51,272.193 900.949,274.506 903.38,274.506 C906.471,274.506 909.401,270.801 910.415,265.609 C910.627,264.523 910.722,263.484 910.722,262.541 C910.722,259.022 909.28,256.71 906.85,256.71 z M901.94,265.067 C902.814,260.559 904.678,257.629 906.663,257.629 C908.102,257.629 908.881,259.14 908.881,261.666 C908.881,262.657 908.761,263.791 908.527,265.067 L901.94,265.067 z M901.728,266.152 L908.313,266.152 C907.439,270.66 905.552,273.586 903.57,273.586 C902.13,273.586 901.351,272.076 901.351,269.55 C901.351,268.559 901.469,267.427 901.728,266.152" fill="#000000"/>
        <path d="M925.273,256.921 L921.661,257.606 L921.661,258.266 L923.738,258.503 L922.913,263.224 C922.274,262.941 921.661,262.824 921.023,262.824 C919.064,262.824 916.987,264.003 915.713,266.011 C914.957,267.213 914.556,268.678 914.556,270.283 C914.556,272.973 915.761,274.506 917.648,274.506 C918.9,274.506 920.174,273.776 921.331,272.314 C921.307,272.478 921.307,272.642 921.307,272.785 C921.307,273.94 921.802,274.46 922.889,274.46 C923.503,274.46 924.494,274.248 925.792,273.776 L925.792,273.067 C925.083,273.234 924.563,273.328 924.258,273.328 C923.549,273.328 923.218,272.997 923.218,272.337 C923.218,272.029 923.265,271.581 923.362,271.062 L925.886,256.921 L925.273,256.921 z M921.448,263.815 L922.581,265.161 L921.521,271.156 C920.457,272.501 919.372,273.161 918.498,273.161 C917.27,273.161 916.467,272.124 916.467,270.258 C916.467,266.316 918.757,263.745 920.882,263.745 C921.049,263.745 921.236,263.791 921.448,263.815" fill="#000000"/>
        <path d="M934.913,274.46 L933.829,279.441 L935.858,279.441 L936.708,274.46 C940.366,274.13 943.27,271.841 943.861,268.701 C943.931,268.347 943.978,267.968 943.978,267.638 C943.978,264.994 941.925,263.153 938.69,262.941 L939.707,256.921 L938.713,256.921 L937.417,262.941 C933.638,263.176 930.619,265.515 929.98,268.701 C929.909,269.077 929.886,269.456 929.886,269.786 C929.886,272.36 931.821,274.178 934.913,274.46 z M936.895,273.398 L938.501,264.003 C940.673,264.24 941.949,265.656 941.949,267.781 C941.949,268.157 941.902,268.559 941.805,268.984 C941.357,271.416 939.446,273.067 936.895,273.398 z M937.18,264.003 L935.151,273.374 C933.097,273.09 931.916,271.699 931.916,269.646 C931.916,269.267 931.962,268.867 932.035,268.441 C932.531,265.937 934.513,264.24 937.18,264.003" fill="#000000"/>
      </g>
      <g id="Layer_1">
        <path d="M861.836,97.748 L867.501,97.748 L867.501,99.164 L863.394,99.164 L863.394,118.804 L867.501,118.804 L867.501,120.22 L861.836,120.22 L861.836,97.748" fill="#000000"/>
        <path d="M875.487,115.782 L875.983,115.782 C875.983,112.077 873.245,108.914 873.245,105.231 C873.245,102.564 875.159,100.841 878.084,100.841 C881.012,100.841 882.924,102.564 882.924,105.231 C882.924,108.914 880.186,112.077 880.186,115.782 L885.615,115.782 L885.615,111.933 L884.386,111.933 L884.056,113.964 L883.938,114.082 L881.437,114.082 C882.335,111.013 885.354,108.56 885.354,105.231 C885.354,101.925 882.335,99.566 878.084,99.566 C873.836,99.566 870.813,101.925 870.813,105.231 C870.813,108.56 873.836,111.013 874.734,114.082 L872.229,114.082 L872.112,113.964 L871.781,111.933 L870.554,111.933 L870.554,115.782 L875.487,115.782" fill="#000000"/>
        <path d="M894.363,97.748 L894.363,120.22 L888.696,120.22 L888.696,118.804 L892.806,118.804 L892.806,99.164 L888.696,99.164 L888.696,97.748 L894.363,97.748" fill="#000000"/>
        <path d="M903.072,107.143 L918.934,107.143 L918.934,105.727 L903.072,105.727 L903.072,107.143 z M903.072,112.241 L918.934,112.241 L918.934,110.824 L903.072,110.824 L903.072,112.241" fill="#000000"/>
        <path d="M933.791,104.71 C932.987,104.358 932.067,104.191 931.03,104.191 C928.338,104.191 926.851,105.42 926.851,107.498 C926.851,109.078 927.89,109.833 929.895,110.732 C931.455,111.438 932.303,111.863 932.303,113.091 C932.303,114.199 931.455,115.003 930.085,115.003 C929.399,115.003 928.74,114.814 928.077,114.437 L927.796,112.431 L926.661,112.431 L926.661,115.498 C927.488,115.805 928.525,115.994 929.731,115.994 C932.515,115.994 934.145,114.648 934.145,112.455 C934.145,111.58 933.814,110.872 933.248,110.424 C932.469,109.787 931.571,109.456 930.745,109.054 C929.423,108.417 928.74,107.923 928.74,106.906 C928.74,105.845 929.447,105.208 930.697,105.208 C931.263,105.208 931.832,105.372 932.446,105.704 L932.633,107.377 L933.791,107.377 L933.791,104.71" fill="#000000"/>
        <path d="M935.811,115.782 L941.498,115.782 L941.498,114.932 L939.847,114.814 L939.445,114.437 L939.445,107.685 C940.413,106.553 941.24,105.962 942.018,105.962 C942.513,105.962 942.914,106.153 943.222,106.528 L943.978,106.528 L943.978,104.499 C943.483,104.285 943.033,104.191 942.562,104.191 C942.372,104.191 942.16,104.191 941.97,104.239 C941.12,104.924 940.271,105.68 939.445,106.528 L939.445,104.311 L938.549,104.311 L935.811,105.159 L935.811,105.891 L937.485,105.891 L937.485,114.437 L937.06,114.814 L935.811,114.932 L935.811,115.782" fill="#000000"/>
      </g>
    </g>
    <path d="M254.18,0.804 L250.592,1.514 L250.592,2.126 L252.693,2.363 L250.427,13.93 C250.143,15.393 250.002,16.314 250.002,16.645 C250.002,17.823 250.568,18.389 251.725,18.389 C252.457,18.389 253.52,18.155 254.865,17.589 L254.865,16.857 C254.156,17.093 253.59,17.234 253.189,17.234 C252.339,17.234 251.891,16.857 251.891,16.124 C251.891,15.795 251.961,15.156 252.151,14.212 L254.534,2.339 C254.558,2.198 254.652,1.678 254.819,0.804 L254.18,0.804" fill="#000000" id="Layer_1"/>
    <path d="M99.836,181.98 L97.452,182.756 L97.452,183.348 L99.27,183.489 C99.671,183.75 99.859,184.41 99.977,185.494 L100.566,191.02 C100.592,191.302 100.615,191.586 100.615,191.87 C100.615,192.436 100.519,192.954 100.284,193.403 L101.416,193.403 C105.808,188.446 107.885,184.953 107.885,183.325 C107.885,182.474 107.437,181.98 106.633,181.98 C106.232,181.98 105.831,182.144 105.452,182.451 L105.901,185.33 C105.288,186.959 104.084,188.871 102.289,191.161 L101.677,184.694 C101.488,182.804 101.229,181.98 99.882,181.98 C99.882,181.98 99.859,181.98 99.836,181.98" fill="#000000" id="Layer_1"/>
    <path d="M582.603,184.992 L580.219,185.769 L580.219,186.361 L582.037,186.502 C582.438,186.762 582.626,187.422 582.744,188.507 L583.333,194.032 C583.359,194.314 583.382,194.598 583.382,194.882 C583.382,195.448 583.286,195.968 583.051,196.416 L584.183,196.416 C588.575,191.458 590.652,187.965 590.652,186.337 C590.652,185.488 590.204,184.992 589.4,184.992 C588.999,184.992 588.598,185.156 588.219,185.463 L588.668,188.343 C588.055,189.973 586.851,191.883 585.056,194.173 L584.444,187.706 C584.255,185.816 583.996,184.992 582.649,184.992 C582.649,184.992 582.626,184.992 582.603,184.992" fill="#000000" id="Layer_1"/>
    <text transform="matrix(1, 0, 0, 1, 118.593, 331.092)">
      <tspan x="-50.259" y="6" font-family="Charter-Roman" font-size="18" fill="#000000">Linear Angle</tspan>
    </text>
    <text transform="matrix(1, 0, 0, 1, 598.593, 331.092)">
      <tspan x="-45.531" y="6" font-family="Charter-Roman" font-size="18" fill="#000000">Solid Angle</tspan>
    </text>
  </g>
</svg>
