<?xml version="1.0" encoding="UTF-8"?>
<!DOCTYPE svg PUBLIC "-//W3C//DTD SVG 1.1//EN" "http://www.w3.org/Graphics/SVG/1.1/DTD/svg11.dtd">
<svg version="1.1" xmlns="http://www.w3.org/2000/svg" xmlns:xlink="http://www.w3.org/1999/xlink" x="0" y="0" width="886.724" height="412.577" viewBox="0, 0, 443.362, 206.288">
  <g id="Layer_1" transform="translate(-71.572, -272.935)">
    <path d="M135.5,300.5 C112.451,308.791 71.278,322.388 77.5,353.5 C78.75,359.749 87.219,365.219 91.5,369.5 C116.957,394.957 125.958,377.465 151.5,375.5 C201.007,371.692 192.24,404.685 223.5,412.5 C242.344,417.211 249.5,396.055 249.5,381.5 C249.5,326.348 212.18,349.76 198.5,339.5 C175.334,322.126 200.131,299.5 156.5,299.5 C149.163,299.5 141.115,298.192 134.5,301.5 z" fill-opacity="0" stroke="#000000" stroke-width="1" stroke-linecap="round" stroke-linejoin="round"/>
    <g>
      <path d="M166.5,348.5 L324.5,348.5" fill-opacity="0" stroke="#000000" stroke-width="1"/>
      <path d="M324.5,351.5 L332.5,348.5 L324.5,345.5 z" fill="#000000" fill-opacity="1" stroke="#000000" stroke-width="1" stroke-opacity="1"/>
    </g>
    <g id="Layer_1">
      <path d="M73.401,430.609 C72.884,433.268 72.279,435.928 71.572,438.57 L73.644,438.57 L74.351,433.131 C74.576,434.236 75.492,434.961 76.665,434.961 C79.084,434.961 81.139,433.148 81.622,430.609 C81.692,430.298 81.726,429.987 81.726,429.694 C81.726,427.778 80.414,426.483 78.323,426.483 C75.906,426.483 73.869,428.192 73.401,430.609 z M77.995,427.156 C79.412,427.156 80.24,428.14 80.24,429.729 C80.24,430.075 80.206,430.437 80.12,430.817 C79.723,432.889 78.34,434.236 76.614,434.236 C75.458,434.236 74.801,433.286 74.801,431.75 C74.801,431.334 74.853,430.886 74.939,430.403 C75.319,428.434 76.528,427.156 77.995,427.156" fill="#000000"/>
      <path d="M84.334,437.725 C86.078,437.534 87.253,436.187 87.253,434.703 C87.253,433.597 86.734,432.975 85.872,432.975 C85.284,432.975 84.853,433.356 84.853,433.925 C84.853,434.236 84.939,434.478 85.128,434.686 L86.234,434.686 C86.234,434.754 86.234,434.823 86.234,434.875 C86.234,436.136 85.595,436.912 84.334,437.154 L84.334,437.725" fill="#000000"/>
      <path d="M92.159,418.37 L97.272,418.37 L97.272,419.475 L93.369,419.475 L93.369,439.576 L97.272,439.576 L97.272,440.683 L92.159,440.683 L92.159,418.37" fill="#000000"/>
      <path d="M99.158,438.57 L103.217,438.57 L103.217,437.95 L102.111,437.862 L101.817,437.586 L101.817,434.703 C102.456,434.806 102.992,434.858 103.423,434.858 C105.98,434.858 107.672,433.097 107.672,430.368 C107.672,427.95 106.256,426.326 104.356,426.326 C103.545,426.326 102.733,426.672 101.817,427.362 L101.817,426.414 L101.161,426.414 L99.158,427.034 L99.158,427.57 L100.384,427.57 L100.384,437.586 L100.09,437.862 L99.158,437.95 L99.158,438.57 z M101.817,433.804 L101.817,428.001 C102.473,427.622 103.044,427.415 103.631,427.415 C105.133,427.415 106.151,428.606 106.151,430.592 C106.151,432.717 104.978,434.081 103.286,434.081 C102.87,434.081 102.387,433.995 101.817,433.804" fill="#000000"/>
      <path d="M108.78,434.806 L112.94,434.806 L112.94,434.184 L111.733,434.098 L111.439,433.822 L111.439,428.883 C112.147,428.054 112.751,427.622 113.32,427.622 C113.683,427.622 113.976,427.761 114.201,428.036 L114.755,428.036 L114.755,426.551 C114.392,426.395 114.064,426.326 113.719,426.326 C113.58,426.326 113.425,426.326 113.286,426.361 C112.664,426.862 112.042,427.415 111.439,428.036 L111.439,426.414 L110.783,426.414 L108.78,427.034 L108.78,427.57 L110.005,427.57 L110.005,433.822 L109.694,434.098 L108.78,434.184 L108.78,434.806" fill="#000000"/>
      <path d="M119.506,426.326 C117.175,426.326 115.5,428.072 115.5,430.643 C115.5,433.2 117.192,434.961 119.506,434.961 C121.82,434.961 123.53,433.2 123.53,430.643 C123.53,428.089 121.837,426.326 119.506,426.326 z M119.506,427.07 C120.905,427.07 121.906,428.417 121.906,430.643 C121.906,432.889 120.905,434.219 119.506,434.219 C118.125,434.219 117.123,432.872 117.123,430.643 C117.123,428.4 118.108,427.07 119.506,427.07" fill="#000000"/>
      <path d="M124.558,438.57 L128.617,438.57 L128.617,437.95 L127.511,437.862 L127.217,437.586 L127.217,434.703 C127.856,434.806 128.392,434.858 128.823,434.858 C131.38,434.858 133.072,433.097 133.072,430.368 C133.072,427.95 131.656,426.326 129.756,426.326 C128.945,426.326 128.133,426.672 127.217,427.362 L127.217,426.414 L126.561,426.414 L124.558,427.034 L124.558,427.57 L125.784,427.57 L125.784,437.586 L125.49,437.862 L124.558,437.95 L124.558,438.57 z M127.217,433.804 L127.217,428.001 C127.873,427.622 128.444,427.415 129.031,427.415 C130.533,427.415 131.551,428.606 131.551,430.592 C131.551,432.717 130.378,434.081 128.686,434.081 C128.27,434.081 127.787,433.995 127.217,433.804" fill="#000000"/>
      <path d="M141.297,432.975 C140.312,433.631 139.45,433.976 138.586,433.976 C136.842,433.976 135.684,432.665 135.684,430.454 C135.684,430.403 135.684,430.333 135.684,430.264 L141.28,430.264 C141.297,430.075 141.297,429.901 141.297,429.729 C141.297,427.604 140.072,426.326 138.189,426.326 C135.875,426.326 134.2,428.106 134.2,430.714 C134.2,433.251 135.772,434.961 138.051,434.961 C139.139,434.961 140.261,434.615 141.297,433.925 L141.297,432.975 z M139.761,429.539 L135.772,429.539 C135.875,428.072 136.859,427.104 137.964,427.104 C139.122,427.104 139.761,427.864 139.761,429.262 C139.761,429.348 139.761,429.453 139.761,429.539" fill="#000000"/>
      <path d="M142.58,434.806 L146.74,434.806 L146.74,434.184 L145.533,434.098 L145.239,433.822 L145.239,428.883 C145.947,428.054 146.551,427.622 147.12,427.622 C147.483,427.622 147.776,427.761 148.001,428.036 L148.555,428.036 L148.555,426.551 C148.192,426.395 147.864,426.326 147.519,426.326 C147.38,426.326 147.225,426.326 147.086,426.361 C146.464,426.862 145.842,427.415 145.239,428.036 L145.239,426.414 L144.583,426.414 L142.58,427.034 L142.58,427.57 L143.805,427.57 L143.805,433.822 L143.494,434.098 L142.58,434.184 L142.58,434.806" fill="#000000"/>
      <path d="M150.181,427.536 L150.181,433.114 C150.181,434.34 150.544,434.858 151.976,434.858 C152.65,434.858 153.426,434.737 154.239,434.478 L154.239,433.839 C153.842,433.925 153.445,433.976 153.047,433.976 C151.839,433.976 151.614,433.408 151.614,432.095 L151.614,427.536 L154.239,427.536 L154.239,426.723 L151.614,426.723 L151.614,424.893 L150.975,424.893 L150.233,426.5 L149.092,427 L149.092,427.536 L150.181,427.536" fill="#000000"/>
      <path d="M154.344,426.5 L154.344,427.139 L155.397,427.242 L158.298,434.737 C157.867,435.964 157.365,436.826 156.9,437.328 L155.242,436.672 C154.948,436.947 154.792,437.258 154.792,437.603 C154.792,438.173 155.259,438.57 155.984,438.57 C157.106,438.57 157.936,437.622 158.747,435.67 L162.201,427.276 L163.203,427.139 L163.203,426.5 L160.13,426.5 L160.13,427.139 L161.061,427.208 L161.2,427.484 L159.04,432.854 L156.969,427.484 L157.176,427.208 L158.09,427.139 L158.09,426.5 L154.344,426.5" fill="#000000"/>
      <path d="M169.567,429.833 C169.567,429.228 169.083,428.728 168.478,428.728 C167.875,428.728 167.373,429.228 167.373,429.833 C167.373,430.437 167.875,430.92 168.478,430.92 C169.083,430.92 169.567,430.437 169.567,429.833" fill="#000000"/>
      <path d="M182.002,427.484 C181.605,426.723 180.949,426.326 180.102,426.326 C179.377,426.326 178.478,426.689 177.339,427.362 L177.339,426.414 L176.683,426.414 L174.68,427.034 L174.68,427.57 L175.905,427.57 L175.905,433.822 L175.611,434.098 L174.68,434.184 L174.68,434.806 L178.461,434.806 L178.461,434.184 L177.633,434.098 L177.339,433.822 L177.339,428.036 C178.099,427.656 178.738,427.467 179.308,427.467 C180.344,427.467 180.827,428.036 180.827,429.245 L180.827,433.822 L180.533,434.098 L179.705,434.184 L179.705,434.806 L183.383,434.806 L183.383,434.184 L182.572,434.098 L182.261,433.822 L182.261,428.036 C183.003,427.673 183.659,427.467 184.211,427.467 C185.283,427.467 185.766,428.036 185.766,429.245 L185.766,433.822 L185.455,434.098 L184.644,434.184 L184.644,434.806 L188.408,434.806 L188.408,434.184 L187.492,434.098 L187.2,433.822 L187.2,428.951 C187.2,427.242 186.336,426.326 184.972,426.326 C184.281,426.326 183.297,426.723 182.002,427.484" fill="#000000"/>
      <path d="M188.95,424.39 L197.161,424.39 L197.161,423.667 L188.95,423.667 z" fill="#000000"/>
      <path d="M201.288,423.243 C202.472,422.906 203.088,422.219 203.088,421.289 C203.088,420.069 202.158,419.261 200.709,419.261 C199.2,419.261 198.161,420.069 198.161,420.865 C198.161,421.251 198.427,421.517 198.813,421.517 C199.006,421.517 199.163,421.47 199.308,421.361 L199.308,420.226 C199.658,419.984 200.033,419.876 200.455,419.876 C201.384,419.876 201.989,420.492 201.989,421.445 C201.989,422.423 201.336,423.003 200.117,423.003 C200.033,423.003 199.949,422.99 199.864,422.99 L199.864,423.703 C200.092,423.667 200.311,423.654 200.503,423.654 C201.663,423.654 202.291,424.211 202.291,425.164 C202.291,426.239 201.494,427.072 200.395,427.072 C200.033,427.072 199.694,426.975 199.369,426.781 L198.994,425.756 C198.861,425.708 198.741,425.695 198.633,425.695 C198.245,425.695 197.956,425.961 197.956,426.311 C197.956,426.926 198.909,427.639 200.347,427.639 C202.206,427.639 203.402,426.54 203.402,425.187 C203.402,424.089 202.628,423.34 201.288,423.243" fill="#000000"/>
      <path d="M211.624,418.37 L211.624,440.683 L206.511,440.683 L206.511,439.576 L210.414,439.576 L210.414,419.475 L206.511,419.475 L206.511,418.37 L211.624,418.37" fill="#000000"/>
    </g>
    <g id="Layer_1">
      <path d="M339.226,342.383 L345.098,342.383 L343.993,343.056 L344.546,343.798 L346.963,342.003 L346.963,341.744 L344.546,339.93 L343.993,340.673 L345.098,341.347 L339.226,341.347 L339.226,342.383" fill="#000000"/>
      <path d="M340.349,344.922 L338.605,345.491 L338.605,345.923 L339.935,346.027 C340.229,346.217 340.366,346.7 340.452,347.494 L340.883,351.536 C340.902,351.742 340.919,351.95 340.919,352.158 C340.919,352.572 340.849,352.952 340.677,353.28 L341.505,353.28 C344.718,349.653 346.238,347.097 346.238,345.906 C346.238,345.284 345.91,344.922 345.323,344.922 C345.029,344.922 344.735,345.042 344.458,345.267 L344.787,347.373 C344.338,348.566 343.457,349.964 342.144,351.639 L341.696,346.908 C341.558,345.525 341.368,344.922 340.383,344.922 C340.383,344.922 340.366,344.922 340.349,344.922" fill="#000000"/>
      <path d="M348.016,356.198 C349.76,356.008 350.935,354.661 350.935,353.177 C350.935,352.07 350.416,351.448 349.554,351.448 C348.966,351.448 348.535,351.83 348.535,352.398 C348.535,352.709 348.621,352.952 348.81,353.159 L349.916,353.159 C349.916,353.228 349.916,353.297 349.916,353.348 C349.916,354.609 349.277,355.386 348.016,355.628 L348.016,356.198" fill="#000000"/>
      <path d="M355.941,336.844 L361.054,336.844 L361.054,337.948 L357.151,337.948 L357.151,358.05 L361.054,358.05 L361.054,359.156 L355.941,359.156 L355.941,336.844" fill="#000000"/>
      <path d="M370.383,345.958 C369.987,345.197 369.33,344.8 368.483,344.8 C367.758,344.8 366.86,345.162 365.721,345.836 L365.721,344.887 L365.065,344.887 L363.062,345.508 L363.062,346.044 L364.287,346.044 L364.287,352.295 L363.993,352.572 L363.062,352.658 L363.062,353.28 L366.843,353.28 L366.843,352.658 L366.015,352.572 L365.721,352.295 L365.721,346.509 C366.48,346.13 367.119,345.941 367.69,345.941 C368.726,345.941 369.208,346.509 369.208,347.719 L369.208,352.295 L368.915,352.572 L368.087,352.658 L368.087,353.28 L371.765,353.28 L371.765,352.658 L370.954,352.572 L370.643,352.295 L370.643,346.509 C371.385,346.147 372.041,345.941 372.593,345.941 C373.665,345.941 374.148,346.509 374.148,347.719 L374.148,352.295 L373.837,352.572 L373.026,352.658 L373.026,353.28 L376.79,353.28 L376.79,352.658 L375.874,352.572 L375.582,352.295 L375.582,347.425 C375.582,345.716 374.718,344.8 373.354,344.8 C372.663,344.8 371.679,345.197 370.383,345.958" fill="#000000"/>
      <path d="M383.749,348.306 C383.749,347.702 383.265,347.202 382.66,347.202 C382.057,347.202 381.555,347.702 381.555,348.306 C381.555,348.911 382.057,349.394 382.66,349.394 C383.265,349.394 383.749,348.911 383.749,348.306" fill="#000000"/>
      <path d="M394.283,345.18 C393.696,344.922 393.023,344.8 392.263,344.8 C390.294,344.8 389.207,345.698 389.207,347.219 C389.207,348.375 389.966,348.928 391.433,349.584 C392.574,350.102 393.196,350.412 393.196,351.311 C393.196,352.122 392.574,352.709 391.573,352.709 C391.071,352.709 390.588,352.572 390.104,352.295 L389.898,350.828 L389.068,350.828 L389.068,353.072 C389.673,353.297 390.432,353.434 391.313,353.434 C393.351,353.434 394.543,352.45 394.543,350.845 C394.543,350.206 394.301,349.687 393.887,349.359 C393.316,348.894 392.66,348.652 392.055,348.358 C391.088,347.892 390.588,347.53 390.588,346.786 C390.588,346.009 391.105,345.544 392.021,345.544 C392.435,345.544 392.851,345.664 393.299,345.906 L393.437,347.131 L394.283,347.131 L394.283,345.18" fill="#000000"/>
      <path d="M395.432,342.864 L403.643,342.864 L403.643,342.141 L395.432,342.141 z" fill="#000000"/>
      <path d="M407.798,337.734 L405.177,338.519 L405.177,339.025 L407.073,338.687 L407.073,345.183 L406.929,345.387 L405.54,345.461 L405.54,345.98 L409.585,345.98 L409.585,345.472 L408.28,345.412 L408.135,345.231 L408.135,337.734 L407.798,337.734" fill="#000000"/>
      <path d="M418.205,336.844 L418.205,359.156 L413.093,359.156 L413.093,358.05 L416.996,358.05 L416.996,337.948 L413.093,337.948 L413.093,336.844 L418.205,336.844" fill="#000000"/>
    </g>
    <g>
      <path d="M262.662,350.328 L275.47,298.465 L293.296,346.672 L280.488,398.535 L262.662,350.328 z" fill="#FFFFFF" fill-opacity="0.753"/>
      <path d="M262.662,350.328 L275.47,298.465 L293.296,346.672 L280.488,398.535 L262.662,350.328 z" fill-opacity="0" stroke="#000000" stroke-width="1"/>
    </g>
    <path d="M277.964,348.5 L325.469,348.5" fill-opacity="0" stroke="#000000" stroke-width="1"/>
    <g>
      <path d="M277.964,348.5 L289.486,336.978" fill-opacity="0" stroke="#000000" stroke-width="1"/>
      <path d="M291.607,339.1 L295.143,331.321 L287.364,334.857 z" fill="#000000" fill-opacity="1" stroke="#000000" stroke-width="1" stroke-opacity="1"/>
    </g>
    <g id="Layer_1">
      <path d="M301.302,315.354 L299.404,318.635 L300.354,318.635 L301.855,316.2 L303.376,318.635 L304.309,318.635 L302.409,315.354 L301.302,315.354" fill="#000000"/>
      <path d="M299.963,319.741 L297.409,320.31 L297.409,320.743 L298.824,321.002 L297.391,328.064 L298.859,328.064 L299.929,322.227 C300.984,321.26 301.898,320.811 302.485,320.811 C303.141,320.811 303.418,321.139 303.418,321.899 C303.418,322.124 303.384,322.503 303.262,323.005 L302.519,326.199 C302.434,326.578 302.382,326.907 302.382,327.132 C302.382,327.822 302.796,328.168 303.643,328.168 C304.126,328.168 304.816,327.996 305.715,327.65 L305.715,327.166 C305.318,327.271 305.007,327.322 304.765,327.322 C304.194,327.322 303.866,327.028 303.866,326.475 C303.866,326.216 303.954,325.836 304.057,325.336 L304.644,322.66 C304.782,322.038 304.885,321.553 304.885,321.122 C304.885,320.275 304.334,319.741 303.435,319.741 C302.519,319.741 301.449,320.31 300.085,321.399 L300.396,319.741 L299.963,319.741" fill="#000000"/>
    </g>
    <text transform="matrix(1, 0, 0, 1, 380.774, 380.035)">
      <tspan x="-72.697" y="-4" font-family="Charter-Roman" font-size="14" fill="#000000">direction of flux density  </tspan>
      <tspan x="-61.575" y="13" font-family="Charter-Roman" font-size="14" fill="#000000">maximizes flow rate </tspan>
    </text>
    <g id="Layer_1">
      <path d="M317.189,433.011 L323.061,433.011 L321.956,433.685 L322.51,434.427 L324.927,432.632 L324.927,432.372 L322.51,430.558 L321.956,431.302 L323.061,431.976 L317.189,431.976 L317.189,433.011" fill="#000000"/>
      <path d="M319.144,435.521 L319.144,436.177 L320.249,436.263 L320.439,436.522 L319.23,442.757 C318.747,445.243 318.331,446.486 316.727,446.486 C316.57,446.486 316.364,446.469 316.122,446.418 L315.914,446.193 L315.914,444.001 L315.052,444.001 L314.481,446.901 C315.069,447.177 315.777,447.316 316.605,447.316 C319.23,447.316 320.18,445.916 320.785,442.688 L321.941,436.522 L322.217,436.263 L323.341,436.177 L323.341,435.521 L319.144,435.521" fill="#000000"/>
      <path d="M329.574,440.788 L341.178,440.788 L341.178,439.752 L329.574,439.752 L329.574,440.788 z M329.574,444.518 L341.178,444.518 L341.178,443.482 L329.574,443.482 L329.574,444.518" fill="#000000"/>
      <path d="M348.347,442.911 C347.83,445.571 347.225,448.23 346.517,450.872 L348.589,450.872 L349.297,445.433 C349.522,446.538 350.438,447.263 351.611,447.263 C354.03,447.263 356.085,445.451 356.567,442.911 C356.638,442.601 356.672,442.29 356.672,441.996 C356.672,440.08 355.36,438.785 353.269,438.785 C350.852,438.785 348.814,440.494 348.347,442.911 z M352.941,439.458 C354.358,439.458 355.186,440.443 355.186,442.032 C355.186,442.377 355.152,442.74 355.066,443.119 C354.669,445.191 353.286,446.538 351.56,446.538 C350.403,446.538 349.747,445.588 349.747,444.052 C349.747,443.636 349.799,443.188 349.885,442.705 C350.264,440.736 351.474,439.458 352.941,439.458" fill="#000000"/>
      <path d="M359.889,436.211 L365.761,436.211 L364.656,436.885 L365.21,437.627 L367.627,435.832 L367.627,435.572 L365.21,433.758 L364.656,434.502 L365.761,435.176 L359.889,435.176 L359.889,436.211" fill="#000000"/>
      <path d="M361.113,438.751 L359.369,439.319 L359.369,439.752 L360.699,439.855 C360.992,440.046 361.13,440.529 361.216,441.322 L361.647,445.365 C361.666,445.571 361.683,445.779 361.683,445.986 C361.683,446.401 361.613,446.78 361.441,447.108 L362.269,447.108 C365.481,443.482 367.002,440.926 367.002,439.735 C367.002,439.113 366.674,438.751 366.086,438.751 C365.792,438.751 365.499,438.871 365.222,439.096 L365.55,441.202 C365.102,442.394 364.221,443.793 362.908,445.468 L362.46,440.736 C362.322,439.354 362.131,438.751 361.147,438.751 C361.147,438.751 361.13,438.751 361.113,438.751" fill="#000000"/>
    </g>
    <g id="Layer_1">
      <path d="M322.322,465.183 L319.68,465.685 L319.68,466.167 L321.199,466.341 L320.595,469.794 C320.128,469.588 319.68,469.502 319.213,469.502 C317.78,469.502 316.26,470.364 315.328,471.833 C314.775,472.713 314.481,473.785 314.481,474.958 C314.481,476.927 315.363,478.049 316.744,478.049 C317.66,478.049 318.592,477.514 319.438,476.444 C319.42,476.564 319.42,476.685 319.42,476.789 C319.42,477.635 319.783,478.014 320.578,478.014 C321.027,478.014 321.752,477.86 322.702,477.514 L322.702,476.996 C322.183,477.117 321.803,477.186 321.58,477.186 C321.061,477.186 320.819,476.944 320.819,476.461 C320.819,476.236 320.853,475.908 320.924,475.528 L322.77,465.183 L322.322,465.183 z M319.524,470.227 L320.353,471.211 L319.577,475.597 C318.799,476.582 318.005,477.064 317.366,477.064 C316.467,477.064 315.88,476.305 315.88,474.941 C315.88,472.057 317.555,470.175 319.11,470.175 C319.231,470.175 319.369,470.21 319.524,470.227" fill="#000000"/>
      <path d="M329.203,468.793 C326.647,469 324.902,470.313 324.902,472.091 C324.902,473.888 326.647,475.2 329.203,475.407 L329.203,476.807 L328.944,477.064 L327.597,477.186 L327.597,477.894 L332.328,477.894 L332.328,477.186 L330.999,477.064 L330.739,476.807 L330.739,475.407 C333.296,475.2 335.039,473.888 335.039,472.091 C335.039,470.313 333.296,469 330.739,468.793 L330.739,467.394 L330.999,467.135 L332.328,467.014 L332.328,466.307 L327.597,466.307 L327.597,467.014 L328.944,467.135 L329.203,467.394 L329.203,468.793 z M329.203,474.664 C327.649,474.441 326.664,473.474 326.664,472.091 C326.664,470.727 327.649,469.76 329.203,469.536 L329.203,474.664 z M330.739,469.536 C332.294,469.76 333.278,470.727 333.278,472.091 C333.278,473.474 332.294,474.441 330.739,474.664 L330.739,469.536" fill="#000000"/>
      <path d="M340.986,471.574 L352.591,471.574 L352.591,470.538 L340.986,470.538 L340.986,471.574 z M340.986,475.303 L352.591,475.303 L352.591,474.267 L340.986,474.267 L340.986,475.303" fill="#000000"/>
      <path d="M359.902,463.797 L365.774,463.797 L364.669,464.471 L365.222,465.213 L367.639,463.417 L367.639,463.158 L365.222,461.344 L364.669,462.088 L365.774,462.761 L359.902,462.761 L359.902,463.797" fill="#000000"/>
      <path d="M361.956,466.307 L361.956,466.963 L363.061,467.049 L363.252,467.308 L362.042,473.542 C361.56,476.028 361.144,477.272 359.539,477.272 C359.383,477.272 359.177,477.255 358.935,477.203 L358.727,476.978 L358.727,474.786 L357.864,474.786 L357.294,477.686 C357.881,477.963 358.589,478.102 359.417,478.102 C362.042,478.102 362.992,476.702 363.597,473.474 L364.753,467.308 L365.03,467.049 L366.153,466.963 L366.153,466.307 L361.956,466.307" fill="#000000"/>
      <path d="M374.125,472.921 C374.125,472.316 373.641,471.816 373.036,471.816 C372.433,471.816 371.931,472.316 371.931,472.921 C371.931,473.525 372.433,474.008 373.036,474.008 C373.641,474.008 374.125,473.525 374.125,472.921" fill="#000000"/>
      <path d="M387.222,465.183 L384.58,465.685 L384.58,466.167 L386.099,466.341 L385.496,469.794 C385.028,469.588 384.58,469.502 384.113,469.502 C382.68,469.502 381.16,470.364 380.228,471.833 C379.675,472.713 379.381,473.785 379.381,474.958 C379.381,476.927 380.263,478.049 381.644,478.049 C382.56,478.049 383.492,477.514 384.338,476.444 C384.321,476.564 384.321,476.685 384.321,476.789 C384.321,477.635 384.683,478.014 385.478,478.014 C385.927,478.014 386.652,477.86 387.602,477.514 L387.602,476.996 C387.083,477.117 386.703,477.186 386.48,477.186 C385.961,477.186 385.719,476.944 385.719,476.461 C385.719,476.236 385.753,475.908 385.824,475.528 L387.671,465.183 L387.222,465.183 z M384.424,470.227 L385.253,471.211 L384.477,475.597 C383.699,476.582 382.905,477.064 382.266,477.064 C381.367,477.064 380.78,476.305 380.78,474.941 C380.78,472.057 382.455,470.175 384.01,470.175 C384.131,470.175 384.269,470.21 384.424,470.227" fill="#000000"/>
      <path d="M392.002,463.797 L397.874,463.797 L396.769,464.471 L397.322,465.213 L399.739,463.417 L399.739,463.158 L397.322,461.344 L396.769,462.088 L397.874,462.761 L392.002,462.761 L392.002,463.797" fill="#000000"/>
      <path d="M395.277,466.203 L388.905,477.135 L387.955,477.238 L387.955,477.894 L391.374,477.894 L391.374,477.238 L390.321,477.152 L390.183,476.91 L392.03,473.611 L396.227,473.611 L396.763,476.91 L396.641,477.152 L395.622,477.238 L395.622,477.894 L399.405,477.894 L399.405,477.238 L398.558,477.152 L398.264,476.841 L396.417,466.203 L395.277,466.203 z M395.277,467.896 L396.071,472.869 L392.463,472.869 L395.277,467.896 z" fill="#000000"/>
    </g>
    <g id="Layer_1">
      <path d="M250.399,276.774 L247.756,277.275 L247.756,277.758 L249.275,277.931 L248.672,281.385 C248.205,281.178 247.756,281.092 247.289,281.092 C245.856,281.092 244.336,281.955 243.405,283.424 C242.852,284.303 242.558,285.375 242.558,286.549 C242.558,288.517 243.439,289.639 244.821,289.639 C245.736,289.639 246.669,289.105 247.514,288.035 C247.497,288.155 247.497,288.275 247.497,288.38 C247.497,289.225 247.86,289.605 248.655,289.605 C249.103,289.605 249.828,289.45 250.778,289.105 L250.778,288.586 C250.26,288.708 249.88,288.777 249.656,288.777 C249.138,288.777 248.896,288.535 248.896,288.052 C248.896,287.827 248.93,287.499 249,287.119 L250.847,276.774 L250.399,276.774 z M247.6,281.817 L248.43,282.802 L247.653,287.188 C246.875,288.172 246.081,288.655 245.442,288.655 C244.544,288.655 243.956,287.895 243.956,286.531 C243.956,283.647 245.631,281.766 247.186,281.766 C247.308,281.766 247.446,281.8 247.6,281.817" fill="#000000"/>
      <path d="M255.178,275.388 L261.05,275.388 L259.946,276.061 L260.499,276.803 L262.916,275.008 L262.916,274.749 L260.499,272.935 L259.946,273.678 L261.05,274.352 L255.178,274.352 L255.178,275.388" fill="#000000"/>
      <path d="M258.453,277.794 L252.081,288.725 L251.131,288.828 L251.131,289.485 L254.55,289.485 L254.55,288.828 L253.497,288.742 L253.36,288.5 L255.206,285.202 L259.403,285.202 L259.939,288.5 L259.817,288.742 L258.799,288.828 L258.799,289.485 L262.581,289.485 L262.581,288.828 L261.735,288.742 L261.441,288.431 L259.594,277.794 L258.453,277.794 z M258.453,279.486 L259.247,284.46 L255.639,284.46 L258.453,279.486 z" fill="#000000"/>
      <path d="M267.063,283.164 L278.667,283.164 L278.667,282.128 L267.063,282.128 L267.063,283.164 z M267.063,286.894 L278.667,286.894 L278.667,285.858 L267.063,285.858 L267.063,286.894" fill="#000000"/>
      <path d="M288.56,276.774 L286.661,280.055 L287.611,280.055 L289.113,277.62 L290.633,280.055 L291.566,280.055 L289.666,276.774 L288.56,276.774" fill="#000000"/>
      <path d="M287.221,281.161 L284.666,281.73 L284.666,282.163 L286.081,282.422 L284.649,289.485 L286.116,289.485 L287.186,283.647 C288.241,282.68 289.155,282.231 289.742,282.231 C290.399,282.231 290.675,282.56 290.675,283.319 C290.675,283.544 290.641,283.924 290.519,284.425 L289.777,287.619 C289.691,287.999 289.639,288.327 289.639,288.552 C289.639,289.242 290.053,289.588 290.9,289.588 C291.383,289.588 292.074,289.416 292.972,289.07 L292.972,288.586 C292.575,288.691 292.264,288.742 292.022,288.742 C291.452,288.742 291.124,288.449 291.124,287.895 C291.124,287.636 291.211,287.256 291.314,286.756 L291.902,284.08 C292.039,283.458 292.142,282.974 292.142,282.542 C292.142,281.695 291.591,281.161 290.692,281.161 C289.777,281.161 288.706,281.73 287.342,282.819 L287.653,281.161 L287.221,281.161" fill="#000000"/>
      <path d="M302.299,276.774 L299.656,277.275 L299.656,277.758 L301.175,277.931 L300.572,281.385 C300.105,281.178 299.656,281.092 299.189,281.092 C297.756,281.092 296.236,281.955 295.305,283.424 C294.752,284.303 294.458,285.375 294.458,286.549 C294.458,288.517 295.339,289.639 296.721,289.639 C297.636,289.639 298.569,289.105 299.414,288.035 C299.397,288.155 299.397,288.275 299.397,288.38 C299.397,289.225 299.76,289.605 300.555,289.605 C301.003,289.605 301.728,289.45 302.678,289.105 L302.678,288.586 C302.16,288.708 301.78,288.777 301.556,288.777 C301.038,288.777 300.796,288.535 300.796,288.052 C300.796,287.827 300.83,287.499 300.9,287.119 L302.747,276.774 L302.299,276.774 z M299.5,281.817 L300.33,282.802 L299.553,287.188 C298.775,288.172 297.981,288.655 297.342,288.655 C296.444,288.655 295.856,287.895 295.856,286.531 C295.856,283.647 297.531,281.766 299.086,281.766 C299.208,281.766 299.346,281.8 299.5,281.817" fill="#000000"/>
      <path d="M310.353,277.794 L303.981,288.725 L303.031,288.828 L303.031,289.485 L306.45,289.485 L306.45,288.828 L305.397,288.742 L305.26,288.5 L307.106,285.202 L311.303,285.202 L311.839,288.5 L311.717,288.742 L310.699,288.828 L310.699,289.485 L314.481,289.485 L314.481,288.828 L313.635,288.742 L313.341,288.431 L311.494,277.794 L310.353,277.794 z M310.353,279.486 L311.147,284.46 L307.539,284.46 L310.353,279.486 z" fill="#000000"/>
    </g>
    <text transform="matrix(1, 0, 0, 1, 453.803, 440.715)">
      <tspan x="-35.598" y="4.5" font-family="Charter-Roman" font-size="14" fill="#000000">flux density</tspan>
    </text>
    <text transform="matrix(1, 0, 0, 1, 466.57, 469.723)">
      <tspan x="-48.364" y="4.5" font-family="Charter-Roman" font-size="14" fill="#000000">flux through dA</tspan>
    </text>
  </g>
</svg>
