<?xml version="1.0" encoding="UTF-8"?>
<!DOCTYPE svg PUBLIC "-//W3C//DTD SVG 1.1//EN" "http://www.w3.org/Graphics/SVG/1.1/DTD/svg11.dtd">
<svg version="1.1" xmlns="http://www.w3.org/2000/svg" xmlns:xlink="http://www.w3.org/1999/xlink" x="0" y="0" width="663.051" height="135.429" viewBox="0, 0, 442.034, 90.286">
  <defs>
    <clipPath id="Clip_1">
      <path d="M185.797,262.958 L204.797,262.958 L204.797,246.958 L185.797,246.958 z"/>
    </clipPath>
    <clipPath id="Clip_2">
      <path d="M500.183,266.906 L519.183,266.906 L519.183,250.906 L500.183,250.906 z"/>
    </clipPath>
  </defs>
  <g id="Layer_1" transform="translate(-119.653, -176.62)">
    <path d="M141.5,231 L532.5,231" fill-opacity="0" stroke="#000000" stroke-width="1"/>
    <path d="M125.75,203.72 L157.25,258.28" fill-opacity="0" stroke="#000000" stroke-width="1"/>
    <g>
      <path d="M188.265,203.847 L141.5,230.847" fill-opacity="0" stroke="#000000" stroke-width="1"/>
      <path d="M189.765,206.445 L195.194,199.847 L186.765,201.249 z" fill="#000000" fill-opacity="1" stroke="#000000" stroke-width="1" stroke-opacity="1"/>
    </g>
    <path d="M524.347,200.573 L540.653,261.427" fill-opacity="0" stroke="#000000" stroke-width="1"/>
    <g>
      <path d="M479.767,244.823 L531.927,230.847" fill-opacity="0" stroke="#000000" stroke-width="1"/>
      <path d="M478.99,241.926 L472.039,246.894 L480.543,247.721 z" fill="#000000" fill-opacity="1" stroke="#000000" stroke-width="1" stroke-opacity="1"/>
    </g>
    <g>
      <path d="M141.5,230.847 L187.06,230.847" fill-opacity="0" stroke="#000000" stroke-width="1"/>
      <path d="M187.06,233.847 L195.06,230.847 L187.06,227.847 z" fill="#000000" fill-opacity="1" stroke="#000000" stroke-width="1" stroke-opacity="1"/>
    </g>
    <g>
      <path d="M531.927,230.847 L480.073,230.847" fill-opacity="0" stroke="#000000" stroke-width="1"/>
      <path d="M480.073,227.847 L472.073,230.847 L480.073,233.847 z" fill="#000000" fill-opacity="1" stroke="#000000" stroke-width="1" stroke-opacity="1"/>
    </g>
    <g clip-path="url(#Clip_1)" id="Layer_1">
      <path d="M192.083,246.894 C188.699,246.894 186.28,249.433 186.28,253.008 C186.28,256.53 188.699,259.035 192.083,259.035 C195.468,259.035 197.887,256.53 197.887,253.008 C197.887,249.433 195.468,246.894 192.083,246.894 z M188.993,254.233 L189.96,254.233 L189.96,253.646 L194.208,253.646 L194.208,254.233 L195.174,254.233 L195.174,251.679 L194.208,251.679 L194.208,252.247 L189.96,252.247 L189.96,251.679 L188.993,251.679 L188.993,254.233 z M192.083,247.827 C194.536,247.827 196.141,249.882 196.141,253.008 C196.141,256.082 194.536,258.068 192.083,258.068 C189.632,258.068 188.026,256.082 188.026,253.008 C188.026,249.882 189.632,247.827 192.083,247.827" fill="#000000"/>
      <path d="M201.754,254.413 C200.027,254.413 198.893,255.933 198.893,258.602 C198.893,261.269 200.027,262.804 201.754,262.804 C203.48,262.804 204.615,261.269 204.615,258.602 C204.615,255.933 203.48,254.413 201.754,254.413 z M201.754,254.98 C202.865,254.98 203.468,256.211 203.468,258.602 C203.468,260.993 202.865,262.224 201.754,262.224 C200.643,262.224 200.027,261.004 200.027,258.613 C200.027,256.211 200.643,254.98 201.754,254.98" fill="#000000"/>
    </g>
    <g clip-path="url(#Clip_2)" id="Layer_1">
      <path d="M506.469,250.842 C503.084,250.842 500.666,253.381 500.666,256.956 C500.666,260.478 503.084,262.983 506.469,262.983 C509.853,262.983 512.272,260.478 512.272,256.956 C512.272,253.381 509.853,250.842 506.469,250.842 z M503.378,258.181 L504.345,258.181 L504.345,257.593 L508.594,257.593 L508.594,258.181 L509.559,258.181 L509.559,255.626 L508.594,255.626 L508.594,256.195 L504.345,256.195 L504.345,255.626 L503.378,255.626 L503.378,258.181 z M506.469,251.775 C508.922,251.775 510.527,253.829 510.527,256.956 C510.527,260.029 508.922,262.015 506.469,262.015 C504.017,262.015 502.411,260.029 502.411,256.956 C502.411,253.829 504.017,251.775 506.469,251.775" fill="#000000"/>
      <path d="M516.538,258.361 L513.917,259.145 L513.917,259.651 L515.813,259.314 L515.813,265.809 L515.669,266.014 L514.28,266.087 L514.28,266.606 L518.325,266.606 L518.325,266.098 L517.02,266.039 L516.875,265.858 L516.875,258.361 L516.538,258.361" fill="#000000"/>
    </g>
    <g>
      <path d="M141.5,230.847 L173.328,212.414 C176.598,218.061 178.307,224.475 178.28,231 L141.5,230.847 z" fill="#FFFFFF"/>
      <path d="M141.5,230.847 L173.328,212.414 C176.598,218.061 178.307,224.475 178.28,231 L141.5,230.847 z" fill-opacity="0" stroke="#000000" stroke-width="1"/>
    </g>
    <g id="Layer_1">
      <path d="M135.563,176.62 L132.921,177.121 L132.921,177.604 L134.44,177.778 L133.837,181.231 C133.37,181.024 132.921,180.938 132.454,180.938 C131.021,180.938 129.501,181.801 128.57,183.27 C128.016,184.149 127.723,185.221 127.723,186.395 C127.723,188.363 128.604,189.485 129.985,189.485 C130.901,189.485 131.834,188.951 132.679,187.881 C132.662,188.001 132.662,188.121 132.662,188.226 C132.662,189.071 133.024,189.451 133.82,189.451 C134.268,189.451 134.993,189.296 135.943,188.951 L135.943,188.432 C135.424,188.554 135.045,188.623 134.821,188.623 C134.302,188.623 134.06,188.381 134.06,187.898 C134.06,187.673 134.095,187.345 134.165,186.965 L136.012,176.62 L135.563,176.62 z M132.765,181.663 L133.595,182.648 L132.818,187.034 C132.04,188.018 131.246,188.501 130.607,188.501 C129.709,188.501 129.121,187.742 129.121,186.378 C129.121,183.493 130.796,181.612 132.351,181.612 C132.473,181.612 132.61,181.646 132.765,181.663" fill="#000000"/>
      <path d="M143.618,177.64 L137.246,188.571 L136.296,188.674 L136.296,189.331 L139.715,189.331 L139.715,188.674 L138.662,188.589 L138.524,188.346 L140.371,185.048 L144.568,185.048 L145.104,188.346 L144.982,188.589 L143.963,188.674 L143.963,189.331 L147.746,189.331 L147.746,188.674 L146.899,188.589 L146.605,188.278 L144.759,177.64 L143.618,177.64 z M143.618,179.332 L144.412,184.306 L140.804,184.306 L143.618,179.332 z" fill="#000000"/>
      <path d="M151.416,184.985 C149.69,184.985 148.555,186.506 148.555,189.174 C148.555,191.842 149.69,193.376 151.416,193.376 C153.143,193.376 154.277,191.842 154.277,189.174 C154.277,186.506 153.143,184.985 151.416,184.985 z M151.416,185.553 C152.527,185.553 153.13,186.784 153.13,189.174 C153.13,191.565 152.527,192.796 151.416,192.796 C150.305,192.796 149.69,191.576 149.69,189.185 C149.69,186.784 150.305,185.553 151.416,185.553" fill="#000000"/>
    </g>
    <g id="Layer_1">
      <path d="M526.901,176.692 L524.259,177.194 L524.259,177.677 L525.777,177.85 L525.174,181.303 C524.707,181.097 524.259,181.011 523.791,181.011 C522.359,181.011 520.838,181.874 519.907,183.342 C519.354,184.222 519.06,185.294 519.06,186.467 C519.06,188.436 519.941,189.558 521.323,189.558 C522.238,189.558 523.171,189.024 524.016,187.953 C523.999,188.074 523.999,188.194 523.999,188.299 C523.999,189.144 524.362,189.524 525.157,189.524 C525.606,189.524 526.331,189.369 527.281,189.024 L527.281,188.505 C526.762,188.627 526.382,188.696 526.159,188.696 C525.64,188.696 525.398,188.453 525.398,187.971 C525.398,187.746 525.432,187.417 525.502,187.038 L527.349,176.692 L526.901,176.692 z M524.102,181.736 L524.932,182.721 L524.156,187.106 C523.377,188.091 522.584,188.574 521.945,188.574 C521.046,188.574 520.459,187.814 520.459,186.45 C520.459,183.566 522.134,181.685 523.688,181.685 C523.81,181.685 523.948,181.719 524.102,181.736" fill="#000000"/>
      <path d="M534.956,177.713 L528.584,188.644 L527.634,188.747 L527.634,189.403 L531.052,189.403 L531.052,188.747 L529.999,188.661 L529.862,188.419 L531.709,185.121 L535.906,185.121 L536.442,188.419 L536.32,188.661 L535.301,188.747 L535.301,189.403 L539.084,189.403 L539.084,188.747 L538.237,188.661 L537.943,188.35 L536.096,177.713 L534.956,177.713 z M534.956,179.405 L535.749,184.378 L532.142,184.378 L534.956,179.405 z" fill="#000000"/>
      <path d="M543.152,185.058 L540.532,185.842 L540.532,186.349 L542.427,186.011 L542.427,192.506 L542.284,192.711 L540.895,192.785 L540.895,193.303 L544.94,193.303 L544.94,192.796 L543.635,192.736 L543.49,192.555 L543.49,185.058 L543.152,185.058" fill="#000000"/>
    </g>
    <g id="Layer_1">
      <path d="M121.397,231.596 L119.653,232.165 L119.653,232.598 L120.983,232.701 C121.276,232.892 121.414,233.374 121.5,234.168 L121.931,238.21 C121.95,238.417 121.967,238.624 121.967,238.832 C121.967,239.246 121.897,239.626 121.725,239.954 L122.553,239.954 C125.765,236.327 127.286,233.771 127.286,232.581 C127.286,231.959 126.958,231.596 126.37,231.596 C126.076,231.596 125.783,231.717 125.506,231.942 L125.834,234.048 C125.386,235.24 124.504,236.638 123.192,238.313 L122.744,233.582 C122.606,232.199 122.415,231.596 121.431,231.596 C121.431,231.596 121.414,231.596 121.397,231.596" fill="#000000"/>
      <path d="M130.547,235.609 C128.82,235.609 127.686,237.129 127.686,239.798 C127.686,242.465 128.82,243.999 130.547,243.999 C132.273,243.999 133.408,242.465 133.408,239.798 C133.408,237.129 132.273,235.609 130.547,235.609 z M130.547,236.176 C131.658,236.176 132.261,237.407 132.261,239.798 C132.261,242.188 131.658,243.42 130.547,243.42 C129.436,243.42 128.82,242.199 128.82,239.809 C128.82,237.407 129.436,236.176 130.547,236.176" fill="#000000"/>
    </g>
    <g id="Layer_1">
      <path d="M550.351,231.241 L548.607,231.81 L548.607,232.243 L549.937,232.346 C550.231,232.537 550.368,233.019 550.454,233.813 L550.885,237.855 C550.904,238.062 550.921,238.269 550.921,238.477 C550.921,238.891 550.851,239.271 550.679,239.599 L551.507,239.599 C554.72,235.972 556.24,233.416 556.24,232.226 C556.24,231.604 555.912,231.241 555.325,231.241 C555.031,231.241 554.737,231.362 554.46,231.587 L554.789,233.693 C554.34,234.885 553.459,236.283 552.146,237.958 L551.698,233.227 C551.56,231.844 551.37,231.241 550.385,231.241 C550.385,231.241 550.368,231.241 550.351,231.241" fill="#000000"/>
      <path d="M559.9,235.254 L557.279,236.038 L557.279,236.544 L559.174,236.207 L559.174,242.702 L559.031,242.907 L557.642,242.98 L557.642,243.499 L561.687,243.499 L561.687,242.991 L560.382,242.932 L560.237,242.751 L560.237,235.254 L559.9,235.254" fill="#000000"/>
    </g>
    <path d="M335.87,240.68 L333.315,241.249 L333.315,241.682 L334.73,241.941 L333.296,249.004 L334.748,249.004 L335.455,244.946 C335.732,243.357 336.285,242.424 337.977,241.768 L338.426,242.701 C338.46,242.701 338.495,242.701 338.546,242.701 C339.255,242.701 339.704,242.234 339.704,241.577 C339.704,241.06 339.324,240.68 338.737,240.68 C337.873,240.68 336.768,241.474 335.663,243.046 L336.215,240.68 L335.87,240.68" fill="#000000" id="Layer_1"/>
    <g id="Layer_1">
      <path d="M200.547,210.291 L198.649,213.572 L199.599,213.572 L201.1,211.138 L202.621,213.572 L203.553,213.572 L201.653,210.291 L200.547,210.291" fill="#000000"/>
      <path d="M199.169,226.302 L199.531,226.302 C199.531,223.591 197.528,221.277 197.528,218.583 C197.528,216.632 198.928,215.371 201.069,215.371 C203.211,215.371 204.61,216.632 204.61,218.583 C204.61,221.277 202.606,223.591 202.606,226.302 L206.578,226.302 L206.578,223.486 L205.68,223.486 L205.438,224.972 L205.352,225.058 L203.522,225.058 C204.178,222.813 206.388,221.017 206.388,218.583 C206.388,216.164 204.178,214.438 201.069,214.438 C197.961,214.438 195.75,216.164 195.75,218.583 C195.75,221.017 197.961,222.813 198.617,225.058 L196.786,225.058 L196.7,224.972 L196.458,223.486 L195.56,223.486 L195.56,226.302 L199.169,226.302" fill="#000000"/>
      <path d="M210.739,221.957 C209.013,221.957 207.878,223.477 207.878,226.146 C207.878,228.813 209.013,230.347 210.739,230.347 C212.466,230.347 213.6,228.813 213.6,226.146 C213.6,223.477 212.466,221.957 210.739,221.957 z M210.739,222.524 C211.85,222.524 212.453,223.755 212.453,226.146 C212.453,228.536 211.85,229.768 210.739,229.768 C209.628,229.768 209.013,228.547 209.013,226.157 C209.013,223.755 209.628,222.524 210.739,222.524" fill="#000000"/>
    </g>
    <g id="Layer_1">
      <path d="M475.561,204.642 L473.662,207.923 L474.612,207.923 L476.114,205.489 L477.634,207.923 L478.567,207.923 L476.667,204.642 L475.561,204.642" fill="#000000"/>
      <path d="M474.183,220.653 L474.545,220.653 C474.545,217.942 472.542,215.628 472.542,212.934 C472.542,210.982 473.942,209.721 476.083,209.721 C478.225,209.721 479.623,210.982 479.623,212.934 C479.623,215.628 477.62,217.942 477.62,220.653 L481.592,220.653 L481.592,217.837 L480.694,217.837 L480.452,219.323 L480.366,219.409 L478.536,219.409 C479.192,217.164 481.402,215.368 481.402,212.934 C481.402,210.515 479.192,208.789 476.083,208.789 C472.975,208.789 470.764,210.515 470.764,212.934 C470.764,215.368 472.975,217.164 473.631,219.409 L471.8,219.409 L471.714,219.323 L471.472,217.837 L470.573,217.837 L470.573,220.653 L474.183,220.653" fill="#000000"/>
      <path d="M486.152,216.307 L483.531,217.092 L483.531,217.598 L485.427,217.26 L485.427,223.756 L485.283,223.96 L483.894,224.034 L483.894,224.553 L487.939,224.553 L487.939,224.045 L486.634,223.985 L486.489,223.804 L486.489,216.307 L486.152,216.307" fill="#000000"/>
    </g>
    <g id="Layer_1">
      <path d="M459.895,246.653 L457.997,249.934 L458.947,249.934 L460.448,247.5 L461.969,249.934 L462.901,249.934 L461.001,246.653 L459.895,246.653" fill="#000000"/>
      <path d="M458.556,251.04 L456.001,251.609 L456.001,252.042 L457.417,252.301 L455.984,259.364 L457.451,259.364 L458.522,253.526 C459.576,252.559 460.491,252.111 461.078,252.111 C461.734,252.111 462.011,252.439 462.011,253.198 C462.011,253.423 461.976,253.803 461.855,254.304 L461.112,257.498 C461.026,257.878 460.975,258.206 460.975,258.431 C460.975,259.122 461.389,259.467 462.236,259.467 C462.719,259.467 463.409,259.295 464.308,258.95 L464.308,258.465 C463.911,258.57 463.6,258.622 463.358,258.622 C462.787,258.622 462.459,258.328 462.459,257.775 C462.459,257.515 462.547,257.136 462.65,256.636 L463.237,253.959 C463.375,253.337 463.478,252.853 463.478,252.422 C463.478,251.575 462.926,251.04 462.028,251.04 C461.112,251.04 460.042,251.609 458.678,252.698 L458.989,251.04 L458.556,251.04" fill="#000000"/>
      <path d="M468.786,255.018 L466.166,255.803 L466.166,256.309 L468.061,255.972 L468.061,262.467 L467.917,262.672 L466.528,262.745 L466.528,263.264 L470.573,263.264 L470.573,262.756 L469.269,262.697 L469.123,262.515 L469.123,255.018 L468.786,255.018" fill="#000000"/>
    </g>
    <g id="Layer_1">
      <path d="M199.471,182.091 L197.572,185.372 L198.522,185.372 L200.024,182.938 L201.544,185.372 L202.477,185.372 L200.577,182.091 L199.471,182.091" fill="#000000"/>
      <path d="M198.131,186.479 L195.577,187.047 L195.577,187.48 L196.992,187.739 L195.56,194.802 L197.027,194.802 L198.097,188.964 C199.152,187.997 200.066,187.549 200.653,187.549 C201.31,187.549 201.586,187.877 201.586,188.636 C201.586,188.861 201.552,189.241 201.43,189.743 L200.688,192.936 C200.602,193.316 200.55,193.644 200.55,193.869 C200.55,194.56 200.964,194.905 201.811,194.905 C202.294,194.905 202.985,194.733 203.883,194.388 L203.883,193.903 C203.486,194.008 203.175,194.06 202.933,194.06 C202.363,194.06 202.035,193.766 202.035,193.213 C202.035,192.953 202.122,192.574 202.225,192.074 L202.813,189.397 C202.95,188.775 203.053,188.291 203.053,187.86 C203.053,187.013 202.502,186.479 201.603,186.479 C200.688,186.479 199.617,187.047 198.253,188.136 L198.564,186.479 L198.131,186.479" fill="#000000"/>
      <path d="M207.963,190.457 C206.236,190.457 205.102,191.977 205.102,194.646 C205.102,197.313 206.236,198.847 207.963,198.847 C209.689,198.847 210.824,197.313 210.824,194.646 C210.824,191.977 209.689,190.457 207.963,190.457 z M207.963,191.024 C209.074,191.024 209.677,192.255 209.677,194.646 C209.677,197.036 209.074,198.268 207.963,198.268 C206.852,198.268 206.236,197.047 206.236,194.657 C206.236,192.255 206.852,191.024 207.963,191.024" fill="#000000"/>
    </g>
    <g>
      <path d="M174.096,225.093 C168.883,237.493 164.839,255.01 183.444,255.01" fill-opacity="0" stroke="#000000" stroke-width="0.5" stroke-linecap="round" stroke-linejoin="round"/>
      <path d="M175.464,225.708 L175.734,221.444 L172.727,224.479 z" fill="#000000" fill-opacity="1" stroke="#000000" stroke-width="0.5" stroke-opacity="1"/>
    </g>
    <path d="M488.439,230.847 C512.457,230.847 531.927,230.847 531.927,230.847 L488.439,230.847 z" fill-opacity="0" stroke="#000000" stroke-width="1"/>
    <path d="M488.025,242.793 C487.004,238.945 486.488,234.981 486.488,231" fill-opacity="0" stroke="#000000" stroke-width="1"/>
    <g>
      <path d="M491.281,236.326 C500.982,237.407 487.952,258.008 498.32,258.008" fill-opacity="0" stroke="#000000" stroke-width="0.5" stroke-linecap="round" stroke-linejoin="round"/>
      <path d="M491.115,234.835 L487.306,236.77 L491.447,237.816 z" fill="#000000" fill-opacity="1" stroke="#000000" stroke-width="0.5" stroke-opacity="1"/>
    </g>
  </g>
</svg>
