<?xml version="1.0" encoding="UTF-8"?>
<!DOCTYPE svg PUBLIC "-//W3C//DTD SVG 1.1//EN" "http://www.w3.org/Graphics/SVG/1.1/DTD/svg11.dtd">
<svg version="1.1" xmlns="http://www.w3.org/2000/svg" xmlns:xlink="http://www.w3.org/1999/xlink" x="0" y="0" width="603.6" height="299.964" viewBox="0, 0, 301.8, 149.982">
  <defs>
    <clipPath id="Clip_1">
      <path d="M137.092,424.862 L149.092,424.862 L149.092,412.862 L137.092,412.862 z"/>
    </clipPath>
  </defs>
  <g id="Layer_1" transform="translate(-88.859, -401.028)">
    <path d="M103.855,434.27 L103.855,550.51" fill-opacity="0" stroke="#000000" stroke-width="1"/>
    <path d="M103.855,486.053 L173.157,416.751" fill-opacity="0" stroke="#000000" stroke-width="1"/>
    <path d="M103.855,486.04 L168.923,408.667" fill-opacity="0" stroke="#000000" stroke-width="0.33"/>
    <path d="M103.855,486.053 L179.949,420.354" fill-opacity="0" stroke="#000000" stroke-width="0.33"/>
    <path d="M98.307,525.361 L109.403,525.361" fill-opacity="0" stroke="#000000" stroke-width="1"/>
    <path d="M98.307,450.496 L109.403,450.496" fill-opacity="0" stroke="#000000" stroke-width="1"/>
    <path d="M103.855,525.361 L141.336,487.78" fill-opacity="0" stroke="#000000" stroke-width="1"/>
    <path d="M103.855,450.496 L141.336,487.78" fill-opacity="0" stroke="#000000" stroke-width="1"/>
    <g>
      <path d="M179.949,420.354 C174.744,418.255 170.716,413.986 168.923,408.667" fill-opacity="0" stroke="#000000" stroke-width="1"/>
      <path d="M168.923,408.667 L187.136,402.528" fill-opacity="0" stroke="#000000" stroke-width="1"/>
      <path d="M187.136,402.528 L179.949,420.354" fill-opacity="0" stroke="#000000" stroke-width="1"/>
    </g>
    <text transform="matrix(1, 0, 0, 1, 93.333, 485.54)">
      <tspan x="-4.474" y="4.5" font-family="Charter-Roman" font-size="14" fill="#000000">A</tspan>
    </text>
    <g>
      <path d="M103.855,486.04 L114.5,486.04" fill-opacity="0" stroke="#000000" stroke-width="1"/>
      <path d="M114.5,489.04 L122.5,486.04 L114.5,483.04 z" fill="#000000" fill-opacity="1" stroke="#000000" stroke-width="1" stroke-opacity="1"/>
    </g>
    <g id="Layer_1">
      <path d="M112.813,491.195 L110.915,494.476 L111.865,494.476 L113.367,492.041 L114.887,494.476 L115.82,494.476 L113.92,491.195 L112.813,491.195" fill="#000000"/>
      <path d="M111.474,495.582 L108.92,496.151 L108.92,496.584 L110.335,496.843 L108.903,503.905 L110.37,503.905 L111.44,498.068 C112.495,497.101 113.409,496.652 113.996,496.652 C114.653,496.652 114.929,496.98 114.929,497.74 C114.929,497.965 114.895,498.345 114.773,498.846 L114.031,502.04 C113.945,502.42 113.893,502.748 113.893,502.973 C113.893,503.663 114.307,504.009 115.154,504.009 C115.637,504.009 116.328,503.837 117.226,503.491 L117.226,503.007 C116.829,503.112 116.518,503.163 116.276,503.163 C115.706,503.163 115.378,502.87 115.378,502.316 C115.378,502.057 115.465,501.677 115.568,501.177 L116.156,498.501 C116.293,497.879 116.396,497.395 116.396,496.963 C116.396,496.116 115.845,495.582 114.946,495.582 C114.031,495.582 112.96,496.151 111.596,497.24 L111.907,495.582 L111.474,495.582" fill="#000000"/>
    </g>
    <g>
      <path d="M173.157,416.751 L162.584,427.324" fill-opacity="0" stroke="#000000" stroke-width="1"/>
      <path d="M160.462,425.203 L156.927,432.981 L164.705,429.445 z" fill="#000000" fill-opacity="1" stroke="#000000" stroke-width="1" stroke-opacity="1"/>
    </g>
    <g id="Layer_1">
      <path d="M202.205,427.643 L200.307,430.924 L201.257,430.924 L202.759,428.49 L204.279,430.924 L205.212,430.924 L203.312,427.643 L202.205,427.643" fill="#000000"/>
      <path d="M200.827,443.654 L201.19,443.654 C201.19,440.943 199.187,438.629 199.187,435.935 C199.187,433.983 200.587,432.722 202.727,432.722 C204.87,432.722 206.268,433.983 206.268,435.935 C206.268,438.629 204.265,440.943 204.265,443.654 L208.237,443.654 L208.237,440.838 L207.338,440.838 L207.096,442.324 L207.01,442.41 L205.18,442.41 C205.837,440.165 208.046,438.369 208.046,435.935 C208.046,433.516 205.837,431.79 202.727,431.79 C199.62,431.79 197.409,433.516 197.409,435.935 C197.409,438.369 199.62,440.165 200.276,442.41 L198.445,442.41 L198.359,442.324 L198.116,440.838 L197.218,440.838 L197.218,443.654 L200.827,443.654" fill="#000000"/>
    </g>
    <g id="Layer_1">
      <path d="M179.979,514.653 L173.607,525.584 L172.657,525.687 L172.657,526.343 L176.076,526.343 L176.076,525.687 L175.023,525.601 L174.885,525.359 L176.732,522.061 L180.929,522.061 L181.465,525.359 L181.343,525.601 L180.324,525.687 L180.324,526.343 L184.107,526.343 L184.107,525.687 L183.26,525.601 L182.967,525.29 L181.12,514.653 L179.979,514.653 z M179.979,516.345 L180.773,521.318 L177.165,521.318 L179.979,516.345 z" fill="#000000"/>
      <path d="M187.062,524.425 L185.348,524.786 L185.348,525.089 L186.288,525.209 L185.021,532.236 L184.901,532.368 L184.188,532.514 L184.188,532.875 L187.085,532.875 L187.085,532.514 L185.938,532.307 L186.337,530.062 C186.638,530.207 186.953,530.292 187.267,530.292 C188.088,530.292 188.945,529.893 189.56,529.217 C190.249,528.456 190.587,527.575 190.587,526.525 C190.587,525.161 190.007,524.425 189.054,524.425 C188.535,524.425 187.931,524.665 187.231,525.161 L187.376,524.425 L187.062,524.425 z M186.459,529.434 L187.146,525.692 C187.69,525.27 188.137,525.051 188.498,525.051 C189.151,525.051 189.585,525.595 189.585,526.55 C189.585,527.515 189.246,528.493 188.848,529.025 C188.474,529.518 188.028,529.761 187.496,529.761 C187.159,529.761 186.82,529.651 186.459,529.434" fill="#000000"/>
      <path d="M197.388,520.023 L208.993,520.023 L208.993,518.987 L197.388,518.987 L197.388,520.023 z M197.388,523.753 L208.993,523.753 L208.993,522.717 L197.388,522.717 L197.388,523.753" fill="#000000"/>
      <path d="M219.979,514.653 L213.607,525.584 L212.657,525.687 L212.657,526.343 L216.076,526.343 L216.076,525.687 L215.023,525.601 L214.885,525.359 L216.732,522.061 L220.929,522.061 L221.465,525.359 L221.343,525.601 L220.324,525.687 L220.324,526.343 L224.107,526.343 L224.107,525.687 L223.26,525.601 L222.967,525.29 L221.12,514.653 L219.979,514.653 z M219.979,516.345 L220.773,521.318 L217.165,521.318 L219.979,516.345 z" fill="#000000"/>
      <path d="M233.36,525.618 L233.36,524.72 C232.635,525.204 231.928,525.445 231.168,525.445 C229.371,525.445 228.232,524.184 228.232,522.061 C228.232,519.884 229.285,518.554 230.77,518.554 C231.063,518.554 231.34,518.642 231.599,518.797 L231.599,520.212 C231.859,520.386 232.117,520.471 232.376,520.471 C232.963,520.471 233.343,520.109 233.343,519.556 C233.343,518.554 232.41,517.864 230.753,517.864 C228.335,517.864 226.66,519.609 226.66,522.181 C226.66,524.737 228.198,526.464 230.546,526.464 C231.479,526.464 232.41,526.17 233.36,525.618" fill="#000000"/>
      <path d="M238.267,517.864 C235.935,517.864 234.26,519.609 234.26,522.181 C234.26,524.737 235.952,526.498 238.267,526.498 C240.581,526.498 242.29,524.737 242.29,522.181 C242.29,519.626 240.598,517.864 238.267,517.864 z M238.267,518.607 C239.665,518.607 240.667,519.954 240.667,522.181 C240.667,524.426 239.665,525.756 238.267,525.756 C236.885,525.756 235.884,524.409 235.884,522.181 C235.884,519.937 236.868,518.607 238.267,518.607" fill="#000000"/>
      <path d="M248.862,518.243 C248.274,517.986 247.601,517.864 246.842,517.864 C244.873,517.864 243.785,518.762 243.785,520.283 C243.785,521.439 244.545,521.992 246.012,522.648 C247.153,523.165 247.774,523.476 247.774,524.375 C247.774,525.186 247.153,525.773 246.151,525.773 C245.649,525.773 245.167,525.636 244.682,525.359 L244.476,523.892 L243.646,523.892 L243.646,526.136 C244.251,526.361 245.01,526.498 245.892,526.498 C247.929,526.498 249.121,525.514 249.121,523.909 C249.121,523.27 248.879,522.751 248.465,522.423 C247.895,521.958 247.238,521.715 246.634,521.422 C245.667,520.956 245.167,520.593 245.167,519.85 C245.167,519.073 245.684,518.607 246.599,518.607 C247.013,518.607 247.429,518.728 247.878,518.97 L248.015,520.195 L248.862,520.195 L248.862,518.243" fill="#000000"/>
      <path d="M252.256,521.37 C252.256,516.639 253.638,514.289 255.624,513.943 L255.624,513.15 C252.757,513.495 250.788,516.154 250.788,521.37 C250.788,526.586 252.757,529.245 255.624,529.59 L255.624,528.795 C253.638,528.45 252.256,526.101 252.256,521.37" fill="#000000"/>
      <path d="M261.485,513.633 L259.587,516.914 L260.537,516.914 L262.038,514.479 L263.559,516.914 L264.492,516.914 L262.591,513.633 L261.485,513.633" fill="#000000"/>
      <path d="M260.146,518.02 L257.592,518.589 L257.592,519.021 L259.007,519.281 L257.574,526.343 L259.042,526.343 L260.112,520.506 C261.167,519.539 262.081,519.09 262.668,519.09 C263.324,519.09 263.601,519.418 263.601,520.178 C263.601,520.403 263.566,520.783 263.445,521.284 L262.703,524.478 C262.617,524.857 262.565,525.186 262.565,525.411 C262.565,526.101 262.979,526.447 263.826,526.447 C264.309,526.447 264.999,526.275 265.898,525.929 L265.898,525.445 C265.501,525.55 265.19,525.601 264.948,525.601 C264.378,525.601 264.049,525.307 264.049,524.754 C264.049,524.495 264.137,524.115 264.24,523.615 L264.828,520.939 C264.965,520.317 265.068,519.833 265.068,519.401 C265.068,518.554 264.517,518.02 263.618,518.02 C262.703,518.02 261.632,518.589 260.268,519.678 L260.579,518.02 L260.146,518.02" fill="#000000"/>
      <path d="M267.295,529.262 C269.038,529.072 270.213,527.725 270.213,526.24 C270.213,525.134 269.695,524.512 268.832,524.512 C268.245,524.512 267.813,524.893 267.813,525.462 C267.813,525.773 267.899,526.015 268.088,526.223 L269.195,526.223 C269.195,526.292 269.195,526.361 269.195,526.412 C269.195,527.673 268.556,528.45 267.295,528.692 L267.295,529.262" fill="#000000"/>
      <path d="M279.585,510.332 L277.687,513.614 L278.637,513.614 L280.138,511.179 L281.659,513.614 L282.591,513.614 L280.691,510.332 L279.585,510.332" fill="#000000"/>
      <path d="M278.207,526.343 L278.569,526.343 C278.569,523.632 276.566,521.318 276.566,518.625 C276.566,516.673 277.966,515.412 280.107,515.412 C282.249,515.412 283.648,516.673 283.648,518.625 C283.648,521.318 281.644,523.632 281.644,526.343 L285.616,526.343 L285.616,523.528 L284.718,523.528 L284.476,525.014 L284.39,525.1 L282.56,525.1 C283.216,522.854 285.426,521.059 285.426,518.625 C285.426,516.206 283.216,514.479 280.107,514.479 C276.999,514.479 274.788,516.206 274.788,518.625 C274.788,521.059 276.999,522.854 277.655,525.1 L275.824,525.1 L275.738,525.014 L275.496,523.528 L274.598,523.528 L274.598,526.343 L278.207,526.343" fill="#000000"/>
      <path d="M290.655,521.37 C290.655,526.101 289.274,528.45 287.288,528.795 L287.288,529.59 C290.155,529.245 292.124,526.586 292.124,521.37 C292.124,516.154 290.155,513.495 287.288,513.15 L287.288,513.943 C289.274,514.289 290.655,516.639 290.655,521.37" fill="#000000"/>
      <path d="M298.088,520.023 L309.693,520.023 L309.693,518.987 L298.088,518.987 L298.088,520.023 z M298.088,523.753 L309.693,523.753 L309.693,522.717 L298.088,522.717 L298.088,523.753" fill="#000000"/>
      <path d="M320.679,514.653 L314.307,525.584 L313.357,525.687 L313.357,526.343 L316.776,526.343 L316.776,525.687 L315.723,525.601 L315.585,525.359 L317.432,522.061 L321.629,522.061 L322.165,525.359 L322.043,525.601 L321.024,525.687 L321.024,526.343 L324.807,526.343 L324.807,525.687 L323.96,525.601 L323.666,525.29 L321.819,514.653 L320.679,514.653 z M320.679,516.345 L321.473,521.318 L317.865,521.318 L320.679,516.345 z" fill="#000000"/>
      <path d="M333.96,525.618 L333.96,524.72 C333.235,525.204 332.527,525.445 331.768,525.445 C329.971,525.445 328.832,524.184 328.832,522.061 C328.832,519.884 329.885,518.554 331.369,518.554 C331.663,518.554 331.94,518.642 332.199,518.797 L332.199,520.212 C332.459,520.386 332.716,520.471 332.976,520.471 C333.563,520.471 333.943,520.109 333.943,519.556 C333.943,518.554 333.01,517.864 331.352,517.864 C328.935,517.864 327.26,519.609 327.26,522.181 C327.26,524.737 328.798,526.464 331.146,526.464 C332.079,526.464 333.01,526.17 333.96,525.618" fill="#000000"/>
      <path d="M338.966,517.864 C336.635,517.864 334.96,519.609 334.96,522.181 C334.96,524.737 336.652,526.498 338.966,526.498 C341.28,526.498 342.99,524.737 342.99,522.181 C342.99,519.626 341.298,517.864 338.966,517.864 z M338.966,518.607 C340.365,518.607 341.366,519.954 341.366,522.181 C341.366,524.426 340.365,525.756 338.966,525.756 C337.585,525.756 336.584,524.409 336.584,522.181 C336.584,519.937 337.568,518.607 338.966,518.607" fill="#000000"/>
      <path d="M349.562,518.243 C348.974,517.986 348.301,517.864 347.541,517.864 C345.573,517.864 344.485,518.762 344.485,520.283 C344.485,521.439 345.244,521.992 346.712,522.648 C347.852,523.165 348.474,523.476 348.474,524.375 C348.474,525.186 347.852,525.773 346.851,525.773 C346.349,525.773 345.866,525.636 345.382,525.359 L345.176,523.892 L344.346,523.892 L344.346,526.136 C344.951,526.361 345.71,526.498 346.591,526.498 C348.629,526.498 349.821,525.514 349.821,523.909 C349.821,523.27 349.579,522.751 349.165,522.423 C348.594,521.958 347.938,521.715 347.334,521.422 C346.366,520.956 345.866,520.593 345.866,519.85 C345.866,519.073 346.384,518.607 347.299,518.607 C347.713,518.607 348.129,518.728 348.577,518.97 L348.715,520.195 L349.562,520.195 L349.562,518.243" fill="#000000"/>
      <path d="M359.207,514.479 C355.823,514.479 353.404,517.018 353.404,520.593 C353.404,524.115 355.823,526.62 359.207,526.62 C362.591,526.62 365.01,524.115 365.01,520.593 C365.01,517.018 362.591,514.479 359.207,514.479 z M356.116,521.818 L357.084,521.818 L357.084,521.231 L361.332,521.231 L361.332,521.818 L362.298,521.818 L362.298,519.264 L361.332,519.264 L361.332,519.833 L357.084,519.833 L357.084,519.264 L356.116,519.264 L356.116,521.818 z M359.207,515.412 C361.66,515.412 363.265,517.467 363.265,520.593 C363.265,523.667 361.66,525.653 359.207,525.653 C356.755,525.653 355.149,523.667 355.149,520.593 C355.149,517.467 356.755,515.412 359.207,515.412" fill="#000000"/>
    </g>
    <text transform="matrix(1, 0, 0, 1, 294.438, 476.955)">
      <tspan x="-96.22" y="-13.301" font-family="Charter-Roman" font-size="14" fill="#000000">Ideal detector perpendicular to </tspan>
      <tspan x="-96.22" y="3.699" font-family="Charter-Roman" font-size="14" fill="#000000">line of sight (LOS) to measure </tspan>
      <tspan x="-96.22" y="20.699" font-family="Charter-Roman" font-size="14" fill="#000000">total radiant energy Q(</tspan>
      <tspan x="44.757" y="20.699" font-family="Charter-Italic" font-size="14" fill="#000000">A,</tspan>
      <tspan x="57.13" y="20.699" font-family="Charter-Roman" font-size="14" fill="#000000">Θ</tspan>
      <tspan x="67.377" y="20.699" font-family="Charter-Italic" font-size="14" fill="#000000">,t</tspan>
      <tspan x="75.929" y="20.699" font-family="Charter-Roman" font-size="14" fill="#000000">)</tspan>
    </text>
    <g>
      <path d="M136.09,475.87 C150.858,460.911 167.885,470.99 172.002,491.579 C174.019,501.663 162.472,510.816 164.689,519.68 C165.307,522.153 168.859,521.605 170.848,521.605" fill-opacity="0" stroke="#000000" stroke-width="0.5" stroke-linecap="round" stroke-linejoin="round"/>
      <path d="M134.961,474.882 L133.457,478.881 L137.219,476.858 z" fill="#000000" fill-opacity="1" stroke="#000000" stroke-width="0.5" stroke-opacity="1"/>
    </g>
    <g>
      <path d="M128.858,422.938 C134.335,425.108 139.5,427.979 144.225,431.476" fill-opacity="0" stroke="#000000" stroke-width="0.5"/>
      <path d="M143.294,432.651 L147.36,433.96 L145.157,430.3 z" fill="#000000" fill-opacity="1" stroke="#000000" stroke-width="0.5" stroke-opacity="1"/>
    </g>
    <g>
      <path d="M159.051,444.264 C161.897,448.024 164.354,452.067 166.381,456.332" fill-opacity="0" stroke="#000000" stroke-width="0.5"/>
      <path d="M160.217,443.321 L156.534,441.155 L157.885,445.208 z" fill="#000000" fill-opacity="1" stroke="#000000" stroke-width="0.5" stroke-opacity="1"/>
    </g>
    <path d="M166.613,423.06 C193.988,410.178 174.334,447.686 194.329,437.688" fill-opacity="0" stroke="#000000" stroke-width="0.5" stroke-linecap="round" stroke-linejoin="round"/>
    <g clip-path="url(#Clip_1)" id="Layer_1">
      <path d="M141.678,424.661 L142.041,424.661 C142.041,421.951 140.037,419.637 140.037,416.943 C140.037,414.991 141.437,413.73 143.578,413.73 C145.72,413.73 147.119,414.991 147.119,416.943 C147.119,419.637 145.116,421.951 145.116,424.661 L149.087,424.661 L149.087,421.846 L148.189,421.846 L147.947,423.332 L147.861,423.418 L146.031,423.418 C146.687,421.172 148.897,419.377 148.897,416.943 C148.897,414.524 146.687,412.797 143.578,412.797 C140.47,412.797 138.259,414.524 138.259,416.943 C138.259,419.377 140.47,421.172 141.127,423.418 L139.295,423.418 L139.209,423.332 L138.967,421.846 L138.069,421.846 L138.069,424.661 L141.678,424.661" fill="#000000"/>
    </g>
  </g>
</svg>
