<?xml version="1.0" encoding="UTF-8"?>
<!DOCTYPE svg PUBLIC "-//W3C//DTD SVG 1.1//EN" "http://www.w3.org/Graphics/SVG/1.1/DTD/svg11.dtd">
<svg version="1.1" xmlns="http://www.w3.org/2000/svg" xmlns:xlink="http://www.w3.org/1999/xlink" x="0" y="0" width="697.182" height="304.757" viewBox="0, 0, 697.182, 304.757">
  <defs>
    <clipPath id="Clip_1">
      <path d="M153.794,137.316 L171.794,137.316 L171.794,118.716 L153.794,118.716 z"/>
    </clipPath>
  </defs>
  <g id="Layer_1" transform="translate(-12.818, -2)">
    <g id="Layer_1">
      <path d="M299.645,234.799 L294.361,235.801 L294.361,236.767 L297.399,237.115 L296.193,244.021 C295.259,243.607 294.361,243.437 293.427,243.437 C290.561,243.437 287.521,245.161 285.659,248.099 C284.553,249.857 283.965,252.001 283.965,254.349 C283.965,258.287 285.727,260.529 288.489,260.529 C290.321,260.529 292.187,259.461 293.877,257.321 C293.843,257.561 293.843,257.801 293.843,258.011 C293.843,259.701 294.567,260.461 296.159,260.461 C297.055,260.461 298.505,260.151 300.405,259.461 L300.405,258.423 C299.367,258.667 298.609,258.805 298.161,258.805 C297.123,258.805 296.639,258.321 296.639,257.355 C296.639,256.905 296.709,256.249 296.849,255.489 L300.543,234.799 L299.645,234.799 z M294.049,244.887 L295.709,246.855 L294.155,255.627 C292.599,257.595 291.011,258.561 289.733,258.561 C287.937,258.561 286.761,257.043 286.761,254.315 C286.761,248.545 290.111,244.783 293.221,244.783 C293.465,244.783 293.739,244.851 294.049,244.887" fill="#000000"/>
      <path d="M312.611,260.221 L313.337,260.221 C313.337,254.799 309.331,250.171 309.331,244.783 C309.331,240.879 312.131,238.357 316.411,238.357 C320.695,238.357 323.493,240.879 323.493,244.783 C323.493,250.171 319.487,254.799 319.487,260.221 L327.431,260.221 L327.431,254.589 L325.633,254.589 L325.149,257.561 L324.977,257.733 L321.317,257.733 C322.631,253.243 327.049,249.651 327.049,244.783 C327.049,239.945 322.631,236.493 316.411,236.493 C310.195,236.493 305.773,239.945 305.773,244.783 C305.773,249.651 310.195,253.243 311.509,257.733 L307.845,257.733 L307.673,257.561 L307.189,254.589 L305.393,254.589 L305.393,260.221 L312.611,260.221" fill="#000000"/>
      <path d="M338.973,247.581 L362.183,247.581 L362.183,245.507 L338.973,245.507 L338.973,247.581 z M338.973,255.039 L362.183,255.039 L362.183,252.967 L338.973,252.967 L338.973,255.039" fill="#000000"/>
      <path d="M380.239,242.315 L382.311,242.315 L382.311,209.433 L380.239,209.433 z" fill="#000000"/>
      <path d="M403.445,210.399 L398.161,211.401 L398.161,212.367 L401.199,212.715 L399.993,219.621 C399.059,219.207 398.161,219.037 397.227,219.037 C394.361,219.037 391.321,220.761 389.459,223.699 C388.353,225.457 387.765,227.601 387.765,229.949 C387.765,233.887 389.527,236.129 392.289,236.129 C394.121,236.129 395.987,235.061 397.677,232.921 C397.643,233.161 397.643,233.401 397.643,233.611 C397.643,235.301 398.367,236.061 399.959,236.061 C400.855,236.061 402.305,235.751 404.205,235.061 L404.205,234.023 C403.167,234.267 402.409,234.405 401.961,234.405 C400.923,234.405 400.439,233.921 400.439,232.955 C400.439,232.505 400.509,231.849 400.649,231.089 L404.343,210.399 L403.445,210.399 z M397.849,220.487 L399.509,222.455 L397.955,231.227 C396.399,233.195 394.811,234.161 393.533,234.161 C391.737,234.161 390.561,232.643 390.561,229.915 C390.561,224.145 393.911,220.383 397.021,220.383 C397.265,220.383 397.539,220.451 397.849,220.487" fill="#000000"/>
      <path d="M412.805,207.627 L424.549,207.627 L422.339,208.973 L423.445,210.457 L428.281,206.867 L428.281,206.349 L423.445,202.721 L422.339,204.206 L424.549,205.555 L412.805,205.555 L412.805,207.627" fill="#000000"/>
      <path d="M419.555,212.439 L406.811,234.301 L404.911,234.507 L404.911,235.821 L411.749,235.821 L411.749,234.507 L409.643,234.337 L409.367,233.851 L413.061,227.255 L421.455,227.255 L422.527,233.851 L422.283,234.337 L420.245,234.507 L420.245,235.821 L427.811,235.821 L427.811,234.507 L426.117,234.337 L425.531,233.715 L421.837,212.439 L419.555,212.439 z M419.555,215.823 L421.143,225.771 L413.927,225.771 L419.555,215.823 z" fill="#000000"/>
      <path d="M440.053,225.873 C440.053,224.665 439.083,223.665 437.873,223.665 C436.667,223.665 435.665,224.665 435.665,225.873 C435.665,227.083 436.667,228.049 437.873,228.049 C439.083,228.049 440.053,227.083 440.053,225.873" fill="#000000"/>
      <path d="M460.767,203.799 L456.971,210.361 L458.871,210.361 L461.873,205.493 L464.915,210.361 L466.781,210.361 L462.981,203.799 L460.767,203.799" fill="#000000"/>
      <path d="M458.011,235.821 L458.737,235.821 C458.737,230.399 454.731,225.771 454.731,220.383 C454.731,216.481 457.531,213.957 461.811,213.957 C466.095,213.957 468.893,216.481 468.893,220.383 C468.893,225.771 464.887,230.399 464.887,235.821 L472.831,235.821 L472.831,230.189 L471.033,230.189 L470.549,233.161 L470.377,233.333 L466.717,233.333 C468.031,228.843 472.449,225.251 472.449,220.383 C472.449,215.545 468.031,212.093 461.811,212.093 C455.595,212.093 451.173,215.545 451.173,220.383 C451.173,225.251 455.595,228.843 456.909,233.333 L453.245,233.333 L453.073,233.161 L452.589,230.189 L450.793,230.189 L450.793,235.821 L458.011,235.821" fill="#000000"/>
      <path d="M478.239,242.315 L480.311,242.315 L480.311,209.433 L478.239,209.433 z" fill="#000000"/>
      <path d="M377.445,251.181 L485.043,251.181" fill-opacity="0" stroke="#000000" stroke-width="2.066" stroke-linecap="round" stroke-linejoin="round"/>
      <path d="M414.865,262.445 L414.865,263.757 L417.317,263.965 L417.695,264.449 L414.003,283.651 L413.449,284.137 L411.237,284.309 L411.237,285.621 L419.665,285.621 L419.665,284.309 L417.421,284.137 L417.005,283.651 L418.631,275.361 C419.355,275.327 419.977,275.293 420.531,275.293 C421.461,275.293 422.117,275.361 422.533,275.571 C424.293,276.365 424.503,277.745 424.949,279.749 C425.467,282.099 425.781,283.893 427.021,284.929 C427.677,285.483 428.749,285.793 430.199,285.793 C430.753,285.793 431.545,285.723 432.617,285.587 L432.617,284.309 C432.515,284.309 432.411,284.309 432.305,284.309 C429.645,284.309 428.989,283.445 428.265,280.821 C427.333,277.573 427.055,275.327 424.017,274.671 C428.439,273.705 430.889,271.011 430.889,267.487 C430.889,263.929 428.509,262.445 423.603,262.445 L414.865,262.445 z M418.939,273.705 L420.805,264.067 C421.323,264.033 421.809,263.999 422.255,263.999 C425.883,263.999 427.609,265.243 427.609,268.005 C427.609,271.565 425.017,273.739 420.217,273.739 C419.803,273.739 419.389,273.739 418.939,273.705" fill="#000000"/>
      <path d="M436.443,274.315 C441.781,270.065 444.703,267.337 444.703,264.293 C444.703,261.565 442.795,259.731 439.681,259.731 C436.687,259.731 434.561,261.443 434.561,263.133 C434.561,263.955 435.067,264.487 435.915,264.487 C436.299,264.487 436.661,264.365 436.999,264.123 L436.999,261.539 C437.723,261.129 438.423,260.961 439.149,260.961 C441.153,260.961 442.361,262.311 442.361,264.605 C442.361,267.771 439.343,270.401 434.055,274.699 L434.055,276.221 L445.233,276.221 L445.233,272.261 L444.145,272.261 L443.711,274.315 L436.443,274.315" fill="#000000"/>
      <path d="M498.373,247.581 L521.583,247.581 L521.583,245.507 L498.373,245.507 L498.373,247.581 z M498.373,255.039 L521.583,255.039 L521.583,252.967 L498.373,252.967 L498.373,255.039" fill="#000000"/>
      <path d="M553.045,210.399 L547.761,211.401 L547.761,212.367 L550.799,212.715 L549.593,219.621 C548.657,219.207 547.761,219.037 546.827,219.037 C543.961,219.037 540.921,220.761 539.057,223.699 C537.951,225.457 537.365,227.601 537.365,229.949 C537.365,233.887 539.127,236.129 541.889,236.129 C543.721,236.129 545.585,235.061 547.277,232.921 C547.243,233.161 547.243,233.401 547.243,233.611 C547.243,235.301 547.967,236.061 549.557,236.061 C550.455,236.061 551.905,235.751 553.805,235.061 L553.805,234.023 C552.767,234.267 552.007,234.405 551.561,234.405 C550.523,234.405 550.039,233.921 550.039,232.955 C550.039,232.505 550.107,231.849 550.249,231.089 L553.943,210.399 L553.045,210.399 z M547.449,220.487 L549.107,222.455 L547.555,231.227 C545.999,233.195 544.411,234.161 543.133,234.161 C541.335,234.161 540.161,232.643 540.161,229.915 C540.161,224.145 543.511,220.383 546.621,220.383 C546.865,220.383 547.139,220.451 547.449,220.487" fill="#000000"/>
      <path d="M569.155,212.439 L556.411,234.301 L554.511,234.507 L554.511,235.821 L561.349,235.821 L561.349,234.507 L559.243,234.337 L558.967,233.851 L562.661,227.255 L571.055,227.255 L572.127,233.851 L571.883,234.337 L569.845,234.507 L569.845,235.821 L577.411,235.821 L577.411,234.507 L575.717,234.337 L575.129,233.715 L571.435,212.439 L569.155,212.439 z M569.155,215.823 L570.743,225.771 L563.527,225.771 L569.155,215.823 z" fill="#000000"/>
      <path d="M595.917,234.371 L595.917,232.573 C594.467,233.543 593.051,234.023 591.533,234.023 C587.939,234.023 585.661,231.501 585.661,227.255 C585.661,222.901 587.767,220.243 590.735,220.243 C591.323,220.243 591.877,220.417 592.395,220.727 L592.395,223.559 C592.915,223.905 593.429,224.077 593.949,224.077 C595.123,224.077 595.883,223.351 595.883,222.245 C595.883,220.243 594.017,218.861 590.701,218.861 C585.867,218.861 582.517,222.351 582.517,227.495 C582.517,232.607 585.593,236.061 590.289,236.061 C592.155,236.061 594.017,235.473 595.917,234.371" fill="#000000"/>
      <path d="M605.729,218.861 C601.067,218.861 597.717,222.351 597.717,227.495 C597.717,232.607 601.101,236.129 605.729,236.129 C610.357,236.129 613.777,232.607 613.777,227.495 C613.777,222.387 610.393,218.861 605.729,218.861 z M605.729,220.349 C608.527,220.349 610.529,223.043 610.529,227.495 C610.529,231.987 608.527,234.645 605.729,234.645 C602.967,234.645 600.965,231.951 600.965,227.495 C600.965,223.007 602.933,220.349 605.729,220.349" fill="#000000"/>
      <path d="M626.921,219.621 C625.745,219.105 624.399,218.861 622.879,218.861 C618.943,218.861 616.767,220.659 616.767,223.699 C616.767,226.011 618.285,227.117 621.221,228.429 C623.501,229.465 624.745,230.087 624.745,231.883 C624.745,233.505 623.501,234.679 621.499,234.679 C620.495,234.679 619.529,234.405 618.561,233.851 L618.149,230.917 L616.489,230.917 L616.489,235.405 C617.699,235.855 619.217,236.129 620.979,236.129 C625.055,236.129 627.439,234.161 627.439,230.951 C627.439,229.673 626.955,228.637 626.127,227.981 C624.985,227.049 623.673,226.565 622.465,225.977 C620.529,225.045 619.529,224.321 619.529,222.833 C619.529,221.279 620.565,220.349 622.395,220.349 C623.223,220.349 624.055,220.589 624.951,221.073 L625.227,223.523 L626.921,223.523 L626.921,219.621" fill="#000000"/>
      <path d="M633.707,225.873 C633.707,216.411 636.473,211.711 640.445,211.021 L640.445,209.433 C634.711,210.123 630.773,215.443 630.773,225.873 C630.773,236.305 634.711,241.623 640.445,242.315 L640.445,240.723 C636.473,240.033 633.707,235.337 633.707,225.873" fill="#000000"/>
      <path d="M655.011,212.093 C648.243,212.093 643.405,217.171 643.405,224.321 C643.405,231.365 648.243,236.373 655.011,236.373 C661.779,236.373 666.617,231.365 666.617,224.321 C666.617,217.171 661.779,212.093 655.011,212.093 z M648.829,226.771 L650.765,226.771 L650.765,225.595 L659.261,225.595 L659.261,226.771 L661.193,226.771 L661.193,221.661 L659.261,221.661 L659.261,222.799 L650.765,222.799 L650.765,221.661 L648.829,221.661 L648.829,226.771 z M655.011,213.957 C659.917,213.957 663.127,218.067 663.127,224.321 C663.127,230.467 659.917,234.439 655.011,234.439 C650.107,234.439 646.895,230.467 646.895,224.321 C646.895,218.067 650.107,213.957 655.011,213.957" fill="#000000"/>
      <path d="M677.107,225.873 C677.107,235.337 674.345,240.033 670.373,240.723 L670.373,242.315 C676.107,241.623 680.044,236.305 680.044,225.873 C680.044,215.443 676.107,210.123 670.373,209.433 L670.373,211.021 C674.345,211.711 677.107,216.411 677.107,225.873" fill="#000000"/>
      <path d="M536.757,251.181 L683.034,251.181" fill-opacity="0" stroke="#000000" stroke-width="2.066" stroke-linecap="round" stroke-linejoin="round"/>
      <path d="M593.465,262.445 L593.465,263.757 L595.917,263.965 L596.295,264.449 L592.601,283.651 L592.049,284.137 L589.835,284.309 L589.835,285.621 L598.265,285.621 L598.265,284.309 L596.021,284.137 L595.605,283.651 L597.229,275.361 C597.955,275.327 598.577,275.293 599.129,275.293 C600.061,275.293 600.717,275.361 601.133,275.571 C602.893,276.365 603.101,277.745 603.549,279.749 C604.067,282.099 604.379,283.893 605.621,284.929 C606.277,285.483 607.349,285.793 608.799,285.793 C609.351,285.793 610.145,285.723 611.217,285.587 L611.217,284.309 C611.115,284.309 611.011,284.309 610.905,284.309 C608.245,284.309 607.589,283.445 606.865,280.821 C605.933,277.573 605.655,275.327 602.617,274.671 C607.039,273.705 609.489,271.011 609.489,267.487 C609.489,263.929 607.107,262.445 602.201,262.445 L593.465,262.445 z M597.539,273.705 L599.405,264.067 C599.923,264.033 600.407,263.999 600.855,263.999 C604.483,263.999 606.207,265.243 606.207,268.005 C606.207,271.565 603.617,273.739 598.817,273.739 C598.401,273.739 597.989,273.739 597.539,273.705" fill="#000000"/>
      <path d="M615.043,274.315 C620.379,270.065 623.301,267.337 623.301,264.293 C623.301,261.565 621.395,259.731 618.279,259.731 C615.285,259.731 613.161,261.443 613.161,263.133 C613.161,263.955 613.667,264.487 614.515,264.487 C614.899,264.487 615.261,264.365 615.599,264.123 L615.599,261.539 C616.323,261.129 617.023,260.961 617.749,260.961 C619.751,260.961 620.961,262.311 620.961,264.605 C620.961,267.771 617.943,270.401 612.655,274.699 L612.655,276.221 L623.833,276.221 L623.833,272.261 L622.745,272.261 L622.311,274.315 L615.043,274.315" fill="#000000"/>
    </g>
    <g>
      <path d="M153.914,3 C232.951,80.03 234.813,206.471 158.078,285.793" fill-opacity="0" stroke="#000000" stroke-width="2" stroke-linejoin="round"/>
      <path d="M214.433,144.396 L13.818,144.396" fill-opacity="0" stroke="#000000" stroke-width="2" stroke-linejoin="round"/>
      <path d="M186.002,191.229 L242.403,98.298" fill-opacity="0" stroke="#000000" stroke-width="4" stroke-linejoin="round"/>
      <g>
        <path d="M214.433,144.396 L154.2,94.668" fill-opacity="0" stroke="#000000" stroke-width="1.5" stroke-linejoin="round"/>
        <g>
          <path d="M157.066,91.198 L144.946,87.028 L151.336,98.138 z" fill="#000000"/>
          <path d="M157.066,91.198 L144.946,87.028 L151.336,98.138 z" fill-opacity="0" stroke="#000000" stroke-width="1.5"/>
        </g>
      </g>
      <g clip-path="url(#Clip_1)" id="Layer_1">
        <path d="M163.072,118.62 C157.996,118.62 154.368,122.428 154.368,127.792 C154.368,133.074 157.996,136.832 163.072,136.832 C168.15,136.832 171.778,133.074 171.778,127.792 C171.778,122.428 168.15,118.62 163.072,118.62 z M158.436,129.628 L159.888,129.628 L159.888,128.748 L166.26,128.748 L166.26,129.628 L167.708,129.628 L167.708,125.796 L166.26,125.796 L166.26,126.65 L159.888,126.65 L159.888,125.796 L158.436,125.796 L158.436,129.628 z M163.072,120.02 C166.752,120.02 169.16,123.102 169.16,127.792 C169.16,132.402 166.752,135.38 163.072,135.38 C159.396,135.38 156.986,132.402 156.986,127.792 C156.986,123.102 159.396,120.02 163.072,120.02" fill="#000000"/>
      </g>
      <g id="Layer_1">
        <path d="M257.085,117.666 L251.801,118.668 L251.801,119.634 L254.839,119.98 L253.633,126.886 C252.697,126.474 251.801,126.302 250.867,126.302 C248.001,126.302 244.961,128.028 243.097,130.966 C241.991,132.724 241.403,134.868 241.403,137.216 C241.403,141.152 243.167,143.396 245.929,143.396 C247.761,143.396 249.625,142.328 251.317,140.188 C251.283,140.428 251.283,140.668 251.283,140.878 C251.283,142.568 252.007,143.328 253.597,143.328 C254.495,143.328 255.945,143.018 257.845,142.328 L257.845,141.29 C256.807,141.534 256.047,141.672 255.601,141.672 C254.563,141.672 254.079,141.188 254.079,140.222 C254.079,139.772 254.147,139.116 254.289,138.356 L257.983,117.666 L257.085,117.666 z M251.489,127.752 L253.147,129.722 L251.595,138.494 C250.039,140.462 248.451,141.428 247.173,141.428 C245.375,141.428 244.201,139.908 244.201,137.18 C244.201,131.412 247.551,127.65 250.661,127.65 C250.903,127.65 251.179,127.718 251.489,127.752" fill="#000000"/>
        <path d="M266.645,114.894 L278.389,114.894 L276.179,116.24 L277.285,117.724 L282.119,114.134 L282.119,113.616 L277.285,109.986 L276.179,111.474 L278.389,112.822 L266.645,112.822 L266.645,114.894" fill="#000000"/>
        <path d="M273.195,119.706 L260.451,141.568 L258.551,141.774 L258.551,143.086 L265.389,143.086 L265.389,141.774 L263.283,141.602 L263.007,141.118 L266.701,134.522 L275.095,134.522 L276.167,141.118 L275.923,141.602 L273.885,141.774 L273.885,143.086 L281.451,143.086 L281.451,141.774 L279.757,141.602 L279.169,140.98 L275.475,119.706 L273.195,119.706 z M273.195,123.09 L274.783,133.038 L267.567,133.038 L273.195,123.09 z" fill="#000000"/>
        <path d="M290.413,130.446 L313.623,130.446 L313.623,128.374 L290.413,128.374 L290.413,130.446 z M290.413,137.906 L313.623,137.906 L313.623,135.834 L290.413,135.834 L290.413,137.906" fill="#000000"/>
        <path d="M333.407,117.666 L329.611,124.228 L331.511,124.228 L334.513,119.358 L337.553,124.228 L339.419,124.228 L335.619,117.666 L333.407,117.666" fill="#000000"/>
        <path d="M330.729,126.44 L325.619,127.578 L325.619,128.444 L328.451,128.962 L325.585,143.086 L328.519,143.086 L330.661,131.412 C332.769,129.478 334.597,128.58 335.773,128.58 C337.085,128.58 337.639,129.236 337.639,130.756 C337.639,131.206 337.569,131.966 337.325,132.968 L335.841,139.356 C335.669,140.116 335.567,140.772 335.567,141.222 C335.567,142.602 336.395,143.294 338.089,143.294 C339.053,143.294 340.435,142.95 342.233,142.258 L342.233,141.29 C341.439,141.5 340.817,141.602 340.333,141.602 C339.191,141.602 338.535,141.016 338.535,139.908 C338.535,139.39 338.711,138.63 338.917,137.63 L340.091,132.278 C340.367,131.034 340.573,130.066 340.573,129.202 C340.573,127.508 339.469,126.44 337.673,126.44 C335.841,126.44 333.701,127.578 330.973,129.756 L331.595,126.44 L330.729,126.44" fill="#000000"/>
        <path d="M360.885,117.666 L355.601,118.668 L355.601,119.634 L358.639,119.98 L357.433,126.886 C356.497,126.474 355.601,126.302 354.667,126.302 C351.801,126.302 348.761,128.028 346.897,130.966 C345.791,132.724 345.203,134.868 345.203,137.216 C345.203,141.152 346.967,143.396 349.729,143.396 C351.561,143.396 353.425,142.328 355.117,140.188 C355.083,140.428 355.083,140.668 355.083,140.878 C355.083,142.568 355.807,143.328 357.397,143.328 C358.295,143.328 359.745,143.018 361.645,142.328 L361.645,141.29 C360.607,141.534 359.847,141.672 359.401,141.672 C358.363,141.672 357.879,141.188 357.879,140.222 C357.879,139.772 357.947,139.116 358.089,138.356 L361.783,117.666 L360.885,117.666 z M355.289,127.752 L356.947,129.722 L355.395,138.494 C353.839,140.462 352.251,141.428 350.973,141.428 C349.175,141.428 348.001,139.908 348.001,137.18 C348.001,131.412 351.351,127.65 354.461,127.65 C354.703,127.65 354.979,127.718 355.289,127.752" fill="#000000"/>
        <path d="M376.995,119.706 L364.251,141.568 L362.351,141.774 L362.351,143.086 L369.189,143.086 L369.189,141.774 L367.083,141.602 L366.807,141.118 L370.501,134.522 L378.895,134.522 L379.967,141.118 L379.723,141.602 L377.685,141.774 L377.685,143.086 L385.251,143.086 L385.251,141.774 L383.557,141.602 L382.969,140.98 L379.275,119.706 L376.995,119.706 z M376.995,123.09 L378.583,133.038 L371.367,133.038 L376.995,123.09 z" fill="#000000"/>
      </g>
      <path d="M174.794,144.396 C174.794,135.058 178.09,126.02 184.104,118.874" fill-opacity="0" stroke="#000000" stroke-width="1"/>
      <g id="Layer_1">
        <path d="M134.396,61.924 L131.548,66.846 L132.974,66.846 L135.226,63.194 L137.506,66.846 L138.906,66.846 L136.056,61.924 L134.396,61.924" fill="#000000"/>
        <path d="M132.388,68.504 L128.556,69.358 L128.556,70.008 L130.678,70.396 L128.53,80.99 L130.73,80.99 L132.336,72.234 C133.918,70.782 135.288,70.11 136.17,70.11 C137.154,70.11 137.57,70.602 137.57,71.742 C137.57,72.08 137.518,72.648 137.336,73.4 L136.222,78.192 C136.092,78.762 136.016,79.254 136.016,79.59 C136.016,80.626 136.636,81.144 137.906,81.144 C138.632,81.144 139.668,80.886 141.014,80.368 L141.014,79.642 C140.42,79.8 139.952,79.876 139.59,79.876 C138.734,79.876 138.242,79.436 138.242,78.606 C138.242,78.218 138.374,77.648 138.528,76.898 L139.41,72.882 C139.616,71.95 139.77,71.224 139.77,70.576 C139.77,69.306 138.942,68.504 137.596,68.504 C136.222,68.504 134.616,69.358 132.57,70.992 L133.036,68.504 L132.388,68.504" fill="#000000"/>
      </g>
      <path d="M129.476,149.758 L129.476,150.742 L131.316,150.896 L131.598,151.26 L128.828,165.662 L128.414,166.026 L126.754,166.154 L126.754,167.138 L133.076,167.138 L133.076,166.154 L131.392,166.026 L131.08,165.662 L132.3,159.444 C132.844,159.418 133.31,159.392 133.724,159.392 C134.422,159.392 134.916,159.444 135.226,159.6 C136.546,160.196 136.704,161.232 137.038,162.734 C137.428,164.496 137.662,165.842 138.592,166.62 C139.084,167.036 139.888,167.268 140.976,167.268 C141.39,167.268 141.986,167.216 142.79,167.112 L142.79,166.154 C142.712,166.154 142.636,166.154 142.556,166.154 C140.562,166.154 140.068,165.508 139.526,163.538 C138.826,161.104 138.618,159.418 136.34,158.926 C139.656,158.202 141.494,156.182 141.494,153.538 C141.494,150.87 139.708,149.758 136.028,149.758 L129.476,149.758 z M132.532,158.202 L133.93,150.974 C134.32,150.948 134.684,150.922 135.018,150.922 C137.74,150.922 139.034,151.854 139.034,153.926 C139.034,156.596 137.09,158.228 133.49,158.228 C133.178,158.228 132.868,158.228 132.532,158.202" fill="#000000" id="Layer_1"/>
      <g>
        <path d="M13.818,124.774 L45.954,124.774" fill-opacity="0" stroke="#000000" stroke-width="1.5" stroke-linejoin="round"/>
        <g>
          <path d="M45.954,129.274 L57.954,124.774 L45.954,120.274 z" fill="#000000"/>
          <path d="M45.954,129.274 L57.954,124.774 L45.954,120.274 z" fill-opacity="0" stroke="#000000" stroke-width="1.5"/>
        </g>
      </g>
      <g id="Layer_1">
        <path d="M20.3,95.456 L17.452,100.378 L18.878,100.378 L21.13,96.726 L23.41,100.378 L24.81,100.378 L21.96,95.456 L20.3,95.456" fill="#000000"/>
        <path d="M18.232,119.472 L18.776,119.472 C18.776,115.406 15.772,111.934 15.772,107.894 C15.772,104.966 17.872,103.074 21.082,103.074 C24.296,103.074 26.394,104.966 26.394,107.894 C26.394,111.934 23.388,115.406 23.388,119.472 L29.346,119.472 L29.346,115.248 L27.998,115.248 L27.636,117.478 L27.506,117.606 L24.762,117.606 C25.746,114.238 29.06,111.546 29.06,107.894 C29.06,104.266 25.746,101.676 21.082,101.676 C16.42,101.676 13.104,104.266 13.104,107.894 C13.104,111.546 16.42,114.238 17.406,117.606 L14.658,117.606 L14.53,117.478 L14.166,115.248 L12.818,115.248 L12.818,119.472 L18.232,119.472" fill="#000000"/>
      </g>
      <path d="M13.818,144.396 L242.403,98.298" fill-opacity="0" stroke="#000000" stroke-width="2" stroke-linejoin="round"/>
      <path d="M13.818,144.396 L207.125,196.915" fill-opacity="0" stroke="#000000" stroke-width="2" stroke-linejoin="round"/>
      <path d="M210.081,104.316 C216.347,134.988 215.333,166.704 207.125,196.915" fill-opacity="0" stroke="#010101" stroke-width="10" stroke-opacity="0.569" stroke-linejoin="round"/>
    </g>
    <path d="M274,186.757 L693,186.757 C699.627,186.757 705,192.129 705,198.757 L705,289.757 C705,296.384 699.627,301.757 693,301.757 L274,301.757 C267.373,301.757 262,296.384 262,289.757 L262,198.757 C262,192.129 267.373,186.757 274,186.757 z" fill-opacity="0" stroke="#000000" stroke-width="3"/>
  </g>
</svg>
